%TF.GenerationSoftware,KiCad,Pcbnew,9.0.3*%
%TF.CreationDate,2026-03-01T17:18:48-06:00*%
%TF.ProjectId,Main,4d61696e-2e6b-4696-9361-645f70636258,rev?*%
%TF.SameCoordinates,Original*%
%TF.FileFunction,Copper,L3,Inr*%
%TF.FilePolarity,Positive*%
%FSLAX46Y46*%
G04 Gerber Fmt 4.6, Leading zero omitted, Abs format (unit mm)*
G04 Created by KiCad (PCBNEW 9.0.3) date 2026-03-01 17:18:48*
%MOMM*%
%LPD*%
G01*
G04 APERTURE LIST*
G04 Aperture macros list*
%AMRoundRect*
0 Rectangle with rounded corners*
0 $1 Rounding radius*
0 $2 $3 $4 $5 $6 $7 $8 $9 X,Y pos of 4 corners*
0 Add a 4 corners polygon primitive as box body*
4,1,4,$2,$3,$4,$5,$6,$7,$8,$9,$2,$3,0*
0 Add four circle primitives for the rounded corners*
1,1,$1+$1,$2,$3*
1,1,$1+$1,$4,$5*
1,1,$1+$1,$6,$7*
1,1,$1+$1,$8,$9*
0 Add four rect primitives between the rounded corners*
20,1,$1+$1,$2,$3,$4,$5,0*
20,1,$1+$1,$4,$5,$6,$7,0*
20,1,$1+$1,$6,$7,$8,$9,0*
20,1,$1+$1,$8,$9,$2,$3,0*%
G04 Aperture macros list end*
%TA.AperFunction,ComponentPad*%
%ADD10C,4.000000*%
%TD*%
%TA.AperFunction,HeatsinkPad*%
%ADD11O,0.900000X1.600000*%
%TD*%
%TA.AperFunction,ComponentPad*%
%ADD12RoundRect,1.500000X1.500000X-1.500000X1.500000X1.500000X-1.500000X1.500000X-1.500000X-1.500000X0*%
%TD*%
%TA.AperFunction,ComponentPad*%
%ADD13C,6.000000*%
%TD*%
%TA.AperFunction,ComponentPad*%
%ADD14R,1.700000X1.700000*%
%TD*%
%TA.AperFunction,ComponentPad*%
%ADD15C,1.700000*%
%TD*%
%TA.AperFunction,ViaPad*%
%ADD16C,0.600000*%
%TD*%
%TA.AperFunction,ViaPad*%
%ADD17C,0.700000*%
%TD*%
G04 APERTURE END LIST*
D10*
%TO.N,GND*%
%TO.C,H1*%
X75000000Y-75000000D03*
%TD*%
%TO.N,GND*%
%TO.C,H2*%
X125000000Y-75000000D03*
%TD*%
%TO.N,GND*%
%TO.C,H3*%
X75000000Y-125000000D03*
%TD*%
%TO.N,GND*%
%TO.C,H4*%
X125000000Y-125000000D03*
%TD*%
D11*
%TO.N,GND*%
%TO.C,J1*%
X96700000Y-133900000D03*
X103300000Y-133900000D03*
%TD*%
D12*
%TO.N,GND*%
%TO.C,J2*%
X85000000Y-129000000D03*
D13*
%TO.N,Net-(J2-Pin_2)*%
X85000000Y-121800000D03*
%TD*%
D14*
%TO.N,PWM4*%
%TO.C,J5*%
X88460000Y-82000000D03*
D15*
%TO.N,current -4*%
X88460000Y-79460000D03*
%TO.N,GND*%
X88460000Y-76920000D03*
%TD*%
D14*
%TO.N,PWM1*%
%TO.C,J3*%
X111540000Y-82000000D03*
D15*
%TO.N,current -1*%
X111540000Y-79460000D03*
%TO.N,GND*%
X111540000Y-76920000D03*
%TD*%
D14*
%TO.N,PWM3*%
%TO.C,J6*%
X92000000Y-82000000D03*
D15*
%TO.N,current -3*%
X92000000Y-79460000D03*
%TO.N,GND*%
X92000000Y-76920000D03*
%TD*%
D14*
%TO.N,GND*%
%TO.C,J9*%
X118000000Y-116000000D03*
D15*
%TO.N,Net-(J9-Pin_2)*%
X115460000Y-116000000D03*
%TO.N,Net-(J9-Pin_3)*%
X112920000Y-116000000D03*
%TD*%
D14*
%TO.N,PWM2*%
%TO.C,J4*%
X108000000Y-82000000D03*
D15*
%TO.N,current -2*%
X108000000Y-79460000D03*
%TO.N,GND*%
X108000000Y-76920000D03*
%TD*%
D16*
%TO.N,+3.3V*%
X102350000Y-121260000D03*
X103800000Y-121260000D03*
%TO.N,LED2*%
X92312015Y-111050266D03*
X110550000Y-117700000D03*
%TO.N,LED1*%
X92350000Y-108950000D03*
X97300000Y-96400000D03*
%TO.N,+3.3V*%
X91510000Y-104360000D03*
%TO.N,SD_CD*%
X106650000Y-111850000D03*
%TO.N,INT2{slash}DRDY*%
X114200000Y-99800000D03*
X112900000Y-96900000D03*
%TO.N,SPI_SCLK2*%
X104550000Y-109850000D03*
%TO.N,SPI_SDI2*%
X100500000Y-103100000D03*
%TO.N,SD_ChipSelect*%
X103250000Y-109650000D03*
%TO.N,SPI_SDO2*%
X100050000Y-103650000D03*
%TO.N,PWM4*%
X98650000Y-97800000D03*
%TO.N,PWM3*%
X99399608Y-97226621D03*
%TO.N,PWM2*%
X100200000Y-96700000D03*
%TO.N,PWM1*%
X102625000Y-91325000D03*
%TO.N,+3.3V*%
X101500000Y-93700000D03*
%TO.N,GND*%
X126800000Y-103000000D03*
X123300000Y-108800000D03*
%TO.N,+3.3V*%
X123250000Y-109750000D03*
%TO.N,MS5611_CS*%
X116651817Y-105807662D03*
X109800000Y-101500000D03*
%TO.N,MMC_CS*%
X125575000Y-100675000D03*
X122000000Y-99950000D03*
X120650000Y-99150000D03*
X113250000Y-99250000D03*
%TO.N,+3.3V*%
X123200000Y-99300000D03*
%TO.N,SPI_SCK*%
X123650000Y-101350000D03*
X115650000Y-101700000D03*
X114525000Y-102825000D03*
X118550000Y-99200000D03*
X118050000Y-109850000D03*
%TO.N,SPI_SDI*%
X118000000Y-108500000D03*
X120000000Y-92000000D03*
X122950000Y-100750000D03*
X116500000Y-102050000D03*
%TO.N,+3.3V*%
X103450000Y-100100000D03*
X105850000Y-97850000D03*
%TO.N,GND*%
X106700000Y-105000000D03*
X105250000Y-106400000D03*
X118000000Y-93250000D03*
%TO.N,+3.3V*%
X118013173Y-91244410D03*
X122750000Y-92750000D03*
%TO.N,GND*%
X122000000Y-91000000D03*
%TO.N,+3.3V*%
X124050000Y-104050000D03*
%TO.N,GND*%
X126000000Y-98250000D03*
X124250000Y-98000000D03*
%TO.N,+3.3V*%
X117750000Y-100250000D03*
X117500000Y-97250000D03*
%TO.N,GND*%
X116500000Y-97250000D03*
X115750000Y-97250000D03*
%TO.N,+3.3V*%
X114750000Y-97250000D03*
X82000000Y-102600000D03*
X92350000Y-99600000D03*
D17*
X101050000Y-116250000D03*
D16*
X82350000Y-111700000D03*
X81800000Y-97750000D03*
X92250000Y-107000000D03*
X95550000Y-93250000D03*
X96975000Y-107975000D03*
X93450000Y-98550000D03*
X100000000Y-86200000D03*
X81800000Y-96800000D03*
X118400000Y-85800000D03*
X100150000Y-105350000D03*
X75500000Y-112200000D03*
X85400000Y-85800000D03*
X81750000Y-89500000D03*
X82000000Y-101850000D03*
X104900000Y-85800000D03*
X91050000Y-102500000D03*
%TO.N,GND*%
X108500000Y-117750000D03*
X100000000Y-100000000D03*
D17*
X103250000Y-116250000D03*
X93750000Y-101550000D03*
D16*
X99000000Y-100000000D03*
X80350000Y-93100000D03*
X72800000Y-104750000D03*
X104750000Y-94500000D03*
X86000000Y-111000000D03*
X98100000Y-111750000D03*
X64100000Y-101800000D03*
D17*
X94500000Y-100850000D03*
D16*
X94825000Y-93925000D03*
X100000000Y-84000000D03*
X91750000Y-125000000D03*
X112050000Y-131750000D03*
X101000000Y-100000000D03*
X101975000Y-107175000D03*
X81650000Y-85900000D03*
X115125000Y-132625000D03*
X80325000Y-91825000D03*
X115550000Y-132000000D03*
X93250000Y-117250000D03*
X76599000Y-110849000D03*
X95100000Y-85900000D03*
X107750000Y-129750000D03*
X84900000Y-100550000D03*
X107750000Y-92250000D03*
X106100000Y-83450000D03*
X95950000Y-108100000D03*
X102250000Y-125000000D03*
X64100000Y-101050000D03*
X108750000Y-92500000D03*
X108000000Y-97000000D03*
X102700000Y-106450000D03*
X100000000Y-99000000D03*
X64100000Y-102500000D03*
X86000000Y-109000000D03*
X120000000Y-83600000D03*
X103000000Y-93000000D03*
X92250000Y-126500000D03*
X101100000Y-86000000D03*
X89550000Y-96800000D03*
X91500000Y-96600000D03*
X80925000Y-91125000D03*
X78000000Y-109448000D03*
X114595000Y-85895000D03*
X78050000Y-100500000D03*
X84750000Y-97350000D03*
X109500000Y-93000000D03*
X72550000Y-93100000D03*
X92311522Y-95988478D03*
X86600000Y-83400000D03*
X78060000Y-99510000D03*
X83800000Y-96600000D03*
X86000000Y-107000000D03*
X78075000Y-106525000D03*
X110000000Y-98000000D03*
X94050000Y-99450000D03*
X108500000Y-97500000D03*
X112125000Y-132375000D03*
D17*
X103250000Y-119250000D03*
D16*
X100000000Y-101000000D03*
%TO.N,VBUS*%
X117500000Y-131750000D03*
X98250000Y-130000000D03*
X98187500Y-130812500D03*
X118500000Y-129750000D03*
X98250000Y-131750000D03*
X118500000Y-131750000D03*
X99000000Y-132500000D03*
X118500000Y-130750000D03*
X98250000Y-132500000D03*
%TO.N,SDA*%
X72375000Y-89275000D03*
X98625000Y-95000000D03*
X76812500Y-106487500D03*
%TO.N,SCL*%
X98075000Y-95450000D03*
X72475000Y-90575000D03*
X76000000Y-106500000D03*
%TO.N,Net-(U1-RUN)*%
X101000000Y-97250000D03*
X98500000Y-123000000D03*
%TO.N,Net-(J9-Pin_3)*%
X102750000Y-96400000D03*
%TO.N,Net-(J9-Pin_2)*%
X102149753Y-96039852D03*
%TO.N,VIN*%
X100000000Y-80000000D03*
D17*
X73350000Y-114050000D03*
D16*
X80200000Y-78900000D03*
D17*
X73350000Y-115600000D03*
D16*
X100000000Y-79000000D03*
X65750000Y-105650000D03*
X64200000Y-105650000D03*
X119800000Y-77900000D03*
X81550000Y-77900000D03*
X101000000Y-78000000D03*
X97750000Y-78000000D03*
X82850000Y-77900000D03*
X80200000Y-79850000D03*
X67500000Y-105650000D03*
D17*
X74150000Y-115600000D03*
D16*
X117150000Y-77900000D03*
D17*
X73350000Y-114800000D03*
D16*
X64200000Y-104500000D03*
X67500000Y-104500000D03*
D17*
X74150000Y-114800000D03*
D16*
X118450000Y-77900000D03*
X102250000Y-78000000D03*
D17*
X75000000Y-113700000D03*
D16*
X99000000Y-78000000D03*
X119800000Y-79850000D03*
X119800000Y-78900000D03*
X100000000Y-78000000D03*
D17*
X75900000Y-113700000D03*
D16*
X80200000Y-77900000D03*
D17*
X74150000Y-114050000D03*
%TO.N,Net-(J7-DAT2)*%
X98625000Y-120125000D03*
%TO.N,SPI_SDO2*%
X104500000Y-119500000D03*
%TO.N,SPI_SDI2*%
X100500000Y-119500000D03*
%TO.N,SPI_SCLK2*%
X101750000Y-119500000D03*
%TO.N,Net-(J7-DAT1)*%
X105500000Y-119500000D03*
%TO.N,SD_CD*%
X106550000Y-119450000D03*
D16*
%TO.N,3.3v_usb*%
X115000000Y-123500000D03*
X115000000Y-125000000D03*
X79800000Y-103050000D03*
X115000000Y-126500000D03*
X81000000Y-103050000D03*
X80400000Y-103050000D03*
%TO.N,SPI_SDI*%
X111300000Y-102000000D03*
%TD*%
%TA.AperFunction,Conductor*%
%TO.N,VIN*%
G36*
X121642635Y-74819906D02*
G01*
X121688594Y-74872532D01*
X121700000Y-74924480D01*
X121700000Y-80850009D01*
X121747420Y-83173628D01*
X121729108Y-83241055D01*
X121677248Y-83287878D01*
X121623601Y-83300158D01*
X120460947Y-83301616D01*
X120393883Y-83282015D01*
X120373111Y-83265297D01*
X120307316Y-83199502D01*
X120307314Y-83199500D01*
X120250250Y-83166554D01*
X120193187Y-83133608D01*
X120129539Y-83116554D01*
X120065892Y-83099500D01*
X119934108Y-83099500D01*
X119806812Y-83133608D01*
X119692686Y-83199500D01*
X119625730Y-83266456D01*
X119564406Y-83299940D01*
X119538205Y-83302774D01*
X106673993Y-83318915D01*
X106606928Y-83299314D01*
X106566450Y-83256915D01*
X106564159Y-83252947D01*
X106500500Y-83142686D01*
X106407314Y-83049500D01*
X106350250Y-83016554D01*
X106293187Y-82983608D01*
X106229539Y-82966554D01*
X106165892Y-82949500D01*
X106034108Y-82949500D01*
X105906812Y-82983608D01*
X105792686Y-83049500D01*
X105792683Y-83049502D01*
X105699502Y-83142683D01*
X105699495Y-83142692D01*
X105632715Y-83258357D01*
X105582148Y-83306572D01*
X105525485Y-83320356D01*
X87198281Y-83343351D01*
X87131216Y-83323750D01*
X87085395Y-83271004D01*
X87078350Y-83251444D01*
X87066392Y-83206814D01*
X87000500Y-83092686D01*
X86907314Y-82999500D01*
X86820712Y-82949500D01*
X86793187Y-82933608D01*
X86729539Y-82916554D01*
X86665892Y-82899500D01*
X86534108Y-82899500D01*
X86406812Y-82933608D01*
X86292686Y-82999500D01*
X86292683Y-82999502D01*
X86199502Y-83092683D01*
X86199500Y-83092686D01*
X86133607Y-83206814D01*
X86121246Y-83252947D01*
X86084881Y-83312607D01*
X86022034Y-83343135D01*
X86001628Y-83344852D01*
X81900000Y-83350000D01*
X77119943Y-87228160D01*
X76599999Y-87650001D01*
X76527166Y-100140949D01*
X76522037Y-100175526D01*
X76502079Y-100242732D01*
X76502077Y-100242738D01*
X76502076Y-100242744D01*
X76499147Y-100262678D01*
X76493573Y-100300618D01*
X76489828Y-101518289D01*
X76489828Y-101518290D01*
X76476307Y-105911972D01*
X76476308Y-105911987D01*
X76480935Y-105955987D01*
X76480938Y-105956004D01*
X76482026Y-105961042D01*
X76476931Y-106030726D01*
X76434971Y-106086593D01*
X76369468Y-106110906D01*
X76301218Y-106095946D01*
X76298868Y-106094624D01*
X76220712Y-106049500D01*
X76193187Y-106033608D01*
X76129539Y-106016554D01*
X76065892Y-105999500D01*
X75934108Y-105999500D01*
X75806812Y-106033608D01*
X75692686Y-106099500D01*
X75692683Y-106099502D01*
X75599502Y-106192683D01*
X75599500Y-106192686D01*
X75533608Y-106306812D01*
X75499500Y-106434108D01*
X75499500Y-106565891D01*
X75533608Y-106693187D01*
X75566554Y-106750250D01*
X75599500Y-106807314D01*
X75692686Y-106900500D01*
X75806814Y-106966392D01*
X75934108Y-107000500D01*
X75934110Y-107000500D01*
X76065890Y-107000500D01*
X76065892Y-107000500D01*
X76193186Y-106966392D01*
X76291939Y-106909376D01*
X76359837Y-106892904D01*
X76425864Y-106915756D01*
X76469055Y-106970677D01*
X76476621Y-107034788D01*
X76472772Y-107060983D01*
X76465613Y-109388059D01*
X76465528Y-109415746D01*
X76465528Y-109415747D01*
X76462871Y-110278455D01*
X76442980Y-110345433D01*
X76400873Y-110385460D01*
X76291686Y-110448500D01*
X76291683Y-110448502D01*
X76198502Y-110541683D01*
X76198500Y-110541686D01*
X76132608Y-110655812D01*
X76098500Y-110783108D01*
X76098500Y-110914891D01*
X76132608Y-111042187D01*
X76165554Y-111099250D01*
X76198500Y-111156314D01*
X76291686Y-111249500D01*
X76397367Y-111310515D01*
X76445581Y-111361081D01*
X76459365Y-111418283D01*
X76445511Y-115920882D01*
X76425621Y-115987860D01*
X76372676Y-116033452D01*
X76321512Y-116044500D01*
X66289482Y-116044500D01*
X66258217Y-116046895D01*
X66258213Y-116046895D01*
X66258208Y-116046896D01*
X66230221Y-116051207D01*
X66220892Y-116052644D01*
X66139625Y-116084356D01*
X66070016Y-116090388D01*
X66008196Y-116057829D01*
X65982811Y-116022602D01*
X65848706Y-115743887D01*
X65847048Y-115740296D01*
X65551259Y-115071769D01*
X65363786Y-114648051D01*
X65362244Y-114644411D01*
X64914050Y-113537264D01*
X64912624Y-113533574D01*
X64499970Y-112412683D01*
X64498663Y-112408949D01*
X64417620Y-112165087D01*
X64407325Y-112134108D01*
X74999500Y-112134108D01*
X74999500Y-112265891D01*
X75033608Y-112393187D01*
X75066554Y-112450250D01*
X75099500Y-112507314D01*
X75192686Y-112600500D01*
X75306814Y-112666392D01*
X75434108Y-112700500D01*
X75434110Y-112700500D01*
X75565890Y-112700500D01*
X75565892Y-112700500D01*
X75693186Y-112666392D01*
X75807314Y-112600500D01*
X75900500Y-112507314D01*
X75966392Y-112393186D01*
X76000500Y-112265892D01*
X76000500Y-112134108D01*
X75966392Y-112006814D01*
X75900500Y-111892686D01*
X75807314Y-111799500D01*
X75749103Y-111765892D01*
X75693187Y-111733608D01*
X75629539Y-111716554D01*
X75565892Y-111699500D01*
X75434108Y-111699500D01*
X75306812Y-111733608D01*
X75192686Y-111799500D01*
X75192683Y-111799502D01*
X75099502Y-111892683D01*
X75099500Y-111892686D01*
X75033608Y-112006812D01*
X74999500Y-112134108D01*
X64407325Y-112134108D01*
X64327092Y-111892683D01*
X64121979Y-111275490D01*
X64120799Y-111271742D01*
X64114187Y-111249500D01*
X63780443Y-110126780D01*
X63779383Y-110122992D01*
X63777648Y-110116392D01*
X63475742Y-108967836D01*
X63474802Y-108964014D01*
X63438914Y-108807314D01*
X63233206Y-107909108D01*
X63208152Y-107799712D01*
X63207331Y-107795843D01*
X63072951Y-107109108D01*
X62977953Y-106623632D01*
X62977272Y-106619832D01*
X62785394Y-105440845D01*
X62784825Y-105436953D01*
X62782084Y-105415892D01*
X62686835Y-104684108D01*
X72299500Y-104684108D01*
X72299500Y-104815892D01*
X72308505Y-104849500D01*
X72333608Y-104943187D01*
X72366554Y-105000250D01*
X72399500Y-105057314D01*
X72492686Y-105150500D01*
X72606814Y-105216392D01*
X72734108Y-105250500D01*
X72734110Y-105250500D01*
X72865890Y-105250500D01*
X72865892Y-105250500D01*
X72993186Y-105216392D01*
X73107314Y-105150500D01*
X73200500Y-105057314D01*
X73266392Y-104943186D01*
X73300500Y-104815892D01*
X73300500Y-104684108D01*
X73266392Y-104556814D01*
X73200500Y-104442686D01*
X73107314Y-104349500D01*
X73050250Y-104316554D01*
X72993187Y-104283608D01*
X72877196Y-104252529D01*
X72865892Y-104249500D01*
X72734108Y-104249500D01*
X72606812Y-104283608D01*
X72492686Y-104349500D01*
X72492683Y-104349502D01*
X72399502Y-104442683D01*
X72399500Y-104442686D01*
X72333608Y-104556812D01*
X72322170Y-104599500D01*
X72299500Y-104684108D01*
X62686835Y-104684108D01*
X62630659Y-104252513D01*
X62630213Y-104248598D01*
X62513903Y-103059807D01*
X62513588Y-103055949D01*
X62435253Y-101864005D01*
X62435064Y-101860219D01*
X62405508Y-100984108D01*
X63599500Y-100984108D01*
X63599500Y-101115892D01*
X63621902Y-101199500D01*
X63633609Y-101243188D01*
X63633609Y-101243189D01*
X63702782Y-101363000D01*
X63719255Y-101430900D01*
X63702782Y-101487000D01*
X63633609Y-101606810D01*
X63633609Y-101606811D01*
X63633609Y-101606812D01*
X63633608Y-101606814D01*
X63599500Y-101734108D01*
X63599500Y-101865892D01*
X63617778Y-101934108D01*
X63633609Y-101993188D01*
X63633609Y-101993189D01*
X63688348Y-102088000D01*
X63704821Y-102155900D01*
X63688348Y-102212000D01*
X63633609Y-102306810D01*
X63633609Y-102306811D01*
X63599500Y-102434108D01*
X63599500Y-102565891D01*
X63633608Y-102693187D01*
X63637253Y-102699500D01*
X63699500Y-102807314D01*
X63792686Y-102900500D01*
X63906814Y-102966392D01*
X64034108Y-103000500D01*
X64034110Y-103000500D01*
X64165890Y-103000500D01*
X64165892Y-103000500D01*
X64293186Y-102966392D01*
X64407314Y-102900500D01*
X64500500Y-102807314D01*
X64566392Y-102693186D01*
X64600500Y-102565892D01*
X64600500Y-102434108D01*
X64566392Y-102306814D01*
X64511650Y-102211999D01*
X64495178Y-102144100D01*
X64511650Y-102088000D01*
X64566392Y-101993186D01*
X64600500Y-101865892D01*
X64600500Y-101734108D01*
X64566392Y-101606814D01*
X64500500Y-101492686D01*
X64500498Y-101492684D01*
X64497217Y-101487001D01*
X64480744Y-101419101D01*
X64497217Y-101362999D01*
X64500498Y-101357315D01*
X64500500Y-101357314D01*
X64566392Y-101243186D01*
X64600500Y-101115892D01*
X64600500Y-100984108D01*
X64566392Y-100856814D01*
X64500500Y-100742686D01*
X64407314Y-100649500D01*
X64320712Y-100599500D01*
X64293187Y-100583608D01*
X64228934Y-100566392D01*
X64165892Y-100549500D01*
X64034108Y-100549500D01*
X63906812Y-100583608D01*
X63792686Y-100649500D01*
X63792683Y-100649502D01*
X63699502Y-100742683D01*
X63699500Y-100742686D01*
X63633608Y-100856812D01*
X63616014Y-100922475D01*
X63599500Y-100984108D01*
X62405508Y-100984108D01*
X62394789Y-100666377D01*
X62394719Y-100662450D01*
X62392545Y-99467972D01*
X62392600Y-99464092D01*
X62428527Y-98270150D01*
X62428706Y-98266263D01*
X62502699Y-97074076D01*
X62503002Y-97070194D01*
X62614987Y-95880957D01*
X62615412Y-95877103D01*
X62765272Y-94692050D01*
X62765820Y-94688214D01*
X62953400Y-93508562D01*
X62954072Y-93504733D01*
X63044385Y-93034108D01*
X72049500Y-93034108D01*
X72049500Y-93165891D01*
X72083608Y-93293187D01*
X72096717Y-93315892D01*
X72149500Y-93407314D01*
X72242686Y-93500500D01*
X72356814Y-93566392D01*
X72484108Y-93600500D01*
X72484110Y-93600500D01*
X72615890Y-93600500D01*
X72615892Y-93600500D01*
X72743186Y-93566392D01*
X72857314Y-93500500D01*
X72950500Y-93407314D01*
X73016392Y-93293186D01*
X73050500Y-93165892D01*
X73050500Y-93034108D01*
X73016392Y-92906814D01*
X72950500Y-92792686D01*
X72857314Y-92699500D01*
X72772444Y-92650500D01*
X72743187Y-92633608D01*
X72679539Y-92616554D01*
X72615892Y-92599500D01*
X72484108Y-92599500D01*
X72356812Y-92633608D01*
X72242686Y-92699500D01*
X72242683Y-92699502D01*
X72149502Y-92792683D01*
X72149500Y-92792686D01*
X72083608Y-92906812D01*
X72049500Y-93034108D01*
X63044385Y-93034108D01*
X63179185Y-92331662D01*
X63179987Y-92327817D01*
X63182649Y-92315998D01*
X63442404Y-91162521D01*
X63443320Y-91158740D01*
X63611554Y-90509108D01*
X71974500Y-90509108D01*
X71974500Y-90640891D01*
X72008608Y-90768187D01*
X72030910Y-90806814D01*
X72074500Y-90882314D01*
X72167686Y-90975500D01*
X72281814Y-91041392D01*
X72409108Y-91075500D01*
X72409110Y-91075500D01*
X72540890Y-91075500D01*
X72540892Y-91075500D01*
X72668186Y-91041392D01*
X72782314Y-90975500D01*
X72875500Y-90882314D01*
X72941392Y-90768186D01*
X72975500Y-90640892D01*
X72975500Y-90509108D01*
X72941392Y-90381814D01*
X72875500Y-90267686D01*
X72782314Y-90174500D01*
X72725250Y-90141554D01*
X72668187Y-90108608D01*
X72604539Y-90091554D01*
X72540892Y-90074500D01*
X72409108Y-90074500D01*
X72281812Y-90108608D01*
X72167686Y-90174500D01*
X72167683Y-90174502D01*
X72074502Y-90267683D01*
X72074500Y-90267686D01*
X72008608Y-90381812D01*
X71974500Y-90509108D01*
X63611554Y-90509108D01*
X63742784Y-90002368D01*
X63743799Y-89998694D01*
X63975390Y-89209108D01*
X71874500Y-89209108D01*
X71874500Y-89340891D01*
X71908608Y-89468187D01*
X71941554Y-89525250D01*
X71974500Y-89582314D01*
X72067686Y-89675500D01*
X72181814Y-89741392D01*
X72309108Y-89775500D01*
X72309110Y-89775500D01*
X72440890Y-89775500D01*
X72440892Y-89775500D01*
X72568186Y-89741392D01*
X72682314Y-89675500D01*
X72775500Y-89582314D01*
X72841392Y-89468186D01*
X72875500Y-89340892D01*
X72875500Y-89209108D01*
X72841392Y-89081814D01*
X72775500Y-88967686D01*
X72682314Y-88874500D01*
X72606532Y-88830747D01*
X72568187Y-88808608D01*
X72504539Y-88791554D01*
X72440892Y-88774500D01*
X72309108Y-88774500D01*
X72181812Y-88808608D01*
X72067686Y-88874500D01*
X72067683Y-88874502D01*
X71974502Y-88967683D01*
X71974500Y-88967686D01*
X71908608Y-89081812D01*
X71874500Y-89209108D01*
X63975390Y-89209108D01*
X64079996Y-88852464D01*
X64081136Y-88848792D01*
X64453729Y-87713850D01*
X64454992Y-87710200D01*
X64863579Y-86587772D01*
X64864982Y-86584103D01*
X65309173Y-85475255D01*
X65310651Y-85471730D01*
X65789986Y-84377613D01*
X65791599Y-84374086D01*
X66305579Y-83295837D01*
X66307272Y-83292423D01*
X66855449Y-82230993D01*
X66857227Y-82227681D01*
X67438960Y-81184312D01*
X67440886Y-81180986D01*
X67471337Y-81130247D01*
X87409500Y-81130247D01*
X87409500Y-82869752D01*
X87421131Y-82928229D01*
X87421132Y-82928230D01*
X87465447Y-82994552D01*
X87531769Y-83038867D01*
X87531770Y-83038868D01*
X87590247Y-83050499D01*
X87590250Y-83050500D01*
X87590252Y-83050500D01*
X89329750Y-83050500D01*
X89329751Y-83050499D01*
X89344568Y-83047552D01*
X89388229Y-83038868D01*
X89388229Y-83038867D01*
X89388231Y-83038867D01*
X89454552Y-82994552D01*
X89498867Y-82928231D01*
X89498867Y-82928229D01*
X89498868Y-82928229D01*
X89510499Y-82869752D01*
X89510500Y-82869750D01*
X89510500Y-81130249D01*
X89510499Y-81130247D01*
X90949500Y-81130247D01*
X90949500Y-82869752D01*
X90961131Y-82928229D01*
X90961132Y-82928230D01*
X91005447Y-82994552D01*
X91071769Y-83038867D01*
X91071770Y-83038868D01*
X91130247Y-83050499D01*
X91130250Y-83050500D01*
X91130252Y-83050500D01*
X92869750Y-83050500D01*
X92869751Y-83050499D01*
X92884568Y-83047552D01*
X92928229Y-83038868D01*
X92928229Y-83038867D01*
X92928231Y-83038867D01*
X92994552Y-82994552D01*
X93038867Y-82928231D01*
X93038867Y-82928229D01*
X93038868Y-82928229D01*
X93050499Y-82869752D01*
X93050500Y-82869750D01*
X93050500Y-81130249D01*
X93050499Y-81130247D01*
X106949500Y-81130247D01*
X106949500Y-82869752D01*
X106961131Y-82928229D01*
X106961132Y-82928230D01*
X107005447Y-82994552D01*
X107071769Y-83038867D01*
X107071770Y-83038868D01*
X107130247Y-83050499D01*
X107130250Y-83050500D01*
X107130252Y-83050500D01*
X108869750Y-83050500D01*
X108869751Y-83050499D01*
X108884568Y-83047552D01*
X108928229Y-83038868D01*
X108928229Y-83038867D01*
X108928231Y-83038867D01*
X108994552Y-82994552D01*
X109038867Y-82928231D01*
X109038867Y-82928229D01*
X109038868Y-82928229D01*
X109050499Y-82869752D01*
X109050500Y-82869750D01*
X109050500Y-81130249D01*
X109050499Y-81130247D01*
X110489500Y-81130247D01*
X110489500Y-82869752D01*
X110501131Y-82928229D01*
X110501132Y-82928230D01*
X110545447Y-82994552D01*
X110611769Y-83038867D01*
X110611770Y-83038868D01*
X110670247Y-83050499D01*
X110670250Y-83050500D01*
X110670252Y-83050500D01*
X112409750Y-83050500D01*
X112409751Y-83050499D01*
X112424568Y-83047552D01*
X112468229Y-83038868D01*
X112468229Y-83038867D01*
X112468231Y-83038867D01*
X112534552Y-82994552D01*
X112578867Y-82928231D01*
X112578867Y-82928229D01*
X112578868Y-82928229D01*
X112590499Y-82869752D01*
X112590500Y-82869750D01*
X112590500Y-81130249D01*
X112590499Y-81130247D01*
X112578868Y-81071770D01*
X112578867Y-81071769D01*
X112534552Y-81005447D01*
X112468230Y-80961132D01*
X112468229Y-80961131D01*
X112409752Y-80949500D01*
X112409748Y-80949500D01*
X110670252Y-80949500D01*
X110670247Y-80949500D01*
X110611770Y-80961131D01*
X110611769Y-80961132D01*
X110545447Y-81005447D01*
X110501132Y-81071769D01*
X110501131Y-81071770D01*
X110489500Y-81130247D01*
X109050499Y-81130247D01*
X109038868Y-81071770D01*
X109038867Y-81071769D01*
X108994552Y-81005447D01*
X108928230Y-80961132D01*
X108928229Y-80961131D01*
X108869752Y-80949500D01*
X108869748Y-80949500D01*
X107130252Y-80949500D01*
X107130247Y-80949500D01*
X107071770Y-80961131D01*
X107071769Y-80961132D01*
X107005447Y-81005447D01*
X106961132Y-81071769D01*
X106961131Y-81071770D01*
X106949500Y-81130247D01*
X93050499Y-81130247D01*
X93038868Y-81071770D01*
X93038867Y-81071769D01*
X92994552Y-81005447D01*
X92928230Y-80961132D01*
X92928229Y-80961131D01*
X92869752Y-80949500D01*
X92869748Y-80949500D01*
X91130252Y-80949500D01*
X91130247Y-80949500D01*
X91071770Y-80961131D01*
X91071769Y-80961132D01*
X91005447Y-81005447D01*
X90961132Y-81071769D01*
X90961131Y-81071770D01*
X90949500Y-81130247D01*
X89510499Y-81130247D01*
X89498868Y-81071770D01*
X89498867Y-81071769D01*
X89454552Y-81005447D01*
X89388230Y-80961132D01*
X89388229Y-80961131D01*
X89329752Y-80949500D01*
X89329748Y-80949500D01*
X87590252Y-80949500D01*
X87590247Y-80949500D01*
X87531770Y-80961131D01*
X87531769Y-80961132D01*
X87465447Y-81005447D01*
X87421132Y-81071769D01*
X87421131Y-81071770D01*
X87409500Y-81130247D01*
X67471337Y-81130247D01*
X68055546Y-80156801D01*
X68057604Y-80153492D01*
X68571168Y-79356530D01*
X87409500Y-79356530D01*
X87409500Y-79563469D01*
X87449868Y-79766412D01*
X87449870Y-79766420D01*
X87529058Y-79957596D01*
X87644024Y-80129657D01*
X87790342Y-80275975D01*
X87790345Y-80275977D01*
X87962402Y-80390941D01*
X88153580Y-80470130D01*
X88356530Y-80510499D01*
X88356534Y-80510500D01*
X88356535Y-80510500D01*
X88563466Y-80510500D01*
X88563467Y-80510499D01*
X88766420Y-80470130D01*
X88957598Y-80390941D01*
X89129655Y-80275977D01*
X89275977Y-80129655D01*
X89390941Y-79957598D01*
X89470130Y-79766420D01*
X89510500Y-79563465D01*
X89510500Y-79356535D01*
X89510499Y-79356530D01*
X90949500Y-79356530D01*
X90949500Y-79563469D01*
X90989868Y-79766412D01*
X90989870Y-79766420D01*
X91069058Y-79957596D01*
X91184024Y-80129657D01*
X91330342Y-80275975D01*
X91330345Y-80275977D01*
X91502402Y-80390941D01*
X91693580Y-80470130D01*
X91896530Y-80510499D01*
X91896534Y-80510500D01*
X91896535Y-80510500D01*
X92103466Y-80510500D01*
X92103467Y-80510499D01*
X92306420Y-80470130D01*
X92497598Y-80390941D01*
X92669655Y-80275977D01*
X92815977Y-80129655D01*
X92930941Y-79957598D01*
X93010130Y-79766420D01*
X93050500Y-79563465D01*
X93050500Y-79356535D01*
X93050499Y-79356530D01*
X106949500Y-79356530D01*
X106949500Y-79563469D01*
X106989868Y-79766412D01*
X106989870Y-79766420D01*
X107069058Y-79957596D01*
X107184024Y-80129657D01*
X107330342Y-80275975D01*
X107330345Y-80275977D01*
X107502402Y-80390941D01*
X107693580Y-80470130D01*
X107896530Y-80510499D01*
X107896534Y-80510500D01*
X107896535Y-80510500D01*
X108103466Y-80510500D01*
X108103467Y-80510499D01*
X108306420Y-80470130D01*
X108497598Y-80390941D01*
X108669655Y-80275977D01*
X108815977Y-80129655D01*
X108930941Y-79957598D01*
X109010130Y-79766420D01*
X109050500Y-79563465D01*
X109050500Y-79356535D01*
X109050499Y-79356530D01*
X110489500Y-79356530D01*
X110489500Y-79563469D01*
X110529868Y-79766412D01*
X110529870Y-79766420D01*
X110609058Y-79957596D01*
X110724024Y-80129657D01*
X110870342Y-80275975D01*
X110870345Y-80275977D01*
X111042402Y-80390941D01*
X111233580Y-80470130D01*
X111436530Y-80510499D01*
X111436534Y-80510500D01*
X111436535Y-80510500D01*
X111643466Y-80510500D01*
X111643467Y-80510499D01*
X111846420Y-80470130D01*
X112037598Y-80390941D01*
X112209655Y-80275977D01*
X112355977Y-80129655D01*
X112470941Y-79957598D01*
X112550130Y-79766420D01*
X112590500Y-79563465D01*
X112590500Y-79356535D01*
X112550130Y-79153580D01*
X112470941Y-78962402D01*
X112355977Y-78790345D01*
X112355975Y-78790342D01*
X112209657Y-78644024D01*
X112123626Y-78586541D01*
X112037598Y-78529059D01*
X111846420Y-78449870D01*
X111846412Y-78449868D01*
X111643469Y-78409500D01*
X111643465Y-78409500D01*
X111436535Y-78409500D01*
X111436530Y-78409500D01*
X111233587Y-78449868D01*
X111233579Y-78449870D01*
X111042403Y-78529058D01*
X110870342Y-78644024D01*
X110724024Y-78790342D01*
X110609058Y-78962403D01*
X110529870Y-79153579D01*
X110529868Y-79153587D01*
X110489500Y-79356530D01*
X109050499Y-79356530D01*
X109010130Y-79153580D01*
X108930941Y-78962402D01*
X108815977Y-78790345D01*
X108815975Y-78790342D01*
X108669657Y-78644024D01*
X108583626Y-78586541D01*
X108497598Y-78529059D01*
X108306420Y-78449870D01*
X108306412Y-78449868D01*
X108103469Y-78409500D01*
X108103465Y-78409500D01*
X107896535Y-78409500D01*
X107896530Y-78409500D01*
X107693587Y-78449868D01*
X107693579Y-78449870D01*
X107502403Y-78529058D01*
X107330342Y-78644024D01*
X107184024Y-78790342D01*
X107069058Y-78962403D01*
X106989870Y-79153579D01*
X106989868Y-79153587D01*
X106949500Y-79356530D01*
X93050499Y-79356530D01*
X93010130Y-79153580D01*
X92930941Y-78962402D01*
X92815977Y-78790345D01*
X92815975Y-78790342D01*
X92669657Y-78644024D01*
X92583626Y-78586541D01*
X92497598Y-78529059D01*
X92306420Y-78449870D01*
X92306412Y-78449868D01*
X92103469Y-78409500D01*
X92103465Y-78409500D01*
X91896535Y-78409500D01*
X91896530Y-78409500D01*
X91693587Y-78449868D01*
X91693579Y-78449870D01*
X91502403Y-78529058D01*
X91330342Y-78644024D01*
X91184024Y-78790342D01*
X91069058Y-78962403D01*
X90989870Y-79153579D01*
X90989868Y-79153587D01*
X90949500Y-79356530D01*
X89510499Y-79356530D01*
X89470130Y-79153580D01*
X89390941Y-78962402D01*
X89275977Y-78790345D01*
X89275975Y-78790342D01*
X89129657Y-78644024D01*
X89043626Y-78586541D01*
X88957598Y-78529059D01*
X88766420Y-78449870D01*
X88766412Y-78449868D01*
X88563469Y-78409500D01*
X88563465Y-78409500D01*
X88356535Y-78409500D01*
X88356530Y-78409500D01*
X88153587Y-78449868D01*
X88153579Y-78449870D01*
X87962403Y-78529058D01*
X87790342Y-78644024D01*
X87644024Y-78790342D01*
X87529058Y-78962403D01*
X87449870Y-79153579D01*
X87449868Y-79153587D01*
X87409500Y-79356530D01*
X68571168Y-79356530D01*
X68704662Y-79149370D01*
X68706784Y-79146190D01*
X69385503Y-78163273D01*
X69387765Y-78160106D01*
X70097493Y-77199337D01*
X70099881Y-77196212D01*
X70839902Y-76258559D01*
X70842293Y-76255626D01*
X71611872Y-75342026D01*
X71614426Y-75339091D01*
X71888841Y-75033649D01*
X71948287Y-74996937D01*
X71980596Y-74992523D01*
X72675022Y-74989834D01*
X72742135Y-75009259D01*
X72788094Y-75061885D01*
X72799500Y-75113833D01*
X72799500Y-75144221D01*
X72799501Y-75144238D01*
X72837149Y-75430206D01*
X72837150Y-75430211D01*
X72837151Y-75430217D01*
X72856054Y-75500763D01*
X72911809Y-75708844D01*
X72911814Y-75708860D01*
X73022191Y-75975336D01*
X73022199Y-75975352D01*
X73166420Y-76225148D01*
X73166431Y-76225164D01*
X73342024Y-76454002D01*
X73342030Y-76454009D01*
X73545990Y-76657969D01*
X73545996Y-76657974D01*
X73774844Y-76833575D01*
X73774851Y-76833579D01*
X74024647Y-76977800D01*
X74024663Y-76977808D01*
X74291139Y-77088185D01*
X74291145Y-77088186D01*
X74291155Y-77088191D01*
X74569783Y-77162849D01*
X74855772Y-77200500D01*
X74855779Y-77200500D01*
X75144221Y-77200500D01*
X75144228Y-77200500D01*
X75430217Y-77162849D01*
X75708845Y-77088191D01*
X75708857Y-77088185D01*
X75708860Y-77088185D01*
X75975336Y-76977808D01*
X75975339Y-76977806D01*
X75975345Y-76977804D01*
X76225156Y-76833575D01*
X76247370Y-76816530D01*
X87409500Y-76816530D01*
X87409500Y-77023469D01*
X87449868Y-77226412D01*
X87449870Y-77226420D01*
X87529058Y-77417596D01*
X87644024Y-77589657D01*
X87790342Y-77735975D01*
X87790345Y-77735977D01*
X87962402Y-77850941D01*
X88153580Y-77930130D01*
X88356530Y-77970499D01*
X88356534Y-77970500D01*
X88356535Y-77970500D01*
X88563466Y-77970500D01*
X88563467Y-77970499D01*
X88766420Y-77930130D01*
X88957598Y-77850941D01*
X89129655Y-77735977D01*
X89275977Y-77589655D01*
X89390941Y-77417598D01*
X89470130Y-77226420D01*
X89510500Y-77023465D01*
X89510500Y-76816535D01*
X89510499Y-76816530D01*
X90949500Y-76816530D01*
X90949500Y-77023469D01*
X90989868Y-77226412D01*
X90989870Y-77226420D01*
X91069058Y-77417596D01*
X91184024Y-77589657D01*
X91330342Y-77735975D01*
X91330345Y-77735977D01*
X91502402Y-77850941D01*
X91693580Y-77930130D01*
X91896530Y-77970499D01*
X91896534Y-77970500D01*
X91896535Y-77970500D01*
X92103466Y-77970500D01*
X92103467Y-77970499D01*
X92306420Y-77930130D01*
X92497598Y-77850941D01*
X92669655Y-77735977D01*
X92815977Y-77589655D01*
X92930941Y-77417598D01*
X93010130Y-77226420D01*
X93050500Y-77023465D01*
X93050500Y-76816535D01*
X93050499Y-76816530D01*
X106949500Y-76816530D01*
X106949500Y-77023469D01*
X106989868Y-77226412D01*
X106989870Y-77226420D01*
X107069058Y-77417596D01*
X107184024Y-77589657D01*
X107330342Y-77735975D01*
X107330345Y-77735977D01*
X107502402Y-77850941D01*
X107693580Y-77930130D01*
X107896530Y-77970499D01*
X107896534Y-77970500D01*
X107896535Y-77970500D01*
X108103466Y-77970500D01*
X108103467Y-77970499D01*
X108306420Y-77930130D01*
X108497598Y-77850941D01*
X108669655Y-77735977D01*
X108815977Y-77589655D01*
X108930941Y-77417598D01*
X109010130Y-77226420D01*
X109050500Y-77023465D01*
X109050500Y-76816535D01*
X109050499Y-76816530D01*
X110489500Y-76816530D01*
X110489500Y-77023469D01*
X110529868Y-77226412D01*
X110529870Y-77226420D01*
X110609058Y-77417596D01*
X110724024Y-77589657D01*
X110870342Y-77735975D01*
X110870345Y-77735977D01*
X111042402Y-77850941D01*
X111233580Y-77930130D01*
X111436530Y-77970499D01*
X111436534Y-77970500D01*
X111436535Y-77970500D01*
X111643466Y-77970500D01*
X111643467Y-77970499D01*
X111846420Y-77930130D01*
X112037598Y-77850941D01*
X112209655Y-77735977D01*
X112355977Y-77589655D01*
X112470941Y-77417598D01*
X112550130Y-77226420D01*
X112590500Y-77023465D01*
X112590500Y-76816535D01*
X112550130Y-76613580D01*
X112470941Y-76422402D01*
X112355977Y-76250345D01*
X112355975Y-76250342D01*
X112209657Y-76104024D01*
X112063588Y-76006425D01*
X112037598Y-75989059D01*
X111846420Y-75909870D01*
X111846412Y-75909868D01*
X111643469Y-75869500D01*
X111643465Y-75869500D01*
X111436535Y-75869500D01*
X111436530Y-75869500D01*
X111233587Y-75909868D01*
X111233579Y-75909870D01*
X111042403Y-75989058D01*
X110870342Y-76104024D01*
X110724024Y-76250342D01*
X110609058Y-76422403D01*
X110529870Y-76613579D01*
X110529868Y-76613587D01*
X110489500Y-76816530D01*
X109050499Y-76816530D01*
X109010130Y-76613580D01*
X108930941Y-76422402D01*
X108815977Y-76250345D01*
X108815975Y-76250342D01*
X108669657Y-76104024D01*
X108523588Y-76006425D01*
X108497598Y-75989059D01*
X108306420Y-75909870D01*
X108306412Y-75909868D01*
X108103469Y-75869500D01*
X108103465Y-75869500D01*
X107896535Y-75869500D01*
X107896530Y-75869500D01*
X107693587Y-75909868D01*
X107693579Y-75909870D01*
X107502403Y-75989058D01*
X107330342Y-76104024D01*
X107184024Y-76250342D01*
X107069058Y-76422403D01*
X106989870Y-76613579D01*
X106989868Y-76613587D01*
X106949500Y-76816530D01*
X93050499Y-76816530D01*
X93010130Y-76613580D01*
X92930941Y-76422402D01*
X92815977Y-76250345D01*
X92815975Y-76250342D01*
X92669657Y-76104024D01*
X92523588Y-76006425D01*
X92497598Y-75989059D01*
X92306420Y-75909870D01*
X92306412Y-75909868D01*
X92103469Y-75869500D01*
X92103465Y-75869500D01*
X91896535Y-75869500D01*
X91896530Y-75869500D01*
X91693587Y-75909868D01*
X91693579Y-75909870D01*
X91502403Y-75989058D01*
X91330342Y-76104024D01*
X91184024Y-76250342D01*
X91069058Y-76422403D01*
X90989870Y-76613579D01*
X90989868Y-76613587D01*
X90949500Y-76816530D01*
X89510499Y-76816530D01*
X89470130Y-76613580D01*
X89390941Y-76422402D01*
X89275977Y-76250345D01*
X89275975Y-76250342D01*
X89129657Y-76104024D01*
X88983588Y-76006425D01*
X88957598Y-75989059D01*
X88766420Y-75909870D01*
X88766412Y-75909868D01*
X88563469Y-75869500D01*
X88563465Y-75869500D01*
X88356535Y-75869500D01*
X88356530Y-75869500D01*
X88153587Y-75909868D01*
X88153579Y-75909870D01*
X87962403Y-75989058D01*
X87790342Y-76104024D01*
X87644024Y-76250342D01*
X87529058Y-76422403D01*
X87449870Y-76613579D01*
X87449868Y-76613587D01*
X87409500Y-76816530D01*
X76247370Y-76816530D01*
X76454004Y-76657974D01*
X76657974Y-76454004D01*
X76833575Y-76225156D01*
X76977804Y-75975345D01*
X77004925Y-75909870D01*
X77088185Y-75708860D01*
X77088185Y-75708857D01*
X77088191Y-75708845D01*
X77162849Y-75430217D01*
X77200500Y-75144228D01*
X77200500Y-75095831D01*
X77220185Y-75028792D01*
X77272989Y-74983037D01*
X77324016Y-74971832D01*
X82152394Y-74953136D01*
X82155804Y-74953686D01*
X82157630Y-74953226D01*
X82192343Y-74959585D01*
X82222586Y-74969742D01*
X82235937Y-74975986D01*
X82236121Y-74975576D01*
X82243536Y-74978886D01*
X82243540Y-74978887D01*
X82243543Y-74978889D01*
X82296293Y-74994572D01*
X82300296Y-74995839D01*
X82352461Y-75013358D01*
X82352463Y-75013358D01*
X82360442Y-75014918D01*
X82360355Y-75015361D01*
X82374871Y-75017934D01*
X82539317Y-75066827D01*
X82546909Y-75071138D01*
X82602352Y-75085568D01*
X82657269Y-75101896D01*
X82657272Y-75101896D01*
X82665302Y-75103177D01*
X82665226Y-75103647D01*
X82679704Y-75105700D01*
X82856347Y-75151676D01*
X82863910Y-75155641D01*
X82919991Y-75168241D01*
X82922002Y-75168764D01*
X82922003Y-75168765D01*
X82975613Y-75182719D01*
X82975617Y-75182719D01*
X82975619Y-75182720D01*
X82975620Y-75182719D01*
X82983687Y-75183723D01*
X82983624Y-75184229D01*
X82998024Y-75185773D01*
X83173528Y-75225207D01*
X83173527Y-75225207D01*
X83184303Y-75227628D01*
X83187445Y-75228334D01*
X83194940Y-75231955D01*
X83251628Y-75242755D01*
X83307907Y-75255400D01*
X83307911Y-75255399D01*
X83307912Y-75255400D01*
X83316007Y-75256132D01*
X83315957Y-75256678D01*
X83330231Y-75257729D01*
X83518946Y-75293683D01*
X83518945Y-75293683D01*
X83529752Y-75295741D01*
X83533018Y-75296364D01*
X83540406Y-75299648D01*
X83597627Y-75308673D01*
X83654532Y-75319515D01*
X83654533Y-75319514D01*
X83654534Y-75319515D01*
X83662647Y-75319981D01*
X83662613Y-75320567D01*
X83676736Y-75321151D01*
X83893472Y-75355338D01*
X83900726Y-75358298D01*
X83958452Y-75365587D01*
X84015911Y-75374651D01*
X84015917Y-75374650D01*
X84024038Y-75374858D01*
X84024021Y-75375490D01*
X84037968Y-75375628D01*
X84269239Y-75404834D01*
X84276331Y-75407485D01*
X84334487Y-75413074D01*
X84392471Y-75420397D01*
X84392472Y-75420396D01*
X84392474Y-75420397D01*
X84400600Y-75420354D01*
X84400603Y-75421030D01*
X84414363Y-75420751D01*
X84660744Y-75444432D01*
X84667655Y-75446791D01*
X84726220Y-75450725D01*
X84784654Y-75456342D01*
X84784662Y-75456340D01*
X84792778Y-75456056D01*
X84792803Y-75456782D01*
X84806339Y-75456108D01*
X85068429Y-75473717D01*
X85075144Y-75475803D01*
X85134082Y-75478127D01*
X85192907Y-75482080D01*
X85192915Y-75482078D01*
X85201021Y-75481561D01*
X85201070Y-75482340D01*
X85214367Y-75481294D01*
X85492752Y-75492275D01*
X85499255Y-75494108D01*
X85558489Y-75494869D01*
X85617685Y-75497204D01*
X85617693Y-75497202D01*
X85625779Y-75496461D01*
X85625854Y-75497286D01*
X85638922Y-75495902D01*
X85930950Y-75499654D01*
X85934108Y-75500500D01*
X85996797Y-75500500D01*
X86059457Y-75501305D01*
X86059461Y-75501303D01*
X86059864Y-75501309D01*
X86073571Y-75500500D01*
X113999852Y-75500500D01*
X114379397Y-75500724D01*
X114385940Y-75502297D01*
X114445192Y-75500763D01*
X114504381Y-75500797D01*
X114504452Y-75500798D01*
X114504452Y-75500797D01*
X114504454Y-75500798D01*
X114504455Y-75500797D01*
X114512515Y-75499741D01*
X114512624Y-75500573D01*
X114525611Y-75498680D01*
X114813639Y-75491224D01*
X114820498Y-75492674D01*
X114879393Y-75489521D01*
X114938369Y-75487995D01*
X114938372Y-75487993D01*
X114946399Y-75486725D01*
X114946520Y-75487491D01*
X114959661Y-75485225D01*
X115230792Y-75470714D01*
X115237971Y-75472018D01*
X115296495Y-75467197D01*
X115355106Y-75464061D01*
X115355110Y-75464059D01*
X115363098Y-75462570D01*
X115363231Y-75463284D01*
X115376508Y-75460607D01*
X115631354Y-75439618D01*
X115638841Y-75440749D01*
X115696876Y-75434222D01*
X115755140Y-75429424D01*
X115755144Y-75429422D01*
X115755148Y-75429422D01*
X115763092Y-75427704D01*
X115763235Y-75428366D01*
X115776632Y-75425253D01*
X116015779Y-75398360D01*
X116023579Y-75399292D01*
X116081174Y-75391006D01*
X116138941Y-75384510D01*
X116138945Y-75384508D01*
X116138947Y-75384508D01*
X116146831Y-75382555D01*
X116146982Y-75383165D01*
X116160482Y-75379595D01*
X116384554Y-75347361D01*
X116392639Y-75348066D01*
X116449654Y-75337995D01*
X116506963Y-75329751D01*
X116506967Y-75329748D01*
X116514792Y-75327552D01*
X116514949Y-75328114D01*
X116528520Y-75324064D01*
X116738119Y-75287045D01*
X116746475Y-75287497D01*
X116802878Y-75275606D01*
X116859653Y-75265579D01*
X116859661Y-75265574D01*
X116867406Y-75263131D01*
X116867568Y-75263647D01*
X116881181Y-75259099D01*
X117076916Y-75217838D01*
X117085518Y-75218012D01*
X117141277Y-75204270D01*
X117197452Y-75192429D01*
X117197455Y-75192427D01*
X117197457Y-75192427D01*
X117205122Y-75189728D01*
X117205288Y-75190200D01*
X117218902Y-75185140D01*
X117401385Y-75140170D01*
X117410192Y-75140043D01*
X117465210Y-75124442D01*
X117520783Y-75110747D01*
X117520786Y-75110744D01*
X117528363Y-75107785D01*
X117528531Y-75108217D01*
X117542113Y-75102634D01*
X117711922Y-75054484D01*
X117720908Y-75054036D01*
X117775209Y-75036539D01*
X117830060Y-75020986D01*
X117830060Y-75020985D01*
X117830063Y-75020985D01*
X117837519Y-75017769D01*
X117837691Y-75018168D01*
X117851197Y-75012055D01*
X117883270Y-75001720D01*
X118008955Y-74961223D01*
X118018063Y-74960439D01*
X118071557Y-74941051D01*
X118125692Y-74923609D01*
X118125697Y-74923605D01*
X118133033Y-74920129D01*
X118133208Y-74920499D01*
X118146580Y-74913862D01*
X118292868Y-74860845D01*
X118302045Y-74859718D01*
X118354678Y-74838445D01*
X118405545Y-74820010D01*
X118447296Y-74812594D01*
X121575523Y-74800481D01*
X121642635Y-74819906D01*
G37*
%TD.AperFunction*%
%TD*%
%TA.AperFunction,Conductor*%
%TO.N,3.3v_usb*%
G36*
X77680575Y-100019685D02*
G01*
X77726330Y-100072489D01*
X77736274Y-100141647D01*
X77707249Y-100205203D01*
X77701217Y-100211681D01*
X77689513Y-100223384D01*
X77689511Y-100223387D01*
X77630201Y-100326114D01*
X77599500Y-100440691D01*
X77599500Y-100559309D01*
X77630201Y-100673886D01*
X77689511Y-100776613D01*
X77773387Y-100860489D01*
X77876114Y-100919799D01*
X77990691Y-100950500D01*
X77990694Y-100950500D01*
X78109306Y-100950500D01*
X78109309Y-100950500D01*
X78223886Y-100919799D01*
X78326613Y-100860489D01*
X78410489Y-100776613D01*
X78469799Y-100673886D01*
X78500500Y-100559309D01*
X78500500Y-100440691D01*
X78469799Y-100326114D01*
X78410489Y-100223387D01*
X78398783Y-100211681D01*
X78365298Y-100150358D01*
X78370282Y-100080666D01*
X78412154Y-100024733D01*
X78477618Y-100000316D01*
X78486464Y-100000000D01*
X80698638Y-100000000D01*
X80765677Y-100019685D01*
X80786319Y-100036319D01*
X80963681Y-100213681D01*
X80997166Y-100275004D01*
X81000000Y-100301362D01*
X81000000Y-101500000D01*
X81123638Y-101500000D01*
X81153078Y-101508644D01*
X81183065Y-101515168D01*
X81188080Y-101518922D01*
X81190677Y-101519685D01*
X81211319Y-101536319D01*
X81313681Y-101638681D01*
X81347166Y-101700004D01*
X81350000Y-101726362D01*
X81350000Y-112250000D01*
X81540873Y-112411455D01*
X94798745Y-123626000D01*
X94798744Y-123626000D01*
X95300000Y-124050000D01*
X108350000Y-124050000D01*
X108600000Y-124050000D01*
X108600000Y-120951362D01*
X108619685Y-120884323D01*
X108636319Y-120863681D01*
X108813681Y-120686319D01*
X108875004Y-120652834D01*
X108901362Y-120650000D01*
X124698638Y-120650000D01*
X124765677Y-120669685D01*
X124786319Y-120686319D01*
X124963681Y-120863681D01*
X124997166Y-120925004D01*
X125000000Y-120951362D01*
X125000000Y-122725500D01*
X124980315Y-122792539D01*
X124927511Y-122838294D01*
X124876000Y-122849500D01*
X124859041Y-122849500D01*
X124579560Y-122886295D01*
X124307256Y-122959259D01*
X124046820Y-123067135D01*
X124046809Y-123067140D01*
X123802690Y-123208083D01*
X123802682Y-123208089D01*
X123579029Y-123379704D01*
X123379704Y-123579029D01*
X123208089Y-123802682D01*
X123208083Y-123802690D01*
X123067140Y-124046809D01*
X123067135Y-124046820D01*
X122959259Y-124307256D01*
X122886295Y-124579560D01*
X122849500Y-124859041D01*
X122849500Y-125140958D01*
X122886295Y-125420439D01*
X122959259Y-125692743D01*
X123067135Y-125953179D01*
X123067140Y-125953190D01*
X123186882Y-126160588D01*
X123208088Y-126197317D01*
X123379700Y-126420965D01*
X123379704Y-126420970D01*
X123579029Y-126620295D01*
X123579033Y-126620298D01*
X123579035Y-126620300D01*
X123802683Y-126791912D01*
X123802690Y-126791916D01*
X124046809Y-126932859D01*
X124046814Y-126932861D01*
X124046817Y-126932863D01*
X124307261Y-127040742D01*
X124579558Y-127113704D01*
X124859049Y-127150500D01*
X124859056Y-127150500D01*
X124876000Y-127150500D01*
X124943039Y-127170185D01*
X124988794Y-127222989D01*
X125000000Y-127274500D01*
X125000000Y-127927659D01*
X124990544Y-127959860D01*
X124981829Y-127992283D01*
X124980581Y-127993791D01*
X124980315Y-127994698D01*
X124959336Y-128019480D01*
X124799313Y-128164714D01*
X124796336Y-128167330D01*
X123885280Y-128942576D01*
X123882222Y-128945095D01*
X123258521Y-129442358D01*
X123193831Y-129468759D01*
X123125137Y-129455995D01*
X123087507Y-129426604D01*
X123051556Y-129385114D01*
X123051552Y-129385110D01*
X123033965Y-129367160D01*
X123033964Y-129367159D01*
X123033962Y-129367157D01*
X123033960Y-129367156D01*
X123033958Y-129367154D01*
X122954148Y-129322511D01*
X122954143Y-129322509D01*
X122887111Y-129302826D01*
X122887107Y-129302825D01*
X122887106Y-129302825D01*
X122829208Y-129294500D01*
X108362768Y-129294500D01*
X108362074Y-129294520D01*
X108350564Y-129294863D01*
X108335825Y-129295741D01*
X108267154Y-129311968D01*
X108202926Y-129339471D01*
X108180468Y-129350760D01*
X108180464Y-129350762D01*
X108180462Y-129350764D01*
X108180460Y-129350766D01*
X108163174Y-129366914D01*
X108100747Y-129398293D01*
X108031265Y-129390940D01*
X108016527Y-129383687D01*
X107923889Y-129330202D01*
X107923890Y-129330202D01*
X107914494Y-129327684D01*
X107809309Y-129299500D01*
X107690691Y-129299500D01*
X107585505Y-129327684D01*
X107576110Y-129330202D01*
X107486725Y-129381809D01*
X107418825Y-129398282D01*
X107352798Y-129375429D01*
X107349183Y-129372342D01*
X107349030Y-129372544D01*
X107341982Y-129367154D01*
X107262172Y-129322511D01*
X107262167Y-129322509D01*
X107195135Y-129302826D01*
X107195131Y-129302825D01*
X107195130Y-129302825D01*
X107137232Y-129294500D01*
X105536230Y-129294500D01*
X105469191Y-129274815D01*
X105423436Y-129222011D01*
X105413492Y-129152853D01*
X105442517Y-129089297D01*
X105448549Y-129082819D01*
X105532948Y-128998419D01*
X105532951Y-128998416D01*
X105615084Y-128875495D01*
X105671658Y-128738913D01*
X105700500Y-128593918D01*
X105700500Y-128446082D01*
X105700500Y-128446079D01*
X105671659Y-128301092D01*
X105671658Y-128301091D01*
X105671658Y-128301087D01*
X105671656Y-128301082D01*
X105615087Y-128164511D01*
X105615080Y-128164498D01*
X105532951Y-128041584D01*
X105532948Y-128041580D01*
X105428419Y-127937051D01*
X105428415Y-127937048D01*
X105305501Y-127854919D01*
X105305488Y-127854912D01*
X105168917Y-127798343D01*
X105168907Y-127798340D01*
X105023920Y-127769500D01*
X105023918Y-127769500D01*
X104876082Y-127769500D01*
X104876080Y-127769500D01*
X104731092Y-127798340D01*
X104731082Y-127798343D01*
X104594511Y-127854912D01*
X104594498Y-127854919D01*
X104471584Y-127937048D01*
X104471580Y-127937051D01*
X104367051Y-128041580D01*
X104367048Y-128041584D01*
X104284919Y-128164498D01*
X104284912Y-128164511D01*
X104228343Y-128301082D01*
X104228340Y-128301092D01*
X104199500Y-128446079D01*
X104199500Y-128446082D01*
X104199500Y-128593918D01*
X104199500Y-128593920D01*
X104199499Y-128593920D01*
X104228340Y-128738907D01*
X104228343Y-128738917D01*
X104284912Y-128875488D01*
X104284919Y-128875501D01*
X104367048Y-128998415D01*
X104367051Y-128998419D01*
X104451451Y-129082819D01*
X104484936Y-129144142D01*
X104479952Y-129213834D01*
X104438080Y-129269767D01*
X104372616Y-129294184D01*
X104363770Y-129294500D01*
X97873992Y-129294500D01*
X97830313Y-129299197D01*
X97778825Y-129310397D01*
X97768627Y-129312890D01*
X97768624Y-129312891D01*
X97687916Y-129355899D01*
X97687913Y-129355901D01*
X97635104Y-129401660D01*
X97617160Y-129419242D01*
X97617154Y-129419249D01*
X97572511Y-129499059D01*
X97572509Y-129499064D01*
X97552826Y-129566096D01*
X97544500Y-129624003D01*
X97544500Y-133439691D01*
X97524815Y-133506730D01*
X97472011Y-133552485D01*
X97402853Y-133562429D01*
X97339297Y-133533404D01*
X97301523Y-133474626D01*
X97300725Y-133471784D01*
X97292126Y-133439691D01*
X97259577Y-133318216D01*
X97259573Y-133318209D01*
X97180524Y-133181290D01*
X97180518Y-133181282D01*
X97068717Y-133069481D01*
X97068709Y-133069475D01*
X96931790Y-132990426D01*
X96931786Y-132990424D01*
X96931784Y-132990423D01*
X96779057Y-132949500D01*
X96620943Y-132949500D01*
X96468216Y-132990423D01*
X96468209Y-132990426D01*
X96331290Y-133069475D01*
X96331282Y-133069481D01*
X96219481Y-133181282D01*
X96219475Y-133181290D01*
X96140426Y-133318209D01*
X96140423Y-133318216D01*
X96099500Y-133470943D01*
X96099500Y-134329056D01*
X96140423Y-134481783D01*
X96140426Y-134481790D01*
X96219475Y-134618709D01*
X96219481Y-134618717D01*
X96336882Y-134736118D01*
X96370367Y-134797441D01*
X96365383Y-134867133D01*
X96323511Y-134923066D01*
X96258047Y-134947483D01*
X96249222Y-134947799D01*
X86218309Y-134949504D01*
X86171308Y-134940260D01*
X85170624Y-134530592D01*
X85166988Y-134529035D01*
X84076623Y-134041484D01*
X84073038Y-134039812D01*
X82998758Y-133517720D01*
X82995228Y-133515934D01*
X81938172Y-132959853D01*
X81934701Y-132957956D01*
X80895904Y-132368432D01*
X80892495Y-132366425D01*
X79873024Y-131744061D01*
X79869681Y-131741946D01*
X79760917Y-131670689D01*
X79459387Y-131473140D01*
X78870604Y-131087396D01*
X78867330Y-131085176D01*
X77889604Y-130399066D01*
X77886403Y-130396742D01*
X76931111Y-129679833D01*
X76927985Y-129677409D01*
X76450739Y-129294863D01*
X75995972Y-128930334D01*
X75992956Y-128927836D01*
X75085291Y-128151449D01*
X75082331Y-128148835D01*
X74850154Y-127937048D01*
X74698095Y-127798342D01*
X74397696Y-127524324D01*
X74299927Y-127435141D01*
X81849500Y-127435141D01*
X81849500Y-130564844D01*
X81849501Y-130564859D01*
X81864778Y-130758991D01*
X81925427Y-131011610D01*
X82024843Y-131251623D01*
X82024845Y-131251627D01*
X82024846Y-131251628D01*
X82160588Y-131473140D01*
X82329311Y-131670689D01*
X82526860Y-131839412D01*
X82748372Y-131975154D01*
X82748374Y-131975154D01*
X82748376Y-131975156D01*
X82809693Y-132000554D01*
X82988390Y-132074573D01*
X83241006Y-132135221D01*
X83435147Y-132150500D01*
X86564852Y-132150499D01*
X86758994Y-132135221D01*
X87011610Y-132074573D01*
X87251628Y-131975154D01*
X87473140Y-131839412D01*
X87670689Y-131670689D01*
X87839412Y-131473140D01*
X87975154Y-131251628D01*
X88074573Y-131011610D01*
X88135221Y-130758994D01*
X88150500Y-130564853D01*
X88150499Y-128593920D01*
X96199499Y-128593920D01*
X96228340Y-128738907D01*
X96228343Y-128738917D01*
X96284912Y-128875488D01*
X96284919Y-128875501D01*
X96367048Y-128998415D01*
X96367051Y-128998419D01*
X96471580Y-129102948D01*
X96471584Y-129102951D01*
X96594498Y-129185080D01*
X96594511Y-129185087D01*
X96731082Y-129241656D01*
X96731087Y-129241658D01*
X96731091Y-129241658D01*
X96731092Y-129241659D01*
X96876079Y-129270500D01*
X96876082Y-129270500D01*
X97023920Y-129270500D01*
X97121462Y-129251096D01*
X97168913Y-129241658D01*
X97305495Y-129185084D01*
X97428416Y-129102951D01*
X97532951Y-128998416D01*
X97615084Y-128875495D01*
X97671658Y-128738913D01*
X97700500Y-128593918D01*
X97700500Y-128446082D01*
X97700500Y-128446079D01*
X97671659Y-128301092D01*
X97671658Y-128301091D01*
X97671658Y-128301087D01*
X97671656Y-128301082D01*
X97615087Y-128164511D01*
X97615080Y-128164498D01*
X97532951Y-128041584D01*
X97532948Y-128041580D01*
X97428419Y-127937051D01*
X97428415Y-127937048D01*
X97305501Y-127854919D01*
X97305488Y-127854912D01*
X97168917Y-127798343D01*
X97168907Y-127798340D01*
X97023920Y-127769500D01*
X97023918Y-127769500D01*
X96876082Y-127769500D01*
X96876080Y-127769500D01*
X96731092Y-127798340D01*
X96731082Y-127798343D01*
X96594511Y-127854912D01*
X96594498Y-127854919D01*
X96471584Y-127937048D01*
X96471580Y-127937051D01*
X96367051Y-128041580D01*
X96367048Y-128041584D01*
X96284919Y-128164498D01*
X96284912Y-128164511D01*
X96228343Y-128301082D01*
X96228340Y-128301092D01*
X96199500Y-128446079D01*
X96199500Y-128446082D01*
X96199500Y-128593918D01*
X96199500Y-128593920D01*
X96199499Y-128593920D01*
X88150499Y-128593920D01*
X88150499Y-127435148D01*
X88135221Y-127241006D01*
X88074573Y-126988390D01*
X87986852Y-126776613D01*
X87975156Y-126748376D01*
X87929509Y-126673887D01*
X87839412Y-126526860D01*
X87765817Y-126440691D01*
X91799500Y-126440691D01*
X91799500Y-126559309D01*
X91830201Y-126673886D01*
X91889511Y-126776613D01*
X91973387Y-126860489D01*
X92076114Y-126919799D01*
X92190691Y-126950500D01*
X92190694Y-126950500D01*
X92309306Y-126950500D01*
X92309309Y-126950500D01*
X92423886Y-126919799D01*
X92526613Y-126860489D01*
X92610489Y-126776613D01*
X92669799Y-126673886D01*
X92700500Y-126559309D01*
X92700500Y-126440691D01*
X92669799Y-126326114D01*
X92610489Y-126223387D01*
X92526613Y-126139511D01*
X92423886Y-126080201D01*
X92309309Y-126049500D01*
X92190691Y-126049500D01*
X92076114Y-126080201D01*
X92076112Y-126080201D01*
X92076112Y-126080202D01*
X91973387Y-126139511D01*
X91973384Y-126139513D01*
X91889513Y-126223384D01*
X91889511Y-126223387D01*
X91830201Y-126326114D01*
X91799500Y-126440691D01*
X87765817Y-126440691D01*
X87670689Y-126329311D01*
X87473140Y-126160588D01*
X87251628Y-126024846D01*
X87251627Y-126024845D01*
X87251623Y-126024843D01*
X87078609Y-125953179D01*
X87011610Y-125925427D01*
X87011611Y-125925427D01*
X86816666Y-125878625D01*
X86758994Y-125864779D01*
X86758992Y-125864778D01*
X86758991Y-125864778D01*
X86598019Y-125852110D01*
X86564853Y-125849500D01*
X86564851Y-125849500D01*
X83435155Y-125849500D01*
X83435140Y-125849501D01*
X83241008Y-125864778D01*
X82988389Y-125925427D01*
X82748376Y-126024843D01*
X82526859Y-126160588D01*
X82329311Y-126329311D01*
X82160588Y-126526859D01*
X82024843Y-126748376D01*
X81925427Y-126988389D01*
X81864778Y-127241009D01*
X81849500Y-127435141D01*
X74299927Y-127435141D01*
X74199879Y-127343879D01*
X74196999Y-127341166D01*
X74040827Y-127189304D01*
X74006487Y-127128456D01*
X74010496Y-127058701D01*
X74051581Y-127002187D01*
X74116697Y-126976857D01*
X74174724Y-126985843D01*
X74307261Y-127040742D01*
X74579558Y-127113704D01*
X74859049Y-127150500D01*
X74859056Y-127150500D01*
X75140944Y-127150500D01*
X75140951Y-127150500D01*
X75420442Y-127113704D01*
X75692739Y-127040742D01*
X75953183Y-126932863D01*
X76197317Y-126791912D01*
X76420965Y-126620300D01*
X76620300Y-126420965D01*
X76791912Y-126197317D01*
X76932863Y-125953183D01*
X77040742Y-125692739D01*
X77113704Y-125420442D01*
X77150500Y-125140951D01*
X77150500Y-124859049D01*
X77113704Y-124579558D01*
X77040742Y-124307261D01*
X76932863Y-124046817D01*
X76932861Y-124046814D01*
X76932859Y-124046809D01*
X76791916Y-123802690D01*
X76791912Y-123802683D01*
X76620300Y-123579035D01*
X76620298Y-123579033D01*
X76620295Y-123579029D01*
X76420970Y-123379704D01*
X76395929Y-123360489D01*
X76197317Y-123208088D01*
X76197311Y-123208084D01*
X76197309Y-123208083D01*
X75953190Y-123067140D01*
X75953179Y-123067135D01*
X75692743Y-122959259D01*
X75420439Y-122886295D01*
X75140958Y-122849500D01*
X75140951Y-122849500D01*
X74859049Y-122849500D01*
X74859041Y-122849500D01*
X74579560Y-122886295D01*
X74307256Y-122959259D01*
X74046820Y-123067135D01*
X74046809Y-123067140D01*
X73802690Y-123208083D01*
X73802682Y-123208089D01*
X73579029Y-123379704D01*
X73379704Y-123579029D01*
X73208089Y-123802682D01*
X73208083Y-123802690D01*
X73067140Y-124046809D01*
X73067135Y-124046820D01*
X72959259Y-124307256D01*
X72886295Y-124579560D01*
X72849500Y-124859041D01*
X72849500Y-125140958D01*
X72886295Y-125420439D01*
X72886296Y-125420442D01*
X72946763Y-125646109D01*
X72959260Y-125692746D01*
X73014210Y-125825408D01*
X73021679Y-125894877D01*
X72990404Y-125957356D01*
X72930315Y-125993008D01*
X72860489Y-125990514D01*
X72810411Y-125958957D01*
X72508565Y-125646100D01*
X72505874Y-125643219D01*
X72331459Y-125450500D01*
X71704396Y-124757631D01*
X71701828Y-124754701D01*
X70928970Y-123843958D01*
X70926459Y-123840901D01*
X70183083Y-122906016D01*
X70180671Y-122902881D01*
X69753174Y-122328560D01*
X69467468Y-121944728D01*
X69465192Y-121941565D01*
X69243546Y-121623065D01*
X81849500Y-121623065D01*
X81849500Y-121976934D01*
X81889116Y-122328545D01*
X81889118Y-122328557D01*
X81889119Y-122328560D01*
X81907091Y-122407300D01*
X81967859Y-122673543D01*
X81967860Y-122673545D01*
X82084731Y-123007545D01*
X82238262Y-123326355D01*
X82238264Y-123326358D01*
X82426527Y-123625976D01*
X82567445Y-123802682D01*
X82597923Y-123840901D01*
X82647153Y-123902633D01*
X82897367Y-124152847D01*
X83174024Y-124373473D01*
X83473642Y-124561736D01*
X83792456Y-124715269D01*
X84126456Y-124832140D01*
X84471440Y-124910881D01*
X84471449Y-124910882D01*
X84471454Y-124910883D01*
X84705861Y-124937293D01*
X84823066Y-124950499D01*
X84823069Y-124950500D01*
X84823072Y-124950500D01*
X85176931Y-124950500D01*
X85176932Y-124950499D01*
X85263983Y-124940691D01*
X91299500Y-124940691D01*
X91299500Y-125059309D01*
X91330201Y-125173886D01*
X91389511Y-125276613D01*
X91473387Y-125360489D01*
X91576114Y-125419799D01*
X91690691Y-125450500D01*
X91690694Y-125450500D01*
X91809306Y-125450500D01*
X91809309Y-125450500D01*
X91923886Y-125419799D01*
X92026613Y-125360489D01*
X92110489Y-125276613D01*
X92169799Y-125173886D01*
X92200500Y-125059309D01*
X92200500Y-124940691D01*
X101799500Y-124940691D01*
X101799500Y-125059309D01*
X101830201Y-125173886D01*
X101889511Y-125276613D01*
X101973387Y-125360489D01*
X102076114Y-125419799D01*
X102190691Y-125450500D01*
X102190694Y-125450500D01*
X102309306Y-125450500D01*
X102309309Y-125450500D01*
X102423886Y-125419799D01*
X102526613Y-125360489D01*
X102610489Y-125276613D01*
X102669799Y-125173886D01*
X102700500Y-125059309D01*
X102700500Y-124940691D01*
X102669799Y-124826114D01*
X102610489Y-124723387D01*
X102526613Y-124639511D01*
X102423886Y-124580201D01*
X102309309Y-124549500D01*
X102190691Y-124549500D01*
X102076114Y-124580201D01*
X102076112Y-124580201D01*
X102076112Y-124580202D01*
X101973387Y-124639511D01*
X101973384Y-124639513D01*
X101889513Y-124723384D01*
X101889511Y-124723387D01*
X101859661Y-124775089D01*
X101830201Y-124826114D01*
X101799500Y-124940691D01*
X92200500Y-124940691D01*
X92169799Y-124826114D01*
X92110489Y-124723387D01*
X92026613Y-124639511D01*
X91923886Y-124580201D01*
X91809309Y-124549500D01*
X91690691Y-124549500D01*
X91576114Y-124580201D01*
X91576112Y-124580201D01*
X91576112Y-124580202D01*
X91473387Y-124639511D01*
X91473384Y-124639513D01*
X91389513Y-124723384D01*
X91389511Y-124723387D01*
X91359661Y-124775089D01*
X91330201Y-124826114D01*
X91299500Y-124940691D01*
X85263983Y-124940691D01*
X85356635Y-124930252D01*
X85528545Y-124910883D01*
X85528548Y-124910882D01*
X85528560Y-124910881D01*
X85873544Y-124832140D01*
X85881723Y-124829278D01*
X85921035Y-124815523D01*
X85921036Y-124815522D01*
X86036587Y-124775089D01*
X86207544Y-124715269D01*
X86526358Y-124561736D01*
X86825976Y-124373473D01*
X87102633Y-124152847D01*
X87352847Y-123902633D01*
X87573473Y-123625976D01*
X87761736Y-123326358D01*
X87915269Y-123007544D01*
X88032140Y-122673544D01*
X88110881Y-122328560D01*
X88150500Y-121976928D01*
X88150500Y-121623072D01*
X88119427Y-121347285D01*
X88110883Y-121271454D01*
X88110882Y-121271449D01*
X88110881Y-121271440D01*
X88032140Y-120926456D01*
X87915269Y-120592456D01*
X87761736Y-120273642D01*
X87573473Y-119974024D01*
X87352847Y-119697367D01*
X87102633Y-119447153D01*
X86825976Y-119226527D01*
X86526358Y-119038264D01*
X86526355Y-119038262D01*
X86207545Y-118884731D01*
X85873545Y-118767860D01*
X85873543Y-118767859D01*
X85607300Y-118707091D01*
X85528560Y-118689119D01*
X85528557Y-118689118D01*
X85528545Y-118689116D01*
X85176934Y-118649500D01*
X85176928Y-118649500D01*
X84823072Y-118649500D01*
X84823065Y-118649500D01*
X84471454Y-118689116D01*
X84471440Y-118689119D01*
X84126456Y-118767859D01*
X84126454Y-118767860D01*
X83792454Y-118884731D01*
X83473644Y-119038262D01*
X83174025Y-119226526D01*
X82897367Y-119447152D01*
X82647152Y-119697367D01*
X82426526Y-119974025D01*
X82238262Y-120273644D01*
X82084731Y-120592454D01*
X81967860Y-120926454D01*
X81967859Y-120926456D01*
X81889119Y-121271440D01*
X81889116Y-121271454D01*
X81849500Y-121623065D01*
X69243546Y-121623065D01*
X68869880Y-121086114D01*
X68782939Y-120961182D01*
X68780731Y-120957900D01*
X68336261Y-120273644D01*
X68130053Y-119956189D01*
X68127963Y-119952855D01*
X68096283Y-119900500D01*
X67509617Y-118930978D01*
X67507652Y-118927611D01*
X66922182Y-117886472D01*
X66920299Y-117882995D01*
X66368354Y-116823743D01*
X66366583Y-116820207D01*
X66240090Y-116557314D01*
X66177755Y-116427762D01*
X66166427Y-116358819D01*
X66194171Y-116294694D01*
X66252179Y-116255748D01*
X66289494Y-116250000D01*
X76650001Y-116250000D01*
X76650000Y-116249999D01*
X76664946Y-111392487D01*
X76684836Y-111325509D01*
X76737781Y-111279917D01*
X76756842Y-111273097D01*
X76772886Y-111268799D01*
X76875613Y-111209489D01*
X76959489Y-111125613D01*
X77018799Y-111022886D01*
X77049500Y-110908309D01*
X77049500Y-110789691D01*
X77018799Y-110675114D01*
X76959489Y-110572387D01*
X76875613Y-110488511D01*
X76772886Y-110429201D01*
X76772885Y-110429200D01*
X76772884Y-110429200D01*
X76760192Y-110425799D01*
X76700532Y-110389433D01*
X76670004Y-110326585D01*
X76668290Y-110305659D01*
X76671112Y-109388691D01*
X77549500Y-109388691D01*
X77549500Y-109507309D01*
X77580201Y-109621886D01*
X77639511Y-109724613D01*
X77723387Y-109808489D01*
X77826114Y-109867799D01*
X77940691Y-109898500D01*
X77940694Y-109898500D01*
X78059306Y-109898500D01*
X78059309Y-109898500D01*
X78173886Y-109867799D01*
X78276613Y-109808489D01*
X78360489Y-109724613D01*
X78419799Y-109621886D01*
X78450500Y-109507309D01*
X78450500Y-109388691D01*
X78419799Y-109274114D01*
X78360489Y-109171387D01*
X78276613Y-109087511D01*
X78173886Y-109028201D01*
X78059309Y-108997500D01*
X77940691Y-108997500D01*
X77826114Y-109028201D01*
X77826112Y-109028201D01*
X77826112Y-109028202D01*
X77723387Y-109087511D01*
X77723384Y-109087513D01*
X77639513Y-109171384D01*
X77639511Y-109171387D01*
X77580201Y-109274114D01*
X77549500Y-109388691D01*
X76671112Y-109388691D01*
X76678272Y-107061614D01*
X76698161Y-106994640D01*
X76751106Y-106949048D01*
X76802270Y-106938000D01*
X76871806Y-106938000D01*
X76871809Y-106938000D01*
X76986386Y-106907299D01*
X77089113Y-106847989D01*
X77172989Y-106764113D01*
X77232299Y-106661386D01*
X77263000Y-106546809D01*
X77263000Y-106465691D01*
X77624500Y-106465691D01*
X77624500Y-106584309D01*
X77655201Y-106698886D01*
X77714511Y-106801613D01*
X77798387Y-106885489D01*
X77901114Y-106944799D01*
X78015691Y-106975500D01*
X78015694Y-106975500D01*
X78134306Y-106975500D01*
X78134309Y-106975500D01*
X78248886Y-106944799D01*
X78351613Y-106885489D01*
X78435489Y-106801613D01*
X78494799Y-106698886D01*
X78525500Y-106584309D01*
X78525500Y-106465691D01*
X78494799Y-106351114D01*
X78435489Y-106248387D01*
X78351613Y-106164511D01*
X78248886Y-106105201D01*
X78134309Y-106074500D01*
X78015691Y-106074500D01*
X77901114Y-106105201D01*
X77901112Y-106105201D01*
X77901112Y-106105202D01*
X77798387Y-106164511D01*
X77798384Y-106164513D01*
X77714513Y-106248384D01*
X77714511Y-106248387D01*
X77655201Y-106351114D01*
X77624500Y-106465691D01*
X77263000Y-106465691D01*
X77263000Y-106428191D01*
X77232299Y-106313614D01*
X77172989Y-106210887D01*
X77089113Y-106127011D01*
X76986386Y-106067701D01*
X76871809Y-106037000D01*
X76805806Y-106037000D01*
X76738767Y-106017315D01*
X76693012Y-105964511D01*
X76681807Y-105912618D01*
X76695327Y-101518922D01*
X76699073Y-100301247D01*
X76718963Y-100234271D01*
X76735526Y-100213815D01*
X76735661Y-100213681D01*
X76877288Y-100072489D01*
X76913705Y-100036184D01*
X76975080Y-100002793D01*
X77001251Y-100000000D01*
X77613536Y-100000000D01*
X77680575Y-100019685D01*
G37*
%TD.AperFunction*%
%TD*%
%TA.AperFunction,Conductor*%
%TO.N,VBUS*%
G36*
X107204271Y-129519685D02*
G01*
X107250026Y-129572489D01*
X107259970Y-129641647D01*
X107257009Y-129656082D01*
X107249500Y-129684108D01*
X107249500Y-129684110D01*
X107249500Y-129815891D01*
X107283608Y-129943187D01*
X107316554Y-130000250D01*
X107349500Y-130057314D01*
X107442686Y-130150500D01*
X107556814Y-130216392D01*
X107684108Y-130250500D01*
X107684110Y-130250500D01*
X107815890Y-130250500D01*
X107815892Y-130250500D01*
X107943186Y-130216392D01*
X108057314Y-130150500D01*
X108150500Y-130057314D01*
X108216392Y-129943186D01*
X108250500Y-129815892D01*
X108250500Y-129684108D01*
X108242993Y-129656091D01*
X108244656Y-129586244D01*
X108283818Y-129528381D01*
X108348047Y-129500877D01*
X108362768Y-129500000D01*
X122829208Y-129500000D01*
X122896247Y-129519685D01*
X122942002Y-129572489D01*
X122951946Y-129641647D01*
X122922921Y-129705203D01*
X122903372Y-129723376D01*
X121985024Y-130408738D01*
X121981812Y-130411057D01*
X121000719Y-131095558D01*
X120997434Y-131097773D01*
X119994967Y-131750586D01*
X119991613Y-131752694D01*
X118968845Y-132373123D01*
X118965425Y-132375124D01*
X117923320Y-132962583D01*
X117919838Y-132964473D01*
X116859512Y-133518331D01*
X116855971Y-133520109D01*
X115778505Y-134039804D01*
X115774910Y-134041468D01*
X114681362Y-134526490D01*
X114677715Y-134528038D01*
X113673046Y-134935746D01*
X113626439Y-134944847D01*
X103822815Y-134946513D01*
X103755772Y-134926840D01*
X103710008Y-134874044D01*
X103700053Y-134804887D01*
X103729067Y-134741326D01*
X103735099Y-134734845D01*
X103805276Y-134664669D01*
X103876465Y-134558127D01*
X103925501Y-134439744D01*
X103950500Y-134314069D01*
X103950500Y-133485931D01*
X103950500Y-133485928D01*
X103925502Y-133360261D01*
X103925501Y-133360260D01*
X103925501Y-133360256D01*
X103876465Y-133241873D01*
X103876464Y-133241872D01*
X103876461Y-133241866D01*
X103805276Y-133135331D01*
X103805273Y-133135327D01*
X103714672Y-133044726D01*
X103714668Y-133044723D01*
X103608133Y-132973538D01*
X103608124Y-132973533D01*
X103489744Y-132924499D01*
X103489738Y-132924497D01*
X103364071Y-132899500D01*
X103364069Y-132899500D01*
X103235931Y-132899500D01*
X103235929Y-132899500D01*
X103110261Y-132924497D01*
X103110255Y-132924499D01*
X102991875Y-132973533D01*
X102991866Y-132973538D01*
X102885331Y-133044723D01*
X102885327Y-133044726D01*
X102794726Y-133135327D01*
X102794723Y-133135331D01*
X102723538Y-133241866D01*
X102723533Y-133241875D01*
X102674499Y-133360255D01*
X102674497Y-133360261D01*
X102649500Y-133485928D01*
X102649500Y-133485931D01*
X102649500Y-134314069D01*
X102649500Y-134314071D01*
X102649499Y-134314071D01*
X102674497Y-134439738D01*
X102674499Y-134439744D01*
X102723533Y-134558124D01*
X102723538Y-134558133D01*
X102794723Y-134664668D01*
X102794726Y-134664672D01*
X102865063Y-134735009D01*
X102898548Y-134796332D01*
X102893564Y-134866024D01*
X102851692Y-134921957D01*
X102786228Y-134946374D01*
X102777403Y-134946690D01*
X97874021Y-134947523D01*
X97806978Y-134927850D01*
X97761214Y-134875054D01*
X97750000Y-134823523D01*
X97750000Y-131684108D01*
X111549500Y-131684108D01*
X111549500Y-131815891D01*
X111583608Y-131943187D01*
X111617959Y-132002684D01*
X111649500Y-132057314D01*
X111649501Y-132057315D01*
X111653564Y-132064352D01*
X111650776Y-132065961D01*
X111670520Y-132117070D01*
X111661512Y-132174800D01*
X111658610Y-132181807D01*
X111658609Y-132181812D01*
X111658608Y-132181814D01*
X111624500Y-132309108D01*
X111624500Y-132440892D01*
X111631333Y-132466392D01*
X111658608Y-132568187D01*
X111672977Y-132593074D01*
X111724500Y-132682314D01*
X111817686Y-132775500D01*
X111931814Y-132841392D01*
X112059108Y-132875500D01*
X112059110Y-132875500D01*
X112190890Y-132875500D01*
X112190892Y-132875500D01*
X112318186Y-132841392D01*
X112432314Y-132775500D01*
X112525500Y-132682314D01*
X112591392Y-132568186D01*
X112593824Y-132559108D01*
X114624500Y-132559108D01*
X114624500Y-132690891D01*
X114658608Y-132818187D01*
X114672005Y-132841391D01*
X114724500Y-132932314D01*
X114817686Y-133025500D01*
X114931814Y-133091392D01*
X115059108Y-133125500D01*
X115059110Y-133125500D01*
X115190890Y-133125500D01*
X115190892Y-133125500D01*
X115318186Y-133091392D01*
X115432314Y-133025500D01*
X115525500Y-132932314D01*
X115591392Y-132818186D01*
X115625500Y-132690892D01*
X115625500Y-132593074D01*
X115645185Y-132526035D01*
X115697989Y-132480280D01*
X115717402Y-132473300D01*
X115743186Y-132466392D01*
X115857314Y-132400500D01*
X115950500Y-132307314D01*
X116016392Y-132193186D01*
X116050500Y-132065892D01*
X116050500Y-131934108D01*
X116016392Y-131806814D01*
X115950500Y-131692686D01*
X115857314Y-131599500D01*
X115783380Y-131556814D01*
X115743187Y-131533608D01*
X115679539Y-131516554D01*
X115615892Y-131499500D01*
X115484108Y-131499500D01*
X115356812Y-131533608D01*
X115242686Y-131599500D01*
X115242683Y-131599502D01*
X115149502Y-131692683D01*
X115149500Y-131692686D01*
X115083608Y-131806812D01*
X115049500Y-131934108D01*
X115049500Y-132031925D01*
X115029815Y-132098964D01*
X114977011Y-132144719D01*
X114957596Y-132151699D01*
X114931814Y-132158607D01*
X114817686Y-132224500D01*
X114817683Y-132224502D01*
X114724502Y-132317683D01*
X114724500Y-132317686D01*
X114658608Y-132431812D01*
X114624500Y-132559108D01*
X112593824Y-132559108D01*
X112625500Y-132440892D01*
X112625500Y-132309108D01*
X112591392Y-132181814D01*
X112587342Y-132174800D01*
X112569975Y-132144719D01*
X112525500Y-132067686D01*
X112525498Y-132067684D01*
X112521436Y-132060648D01*
X112524226Y-132059037D01*
X112504481Y-132007947D01*
X112513491Y-131950190D01*
X112516390Y-131943189D01*
X112516391Y-131943187D01*
X112516392Y-131943186D01*
X112550500Y-131815892D01*
X112550500Y-131684108D01*
X112516392Y-131556814D01*
X112450500Y-131442686D01*
X112357314Y-131349500D01*
X112300250Y-131316554D01*
X112243187Y-131283608D01*
X112179539Y-131266554D01*
X112115892Y-131249500D01*
X111984108Y-131249500D01*
X111856812Y-131283608D01*
X111742686Y-131349500D01*
X111742683Y-131349502D01*
X111649502Y-131442683D01*
X111649500Y-131442686D01*
X111583608Y-131556812D01*
X111549500Y-131684108D01*
X97750000Y-131684108D01*
X97750000Y-129624000D01*
X97769685Y-129556961D01*
X97822489Y-129511206D01*
X97874000Y-129500000D01*
X107137232Y-129500000D01*
X107204271Y-129519685D01*
G37*
%TD.AperFunction*%
%TD*%
%TA.AperFunction,Conductor*%
%TO.N,+3.3V*%
G36*
X123208034Y-71095721D02*
G01*
X123217972Y-71096359D01*
X123277746Y-71100198D01*
X123287765Y-71101253D01*
X123366097Y-71112748D01*
X123375439Y-71114488D01*
X123468404Y-71135525D01*
X123476910Y-71137771D01*
X123580857Y-71169206D01*
X123588521Y-71171801D01*
X123711897Y-71218111D01*
X123718706Y-71220900D01*
X123854802Y-71281430D01*
X123860812Y-71284298D01*
X124021053Y-71366142D01*
X124026286Y-71368975D01*
X124161883Y-71446685D01*
X124200990Y-71469097D01*
X124205572Y-71471856D01*
X124409945Y-71600996D01*
X124413917Y-71603613D01*
X124607536Y-71736615D01*
X124635132Y-71755571D01*
X124638580Y-71758028D01*
X124896741Y-71948655D01*
X124899719Y-71950924D01*
X125178151Y-72169815D01*
X125180733Y-72171901D01*
X125506242Y-72442206D01*
X125508471Y-72444102D01*
X125655163Y-72571883D01*
X125768444Y-72670561D01*
X125790858Y-72690085D01*
X125828479Y-72748962D01*
X125828297Y-72818831D01*
X125790369Y-72877511D01*
X125726738Y-72906369D01*
X125677318Y-72903361D01*
X125565675Y-72873446D01*
X125430217Y-72837151D01*
X125430211Y-72837150D01*
X125430206Y-72837149D01*
X125144238Y-72799501D01*
X125144233Y-72799500D01*
X125144228Y-72799500D01*
X124855772Y-72799500D01*
X124855766Y-72799500D01*
X124855761Y-72799501D01*
X124569793Y-72837149D01*
X124569786Y-72837150D01*
X124569783Y-72837151D01*
X124311812Y-72906274D01*
X124291155Y-72911809D01*
X124291139Y-72911814D01*
X124024663Y-73022191D01*
X124024647Y-73022199D01*
X123774851Y-73166420D01*
X123774835Y-73166431D01*
X123545997Y-73342024D01*
X123545990Y-73342030D01*
X123342030Y-73545990D01*
X123342024Y-73545997D01*
X123166431Y-73774835D01*
X123166420Y-73774851D01*
X123022199Y-74024647D01*
X123022191Y-74024663D01*
X122911814Y-74291139D01*
X122911810Y-74291152D01*
X122911809Y-74291155D01*
X122837941Y-74566837D01*
X122837152Y-74569780D01*
X122837149Y-74569793D01*
X122799501Y-74855761D01*
X122799500Y-74855778D01*
X122799500Y-75144221D01*
X122799501Y-75144238D01*
X122837149Y-75430206D01*
X122837150Y-75430211D01*
X122837151Y-75430217D01*
X122837152Y-75430219D01*
X122911809Y-75708844D01*
X122911814Y-75708860D01*
X123022191Y-75975336D01*
X123022199Y-75975352D01*
X123166420Y-76225148D01*
X123166431Y-76225164D01*
X123342024Y-76454002D01*
X123342030Y-76454009D01*
X123545990Y-76657969D01*
X123545996Y-76657974D01*
X123774844Y-76833575D01*
X123774851Y-76833579D01*
X124024647Y-76977800D01*
X124024663Y-76977808D01*
X124291139Y-77088185D01*
X124291145Y-77088186D01*
X124291155Y-77088191D01*
X124569783Y-77162849D01*
X124855772Y-77200500D01*
X124855779Y-77200500D01*
X125144221Y-77200500D01*
X125144228Y-77200500D01*
X125430217Y-77162849D01*
X125708845Y-77088191D01*
X125708857Y-77088185D01*
X125708860Y-77088185D01*
X125975336Y-76977808D01*
X125975339Y-76977806D01*
X125975345Y-76977804D01*
X126225156Y-76833575D01*
X126454004Y-76657974D01*
X126657974Y-76454004D01*
X126833575Y-76225156D01*
X126977804Y-75975345D01*
X127088191Y-75708845D01*
X127162849Y-75430217D01*
X127200500Y-75144228D01*
X127200500Y-74855772D01*
X127162849Y-74569783D01*
X127088191Y-74291155D01*
X127088185Y-74291140D01*
X127088185Y-74291139D01*
X127078631Y-74268073D01*
X127071162Y-74198604D01*
X127102438Y-74136125D01*
X127162527Y-74100473D01*
X127232352Y-74102967D01*
X127282744Y-74134851D01*
X127484189Y-74345182D01*
X127539154Y-74402572D01*
X127541848Y-74405477D01*
X128341254Y-75295399D01*
X128343854Y-75298388D01*
X128940124Y-76006425D01*
X129114426Y-76213398D01*
X129116927Y-76216465D01*
X129123790Y-76225164D01*
X129857887Y-77155645D01*
X129860290Y-77158794D01*
X130570872Y-78121170D01*
X130573159Y-78124373D01*
X131012726Y-78761324D01*
X131252626Y-79108949D01*
X131254824Y-79112245D01*
X131902499Y-80118040D01*
X131904590Y-80121405D01*
X132519781Y-81147344D01*
X132521764Y-81150774D01*
X133103882Y-82195872D01*
X133105754Y-82199364D01*
X133654165Y-83262485D01*
X133655925Y-83266034D01*
X134170106Y-84346159D01*
X134171752Y-84349763D01*
X134651176Y-85445792D01*
X134652705Y-85449447D01*
X135096840Y-86560161D01*
X135098252Y-86563863D01*
X135506702Y-87688267D01*
X135507996Y-87692012D01*
X135880312Y-88828882D01*
X135881484Y-88832666D01*
X136217274Y-89980794D01*
X136218326Y-89984614D01*
X136517286Y-91142967D01*
X136518214Y-91146819D01*
X136780003Y-92314068D01*
X136780808Y-92317947D01*
X137005173Y-93492974D01*
X137005854Y-93496877D01*
X137192568Y-94678481D01*
X137193124Y-94682404D01*
X137341994Y-95869380D01*
X137342424Y-95873318D01*
X137453298Y-97064435D01*
X137453602Y-97068385D01*
X137526366Y-98262422D01*
X137526544Y-98266381D01*
X137561124Y-99462161D01*
X137561175Y-99466122D01*
X137557537Y-100662365D01*
X137557462Y-100666326D01*
X137515607Y-101861873D01*
X137515405Y-101865830D01*
X137435380Y-103059404D01*
X137435052Y-103063353D01*
X137316933Y-104253778D01*
X137316479Y-104257713D01*
X137160391Y-105443761D01*
X137159811Y-105447681D01*
X136965917Y-106628100D01*
X136965213Y-106631999D01*
X136733695Y-107805676D01*
X136732866Y-107809550D01*
X136463982Y-108975192D01*
X136463030Y-108979038D01*
X136157033Y-110135529D01*
X136155958Y-110139342D01*
X135813189Y-111285407D01*
X135811994Y-111289184D01*
X135432766Y-112423777D01*
X135431450Y-112427515D01*
X135016178Y-113549385D01*
X135014743Y-113553077D01*
X134563840Y-114661118D01*
X134562288Y-114664764D01*
X134076228Y-115757804D01*
X134074561Y-115761398D01*
X133553819Y-116838374D01*
X133552038Y-116841913D01*
X132997143Y-117901729D01*
X132995249Y-117905209D01*
X132406798Y-118946723D01*
X132404794Y-118950141D01*
X131783364Y-119972331D01*
X131781252Y-119975683D01*
X131127485Y-120977497D01*
X131125267Y-120980780D01*
X130439834Y-121961191D01*
X130437513Y-121964401D01*
X129721086Y-122922443D01*
X129718662Y-122925578D01*
X128972026Y-123860201D01*
X128969504Y-123863257D01*
X128193362Y-124773585D01*
X128190744Y-124776558D01*
X127385927Y-125661612D01*
X127383215Y-125664500D01*
X127324327Y-125725242D01*
X127263531Y-125759673D01*
X127193770Y-125755769D01*
X127137194Y-125714770D01*
X127111766Y-125649692D01*
X127115522Y-125606842D01*
X127162849Y-125430217D01*
X127200500Y-125144228D01*
X127200500Y-124855772D01*
X127162849Y-124569783D01*
X127088191Y-124291155D01*
X127088186Y-124291145D01*
X127088185Y-124291139D01*
X126977808Y-124024663D01*
X126977800Y-124024647D01*
X126833579Y-123774851D01*
X126833575Y-123774844D01*
X126657974Y-123545996D01*
X126657969Y-123545990D01*
X126454009Y-123342030D01*
X126454002Y-123342024D01*
X126225164Y-123166431D01*
X126225162Y-123166429D01*
X126225156Y-123166425D01*
X126225151Y-123166422D01*
X126225148Y-123166420D01*
X125975352Y-123022199D01*
X125975336Y-123022191D01*
X125708860Y-122911814D01*
X125708847Y-122911810D01*
X125708848Y-122911810D01*
X125708845Y-122911809D01*
X125430217Y-122837151D01*
X125430216Y-122837150D01*
X125430213Y-122837150D01*
X125313314Y-122821760D01*
X125249418Y-122793493D01*
X125210947Y-122735169D01*
X125205500Y-122698821D01*
X125205500Y-120951361D01*
X125204321Y-120929381D01*
X125201488Y-120903034D01*
X125201487Y-120903032D01*
X125198491Y-120893464D01*
X125177529Y-120826518D01*
X125144044Y-120765195D01*
X125144039Y-120765188D01*
X125109001Y-120718384D01*
X125108998Y-120718381D01*
X125108991Y-120718371D01*
X125028602Y-120637982D01*
X124931634Y-120541013D01*
X124931633Y-120541012D01*
X124915283Y-120526325D01*
X124915269Y-120526313D01*
X124894620Y-120509672D01*
X124823575Y-120472509D01*
X124756543Y-120452826D01*
X124755894Y-120452732D01*
X124698638Y-120444500D01*
X108901362Y-120444500D01*
X108901361Y-120444500D01*
X108879381Y-120445678D01*
X108853034Y-120448511D01*
X108853032Y-120448512D01*
X108776521Y-120472470D01*
X108776516Y-120472471D01*
X108715188Y-120505960D01*
X108668384Y-120540998D01*
X108668363Y-120541016D01*
X108491013Y-120718365D01*
X108491012Y-120718366D01*
X108476325Y-120734716D01*
X108476313Y-120734730D01*
X108459672Y-120755379D01*
X108422509Y-120826424D01*
X108402826Y-120893456D01*
X108402825Y-120893464D01*
X108394501Y-120951361D01*
X108394500Y-120951365D01*
X108394500Y-123720500D01*
X108374815Y-123787539D01*
X108322011Y-123833294D01*
X108270500Y-123844500D01*
X95420667Y-123844500D01*
X95353628Y-123824815D01*
X95340586Y-123815173D01*
X94941084Y-123477244D01*
X94941080Y-123477240D01*
X94931461Y-123469103D01*
X94298988Y-122934108D01*
X97999500Y-122934108D01*
X97999500Y-123065891D01*
X98033608Y-123193187D01*
X98066554Y-123250250D01*
X98099500Y-123307314D01*
X98192686Y-123400500D01*
X98306814Y-123466392D01*
X98434108Y-123500500D01*
X98434110Y-123500500D01*
X98565890Y-123500500D01*
X98565892Y-123500500D01*
X98693186Y-123466392D01*
X98807314Y-123400500D01*
X98900500Y-123307314D01*
X98966392Y-123193186D01*
X99000500Y-123065892D01*
X99000500Y-122934108D01*
X98966392Y-122806814D01*
X98965697Y-122805611D01*
X98952873Y-122783398D01*
X98900500Y-122692686D01*
X98807314Y-122599500D01*
X98750250Y-122566554D01*
X98693187Y-122533608D01*
X98629539Y-122516554D01*
X98565892Y-122499500D01*
X98434108Y-122499500D01*
X98306812Y-122533608D01*
X98192686Y-122599500D01*
X98192683Y-122599502D01*
X98099502Y-122692683D01*
X98099500Y-122692686D01*
X98033608Y-122806812D01*
X97999500Y-122934108D01*
X94298988Y-122934108D01*
X90892371Y-120052525D01*
X98074500Y-120052525D01*
X98074500Y-120197475D01*
X98109413Y-120327770D01*
X98112017Y-120337488D01*
X98184488Y-120463011D01*
X98184490Y-120463013D01*
X98184491Y-120463015D01*
X98286985Y-120565509D01*
X98286986Y-120565510D01*
X98286988Y-120565511D01*
X98412511Y-120637982D01*
X98412512Y-120637982D01*
X98412515Y-120637984D01*
X98552525Y-120675500D01*
X98552528Y-120675500D01*
X98697472Y-120675500D01*
X98697475Y-120675500D01*
X98837485Y-120637984D01*
X98963015Y-120565509D01*
X99065509Y-120463015D01*
X99137984Y-120337485D01*
X99175500Y-120197475D01*
X99175500Y-120052525D01*
X99137984Y-119912515D01*
X99094972Y-119838017D01*
X99065511Y-119786988D01*
X99065506Y-119786982D01*
X98963017Y-119684493D01*
X98963011Y-119684488D01*
X98837488Y-119612017D01*
X98837489Y-119612017D01*
X98826006Y-119608940D01*
X98697475Y-119574500D01*
X98552525Y-119574500D01*
X98423993Y-119608940D01*
X98412511Y-119612017D01*
X98286988Y-119684488D01*
X98286982Y-119684493D01*
X98184493Y-119786982D01*
X98184488Y-119786988D01*
X98112017Y-119912511D01*
X98112016Y-119912515D01*
X98074500Y-120052525D01*
X90892371Y-120052525D01*
X90153494Y-119427525D01*
X99949500Y-119427525D01*
X99949500Y-119572475D01*
X99981128Y-119690511D01*
X99987017Y-119712488D01*
X100059488Y-119838011D01*
X100059490Y-119838013D01*
X100059491Y-119838015D01*
X100161985Y-119940509D01*
X100161986Y-119940510D01*
X100161988Y-119940511D01*
X100287511Y-120012982D01*
X100287512Y-120012982D01*
X100287515Y-120012984D01*
X100427525Y-120050500D01*
X100427528Y-120050500D01*
X100572472Y-120050500D01*
X100572475Y-120050500D01*
X100712485Y-120012984D01*
X100838015Y-119940509D01*
X100940509Y-119838015D01*
X100975334Y-119777696D01*
X101017048Y-119705447D01*
X101019791Y-119707031D01*
X101054254Y-119664244D01*
X101120543Y-119642162D01*
X101188247Y-119659424D01*
X101231758Y-119706136D01*
X101232952Y-119705447D01*
X101309488Y-119838011D01*
X101309490Y-119838013D01*
X101309491Y-119838015D01*
X101411985Y-119940509D01*
X101411986Y-119940510D01*
X101411988Y-119940511D01*
X101537511Y-120012982D01*
X101537512Y-120012982D01*
X101537515Y-120012984D01*
X101677525Y-120050500D01*
X101677528Y-120050500D01*
X101822472Y-120050500D01*
X101822475Y-120050500D01*
X101962485Y-120012984D01*
X102088015Y-119940509D01*
X102190509Y-119838015D01*
X102262984Y-119712485D01*
X102300500Y-119572475D01*
X102300500Y-119427525D01*
X102262984Y-119287515D01*
X102199481Y-119177525D01*
X102699500Y-119177525D01*
X102699500Y-119322475D01*
X102727649Y-119427527D01*
X102737017Y-119462488D01*
X102809488Y-119588011D01*
X102809490Y-119588013D01*
X102809491Y-119588015D01*
X102911985Y-119690509D01*
X102911986Y-119690510D01*
X102911988Y-119690511D01*
X103037511Y-119762982D01*
X103037512Y-119762982D01*
X103037515Y-119762984D01*
X103177525Y-119800500D01*
X103177528Y-119800500D01*
X103322472Y-119800500D01*
X103322475Y-119800500D01*
X103462485Y-119762984D01*
X103588015Y-119690509D01*
X103690509Y-119588015D01*
X103720566Y-119535955D01*
X103771132Y-119487739D01*
X103839739Y-119474515D01*
X103904604Y-119500483D01*
X103945133Y-119557397D01*
X103947728Y-119565860D01*
X103949500Y-119572472D01*
X103949500Y-119572475D01*
X103981128Y-119690511D01*
X103987017Y-119712488D01*
X104059488Y-119838011D01*
X104059490Y-119838013D01*
X104059491Y-119838015D01*
X104161985Y-119940509D01*
X104161986Y-119940510D01*
X104161988Y-119940511D01*
X104287511Y-120012982D01*
X104287512Y-120012982D01*
X104287515Y-120012984D01*
X104427525Y-120050500D01*
X104427528Y-120050500D01*
X104572472Y-120050500D01*
X104572475Y-120050500D01*
X104712485Y-120012984D01*
X104838015Y-119940509D01*
X104912319Y-119866205D01*
X104973642Y-119832720D01*
X105043334Y-119837704D01*
X105087681Y-119866205D01*
X105161985Y-119940509D01*
X105161986Y-119940510D01*
X105161988Y-119940511D01*
X105287511Y-120012982D01*
X105287512Y-120012982D01*
X105287515Y-120012984D01*
X105427525Y-120050500D01*
X105427528Y-120050500D01*
X105572472Y-120050500D01*
X105572475Y-120050500D01*
X105712485Y-120012984D01*
X105838015Y-119940509D01*
X105940509Y-119838015D01*
X105940513Y-119838007D01*
X105945457Y-119831566D01*
X105946756Y-119832562D01*
X105990424Y-119790922D01*
X106059031Y-119777696D01*
X106123897Y-119803661D01*
X106134930Y-119813454D01*
X106211985Y-119890509D01*
X106211986Y-119890510D01*
X106211988Y-119890511D01*
X106337511Y-119962982D01*
X106337512Y-119962982D01*
X106337515Y-119962984D01*
X106477525Y-120000500D01*
X106477528Y-120000500D01*
X106622472Y-120000500D01*
X106622475Y-120000500D01*
X106762485Y-119962984D01*
X106888015Y-119890509D01*
X106990509Y-119788015D01*
X107062984Y-119662485D01*
X107100500Y-119522475D01*
X107100500Y-119377525D01*
X107062984Y-119237515D01*
X107037052Y-119192600D01*
X106990511Y-119111988D01*
X106990506Y-119111982D01*
X106888017Y-119009493D01*
X106888011Y-119009488D01*
X106762488Y-118937017D01*
X106762489Y-118937017D01*
X106751006Y-118933940D01*
X106622475Y-118899500D01*
X106477525Y-118899500D01*
X106348993Y-118933940D01*
X106337511Y-118937017D01*
X106211988Y-119009488D01*
X106211982Y-119009493D01*
X106109493Y-119111982D01*
X106104543Y-119118434D01*
X106103246Y-119117439D01*
X106059553Y-119159089D01*
X105990944Y-119172301D01*
X105926083Y-119146323D01*
X105915069Y-119136545D01*
X105838017Y-119059493D01*
X105838011Y-119059488D01*
X105712488Y-118987017D01*
X105712489Y-118987017D01*
X105701006Y-118983940D01*
X105572475Y-118949500D01*
X105427525Y-118949500D01*
X105298993Y-118983940D01*
X105287511Y-118987017D01*
X105161988Y-119059488D01*
X105161982Y-119059493D01*
X105087681Y-119133795D01*
X105026358Y-119167280D01*
X104956666Y-119162296D01*
X104912319Y-119133795D01*
X104838017Y-119059493D01*
X104838011Y-119059488D01*
X104712488Y-118987017D01*
X104712489Y-118987017D01*
X104701006Y-118983940D01*
X104572475Y-118949500D01*
X104427525Y-118949500D01*
X104298993Y-118983940D01*
X104287511Y-118987017D01*
X104161988Y-119059488D01*
X104161982Y-119059493D01*
X104059493Y-119161982D01*
X104059489Y-119161988D01*
X104029432Y-119214047D01*
X103978864Y-119262261D01*
X103910257Y-119275483D01*
X103845393Y-119249514D01*
X103804865Y-119192600D01*
X103802271Y-119184138D01*
X103800500Y-119177527D01*
X103800500Y-119177525D01*
X103762984Y-119037515D01*
X103746805Y-119009493D01*
X103690511Y-118911988D01*
X103690506Y-118911982D01*
X103588017Y-118809493D01*
X103588011Y-118809488D01*
X103462488Y-118737017D01*
X103462489Y-118737017D01*
X103451006Y-118733940D01*
X103322475Y-118699500D01*
X103177525Y-118699500D01*
X103048993Y-118733940D01*
X103037511Y-118737017D01*
X102911988Y-118809488D01*
X102911982Y-118809493D01*
X102809493Y-118911982D01*
X102809488Y-118911988D01*
X102737017Y-119037511D01*
X102737016Y-119037515D01*
X102699500Y-119177525D01*
X102199481Y-119177525D01*
X102190509Y-119161985D01*
X102088015Y-119059491D01*
X102088013Y-119059490D01*
X102088011Y-119059488D01*
X101962488Y-118987017D01*
X101962489Y-118987017D01*
X101951006Y-118983940D01*
X101822475Y-118949500D01*
X101677525Y-118949500D01*
X101548993Y-118983940D01*
X101537511Y-118987017D01*
X101411988Y-119059488D01*
X101411982Y-119059493D01*
X101309493Y-119161982D01*
X101309488Y-119161988D01*
X101232952Y-119294553D01*
X101230212Y-119292971D01*
X101195719Y-119335774D01*
X101129425Y-119357838D01*
X101061726Y-119340558D01*
X101018248Y-119293859D01*
X101017048Y-119294553D01*
X100940511Y-119161988D01*
X100940506Y-119161982D01*
X100838017Y-119059493D01*
X100838011Y-119059488D01*
X100712488Y-118987017D01*
X100712489Y-118987017D01*
X100701006Y-118983940D01*
X100572475Y-118949500D01*
X100427525Y-118949500D01*
X100298993Y-118983940D01*
X100287511Y-118987017D01*
X100161988Y-119059488D01*
X100161982Y-119059493D01*
X100059493Y-119161982D01*
X100059488Y-119161988D01*
X99987017Y-119287511D01*
X99987016Y-119287515D01*
X99949500Y-119427525D01*
X90153494Y-119427525D01*
X87501319Y-117184108D01*
X92749500Y-117184108D01*
X92749500Y-117315891D01*
X92783608Y-117443187D01*
X92816554Y-117500250D01*
X92849500Y-117557314D01*
X92942686Y-117650500D01*
X93056814Y-117716392D01*
X93184108Y-117750500D01*
X93184110Y-117750500D01*
X93315890Y-117750500D01*
X93315892Y-117750500D01*
X93443186Y-117716392D01*
X93499103Y-117684108D01*
X107999500Y-117684108D01*
X107999500Y-117815891D01*
X108033608Y-117943187D01*
X108066554Y-118000250D01*
X108099500Y-118057314D01*
X108192686Y-118150500D01*
X108306814Y-118216392D01*
X108434108Y-118250500D01*
X108434110Y-118250500D01*
X108565890Y-118250500D01*
X108565892Y-118250500D01*
X108693186Y-118216392D01*
X108807314Y-118150500D01*
X108900500Y-118057314D01*
X108966392Y-117943186D01*
X109000500Y-117815892D01*
X109000500Y-117684108D01*
X108987103Y-117634108D01*
X110049500Y-117634108D01*
X110049500Y-117765891D01*
X110083608Y-117893187D01*
X110112476Y-117943186D01*
X110149500Y-118007314D01*
X110242686Y-118100500D01*
X110356814Y-118166392D01*
X110484108Y-118200500D01*
X110484110Y-118200500D01*
X110615890Y-118200500D01*
X110615892Y-118200500D01*
X110743186Y-118166392D01*
X110857314Y-118100500D01*
X110950500Y-118007314D01*
X111016392Y-117893186D01*
X111050500Y-117765892D01*
X111050500Y-117634108D01*
X111016392Y-117506814D01*
X110950500Y-117392686D01*
X110857314Y-117299500D01*
X110770712Y-117249500D01*
X110743187Y-117233608D01*
X110679539Y-117216554D01*
X110615892Y-117199500D01*
X110484108Y-117199500D01*
X110356812Y-117233608D01*
X110242686Y-117299500D01*
X110242683Y-117299502D01*
X110149502Y-117392683D01*
X110149500Y-117392686D01*
X110083608Y-117506812D01*
X110049500Y-117634108D01*
X108987103Y-117634108D01*
X108966392Y-117556814D01*
X108900500Y-117442686D01*
X108807314Y-117349500D01*
X108749100Y-117315890D01*
X108693187Y-117283608D01*
X108629539Y-117266554D01*
X108565892Y-117249500D01*
X108434108Y-117249500D01*
X108306812Y-117283608D01*
X108192686Y-117349500D01*
X108192683Y-117349502D01*
X108099502Y-117442683D01*
X108099500Y-117442686D01*
X108033608Y-117556812D01*
X107999500Y-117684108D01*
X93499103Y-117684108D01*
X93557314Y-117650500D01*
X93650500Y-117557314D01*
X93716392Y-117443186D01*
X93750500Y-117315892D01*
X93750500Y-117184108D01*
X93716392Y-117056814D01*
X93650500Y-116942686D01*
X93557314Y-116849500D01*
X93472444Y-116800500D01*
X93443187Y-116783608D01*
X93366208Y-116762982D01*
X93315892Y-116749500D01*
X93184108Y-116749500D01*
X93056812Y-116783608D01*
X92942686Y-116849500D01*
X92942683Y-116849502D01*
X92849502Y-116942683D01*
X92849500Y-116942686D01*
X92783608Y-117056812D01*
X92749500Y-117184108D01*
X87501319Y-117184108D01*
X86311333Y-116177525D01*
X102699500Y-116177525D01*
X102699500Y-116322475D01*
X102737016Y-116462485D01*
X102737017Y-116462488D01*
X102809488Y-116588011D01*
X102809490Y-116588013D01*
X102809491Y-116588015D01*
X102911985Y-116690509D01*
X102911986Y-116690510D01*
X102911988Y-116690511D01*
X103037511Y-116762982D01*
X103037512Y-116762982D01*
X103037515Y-116762984D01*
X103177525Y-116800500D01*
X103177528Y-116800500D01*
X103322472Y-116800500D01*
X103322475Y-116800500D01*
X103462485Y-116762984D01*
X103588015Y-116690509D01*
X103690509Y-116588015D01*
X103762984Y-116462485D01*
X103800500Y-116322475D01*
X103800500Y-116177525D01*
X103762984Y-116037515D01*
X103690509Y-115911985D01*
X103675054Y-115896530D01*
X111869500Y-115896530D01*
X111869500Y-116103469D01*
X111909868Y-116306412D01*
X111909870Y-116306420D01*
X111989058Y-116497596D01*
X112104024Y-116669657D01*
X112250342Y-116815975D01*
X112250345Y-116815977D01*
X112422402Y-116930941D01*
X112613580Y-117010130D01*
X112758052Y-117038867D01*
X112816530Y-117050499D01*
X112816534Y-117050500D01*
X112816535Y-117050500D01*
X113023466Y-117050500D01*
X113023467Y-117050499D01*
X113226420Y-117010130D01*
X113417598Y-116930941D01*
X113589655Y-116815977D01*
X113735977Y-116669655D01*
X113850941Y-116497598D01*
X113930130Y-116306420D01*
X113970500Y-116103465D01*
X113970500Y-115896535D01*
X113970499Y-115896530D01*
X114409500Y-115896530D01*
X114409500Y-116103469D01*
X114449868Y-116306412D01*
X114449870Y-116306420D01*
X114529058Y-116497596D01*
X114644024Y-116669657D01*
X114790342Y-116815975D01*
X114790345Y-116815977D01*
X114962402Y-116930941D01*
X115153580Y-117010130D01*
X115298052Y-117038867D01*
X115356530Y-117050499D01*
X115356534Y-117050500D01*
X115356535Y-117050500D01*
X115563466Y-117050500D01*
X115563467Y-117050499D01*
X115766420Y-117010130D01*
X115957598Y-116930941D01*
X116129655Y-116815977D01*
X116275977Y-116669655D01*
X116390941Y-116497598D01*
X116470130Y-116306420D01*
X116510500Y-116103465D01*
X116510500Y-115896535D01*
X116470130Y-115693580D01*
X116390941Y-115502402D01*
X116275977Y-115330345D01*
X116275975Y-115330342D01*
X116129657Y-115184024D01*
X116049173Y-115130247D01*
X116949500Y-115130247D01*
X116949500Y-116869752D01*
X116961131Y-116928229D01*
X116961132Y-116928230D01*
X117005447Y-116994552D01*
X117071769Y-117038867D01*
X117071770Y-117038868D01*
X117130247Y-117050499D01*
X117130250Y-117050500D01*
X117130252Y-117050500D01*
X118869750Y-117050500D01*
X118869751Y-117050499D01*
X118884568Y-117047552D01*
X118928229Y-117038868D01*
X118928229Y-117038867D01*
X118928231Y-117038867D01*
X118994552Y-116994552D01*
X119038867Y-116928231D01*
X119038867Y-116928229D01*
X119038868Y-116928229D01*
X119050499Y-116869752D01*
X119050500Y-116869750D01*
X119050500Y-115130249D01*
X119050499Y-115130247D01*
X119038868Y-115071770D01*
X119038867Y-115071769D01*
X118994552Y-115005447D01*
X118928230Y-114961132D01*
X118928229Y-114961131D01*
X118869752Y-114949500D01*
X118869748Y-114949500D01*
X117130252Y-114949500D01*
X117130247Y-114949500D01*
X117071770Y-114961131D01*
X117071769Y-114961132D01*
X117005447Y-115005447D01*
X116961132Y-115071769D01*
X116961131Y-115071770D01*
X116949500Y-115130247D01*
X116049173Y-115130247D01*
X115961655Y-115071770D01*
X115957598Y-115069059D01*
X115766420Y-114989870D01*
X115766412Y-114989868D01*
X115563469Y-114949500D01*
X115563465Y-114949500D01*
X115356535Y-114949500D01*
X115356530Y-114949500D01*
X115153587Y-114989868D01*
X115153579Y-114989870D01*
X114962403Y-115069058D01*
X114790342Y-115184024D01*
X114644024Y-115330342D01*
X114529058Y-115502403D01*
X114449870Y-115693579D01*
X114449868Y-115693587D01*
X114409500Y-115896530D01*
X113970499Y-115896530D01*
X113930130Y-115693580D01*
X113850941Y-115502402D01*
X113735977Y-115330345D01*
X113735975Y-115330342D01*
X113589657Y-115184024D01*
X113421655Y-115071770D01*
X113417598Y-115069059D01*
X113226420Y-114989870D01*
X113226412Y-114989868D01*
X113023469Y-114949500D01*
X113023465Y-114949500D01*
X112816535Y-114949500D01*
X112816530Y-114949500D01*
X112613587Y-114989868D01*
X112613579Y-114989870D01*
X112422403Y-115069058D01*
X112250342Y-115184024D01*
X112104024Y-115330342D01*
X111989058Y-115502403D01*
X111909870Y-115693579D01*
X111909868Y-115693587D01*
X111869500Y-115896530D01*
X103675054Y-115896530D01*
X103588015Y-115809491D01*
X103588013Y-115809490D01*
X103588011Y-115809488D01*
X103462488Y-115737017D01*
X103462489Y-115737017D01*
X103451006Y-115733940D01*
X103322475Y-115699500D01*
X103177525Y-115699500D01*
X103048993Y-115733940D01*
X103037511Y-115737017D01*
X102911988Y-115809488D01*
X102911982Y-115809493D01*
X102809493Y-115911982D01*
X102809488Y-115911988D01*
X102737017Y-116037511D01*
X102737016Y-116037515D01*
X102699500Y-116177525D01*
X86311333Y-116177525D01*
X82183457Y-112685844D01*
X81599418Y-112191818D01*
X81560947Y-112133493D01*
X81555500Y-112097145D01*
X81555500Y-111684108D01*
X97599500Y-111684108D01*
X97599500Y-111815891D01*
X97633608Y-111943187D01*
X97652256Y-111975485D01*
X97699500Y-112057314D01*
X97792686Y-112150500D01*
X97906814Y-112216392D01*
X98034108Y-112250500D01*
X98034110Y-112250500D01*
X98165890Y-112250500D01*
X98165892Y-112250500D01*
X98293186Y-112216392D01*
X98407314Y-112150500D01*
X98500500Y-112057314D01*
X98566392Y-111943186D01*
X98600500Y-111815892D01*
X98600500Y-111784108D01*
X106149500Y-111784108D01*
X106149500Y-111915892D01*
X106150836Y-111920877D01*
X106183608Y-112043187D01*
X106200241Y-112071995D01*
X106249500Y-112157314D01*
X106342686Y-112250500D01*
X106425130Y-112298099D01*
X106452440Y-112313867D01*
X106456814Y-112316392D01*
X106584108Y-112350500D01*
X106584110Y-112350500D01*
X106715890Y-112350500D01*
X106715892Y-112350500D01*
X106843186Y-112316392D01*
X106957314Y-112250500D01*
X107050500Y-112157314D01*
X107116392Y-112043186D01*
X107150500Y-111915892D01*
X107150500Y-111784108D01*
X107116392Y-111656814D01*
X107050500Y-111542686D01*
X106957314Y-111449500D01*
X106872439Y-111400497D01*
X106843187Y-111383608D01*
X106779539Y-111366554D01*
X106715892Y-111349500D01*
X106584108Y-111349500D01*
X106456812Y-111383608D01*
X106342686Y-111449500D01*
X106342683Y-111449502D01*
X106249502Y-111542683D01*
X106249500Y-111542686D01*
X106183608Y-111656812D01*
X106176294Y-111684110D01*
X106149500Y-111784108D01*
X98600500Y-111784108D01*
X98600500Y-111684108D01*
X98566392Y-111556814D01*
X98500500Y-111442686D01*
X98407314Y-111349500D01*
X98350250Y-111316554D01*
X98293187Y-111283608D01*
X98229539Y-111266554D01*
X98165892Y-111249500D01*
X98034108Y-111249500D01*
X97906812Y-111283608D01*
X97792686Y-111349500D01*
X97792683Y-111349502D01*
X97699502Y-111442683D01*
X97699500Y-111442686D01*
X97633608Y-111556812D01*
X97599500Y-111684108D01*
X81555500Y-111684108D01*
X81555500Y-110934108D01*
X85499500Y-110934108D01*
X85499500Y-111065891D01*
X85533608Y-111193187D01*
X85562629Y-111243452D01*
X85599500Y-111307314D01*
X85692686Y-111400500D01*
X85806814Y-111466392D01*
X85934108Y-111500500D01*
X85934110Y-111500500D01*
X86065890Y-111500500D01*
X86065892Y-111500500D01*
X86193186Y-111466392D01*
X86307314Y-111400500D01*
X86400500Y-111307314D01*
X86466392Y-111193186D01*
X86500500Y-111065892D01*
X86500500Y-110984374D01*
X91811515Y-110984374D01*
X91811515Y-111116157D01*
X91845623Y-111243453D01*
X91868807Y-111283608D01*
X91911515Y-111357580D01*
X92004701Y-111450766D01*
X92118829Y-111516658D01*
X92246123Y-111550766D01*
X92246125Y-111550766D01*
X92377905Y-111550766D01*
X92377907Y-111550766D01*
X92505201Y-111516658D01*
X92619329Y-111450766D01*
X92712515Y-111357580D01*
X92778407Y-111243452D01*
X92812515Y-111116158D01*
X92812515Y-110984374D01*
X92778407Y-110857080D01*
X92712515Y-110742952D01*
X92619329Y-110649766D01*
X92562265Y-110616820D01*
X92505202Y-110583874D01*
X92441554Y-110566820D01*
X92377907Y-110549766D01*
X92246123Y-110549766D01*
X92118827Y-110583874D01*
X92004701Y-110649766D01*
X92004698Y-110649768D01*
X91911517Y-110742949D01*
X91911515Y-110742952D01*
X91845623Y-110857078D01*
X91811515Y-110984374D01*
X86500500Y-110984374D01*
X86500500Y-110934108D01*
X86466392Y-110806814D01*
X86400500Y-110692686D01*
X86307314Y-110599500D01*
X86250250Y-110566554D01*
X86193187Y-110533608D01*
X86129539Y-110516554D01*
X86065892Y-110499500D01*
X85934108Y-110499500D01*
X85806812Y-110533608D01*
X85692686Y-110599500D01*
X85692683Y-110599502D01*
X85599502Y-110692683D01*
X85599500Y-110692686D01*
X85533608Y-110806812D01*
X85499500Y-110934108D01*
X81555500Y-110934108D01*
X81555500Y-109584108D01*
X102749500Y-109584108D01*
X102749500Y-109715892D01*
X102766554Y-109779539D01*
X102783608Y-109843187D01*
X102816554Y-109900250D01*
X102849500Y-109957314D01*
X102942686Y-110050500D01*
X103056814Y-110116392D01*
X103184108Y-110150500D01*
X103184110Y-110150500D01*
X103315890Y-110150500D01*
X103315892Y-110150500D01*
X103443186Y-110116392D01*
X103557314Y-110050500D01*
X103650500Y-109957314D01*
X103716392Y-109843186D01*
X103732222Y-109784108D01*
X104049500Y-109784108D01*
X104049500Y-109915892D01*
X104066554Y-109979539D01*
X104083608Y-110043187D01*
X104116554Y-110100250D01*
X104149500Y-110157314D01*
X104242686Y-110250500D01*
X104356814Y-110316392D01*
X104484108Y-110350500D01*
X104484110Y-110350500D01*
X104615890Y-110350500D01*
X104615892Y-110350500D01*
X104743186Y-110316392D01*
X104857314Y-110250500D01*
X104950500Y-110157314D01*
X105016392Y-110043186D01*
X105050500Y-109915892D01*
X105050500Y-109784108D01*
X117549500Y-109784108D01*
X117549500Y-109915892D01*
X117566554Y-109979539D01*
X117583608Y-110043187D01*
X117616554Y-110100250D01*
X117649500Y-110157314D01*
X117742686Y-110250500D01*
X117856814Y-110316392D01*
X117984108Y-110350500D01*
X117984110Y-110350500D01*
X118115890Y-110350500D01*
X118115892Y-110350500D01*
X118243186Y-110316392D01*
X118357314Y-110250500D01*
X118450500Y-110157314D01*
X118516392Y-110043186D01*
X118550500Y-109915892D01*
X118550500Y-109784108D01*
X118516392Y-109656814D01*
X118450500Y-109542686D01*
X118357314Y-109449500D01*
X118299968Y-109416391D01*
X118243187Y-109383608D01*
X118179539Y-109366554D01*
X118115892Y-109349500D01*
X117984108Y-109349500D01*
X117856812Y-109383608D01*
X117742686Y-109449500D01*
X117742683Y-109449502D01*
X117649502Y-109542683D01*
X117649500Y-109542686D01*
X117583608Y-109656812D01*
X117567778Y-109715892D01*
X117549500Y-109784108D01*
X105050500Y-109784108D01*
X105016392Y-109656814D01*
X104950500Y-109542686D01*
X104857314Y-109449500D01*
X104799968Y-109416391D01*
X104743187Y-109383608D01*
X104679539Y-109366554D01*
X104615892Y-109349500D01*
X104484108Y-109349500D01*
X104356812Y-109383608D01*
X104242686Y-109449500D01*
X104242683Y-109449502D01*
X104149502Y-109542683D01*
X104149500Y-109542686D01*
X104083608Y-109656812D01*
X104067778Y-109715892D01*
X104049500Y-109784108D01*
X103732222Y-109784108D01*
X103750500Y-109715892D01*
X103750500Y-109584108D01*
X103716392Y-109456814D01*
X103650500Y-109342686D01*
X103557314Y-109249500D01*
X103471285Y-109199831D01*
X103443187Y-109183608D01*
X103379539Y-109166554D01*
X103315892Y-109149500D01*
X103184108Y-109149500D01*
X103056812Y-109183608D01*
X102942686Y-109249500D01*
X102942683Y-109249502D01*
X102849502Y-109342683D01*
X102849500Y-109342686D01*
X102783608Y-109456812D01*
X102771902Y-109500500D01*
X102749500Y-109584108D01*
X81555500Y-109584108D01*
X81555500Y-108934108D01*
X85499500Y-108934108D01*
X85499500Y-109065892D01*
X85516554Y-109129539D01*
X85533608Y-109193187D01*
X85566121Y-109249500D01*
X85599500Y-109307314D01*
X85692686Y-109400500D01*
X85790221Y-109456812D01*
X85806810Y-109466390D01*
X85806814Y-109466392D01*
X85934108Y-109500500D01*
X85934110Y-109500500D01*
X86065890Y-109500500D01*
X86065892Y-109500500D01*
X86193186Y-109466392D01*
X86307314Y-109400500D01*
X86400500Y-109307314D01*
X86466392Y-109193186D01*
X86500500Y-109065892D01*
X86500500Y-108934108D01*
X86487103Y-108884108D01*
X91849500Y-108884108D01*
X91849500Y-109015891D01*
X91883608Y-109143187D01*
X91887253Y-109149500D01*
X91949500Y-109257314D01*
X92042686Y-109350500D01*
X92156814Y-109416392D01*
X92284108Y-109450500D01*
X92284110Y-109450500D01*
X92415890Y-109450500D01*
X92415892Y-109450500D01*
X92543186Y-109416392D01*
X92657314Y-109350500D01*
X92750500Y-109257314D01*
X92816392Y-109143186D01*
X92850500Y-109015892D01*
X92850500Y-108884108D01*
X92816392Y-108756814D01*
X92750500Y-108642686D01*
X92657314Y-108549500D01*
X92558910Y-108492686D01*
X92543187Y-108483608D01*
X92479539Y-108466554D01*
X92415892Y-108449500D01*
X92284108Y-108449500D01*
X92156812Y-108483608D01*
X92042686Y-108549500D01*
X92042683Y-108549502D01*
X91949502Y-108642683D01*
X91949500Y-108642686D01*
X91883608Y-108756812D01*
X91849500Y-108884108D01*
X86487103Y-108884108D01*
X86466392Y-108806814D01*
X86400500Y-108692686D01*
X86307314Y-108599500D01*
X86249100Y-108565890D01*
X86193187Y-108533608D01*
X86129539Y-108516554D01*
X86065892Y-108499500D01*
X85934108Y-108499500D01*
X85806812Y-108533608D01*
X85692686Y-108599500D01*
X85692683Y-108599502D01*
X85599502Y-108692683D01*
X85599500Y-108692686D01*
X85533608Y-108806812D01*
X85517778Y-108865892D01*
X85499500Y-108934108D01*
X81555500Y-108934108D01*
X81555500Y-108034108D01*
X95449500Y-108034108D01*
X95449500Y-108165892D01*
X95466554Y-108229539D01*
X95483608Y-108293187D01*
X95487253Y-108299500D01*
X95549500Y-108407314D01*
X95642686Y-108500500D01*
X95727560Y-108549502D01*
X95755944Y-108565890D01*
X95756814Y-108566392D01*
X95884108Y-108600500D01*
X95884110Y-108600500D01*
X96015890Y-108600500D01*
X96015892Y-108600500D01*
X96143186Y-108566392D01*
X96257314Y-108500500D01*
X96323706Y-108434108D01*
X117499500Y-108434108D01*
X117499500Y-108565891D01*
X117533608Y-108693187D01*
X117566554Y-108750250D01*
X117599500Y-108807314D01*
X117692686Y-108900500D01*
X117806814Y-108966392D01*
X117934108Y-109000500D01*
X117934110Y-109000500D01*
X118065890Y-109000500D01*
X118065892Y-109000500D01*
X118193186Y-108966392D01*
X118307314Y-108900500D01*
X118400500Y-108807314D01*
X118442766Y-108734108D01*
X122799500Y-108734108D01*
X122799500Y-108865892D01*
X122808772Y-108900497D01*
X122833608Y-108993187D01*
X122846717Y-109015892D01*
X122899500Y-109107314D01*
X122992686Y-109200500D01*
X123106814Y-109266392D01*
X123234108Y-109300500D01*
X123234110Y-109300500D01*
X123365890Y-109300500D01*
X123365892Y-109300500D01*
X123493186Y-109266392D01*
X123607314Y-109200500D01*
X123700500Y-109107314D01*
X123766392Y-108993186D01*
X123800500Y-108865892D01*
X123800500Y-108734108D01*
X123766392Y-108606814D01*
X123700500Y-108492686D01*
X123607314Y-108399500D01*
X123545792Y-108363980D01*
X123493187Y-108333608D01*
X123393188Y-108306814D01*
X123365892Y-108299500D01*
X123234108Y-108299500D01*
X123106812Y-108333608D01*
X122992686Y-108399500D01*
X122992683Y-108399502D01*
X122899502Y-108492683D01*
X122899500Y-108492686D01*
X122833608Y-108606812D01*
X122799500Y-108734108D01*
X118442766Y-108734108D01*
X118466392Y-108693186D01*
X118500500Y-108565892D01*
X118500500Y-108434108D01*
X118466392Y-108306814D01*
X118400500Y-108192686D01*
X118307314Y-108099500D01*
X118250250Y-108066554D01*
X118193187Y-108033608D01*
X118129539Y-108016554D01*
X118065892Y-107999500D01*
X117934108Y-107999500D01*
X117806812Y-108033608D01*
X117692686Y-108099500D01*
X117692683Y-108099502D01*
X117599502Y-108192683D01*
X117599500Y-108192686D01*
X117533608Y-108306812D01*
X117499500Y-108434108D01*
X96323706Y-108434108D01*
X96350500Y-108407314D01*
X96363023Y-108385622D01*
X96375520Y-108363980D01*
X96408525Y-108306812D01*
X96416392Y-108293186D01*
X96450500Y-108165892D01*
X96450500Y-108034108D01*
X96416392Y-107906814D01*
X96350500Y-107792686D01*
X96257314Y-107699500D01*
X96200250Y-107666554D01*
X96143187Y-107633608D01*
X96079539Y-107616554D01*
X96015892Y-107599500D01*
X95884108Y-107599500D01*
X95756812Y-107633608D01*
X95642686Y-107699500D01*
X95642683Y-107699502D01*
X95549502Y-107792683D01*
X95549500Y-107792686D01*
X95483608Y-107906812D01*
X95458773Y-107999500D01*
X95449500Y-108034108D01*
X81555500Y-108034108D01*
X81555500Y-106934108D01*
X85499500Y-106934108D01*
X85499500Y-107065892D01*
X85500303Y-107068887D01*
X85533608Y-107193187D01*
X85561151Y-107240892D01*
X85599500Y-107307314D01*
X85692686Y-107400500D01*
X85806814Y-107466392D01*
X85934108Y-107500500D01*
X85934110Y-107500500D01*
X86065890Y-107500500D01*
X86065892Y-107500500D01*
X86193186Y-107466392D01*
X86307314Y-107400500D01*
X86400500Y-107307314D01*
X86466392Y-107193186D01*
X86488920Y-107109108D01*
X101474500Y-107109108D01*
X101474500Y-107240891D01*
X101508608Y-107368187D01*
X101541554Y-107425250D01*
X101574500Y-107482314D01*
X101667686Y-107575500D01*
X101781814Y-107641392D01*
X101909108Y-107675500D01*
X101909110Y-107675500D01*
X102040890Y-107675500D01*
X102040892Y-107675500D01*
X102168186Y-107641392D01*
X102282314Y-107575500D01*
X102375500Y-107482314D01*
X102441392Y-107368186D01*
X102475500Y-107240892D01*
X102475500Y-107109108D01*
X102473033Y-107099901D01*
X102474694Y-107030053D01*
X102513856Y-106972190D01*
X102578084Y-106944684D01*
X102624900Y-106948032D01*
X102634108Y-106950500D01*
X102634110Y-106950500D01*
X102765890Y-106950500D01*
X102765892Y-106950500D01*
X102893186Y-106916392D01*
X103007314Y-106850500D01*
X103100500Y-106757314D01*
X103166392Y-106643186D01*
X103200500Y-106515892D01*
X103200500Y-106384108D01*
X103187103Y-106334108D01*
X104749500Y-106334108D01*
X104749500Y-106465891D01*
X104783608Y-106593187D01*
X104804905Y-106630074D01*
X104849500Y-106707314D01*
X104942686Y-106800500D01*
X105056814Y-106866392D01*
X105184108Y-106900500D01*
X105184110Y-106900500D01*
X105315890Y-106900500D01*
X105315892Y-106900500D01*
X105443186Y-106866392D01*
X105557314Y-106800500D01*
X105650500Y-106707314D01*
X105716392Y-106593186D01*
X105750500Y-106465892D01*
X105750500Y-106334108D01*
X105716392Y-106206814D01*
X105650500Y-106092686D01*
X105557314Y-105999500D01*
X105470712Y-105949500D01*
X105443187Y-105933608D01*
X105379539Y-105916554D01*
X105315892Y-105899500D01*
X105184108Y-105899500D01*
X105056812Y-105933608D01*
X104942686Y-105999500D01*
X104942683Y-105999502D01*
X104849502Y-106092683D01*
X104849500Y-106092686D01*
X104783608Y-106206812D01*
X104749500Y-106334108D01*
X103187103Y-106334108D01*
X103166392Y-106256814D01*
X103100500Y-106142686D01*
X103007314Y-106049500D01*
X102950250Y-106016554D01*
X102893187Y-105983608D01*
X102829539Y-105966554D01*
X102765892Y-105949500D01*
X102634108Y-105949500D01*
X102506812Y-105983608D01*
X102392686Y-106049500D01*
X102392683Y-106049502D01*
X102299502Y-106142683D01*
X102299500Y-106142686D01*
X102233608Y-106256812D01*
X102219849Y-106308162D01*
X102199500Y-106384108D01*
X102199500Y-106515892D01*
X102201968Y-106525101D01*
X102200303Y-106594951D01*
X102161139Y-106652813D01*
X102096910Y-106680315D01*
X102050103Y-106676968D01*
X102040892Y-106674500D01*
X101909108Y-106674500D01*
X101781812Y-106708608D01*
X101667686Y-106774500D01*
X101667683Y-106774502D01*
X101574502Y-106867683D01*
X101574500Y-106867686D01*
X101508608Y-106981812D01*
X101474500Y-107109108D01*
X86488920Y-107109108D01*
X86500500Y-107065892D01*
X86500500Y-106934108D01*
X86466392Y-106806814D01*
X86400500Y-106692686D01*
X86307314Y-106599500D01*
X86250250Y-106566554D01*
X86193187Y-106533608D01*
X86127057Y-106515889D01*
X86065892Y-106499500D01*
X85934108Y-106499500D01*
X85806812Y-106533608D01*
X85692686Y-106599500D01*
X85692683Y-106599502D01*
X85599502Y-106692683D01*
X85599500Y-106692686D01*
X85533608Y-106806812D01*
X85508505Y-106900499D01*
X85499500Y-106934108D01*
X81555500Y-106934108D01*
X81555500Y-105741770D01*
X116151317Y-105741770D01*
X116151317Y-105873553D01*
X116185425Y-106000849D01*
X116213514Y-106049500D01*
X116251317Y-106114976D01*
X116344503Y-106208162D01*
X116458631Y-106274054D01*
X116585925Y-106308162D01*
X116585927Y-106308162D01*
X116717707Y-106308162D01*
X116717709Y-106308162D01*
X116845003Y-106274054D01*
X116959131Y-106208162D01*
X117052317Y-106114976D01*
X117118209Y-106000848D01*
X117152317Y-105873554D01*
X117152317Y-105741770D01*
X117118209Y-105614476D01*
X117052317Y-105500348D01*
X116959131Y-105407162D01*
X116902067Y-105374216D01*
X116845004Y-105341270D01*
X116781356Y-105324216D01*
X116717709Y-105307162D01*
X116585925Y-105307162D01*
X116458629Y-105341270D01*
X116344503Y-105407162D01*
X116344500Y-105407164D01*
X116251319Y-105500345D01*
X116251317Y-105500348D01*
X116185425Y-105614474D01*
X116151317Y-105741770D01*
X81555500Y-105741770D01*
X81555500Y-104934108D01*
X106199500Y-104934108D01*
X106199500Y-105065891D01*
X106233608Y-105193187D01*
X106266554Y-105250250D01*
X106299500Y-105307314D01*
X106392686Y-105400500D01*
X106506814Y-105466392D01*
X106634108Y-105500500D01*
X106634110Y-105500500D01*
X106765890Y-105500500D01*
X106765892Y-105500500D01*
X106893186Y-105466392D01*
X107007314Y-105400500D01*
X107100500Y-105307314D01*
X107166392Y-105193186D01*
X107200500Y-105065892D01*
X107200500Y-104934108D01*
X107166392Y-104806814D01*
X107100500Y-104692686D01*
X107007314Y-104599500D01*
X106950250Y-104566554D01*
X106893187Y-104533608D01*
X106829539Y-104516554D01*
X106765892Y-104499500D01*
X106634108Y-104499500D01*
X106506812Y-104533608D01*
X106392686Y-104599500D01*
X106392683Y-104599502D01*
X106299502Y-104692683D01*
X106299500Y-104692686D01*
X106233608Y-104806812D01*
X106199500Y-104934108D01*
X81555500Y-104934108D01*
X81555500Y-103584108D01*
X99549500Y-103584108D01*
X99549500Y-103715891D01*
X99583608Y-103843187D01*
X99616554Y-103900250D01*
X99649500Y-103957314D01*
X99742686Y-104050500D01*
X99856814Y-104116392D01*
X99984108Y-104150500D01*
X99984110Y-104150500D01*
X100115890Y-104150500D01*
X100115892Y-104150500D01*
X100243186Y-104116392D01*
X100357314Y-104050500D01*
X100450500Y-103957314D01*
X100516392Y-103843186D01*
X100550500Y-103715892D01*
X100550500Y-103699772D01*
X100570185Y-103632733D01*
X100622989Y-103586978D01*
X100642399Y-103580000D01*
X100693186Y-103566392D01*
X100807314Y-103500500D01*
X100900500Y-103407314D01*
X100966392Y-103293186D01*
X101000500Y-103165892D01*
X101000500Y-103034108D01*
X100966392Y-102906814D01*
X100900500Y-102792686D01*
X100866922Y-102759108D01*
X114024500Y-102759108D01*
X114024500Y-102890892D01*
X114025303Y-102893887D01*
X114058608Y-103018187D01*
X114086151Y-103065892D01*
X114124500Y-103132314D01*
X114217686Y-103225500D01*
X114331814Y-103291392D01*
X114459108Y-103325500D01*
X114459110Y-103325500D01*
X114590890Y-103325500D01*
X114590892Y-103325500D01*
X114718186Y-103291392D01*
X114832314Y-103225500D01*
X114925500Y-103132314D01*
X114991392Y-103018186D01*
X115013920Y-102934108D01*
X126299500Y-102934108D01*
X126299500Y-103065892D01*
X126316554Y-103129539D01*
X126333608Y-103193187D01*
X126366121Y-103249500D01*
X126399500Y-103307314D01*
X126492686Y-103400500D01*
X126606814Y-103466392D01*
X126734108Y-103500500D01*
X126734110Y-103500500D01*
X126865890Y-103500500D01*
X126865892Y-103500500D01*
X126993186Y-103466392D01*
X127107314Y-103400500D01*
X127200500Y-103307314D01*
X127266392Y-103193186D01*
X127300500Y-103065892D01*
X127300500Y-102934108D01*
X127266392Y-102806814D01*
X127200500Y-102692686D01*
X127107314Y-102599500D01*
X127022442Y-102550499D01*
X126993187Y-102533608D01*
X126928931Y-102516391D01*
X126865892Y-102499500D01*
X126734108Y-102499500D01*
X126606812Y-102533608D01*
X126492686Y-102599500D01*
X126492683Y-102599502D01*
X126399502Y-102692683D01*
X126399500Y-102692686D01*
X126333608Y-102806812D01*
X126306813Y-102906814D01*
X126299500Y-102934108D01*
X115013920Y-102934108D01*
X115025500Y-102890892D01*
X115025500Y-102759108D01*
X114991392Y-102631814D01*
X114925500Y-102517686D01*
X114832314Y-102424500D01*
X114775250Y-102391554D01*
X114718187Y-102358608D01*
X114654539Y-102341554D01*
X114590892Y-102324500D01*
X114459108Y-102324500D01*
X114331812Y-102358608D01*
X114217686Y-102424500D01*
X114217683Y-102424502D01*
X114124502Y-102517683D01*
X114124500Y-102517686D01*
X114058608Y-102631812D01*
X114040472Y-102699500D01*
X114024500Y-102759108D01*
X100866922Y-102759108D01*
X100807314Y-102699500D01*
X100750250Y-102666554D01*
X100693187Y-102633608D01*
X100629539Y-102616554D01*
X100565892Y-102599500D01*
X100434108Y-102599500D01*
X100306812Y-102633608D01*
X100192686Y-102699500D01*
X100192683Y-102699502D01*
X100099502Y-102792683D01*
X100099500Y-102792686D01*
X100033608Y-102906812D01*
X99999500Y-103034108D01*
X99999500Y-103050227D01*
X99979815Y-103117266D01*
X99927011Y-103163021D01*
X99907597Y-103170000D01*
X99856814Y-103183608D01*
X99856812Y-103183608D01*
X99856812Y-103183609D01*
X99742686Y-103249500D01*
X99742683Y-103249502D01*
X99649502Y-103342683D01*
X99649500Y-103342686D01*
X99583608Y-103456812D01*
X99549500Y-103584108D01*
X81555500Y-103584108D01*
X81555500Y-101726353D01*
X81554321Y-101704381D01*
X81551488Y-101678034D01*
X81551487Y-101678032D01*
X81545000Y-101657314D01*
X81527529Y-101601518D01*
X81494044Y-101540195D01*
X81458991Y-101493371D01*
X81443145Y-101477525D01*
X93199500Y-101477525D01*
X93199500Y-101622475D01*
X93233805Y-101750500D01*
X93237017Y-101762488D01*
X93309488Y-101888011D01*
X93309490Y-101888013D01*
X93309491Y-101888015D01*
X93411985Y-101990509D01*
X93411986Y-101990510D01*
X93411988Y-101990511D01*
X93537511Y-102062982D01*
X93537512Y-102062982D01*
X93537515Y-102062984D01*
X93677525Y-102100500D01*
X93677528Y-102100500D01*
X93822472Y-102100500D01*
X93822475Y-102100500D01*
X93962485Y-102062984D01*
X94088015Y-101990509D01*
X94190509Y-101888015D01*
X94262984Y-101762485D01*
X94300500Y-101622475D01*
X94300500Y-101524500D01*
X94320185Y-101457461D01*
X94372989Y-101411706D01*
X94424500Y-101400500D01*
X94572472Y-101400500D01*
X94572475Y-101400500D01*
X94712485Y-101362984D01*
X94838015Y-101290509D01*
X94940509Y-101188015D01*
X95012984Y-101062485D01*
X95050500Y-100922475D01*
X95050500Y-100777525D01*
X95012984Y-100637515D01*
X95000499Y-100615891D01*
X94940511Y-100511988D01*
X94940506Y-100511982D01*
X94838017Y-100409493D01*
X94838011Y-100409488D01*
X94712488Y-100337017D01*
X94712489Y-100337017D01*
X94701006Y-100333940D01*
X94572475Y-100299500D01*
X94427525Y-100299500D01*
X94298993Y-100333940D01*
X94287511Y-100337017D01*
X94161988Y-100409488D01*
X94161982Y-100409493D01*
X94059493Y-100511982D01*
X94059488Y-100511988D01*
X93987017Y-100637511D01*
X93987016Y-100637515D01*
X93949500Y-100777525D01*
X93949500Y-100777527D01*
X93949500Y-100875500D01*
X93929815Y-100942539D01*
X93877011Y-100988294D01*
X93825500Y-100999500D01*
X93822475Y-100999500D01*
X93677525Y-100999500D01*
X93550234Y-101033608D01*
X93537511Y-101037017D01*
X93411988Y-101109488D01*
X93411982Y-101109493D01*
X93309493Y-101211982D01*
X93309488Y-101211988D01*
X93237017Y-101337511D01*
X93237016Y-101337515D01*
X93199500Y-101477525D01*
X81443145Y-101477525D01*
X81356629Y-101391009D01*
X81340262Y-101376307D01*
X81340003Y-101376099D01*
X81339544Y-101375604D01*
X81339137Y-101375299D01*
X81335659Y-101372597D01*
X81319620Y-101359673D01*
X81319619Y-101359672D01*
X81319615Y-101359669D01*
X81314526Y-101356334D01*
X81314680Y-101356098D01*
X81307126Y-101351338D01*
X81306213Y-101350654D01*
X81306212Y-101350653D01*
X81306210Y-101350652D01*
X81306205Y-101350649D01*
X81279090Y-101338266D01*
X81273048Y-101335306D01*
X81271945Y-101334728D01*
X81221701Y-101286176D01*
X81205500Y-101224895D01*
X81205500Y-100484108D01*
X84399500Y-100484108D01*
X84399500Y-100615891D01*
X84433608Y-100743187D01*
X84453435Y-100777527D01*
X84499500Y-100857314D01*
X84592686Y-100950500D01*
X84706814Y-101016392D01*
X84834108Y-101050500D01*
X84834110Y-101050500D01*
X84965890Y-101050500D01*
X84965892Y-101050500D01*
X85093186Y-101016392D01*
X85207314Y-100950500D01*
X85300500Y-100857314D01*
X85366392Y-100743186D01*
X85400500Y-100615892D01*
X85400500Y-100484108D01*
X85366392Y-100356814D01*
X85300500Y-100242686D01*
X85207314Y-100149500D01*
X85147884Y-100115188D01*
X85093187Y-100083608D01*
X85027061Y-100065890D01*
X84965892Y-100049500D01*
X84834108Y-100049500D01*
X84706812Y-100083608D01*
X84592686Y-100149500D01*
X84592683Y-100149502D01*
X84499502Y-100242683D01*
X84499500Y-100242686D01*
X84433608Y-100356812D01*
X84399500Y-100484108D01*
X81205500Y-100484108D01*
X81205500Y-100301361D01*
X81204321Y-100279381D01*
X81201488Y-100253034D01*
X81201487Y-100253032D01*
X81200381Y-100249500D01*
X81177529Y-100176518D01*
X81144044Y-100115195D01*
X81138144Y-100107314D01*
X81109001Y-100068384D01*
X81108998Y-100068381D01*
X81108991Y-100068371D01*
X81028054Y-99987434D01*
X80931634Y-99891013D01*
X80931633Y-99891012D01*
X80915283Y-99876325D01*
X80915269Y-99876313D01*
X80894620Y-99859672D01*
X80823575Y-99822509D01*
X80756543Y-99802826D01*
X80755894Y-99802732D01*
X80698638Y-99794500D01*
X78663524Y-99794500D01*
X78596485Y-99774815D01*
X78550730Y-99722011D01*
X78540786Y-99652853D01*
X78543749Y-99638407D01*
X78549648Y-99616391D01*
X78560500Y-99575892D01*
X78560500Y-99444108D01*
X78544423Y-99384108D01*
X93549500Y-99384108D01*
X93549500Y-99515892D01*
X93561165Y-99559427D01*
X93583608Y-99643187D01*
X93597005Y-99666391D01*
X93649500Y-99757314D01*
X93742686Y-99850500D01*
X93856814Y-99916392D01*
X93984108Y-99950500D01*
X93984110Y-99950500D01*
X94115890Y-99950500D01*
X94115892Y-99950500D01*
X94177068Y-99934108D01*
X98499500Y-99934108D01*
X98499500Y-100065892D01*
X98512709Y-100115188D01*
X98533608Y-100193187D01*
X98562185Y-100242683D01*
X98599500Y-100307314D01*
X98692686Y-100400500D01*
X98806814Y-100466392D01*
X98934108Y-100500500D01*
X98934110Y-100500500D01*
X99065890Y-100500500D01*
X99065892Y-100500500D01*
X99193186Y-100466392D01*
X99307314Y-100400500D01*
X99400500Y-100307314D01*
X99400504Y-100307306D01*
X99401625Y-100305847D01*
X99402892Y-100304921D01*
X99406247Y-100301567D01*
X99406770Y-100302090D01*
X99415440Y-100295759D01*
X99425690Y-100282068D01*
X99443068Y-100275585D01*
X99458053Y-100264645D01*
X99475129Y-100263627D01*
X99491154Y-100257651D01*
X99509279Y-100261594D01*
X99527799Y-100260491D01*
X99543060Y-100268942D01*
X99559427Y-100272503D01*
X99577631Y-100288087D01*
X99587682Y-100293654D01*
X99596983Y-100302955D01*
X99599500Y-100307314D01*
X99692686Y-100400500D01*
X99697042Y-100403014D01*
X99706346Y-100412319D01*
X99719353Y-100436140D01*
X99735356Y-100458060D01*
X99735849Y-100466351D01*
X99739830Y-100473642D01*
X99737893Y-100500714D01*
X99739506Y-100527807D01*
X99735438Y-100535048D01*
X99734846Y-100543334D01*
X99718580Y-100565061D01*
X99705289Y-100588725D01*
X99694158Y-100598370D01*
X99692687Y-100599498D01*
X99599502Y-100692683D01*
X99599500Y-100692686D01*
X99533608Y-100806812D01*
X99517163Y-100868187D01*
X99499500Y-100934108D01*
X99499500Y-101065892D01*
X99508505Y-101099500D01*
X99533608Y-101193187D01*
X99544463Y-101211988D01*
X99599500Y-101307314D01*
X99692686Y-101400500D01*
X99806814Y-101466392D01*
X99934108Y-101500500D01*
X99934110Y-101500500D01*
X100065890Y-101500500D01*
X100065892Y-101500500D01*
X100193186Y-101466392D01*
X100249103Y-101434108D01*
X109299500Y-101434108D01*
X109299500Y-101565891D01*
X109333608Y-101693187D01*
X109340071Y-101704381D01*
X109399500Y-101807314D01*
X109492686Y-101900500D01*
X109606814Y-101966392D01*
X109734108Y-102000500D01*
X109734110Y-102000500D01*
X109865890Y-102000500D01*
X109865892Y-102000500D01*
X109993186Y-101966392D01*
X110049103Y-101934108D01*
X110799500Y-101934108D01*
X110799500Y-102065891D01*
X110833608Y-102193187D01*
X110859226Y-102237557D01*
X110899500Y-102307314D01*
X110992686Y-102400500D01*
X111106814Y-102466392D01*
X111234108Y-102500500D01*
X111234110Y-102500500D01*
X111365890Y-102500500D01*
X111365892Y-102500500D01*
X111493186Y-102466392D01*
X111607314Y-102400500D01*
X111700500Y-102307314D01*
X111766392Y-102193186D01*
X111800500Y-102065892D01*
X111800500Y-101934108D01*
X111766392Y-101806814D01*
X111740800Y-101762488D01*
X111700503Y-101692691D01*
X111700502Y-101692690D01*
X111700500Y-101692686D01*
X111641922Y-101634108D01*
X115149500Y-101634108D01*
X115149500Y-101765892D01*
X115163031Y-101816391D01*
X115183608Y-101893187D01*
X115216554Y-101950250D01*
X115249500Y-102007314D01*
X115342686Y-102100500D01*
X115456814Y-102166392D01*
X115584108Y-102200500D01*
X115584110Y-102200500D01*
X115715890Y-102200500D01*
X115715892Y-102200500D01*
X115843186Y-102166392D01*
X115850321Y-102162272D01*
X115918217Y-102145796D01*
X115984246Y-102168644D01*
X116027440Y-102223562D01*
X116032099Y-102237557D01*
X116033606Y-102243183D01*
X116033607Y-102243185D01*
X116061456Y-102291421D01*
X116099500Y-102357314D01*
X116192686Y-102450500D01*
X116306814Y-102516392D01*
X116434108Y-102550500D01*
X116434110Y-102550500D01*
X116565890Y-102550500D01*
X116565892Y-102550500D01*
X116693186Y-102516392D01*
X116807314Y-102450500D01*
X116900500Y-102357314D01*
X116966392Y-102243186D01*
X117000500Y-102115892D01*
X117000500Y-101984108D01*
X116966392Y-101856814D01*
X116900500Y-101742686D01*
X116807314Y-101649500D01*
X116728856Y-101604202D01*
X116693187Y-101583608D01*
X116627061Y-101565890D01*
X116565892Y-101549500D01*
X116434108Y-101549500D01*
X116306811Y-101583608D01*
X116299672Y-101587731D01*
X116231771Y-101604202D01*
X116165745Y-101581349D01*
X116122555Y-101526428D01*
X116117898Y-101512436D01*
X116116391Y-101506812D01*
X116093054Y-101466392D01*
X116050500Y-101392686D01*
X115957314Y-101299500D01*
X115872442Y-101250499D01*
X115843187Y-101233608D01*
X115762476Y-101211982D01*
X115715892Y-101199500D01*
X115584108Y-101199500D01*
X115456812Y-101233608D01*
X115342686Y-101299500D01*
X115342683Y-101299502D01*
X115249502Y-101392683D01*
X115249500Y-101392686D01*
X115183608Y-101506812D01*
X115157513Y-101604202D01*
X115149500Y-101634108D01*
X111641922Y-101634108D01*
X111607314Y-101599500D01*
X111520712Y-101549500D01*
X111493187Y-101533608D01*
X111393188Y-101506814D01*
X111365892Y-101499500D01*
X111234108Y-101499500D01*
X111106812Y-101533608D01*
X110992686Y-101599500D01*
X110992683Y-101599502D01*
X110899502Y-101692683D01*
X110899500Y-101692686D01*
X110833608Y-101806812D01*
X110799500Y-101934108D01*
X110049103Y-101934108D01*
X110107314Y-101900500D01*
X110200500Y-101807314D01*
X110266392Y-101693186D01*
X110300500Y-101565892D01*
X110300500Y-101434108D01*
X110266392Y-101306814D01*
X110200500Y-101192686D01*
X110107314Y-101099500D01*
X110049100Y-101065890D01*
X109993187Y-101033608D01*
X109928931Y-101016391D01*
X109865892Y-100999500D01*
X109734108Y-100999500D01*
X109606812Y-101033608D01*
X109492686Y-101099500D01*
X109492683Y-101099502D01*
X109399502Y-101192683D01*
X109399500Y-101192686D01*
X109333608Y-101306812D01*
X109299500Y-101434108D01*
X100249103Y-101434108D01*
X100307314Y-101400500D01*
X100400500Y-101307314D01*
X100466392Y-101193186D01*
X100500500Y-101065892D01*
X100500500Y-100934108D01*
X100466392Y-100806814D01*
X100400500Y-100692686D01*
X100391922Y-100684108D01*
X122449500Y-100684108D01*
X122449500Y-100815892D01*
X122463512Y-100868186D01*
X122483608Y-100943187D01*
X122506200Y-100982316D01*
X122549500Y-101057314D01*
X122642686Y-101150500D01*
X122756814Y-101216392D01*
X122884108Y-101250500D01*
X122884110Y-101250500D01*
X123024019Y-101250500D01*
X123024019Y-101253671D01*
X123078274Y-101262095D01*
X123130561Y-101308439D01*
X123149500Y-101374304D01*
X123149500Y-101415892D01*
X123160638Y-101457461D01*
X123183608Y-101543187D01*
X123196717Y-101565892D01*
X123249500Y-101657314D01*
X123342686Y-101750500D01*
X123456814Y-101816392D01*
X123584108Y-101850500D01*
X123584110Y-101850500D01*
X123715890Y-101850500D01*
X123715892Y-101850500D01*
X123843186Y-101816392D01*
X123957314Y-101750500D01*
X124050500Y-101657314D01*
X124116392Y-101543186D01*
X124150500Y-101415892D01*
X124150500Y-101284108D01*
X124116392Y-101156814D01*
X124050500Y-101042686D01*
X123957314Y-100949500D01*
X123872120Y-100900313D01*
X123843187Y-100883608D01*
X123779539Y-100866554D01*
X123715892Y-100849500D01*
X123584108Y-100849500D01*
X123575981Y-100849500D01*
X123575981Y-100846340D01*
X123521652Y-100837869D01*
X123469395Y-100791490D01*
X123451758Y-100743312D01*
X123450500Y-100734547D01*
X123450500Y-100684108D01*
X123430404Y-100609108D01*
X125074500Y-100609108D01*
X125074500Y-100740892D01*
X125084316Y-100777525D01*
X125108608Y-100868187D01*
X125139950Y-100922472D01*
X125174500Y-100982314D01*
X125267686Y-101075500D01*
X125381814Y-101141392D01*
X125509108Y-101175500D01*
X125509110Y-101175500D01*
X125640890Y-101175500D01*
X125640892Y-101175500D01*
X125768186Y-101141392D01*
X125882314Y-101075500D01*
X125975500Y-100982314D01*
X126041392Y-100868186D01*
X126075500Y-100740892D01*
X126075500Y-100609108D01*
X126041392Y-100481814D01*
X125975500Y-100367686D01*
X125882314Y-100274500D01*
X125825250Y-100241554D01*
X125768187Y-100208608D01*
X125704539Y-100191554D01*
X125640892Y-100174500D01*
X125509108Y-100174500D01*
X125381812Y-100208608D01*
X125267686Y-100274500D01*
X125267683Y-100274502D01*
X125174502Y-100367683D01*
X125174500Y-100367686D01*
X125108608Y-100481812D01*
X125078755Y-100593229D01*
X125074500Y-100609108D01*
X123430404Y-100609108D01*
X123416392Y-100556814D01*
X123350500Y-100442686D01*
X123257314Y-100349500D01*
X123200250Y-100316554D01*
X123143187Y-100283608D01*
X123056911Y-100260491D01*
X123015892Y-100249500D01*
X122884108Y-100249500D01*
X122756812Y-100283608D01*
X122642686Y-100349500D01*
X122642682Y-100349503D01*
X122613243Y-100378941D01*
X122613231Y-100378954D01*
X122549500Y-100442686D01*
X122529669Y-100477033D01*
X122529664Y-100477040D01*
X122483609Y-100556810D01*
X122483609Y-100556811D01*
X122483609Y-100556812D01*
X122483608Y-100556814D01*
X122449500Y-100684108D01*
X100391922Y-100684108D01*
X100307314Y-100599500D01*
X100307311Y-100599498D01*
X100305847Y-100598375D01*
X100304921Y-100597107D01*
X100301567Y-100593753D01*
X100302090Y-100593229D01*
X100295759Y-100584559D01*
X100282068Y-100574310D01*
X100275585Y-100556931D01*
X100264645Y-100541947D01*
X100263627Y-100524870D01*
X100257651Y-100508846D01*
X100261594Y-100490720D01*
X100260491Y-100472201D01*
X100268942Y-100456940D01*
X100272503Y-100440573D01*
X100288089Y-100422367D01*
X100293654Y-100412319D01*
X100302958Y-100403014D01*
X100307314Y-100400500D01*
X100400500Y-100307314D01*
X100403014Y-100302958D01*
X100412319Y-100293654D01*
X100436131Y-100280651D01*
X100458053Y-100264645D01*
X100466349Y-100264150D01*
X100473642Y-100260169D01*
X100500707Y-100262104D01*
X100527799Y-100260491D01*
X100535044Y-100264560D01*
X100543334Y-100265153D01*
X100565058Y-100281416D01*
X100588719Y-100294704D01*
X100598375Y-100305847D01*
X100599498Y-100307311D01*
X100599500Y-100307314D01*
X100692686Y-100400500D01*
X100806814Y-100466392D01*
X100934108Y-100500500D01*
X100934110Y-100500500D01*
X101065890Y-100500500D01*
X101065892Y-100500500D01*
X101193186Y-100466392D01*
X101307314Y-100400500D01*
X101400500Y-100307314D01*
X101466392Y-100193186D01*
X101500500Y-100065892D01*
X101500500Y-99934108D01*
X101466392Y-99806814D01*
X101459282Y-99794500D01*
X101447917Y-99774815D01*
X101400500Y-99692686D01*
X101307314Y-99599500D01*
X101237906Y-99559427D01*
X101193187Y-99533608D01*
X101127061Y-99515890D01*
X101065892Y-99499500D01*
X100934108Y-99499500D01*
X100806812Y-99533608D01*
X100692686Y-99599500D01*
X100692683Y-99599502D01*
X100599498Y-99692687D01*
X100598370Y-99694158D01*
X100597102Y-99695083D01*
X100593753Y-99698433D01*
X100593230Y-99697910D01*
X100584559Y-99704241D01*
X100574311Y-99717931D01*
X100556925Y-99724415D01*
X100541940Y-99735356D01*
X100524870Y-99736371D01*
X100508847Y-99742348D01*
X100490716Y-99738403D01*
X100472193Y-99739506D01*
X100456933Y-99731054D01*
X100440574Y-99727496D01*
X100422370Y-99711912D01*
X100412319Y-99706346D01*
X100403014Y-99697042D01*
X100400500Y-99692686D01*
X100307314Y-99599500D01*
X100302955Y-99596983D01*
X100293654Y-99587682D01*
X100280649Y-99563865D01*
X100264645Y-99541947D01*
X100264150Y-99533651D01*
X100260169Y-99526359D01*
X100262104Y-99499293D01*
X100260491Y-99472201D01*
X100264560Y-99464955D01*
X100265153Y-99456667D01*
X100281415Y-99434942D01*
X100294704Y-99411281D01*
X100305847Y-99401625D01*
X100307306Y-99400504D01*
X100307314Y-99400500D01*
X100400500Y-99307314D01*
X100466392Y-99193186D01*
X100468824Y-99184108D01*
X112749500Y-99184108D01*
X112749500Y-99315891D01*
X112783608Y-99443187D01*
X112806946Y-99483608D01*
X112849500Y-99557314D01*
X112942686Y-99650500D01*
X113056814Y-99716392D01*
X113184108Y-99750500D01*
X113184110Y-99750500D01*
X113315890Y-99750500D01*
X113315892Y-99750500D01*
X113443186Y-99716392D01*
X113513500Y-99675795D01*
X113581399Y-99659323D01*
X113647426Y-99682175D01*
X113690617Y-99737096D01*
X113699500Y-99783183D01*
X113699500Y-99865892D01*
X113716554Y-99929539D01*
X113733608Y-99993187D01*
X113746717Y-100015892D01*
X113799500Y-100107314D01*
X113892686Y-100200500D01*
X114006814Y-100266392D01*
X114134108Y-100300500D01*
X114134110Y-100300500D01*
X114265890Y-100300500D01*
X114265892Y-100300500D01*
X114393186Y-100266392D01*
X114507314Y-100200500D01*
X114600500Y-100107314D01*
X114666392Y-99993186D01*
X114695619Y-99884108D01*
X121499500Y-99884108D01*
X121499500Y-100015891D01*
X121533608Y-100143187D01*
X121551687Y-100174500D01*
X121599500Y-100257314D01*
X121692686Y-100350500D01*
X121806814Y-100416392D01*
X121934108Y-100450500D01*
X121934110Y-100450500D01*
X122065890Y-100450500D01*
X122065892Y-100450500D01*
X122193186Y-100416392D01*
X122307314Y-100350500D01*
X122400500Y-100257314D01*
X122466392Y-100143186D01*
X122500500Y-100015892D01*
X122500500Y-99884108D01*
X122466392Y-99756814D01*
X122400500Y-99642686D01*
X122307314Y-99549500D01*
X122237658Y-99509284D01*
X122193187Y-99483608D01*
X122113144Y-99462161D01*
X122065892Y-99449500D01*
X121934108Y-99449500D01*
X121806812Y-99483608D01*
X121692686Y-99549500D01*
X121692683Y-99549502D01*
X121599502Y-99642683D01*
X121599500Y-99642686D01*
X121533608Y-99756812D01*
X121499500Y-99884108D01*
X114695619Y-99884108D01*
X114700500Y-99865892D01*
X114700500Y-99734108D01*
X114666392Y-99606814D01*
X114600500Y-99492686D01*
X114507314Y-99399500D01*
X114450250Y-99366554D01*
X114393187Y-99333608D01*
X114309087Y-99311074D01*
X114265892Y-99299500D01*
X114134108Y-99299500D01*
X114006814Y-99333608D01*
X114006813Y-99333608D01*
X114006811Y-99333609D01*
X114006810Y-99333609D01*
X113936500Y-99374203D01*
X113935507Y-99374443D01*
X113934792Y-99375171D01*
X113901647Y-99382658D01*
X113868600Y-99390676D01*
X113867635Y-99390341D01*
X113866639Y-99390567D01*
X113834678Y-99378935D01*
X113802573Y-99367823D01*
X113801942Y-99367021D01*
X113800983Y-99366672D01*
X113780392Y-99339618D01*
X113759382Y-99312902D01*
X113759081Y-99311618D01*
X113758667Y-99311074D01*
X113757601Y-99305302D01*
X113750890Y-99276647D01*
X113750500Y-99271743D01*
X113750500Y-99184108D01*
X113737103Y-99134108D01*
X118049500Y-99134108D01*
X118049500Y-99265892D01*
X118061606Y-99311074D01*
X118083608Y-99393187D01*
X118102374Y-99425690D01*
X118149500Y-99507314D01*
X118242686Y-99600500D01*
X118356814Y-99666392D01*
X118484108Y-99700500D01*
X118484110Y-99700500D01*
X118615890Y-99700500D01*
X118615892Y-99700500D01*
X118743186Y-99666392D01*
X118857314Y-99600500D01*
X118950500Y-99507314D01*
X119016392Y-99393186D01*
X119050500Y-99265892D01*
X119050500Y-99134108D01*
X119037103Y-99084108D01*
X120149500Y-99084108D01*
X120149500Y-99215891D01*
X120183608Y-99343187D01*
X120211026Y-99390676D01*
X120249500Y-99457314D01*
X120342686Y-99550500D01*
X120456814Y-99616392D01*
X120584108Y-99650500D01*
X120584110Y-99650500D01*
X120715890Y-99650500D01*
X120715892Y-99650500D01*
X120843186Y-99616392D01*
X120957314Y-99550500D01*
X121050500Y-99457314D01*
X121116392Y-99343186D01*
X121150500Y-99215892D01*
X121150500Y-99084108D01*
X121116392Y-98956814D01*
X121050500Y-98842686D01*
X120957314Y-98749500D01*
X120858910Y-98692686D01*
X120843187Y-98683608D01*
X120779539Y-98666554D01*
X120715892Y-98649500D01*
X120584108Y-98649500D01*
X120456812Y-98683608D01*
X120342686Y-98749500D01*
X120342683Y-98749502D01*
X120249502Y-98842683D01*
X120249500Y-98842686D01*
X120183608Y-98956812D01*
X120149500Y-99084108D01*
X119037103Y-99084108D01*
X119016392Y-99006814D01*
X118950500Y-98892686D01*
X118857314Y-98799500D01*
X118772442Y-98750499D01*
X118743187Y-98733608D01*
X118678931Y-98716391D01*
X118615892Y-98699500D01*
X118484108Y-98699500D01*
X118356812Y-98733608D01*
X118242686Y-98799500D01*
X118242683Y-98799502D01*
X118149502Y-98892683D01*
X118149500Y-98892686D01*
X118083608Y-99006812D01*
X118067778Y-99065892D01*
X118049500Y-99134108D01*
X113737103Y-99134108D01*
X113716392Y-99056814D01*
X113708767Y-99043608D01*
X113674126Y-98983608D01*
X113650500Y-98942686D01*
X113557314Y-98849500D01*
X113483380Y-98806814D01*
X113443187Y-98783608D01*
X113379539Y-98766554D01*
X113315892Y-98749500D01*
X113184108Y-98749500D01*
X113056812Y-98783608D01*
X112942686Y-98849500D01*
X112942683Y-98849502D01*
X112849502Y-98942683D01*
X112849500Y-98942686D01*
X112783608Y-99056812D01*
X112749500Y-99184108D01*
X100468824Y-99184108D01*
X100500500Y-99065892D01*
X100500500Y-98934108D01*
X100466392Y-98806814D01*
X100400500Y-98692686D01*
X100307314Y-98599500D01*
X100250250Y-98566554D01*
X100193187Y-98533608D01*
X100129539Y-98516554D01*
X100065892Y-98499500D01*
X99934108Y-98499500D01*
X99806812Y-98533608D01*
X99692686Y-98599500D01*
X99692683Y-98599502D01*
X99599502Y-98692683D01*
X99599500Y-98692686D01*
X99533608Y-98806812D01*
X99523997Y-98842683D01*
X99499500Y-98934108D01*
X99499500Y-99065892D01*
X99510803Y-99108074D01*
X99533608Y-99193187D01*
X99546717Y-99215892D01*
X99599500Y-99307314D01*
X99599502Y-99307316D01*
X99692687Y-99400501D01*
X99694158Y-99401630D01*
X99695083Y-99402897D01*
X99698433Y-99406247D01*
X99697910Y-99406769D01*
X99704241Y-99415442D01*
X99717931Y-99425690D01*
X99724414Y-99443073D01*
X99735356Y-99458060D01*
X99736371Y-99475131D01*
X99742348Y-99491154D01*
X99738403Y-99509284D01*
X99739506Y-99527807D01*
X99731055Y-99543065D01*
X99727496Y-99559427D01*
X99711909Y-99577634D01*
X99706345Y-99587681D01*
X99697039Y-99596986D01*
X99692686Y-99599500D01*
X99599500Y-99692686D01*
X99596986Y-99697039D01*
X99587681Y-99706345D01*
X99563862Y-99719350D01*
X99541940Y-99735356D01*
X99533647Y-99735849D01*
X99526358Y-99739830D01*
X99499285Y-99737893D01*
X99472193Y-99739506D01*
X99464951Y-99735438D01*
X99456666Y-99734846D01*
X99434938Y-99718580D01*
X99411275Y-99705289D01*
X99401630Y-99694158D01*
X99400501Y-99692687D01*
X99307316Y-99599502D01*
X99307314Y-99599500D01*
X99237906Y-99559427D01*
X99193187Y-99533608D01*
X99127061Y-99515890D01*
X99065892Y-99499500D01*
X98934108Y-99499500D01*
X98806812Y-99533608D01*
X98692686Y-99599500D01*
X98692683Y-99599502D01*
X98599502Y-99692683D01*
X98599500Y-99692686D01*
X98533608Y-99806812D01*
X98514986Y-99876313D01*
X98499500Y-99934108D01*
X94177068Y-99934108D01*
X94243186Y-99916392D01*
X94357314Y-99850500D01*
X94450500Y-99757314D01*
X94516392Y-99643186D01*
X94550500Y-99515892D01*
X94550500Y-99384108D01*
X94516392Y-99256814D01*
X94450500Y-99142686D01*
X94357314Y-99049500D01*
X94283380Y-99006814D01*
X94243187Y-98983608D01*
X94143188Y-98956814D01*
X94115892Y-98949500D01*
X93984108Y-98949500D01*
X93856812Y-98983608D01*
X93742686Y-99049500D01*
X93742683Y-99049502D01*
X93649502Y-99142683D01*
X93649500Y-99142686D01*
X93583608Y-99256812D01*
X93552154Y-99374203D01*
X93549500Y-99384108D01*
X78544423Y-99384108D01*
X78526392Y-99316814D01*
X78524133Y-99312902D01*
X78516396Y-99299500D01*
X78460500Y-99202686D01*
X78367314Y-99109500D01*
X78291783Y-99065892D01*
X78253187Y-99043608D01*
X78189539Y-99026554D01*
X78125892Y-99009500D01*
X77994108Y-99009500D01*
X77866812Y-99043608D01*
X77752686Y-99109500D01*
X77752683Y-99109502D01*
X77659502Y-99202683D01*
X77659500Y-99202686D01*
X77593608Y-99316812D01*
X77571184Y-99400501D01*
X77559500Y-99444108D01*
X77559500Y-99575892D01*
X77567785Y-99606814D01*
X77576251Y-99638407D01*
X77574588Y-99708257D01*
X77535425Y-99766119D01*
X77471197Y-99793623D01*
X77456476Y-99794500D01*
X77001250Y-99794500D01*
X76979444Y-99795660D01*
X76979425Y-99795661D01*
X76953277Y-99798452D01*
X76953274Y-99798452D01*
X76953273Y-99798453D01*
X76917050Y-99809749D01*
X76896169Y-99816261D01*
X76826309Y-99817426D01*
X76766909Y-99780638D01*
X76736828Y-99717575D01*
X76735256Y-99697170D01*
X76753700Y-96534108D01*
X83299500Y-96534108D01*
X83299500Y-96665892D01*
X83315638Y-96726121D01*
X83333608Y-96793187D01*
X83359497Y-96838027D01*
X83399500Y-96907314D01*
X83492686Y-97000500D01*
X83606814Y-97066392D01*
X83734108Y-97100500D01*
X83734110Y-97100500D01*
X83865890Y-97100500D01*
X83865892Y-97100500D01*
X83993186Y-97066392D01*
X84107314Y-97000500D01*
X84107316Y-97000497D01*
X84107764Y-97000239D01*
X84175664Y-96983766D01*
X84241691Y-97006618D01*
X84284882Y-97061539D01*
X84291524Y-97131092D01*
X84284330Y-97155068D01*
X84283610Y-97156804D01*
X84257559Y-97254031D01*
X84249500Y-97284108D01*
X84249500Y-97415892D01*
X84256813Y-97443186D01*
X84283608Y-97543187D01*
X84296717Y-97565892D01*
X84349500Y-97657314D01*
X84442686Y-97750500D01*
X84556814Y-97816392D01*
X84684108Y-97850500D01*
X84684110Y-97850500D01*
X84815890Y-97850500D01*
X84815892Y-97850500D01*
X84943186Y-97816392D01*
X85057314Y-97750500D01*
X85073706Y-97734108D01*
X98149500Y-97734108D01*
X98149500Y-97865891D01*
X98183608Y-97993187D01*
X98216554Y-98050250D01*
X98249500Y-98107314D01*
X98342686Y-98200500D01*
X98441521Y-98257563D01*
X98453377Y-98264408D01*
X98456814Y-98266392D01*
X98584108Y-98300500D01*
X98584110Y-98300500D01*
X98715890Y-98300500D01*
X98715892Y-98300500D01*
X98843186Y-98266392D01*
X98957314Y-98200500D01*
X99050500Y-98107314D01*
X99116392Y-97993186D01*
X99150500Y-97865892D01*
X99150500Y-97839628D01*
X99170185Y-97772589D01*
X99222989Y-97726834D01*
X99292147Y-97716890D01*
X99306582Y-97719850D01*
X99333716Y-97727121D01*
X99333719Y-97727121D01*
X99465498Y-97727121D01*
X99465500Y-97727121D01*
X99592794Y-97693013D01*
X99706922Y-97627121D01*
X99800108Y-97533935D01*
X99866000Y-97419807D01*
X99900108Y-97292513D01*
X99900108Y-97292504D01*
X99901169Y-97284453D01*
X99904372Y-97284874D01*
X99919793Y-97232360D01*
X99972597Y-97186605D01*
X100041755Y-97176661D01*
X100056180Y-97179619D01*
X100134108Y-97200500D01*
X100134111Y-97200500D01*
X100265889Y-97200500D01*
X100265892Y-97200500D01*
X100343410Y-97179729D01*
X100413256Y-97181392D01*
X100471118Y-97220554D01*
X100498623Y-97284782D01*
X100499500Y-97299504D01*
X100499500Y-97315891D01*
X100533608Y-97443187D01*
X100547005Y-97466391D01*
X100599500Y-97557314D01*
X100692686Y-97650500D01*
X100806814Y-97716392D01*
X100934108Y-97750500D01*
X100934110Y-97750500D01*
X101065890Y-97750500D01*
X101065892Y-97750500D01*
X101193186Y-97716392D01*
X101307314Y-97650500D01*
X101400500Y-97557314D01*
X101466392Y-97443186D01*
X101500500Y-97315892D01*
X101500500Y-97184108D01*
X101466392Y-97056814D01*
X101400500Y-96942686D01*
X101391922Y-96934108D01*
X107499500Y-96934108D01*
X107499500Y-97065892D01*
X107512385Y-97113979D01*
X107533608Y-97193187D01*
X107541766Y-97207316D01*
X107599500Y-97307314D01*
X107692686Y-97400500D01*
X107806814Y-97466392D01*
X107916529Y-97495789D01*
X107976189Y-97532154D01*
X108004209Y-97583469D01*
X108033608Y-97693186D01*
X108099500Y-97807314D01*
X108192686Y-97900500D01*
X108306814Y-97966392D01*
X108434108Y-98000500D01*
X108434110Y-98000500D01*
X108565890Y-98000500D01*
X108565892Y-98000500D01*
X108693186Y-97966392D01*
X108749103Y-97934108D01*
X109499500Y-97934108D01*
X109499500Y-98065892D01*
X109516554Y-98129539D01*
X109533608Y-98193187D01*
X109566554Y-98250250D01*
X109599500Y-98307314D01*
X109692686Y-98400500D01*
X109806814Y-98466392D01*
X109934108Y-98500500D01*
X109934110Y-98500500D01*
X110065890Y-98500500D01*
X110065892Y-98500500D01*
X110193186Y-98466392D01*
X110307314Y-98400500D01*
X110400500Y-98307314D01*
X110466392Y-98193186D01*
X110500500Y-98065892D01*
X110500500Y-97934108D01*
X123749500Y-97934108D01*
X123749500Y-98065892D01*
X123766554Y-98129539D01*
X123783608Y-98193187D01*
X123816554Y-98250250D01*
X123849500Y-98307314D01*
X123942686Y-98400500D01*
X124056814Y-98466392D01*
X124184108Y-98500500D01*
X124184110Y-98500500D01*
X124315890Y-98500500D01*
X124315892Y-98500500D01*
X124443186Y-98466392D01*
X124557314Y-98400500D01*
X124650500Y-98307314D01*
X124716392Y-98193186D01*
X124718824Y-98184108D01*
X125499500Y-98184108D01*
X125499500Y-98315891D01*
X125533608Y-98443187D01*
X125547005Y-98466391D01*
X125599500Y-98557314D01*
X125692686Y-98650500D01*
X125806814Y-98716392D01*
X125934108Y-98750500D01*
X125934110Y-98750500D01*
X126065890Y-98750500D01*
X126065892Y-98750500D01*
X126193186Y-98716392D01*
X126307314Y-98650500D01*
X126400500Y-98557314D01*
X126466392Y-98443186D01*
X126500500Y-98315892D01*
X126500500Y-98184108D01*
X126466392Y-98056814D01*
X126400500Y-97942686D01*
X126307314Y-97849500D01*
X126249968Y-97816391D01*
X126193187Y-97783608D01*
X126129539Y-97766554D01*
X126065892Y-97749500D01*
X125934108Y-97749500D01*
X125806812Y-97783608D01*
X125692686Y-97849500D01*
X125692683Y-97849502D01*
X125599502Y-97942683D01*
X125599500Y-97942686D01*
X125533608Y-98056812D01*
X125499500Y-98184108D01*
X124718824Y-98184108D01*
X124750500Y-98065892D01*
X124750500Y-97934108D01*
X124716392Y-97806814D01*
X124650500Y-97692686D01*
X124557314Y-97599500D01*
X124499100Y-97565890D01*
X124443187Y-97533608D01*
X124379539Y-97516554D01*
X124315892Y-97499500D01*
X124184108Y-97499500D01*
X124056812Y-97533608D01*
X123942686Y-97599500D01*
X123942683Y-97599502D01*
X123849502Y-97692683D01*
X123849500Y-97692686D01*
X123783608Y-97806812D01*
X123767778Y-97865892D01*
X123749500Y-97934108D01*
X110500500Y-97934108D01*
X110466392Y-97806814D01*
X110400500Y-97692686D01*
X110307314Y-97599500D01*
X110249100Y-97565890D01*
X110193187Y-97533608D01*
X110129539Y-97516554D01*
X110065892Y-97499500D01*
X109934108Y-97499500D01*
X109806812Y-97533608D01*
X109692686Y-97599500D01*
X109692683Y-97599502D01*
X109599502Y-97692683D01*
X109599500Y-97692686D01*
X109533608Y-97806812D01*
X109517778Y-97865892D01*
X109499500Y-97934108D01*
X108749103Y-97934108D01*
X108807314Y-97900500D01*
X108900500Y-97807314D01*
X108966392Y-97693186D01*
X109000500Y-97565892D01*
X109000500Y-97434108D01*
X108966392Y-97306814D01*
X108966365Y-97306768D01*
X108943054Y-97266392D01*
X108900500Y-97192686D01*
X108807314Y-97099500D01*
X108693186Y-97033608D01*
X108583469Y-97004209D01*
X108573218Y-96997961D01*
X108561382Y-96995971D01*
X108543940Y-96980115D01*
X108523810Y-96967845D01*
X108517272Y-96955872D01*
X108509682Y-96948972D01*
X108495789Y-96916527D01*
X108480129Y-96858080D01*
X108480127Y-96858075D01*
X108477830Y-96849502D01*
X108473705Y-96834108D01*
X112399500Y-96834108D01*
X112399500Y-96965892D01*
X112403311Y-96980115D01*
X112433608Y-97093187D01*
X112441766Y-97107316D01*
X112499500Y-97207314D01*
X112592686Y-97300500D01*
X112706814Y-97366392D01*
X112834108Y-97400500D01*
X112834110Y-97400500D01*
X112965890Y-97400500D01*
X112965892Y-97400500D01*
X113093186Y-97366392D01*
X113207314Y-97300500D01*
X113300500Y-97207314D01*
X113313898Y-97184108D01*
X115249500Y-97184108D01*
X115249500Y-97315891D01*
X115283608Y-97443187D01*
X115297005Y-97466391D01*
X115349500Y-97557314D01*
X115442686Y-97650500D01*
X115556814Y-97716392D01*
X115684108Y-97750500D01*
X115684110Y-97750500D01*
X115815890Y-97750500D01*
X115815892Y-97750500D01*
X115943186Y-97716392D01*
X116057314Y-97650500D01*
X116057315Y-97650498D01*
X116062999Y-97647217D01*
X116130899Y-97630744D01*
X116187001Y-97647217D01*
X116192684Y-97650498D01*
X116192686Y-97650500D01*
X116306814Y-97716392D01*
X116434108Y-97750500D01*
X116434110Y-97750500D01*
X116565890Y-97750500D01*
X116565892Y-97750500D01*
X116693186Y-97716392D01*
X116807314Y-97650500D01*
X116900500Y-97557314D01*
X116966392Y-97443186D01*
X117000500Y-97315892D01*
X117000500Y-97184108D01*
X116966392Y-97056814D01*
X116900500Y-96942686D01*
X116807314Y-96849500D01*
X116733380Y-96806814D01*
X116693187Y-96783608D01*
X116627068Y-96765892D01*
X116565892Y-96749500D01*
X116434108Y-96749500D01*
X116306814Y-96783608D01*
X116306813Y-96783608D01*
X116306811Y-96783609D01*
X116306810Y-96783609D01*
X116187000Y-96852782D01*
X116119100Y-96869255D01*
X116063000Y-96852782D01*
X115943189Y-96783609D01*
X115943186Y-96783608D01*
X115815892Y-96749500D01*
X115684108Y-96749500D01*
X115556812Y-96783608D01*
X115442686Y-96849500D01*
X115442683Y-96849502D01*
X115349502Y-96942683D01*
X115349500Y-96942686D01*
X115283608Y-97056812D01*
X115249500Y-97184108D01*
X113313898Y-97184108D01*
X113362170Y-97100499D01*
X113366391Y-97093188D01*
X113366392Y-97093186D01*
X113400500Y-96965892D01*
X113400500Y-96834108D01*
X113366392Y-96706814D01*
X113300500Y-96592686D01*
X113207314Y-96499500D01*
X113130011Y-96454869D01*
X113093187Y-96433608D01*
X112993188Y-96406814D01*
X112965892Y-96399500D01*
X112834108Y-96399500D01*
X112706812Y-96433608D01*
X112592686Y-96499500D01*
X112592683Y-96499502D01*
X112499502Y-96592683D01*
X112499500Y-96592686D01*
X112433608Y-96706812D01*
X112410001Y-96794916D01*
X112399500Y-96834108D01*
X108473705Y-96834108D01*
X108466392Y-96806814D01*
X108400500Y-96692686D01*
X108307314Y-96599500D01*
X108238962Y-96560037D01*
X108193187Y-96533608D01*
X108093188Y-96506814D01*
X108065892Y-96499500D01*
X107934108Y-96499500D01*
X107806812Y-96533608D01*
X107692686Y-96599500D01*
X107692683Y-96599502D01*
X107599502Y-96692683D01*
X107599500Y-96692686D01*
X107533608Y-96806812D01*
X107517644Y-96866392D01*
X107499500Y-96934108D01*
X101391922Y-96934108D01*
X101307314Y-96849500D01*
X101233380Y-96806814D01*
X101193187Y-96783608D01*
X101127068Y-96765892D01*
X101065892Y-96749500D01*
X100934108Y-96749500D01*
X100894067Y-96760229D01*
X100856593Y-96770270D01*
X100786743Y-96768607D01*
X100728881Y-96729444D01*
X100701377Y-96665216D01*
X100700500Y-96650495D01*
X100700500Y-96634110D01*
X100700500Y-96634108D01*
X100666392Y-96506814D01*
X100600500Y-96392686D01*
X100507314Y-96299500D01*
X100450250Y-96266554D01*
X100393187Y-96233608D01*
X100293188Y-96206814D01*
X100265892Y-96199500D01*
X100134108Y-96199500D01*
X100006812Y-96233608D01*
X99892686Y-96299500D01*
X99892683Y-96299502D01*
X99799502Y-96392683D01*
X99799500Y-96392686D01*
X99733608Y-96506812D01*
X99699500Y-96634108D01*
X99698439Y-96642168D01*
X99695234Y-96641746D01*
X99679815Y-96694260D01*
X99627011Y-96740015D01*
X99557853Y-96749959D01*
X99543407Y-96746996D01*
X99465500Y-96726121D01*
X99333716Y-96726121D01*
X99206420Y-96760229D01*
X99092294Y-96826121D01*
X99092291Y-96826123D01*
X98999110Y-96919304D01*
X98999108Y-96919307D01*
X98933216Y-97033433D01*
X98899108Y-97160729D01*
X98899108Y-97186992D01*
X98879423Y-97254031D01*
X98826619Y-97299786D01*
X98757461Y-97309730D01*
X98743018Y-97306768D01*
X98728240Y-97302808D01*
X98715892Y-97299500D01*
X98584108Y-97299500D01*
X98456812Y-97333608D01*
X98342686Y-97399500D01*
X98342683Y-97399502D01*
X98249502Y-97492683D01*
X98249500Y-97492686D01*
X98183608Y-97606812D01*
X98149500Y-97734108D01*
X85073706Y-97734108D01*
X85150500Y-97657314D01*
X85216392Y-97543186D01*
X85250500Y-97415892D01*
X85250500Y-97284108D01*
X85216392Y-97156814D01*
X85150500Y-97042686D01*
X85057314Y-96949500D01*
X85000203Y-96916527D01*
X84943187Y-96883608D01*
X84847913Y-96858080D01*
X84815892Y-96849500D01*
X84684108Y-96849500D01*
X84556814Y-96883608D01*
X84556813Y-96883608D01*
X84556811Y-96883609D01*
X84556810Y-96883609D01*
X84442234Y-96949760D01*
X84374334Y-96966233D01*
X84308307Y-96943380D01*
X84265116Y-96888459D01*
X84258475Y-96818906D01*
X84265675Y-96794916D01*
X84266391Y-96793187D01*
X84266392Y-96793186D01*
X84282222Y-96734108D01*
X89049500Y-96734108D01*
X89049500Y-96865892D01*
X89063244Y-96917186D01*
X89083608Y-96993187D01*
X89091363Y-97006618D01*
X89149500Y-97107314D01*
X89242686Y-97200500D01*
X89356814Y-97266392D01*
X89484108Y-97300500D01*
X89484110Y-97300500D01*
X89615890Y-97300500D01*
X89615892Y-97300500D01*
X89743186Y-97266392D01*
X89857314Y-97200500D01*
X89950500Y-97107314D01*
X90016392Y-96993186D01*
X90050500Y-96865892D01*
X90050500Y-96734108D01*
X90016392Y-96606814D01*
X90013816Y-96602352D01*
X90005520Y-96587982D01*
X90005519Y-96587981D01*
X89974415Y-96534108D01*
X90999500Y-96534108D01*
X90999500Y-96665892D01*
X91015638Y-96726121D01*
X91033608Y-96793187D01*
X91059497Y-96838027D01*
X91099500Y-96907314D01*
X91192686Y-97000500D01*
X91306814Y-97066392D01*
X91434108Y-97100500D01*
X91434110Y-97100500D01*
X91565890Y-97100500D01*
X91565892Y-97100500D01*
X91693186Y-97066392D01*
X91807314Y-97000500D01*
X91900500Y-96907314D01*
X91966392Y-96793186D01*
X92000500Y-96665892D01*
X92000500Y-96584895D01*
X92020185Y-96517856D01*
X92072989Y-96472101D01*
X92142147Y-96462157D01*
X92156576Y-96465116D01*
X92245630Y-96488978D01*
X92245633Y-96488978D01*
X92377412Y-96488978D01*
X92377414Y-96488978D01*
X92504708Y-96454870D01*
X92618836Y-96388978D01*
X92673706Y-96334108D01*
X96799500Y-96334108D01*
X96799500Y-96465892D01*
X96806680Y-96492689D01*
X96833608Y-96593187D01*
X96861644Y-96641746D01*
X96899500Y-96707314D01*
X96992686Y-96800500D01*
X97077560Y-96849502D01*
X97106810Y-96866390D01*
X97106814Y-96866392D01*
X97234108Y-96900500D01*
X97234110Y-96900500D01*
X97365890Y-96900500D01*
X97365892Y-96900500D01*
X97493186Y-96866392D01*
X97607314Y-96800500D01*
X97700500Y-96707314D01*
X97766392Y-96593186D01*
X97800500Y-96465892D01*
X97800500Y-96334108D01*
X97766392Y-96206814D01*
X97700500Y-96092686D01*
X97700495Y-96092681D01*
X97695553Y-96086240D01*
X97696945Y-96085171D01*
X97668224Y-96032572D01*
X97672416Y-95973960D01*
X101649253Y-95973960D01*
X101649253Y-96105744D01*
X101654766Y-96126320D01*
X101683361Y-96233039D01*
X101683690Y-96233608D01*
X101749253Y-96347166D01*
X101842439Y-96440352D01*
X101933079Y-96492683D01*
X101944889Y-96499502D01*
X101956567Y-96506244D01*
X102083861Y-96540352D01*
X102083863Y-96540352D01*
X102181513Y-96540352D01*
X102248552Y-96560037D01*
X102288900Y-96602352D01*
X102349500Y-96707314D01*
X102442686Y-96800500D01*
X102527560Y-96849502D01*
X102556810Y-96866390D01*
X102556814Y-96866392D01*
X102684108Y-96900500D01*
X102684110Y-96900500D01*
X102815890Y-96900500D01*
X102815892Y-96900500D01*
X102943186Y-96866392D01*
X103057314Y-96800500D01*
X103150500Y-96707314D01*
X103216392Y-96593186D01*
X103250500Y-96465892D01*
X103250500Y-96334108D01*
X103216392Y-96206814D01*
X103150500Y-96092686D01*
X103057314Y-95999500D01*
X103000250Y-95966554D01*
X102943187Y-95933608D01*
X102866092Y-95912951D01*
X102815892Y-95899500D01*
X102718240Y-95899500D01*
X102651201Y-95879815D01*
X102610853Y-95837500D01*
X102586483Y-95795290D01*
X102550253Y-95732538D01*
X102457067Y-95639352D01*
X102400003Y-95606406D01*
X102342940Y-95573460D01*
X102279292Y-95556406D01*
X102215645Y-95539352D01*
X102083861Y-95539352D01*
X101956565Y-95573460D01*
X101842439Y-95639352D01*
X101842436Y-95639354D01*
X101749255Y-95732535D01*
X101749253Y-95732538D01*
X101683361Y-95846664D01*
X101652222Y-95962880D01*
X101649253Y-95973960D01*
X97672416Y-95973960D01*
X97673208Y-95962880D01*
X97715080Y-95906947D01*
X97780544Y-95882530D01*
X97848817Y-95897382D01*
X97851376Y-95898818D01*
X97881814Y-95916392D01*
X98009108Y-95950500D01*
X98009110Y-95950500D01*
X98140890Y-95950500D01*
X98140892Y-95950500D01*
X98268186Y-95916392D01*
X98382314Y-95850500D01*
X98475500Y-95757314D01*
X98541392Y-95643186D01*
X98554998Y-95592405D01*
X98591363Y-95532746D01*
X98654210Y-95502217D01*
X98674773Y-95500500D01*
X98690890Y-95500500D01*
X98690892Y-95500500D01*
X98818186Y-95466392D01*
X98932314Y-95400500D01*
X99025500Y-95307314D01*
X99091392Y-95193186D01*
X99125500Y-95065892D01*
X99125500Y-94934108D01*
X99091392Y-94806814D01*
X99025500Y-94692686D01*
X98932314Y-94599500D01*
X98818186Y-94533608D01*
X98690892Y-94499500D01*
X98559108Y-94499500D01*
X98431812Y-94533608D01*
X98317686Y-94599500D01*
X98317683Y-94599502D01*
X98224502Y-94692683D01*
X98224500Y-94692686D01*
X98158608Y-94806814D01*
X98145002Y-94857594D01*
X98108637Y-94917254D01*
X98045790Y-94947783D01*
X98025227Y-94949500D01*
X98009108Y-94949500D01*
X97881812Y-94983608D01*
X97767686Y-95049500D01*
X97767683Y-95049502D01*
X97674502Y-95142683D01*
X97674500Y-95142686D01*
X97608608Y-95256812D01*
X97574500Y-95384108D01*
X97574500Y-95515891D01*
X97608608Y-95643187D01*
X97641554Y-95700250D01*
X97674500Y-95757314D01*
X97674502Y-95757316D01*
X97679447Y-95763760D01*
X97678054Y-95764828D01*
X97706775Y-95817427D01*
X97701791Y-95887119D01*
X97659919Y-95943052D01*
X97594455Y-95967469D01*
X97526182Y-95952617D01*
X97523609Y-95951172D01*
X97493189Y-95933609D01*
X97493186Y-95933608D01*
X97365892Y-95899500D01*
X97234108Y-95899500D01*
X97106812Y-95933608D01*
X96992686Y-95999500D01*
X96992683Y-95999502D01*
X96899502Y-96092683D01*
X96899500Y-96092686D01*
X96833608Y-96206812D01*
X96799634Y-96333608D01*
X96799500Y-96334108D01*
X92673706Y-96334108D01*
X92712022Y-96295792D01*
X92777914Y-96181664D01*
X92812022Y-96054370D01*
X92812022Y-95922586D01*
X92777914Y-95795292D01*
X92712022Y-95681164D01*
X92618836Y-95587978D01*
X92523172Y-95532746D01*
X92504709Y-95522086D01*
X92424143Y-95500499D01*
X92377414Y-95487978D01*
X92245630Y-95487978D01*
X92118334Y-95522086D01*
X92004208Y-95587978D01*
X92004205Y-95587980D01*
X91911024Y-95681161D01*
X91911022Y-95681164D01*
X91845130Y-95795290D01*
X91811022Y-95922586D01*
X91811022Y-96003582D01*
X91791337Y-96070621D01*
X91738533Y-96116376D01*
X91669375Y-96126320D01*
X91654929Y-96123357D01*
X91589191Y-96105743D01*
X91565892Y-96099500D01*
X91434108Y-96099500D01*
X91306812Y-96133608D01*
X91192686Y-96199500D01*
X91192683Y-96199502D01*
X91099502Y-96292683D01*
X91099500Y-96292686D01*
X91033608Y-96406812D01*
X91006966Y-96506243D01*
X90999500Y-96534108D01*
X89974415Y-96534108D01*
X89974126Y-96533608D01*
X89950500Y-96492686D01*
X89857314Y-96399500D01*
X89766673Y-96347168D01*
X89743187Y-96333608D01*
X89679539Y-96316554D01*
X89615892Y-96299500D01*
X89484108Y-96299500D01*
X89356812Y-96333608D01*
X89242686Y-96399500D01*
X89242683Y-96399502D01*
X89149502Y-96492683D01*
X89149500Y-96492686D01*
X89083608Y-96606812D01*
X89067778Y-96665892D01*
X89049500Y-96734108D01*
X84282222Y-96734108D01*
X84300500Y-96665892D01*
X84300500Y-96534108D01*
X84266392Y-96406814D01*
X84200500Y-96292686D01*
X84107314Y-96199500D01*
X84050250Y-96166554D01*
X83993187Y-96133608D01*
X83889191Y-96105743D01*
X83865892Y-96099500D01*
X83734108Y-96099500D01*
X83606812Y-96133608D01*
X83492686Y-96199500D01*
X83492683Y-96199502D01*
X83399502Y-96292683D01*
X83399500Y-96292686D01*
X83333608Y-96406812D01*
X83306966Y-96506243D01*
X83299500Y-96534108D01*
X76753700Y-96534108D01*
X76765945Y-94434108D01*
X104249500Y-94434108D01*
X104249500Y-94565891D01*
X104283608Y-94693187D01*
X104316554Y-94750250D01*
X104349500Y-94807314D01*
X104442686Y-94900500D01*
X104556814Y-94966392D01*
X104684108Y-95000500D01*
X104684110Y-95000500D01*
X104815890Y-95000500D01*
X104815892Y-95000500D01*
X104943186Y-94966392D01*
X105057314Y-94900500D01*
X105150500Y-94807314D01*
X105216392Y-94693186D01*
X105250500Y-94565892D01*
X105250500Y-94434108D01*
X105216392Y-94306814D01*
X105150500Y-94192686D01*
X105057314Y-94099500D01*
X105000250Y-94066554D01*
X104943187Y-94033608D01*
X104879539Y-94016554D01*
X104815892Y-93999500D01*
X104684108Y-93999500D01*
X104556812Y-94033608D01*
X104442686Y-94099500D01*
X104442683Y-94099502D01*
X104349502Y-94192683D01*
X104349500Y-94192686D01*
X104283608Y-94306812D01*
X104249500Y-94434108D01*
X76765945Y-94434108D01*
X76769298Y-93859108D01*
X94324500Y-93859108D01*
X94324500Y-93990892D01*
X94335946Y-94033608D01*
X94358608Y-94118187D01*
X94391554Y-94175250D01*
X94424500Y-94232314D01*
X94517686Y-94325500D01*
X94631814Y-94391392D01*
X94759108Y-94425500D01*
X94759110Y-94425500D01*
X94890890Y-94425500D01*
X94890892Y-94425500D01*
X95018186Y-94391392D01*
X95132314Y-94325500D01*
X95225500Y-94232314D01*
X95291392Y-94118186D01*
X95325500Y-93990892D01*
X95325500Y-93859108D01*
X95291392Y-93731814D01*
X95225500Y-93617686D01*
X95132314Y-93524500D01*
X95075250Y-93491554D01*
X95018187Y-93458608D01*
X94954539Y-93441554D01*
X94890892Y-93424500D01*
X94759108Y-93424500D01*
X94631812Y-93458608D01*
X94517686Y-93524500D01*
X94517683Y-93524502D01*
X94424502Y-93617683D01*
X94424500Y-93617686D01*
X94358608Y-93731812D01*
X94353601Y-93750499D01*
X94324500Y-93859108D01*
X76769298Y-93859108D01*
X76774108Y-93034108D01*
X79849500Y-93034108D01*
X79849500Y-93165892D01*
X79856813Y-93193186D01*
X79883608Y-93293187D01*
X79896717Y-93315892D01*
X79949500Y-93407314D01*
X80042686Y-93500500D01*
X80156814Y-93566392D01*
X80284108Y-93600500D01*
X80284110Y-93600500D01*
X80415890Y-93600500D01*
X80415892Y-93600500D01*
X80543186Y-93566392D01*
X80657314Y-93500500D01*
X80750500Y-93407314D01*
X80816392Y-93293186D01*
X80850500Y-93165892D01*
X80850500Y-93034108D01*
X80823705Y-92934108D01*
X102499500Y-92934108D01*
X102499500Y-93065891D01*
X102533608Y-93193187D01*
X102566554Y-93250250D01*
X102599500Y-93307314D01*
X102692686Y-93400500D01*
X102806814Y-93466392D01*
X102934108Y-93500500D01*
X102934110Y-93500500D01*
X103065890Y-93500500D01*
X103065892Y-93500500D01*
X103193186Y-93466392D01*
X103307314Y-93400500D01*
X103400500Y-93307314D01*
X103466392Y-93193186D01*
X103500500Y-93065892D01*
X103500500Y-92934108D01*
X103466392Y-92806814D01*
X103400500Y-92692686D01*
X103307314Y-92599500D01*
X103249103Y-92565892D01*
X103193187Y-92533608D01*
X103101078Y-92508928D01*
X103065892Y-92499500D01*
X102934108Y-92499500D01*
X102806812Y-92533608D01*
X102692686Y-92599500D01*
X102692683Y-92599502D01*
X102599502Y-92692683D01*
X102599500Y-92692686D01*
X102533608Y-92806812D01*
X102499500Y-92934108D01*
X80823705Y-92934108D01*
X80816392Y-92906814D01*
X80750500Y-92792686D01*
X80657314Y-92699500D01*
X80572442Y-92650499D01*
X80543187Y-92633608D01*
X80434231Y-92604414D01*
X80415892Y-92599500D01*
X80284108Y-92599500D01*
X80156812Y-92633608D01*
X80042686Y-92699500D01*
X80042683Y-92699502D01*
X79949502Y-92792683D01*
X79949500Y-92792686D01*
X79883608Y-92906812D01*
X79867644Y-92966392D01*
X79849500Y-93034108D01*
X76774108Y-93034108D01*
X76781542Y-91759108D01*
X79824500Y-91759108D01*
X79824500Y-91890891D01*
X79858608Y-92018187D01*
X79886151Y-92065892D01*
X79924500Y-92132314D01*
X80017686Y-92225500D01*
X80131814Y-92291392D01*
X80259108Y-92325500D01*
X80259110Y-92325500D01*
X80390890Y-92325500D01*
X80390892Y-92325500D01*
X80518186Y-92291392D01*
X80632314Y-92225500D01*
X80673706Y-92184108D01*
X107249500Y-92184108D01*
X107249500Y-92315892D01*
X107266554Y-92379539D01*
X107283608Y-92443187D01*
X107316121Y-92499500D01*
X107349500Y-92557314D01*
X107442686Y-92650500D01*
X107556814Y-92716392D01*
X107684108Y-92750500D01*
X107684110Y-92750500D01*
X107815890Y-92750500D01*
X107815892Y-92750500D01*
X107943186Y-92716392D01*
X108057314Y-92650500D01*
X108074897Y-92632916D01*
X108136217Y-92599431D01*
X108205909Y-92604414D01*
X108261844Y-92646284D01*
X108282351Y-92688496D01*
X108283607Y-92693185D01*
X108297005Y-92716391D01*
X108349500Y-92807314D01*
X108442686Y-92900500D01*
X108556814Y-92966392D01*
X108684108Y-93000500D01*
X108684110Y-93000500D01*
X108815890Y-93000500D01*
X108815892Y-93000500D01*
X108851077Y-92991072D01*
X108920926Y-92992733D01*
X108978789Y-93031895D01*
X109002945Y-93078751D01*
X109033608Y-93193186D01*
X109099500Y-93307314D01*
X109192686Y-93400500D01*
X109306814Y-93466392D01*
X109434108Y-93500500D01*
X109434110Y-93500500D01*
X109565890Y-93500500D01*
X109565892Y-93500500D01*
X109693186Y-93466392D01*
X109807314Y-93400500D01*
X109900500Y-93307314D01*
X109966392Y-93193186D01*
X109968824Y-93184108D01*
X117499500Y-93184108D01*
X117499500Y-93315891D01*
X117533608Y-93443187D01*
X117547005Y-93466391D01*
X117599500Y-93557314D01*
X117692686Y-93650500D01*
X117806814Y-93716392D01*
X117934108Y-93750500D01*
X117934110Y-93750500D01*
X118065890Y-93750500D01*
X118065892Y-93750500D01*
X118193186Y-93716392D01*
X118307314Y-93650500D01*
X118400500Y-93557314D01*
X118466392Y-93443186D01*
X118500500Y-93315892D01*
X118500500Y-93184108D01*
X118466392Y-93056814D01*
X118400500Y-92942686D01*
X118307314Y-92849500D01*
X118250250Y-92816554D01*
X118193187Y-92783608D01*
X118129539Y-92766554D01*
X118065892Y-92749500D01*
X117934108Y-92749500D01*
X117806812Y-92783608D01*
X117692686Y-92849500D01*
X117692683Y-92849502D01*
X117599502Y-92942683D01*
X117599500Y-92942686D01*
X117533608Y-93056812D01*
X117499500Y-93184108D01*
X109968824Y-93184108D01*
X110000500Y-93065892D01*
X110000500Y-92934108D01*
X109966392Y-92806814D01*
X109900500Y-92692686D01*
X109807314Y-92599500D01*
X109749103Y-92565892D01*
X109693187Y-92533608D01*
X109601078Y-92508928D01*
X109565892Y-92499500D01*
X109434108Y-92499500D01*
X109434106Y-92499500D01*
X109398920Y-92508928D01*
X109329070Y-92507264D01*
X109271208Y-92468101D01*
X109247054Y-92421248D01*
X109216392Y-92306814D01*
X109150500Y-92192686D01*
X109057314Y-92099500D01*
X108943186Y-92033608D01*
X108815892Y-91999500D01*
X108684108Y-91999500D01*
X108556812Y-92033608D01*
X108442686Y-92099500D01*
X108442682Y-92099503D01*
X108425100Y-92117085D01*
X108363776Y-92150569D01*
X108294085Y-92145583D01*
X108238152Y-92103710D01*
X108217647Y-92061498D01*
X108216392Y-92056814D01*
X108150500Y-91942686D01*
X108141922Y-91934108D01*
X119499500Y-91934108D01*
X119499500Y-92065891D01*
X119533608Y-92193187D01*
X119566554Y-92250250D01*
X119599500Y-92307314D01*
X119692686Y-92400500D01*
X119806814Y-92466392D01*
X119934108Y-92500500D01*
X119934110Y-92500500D01*
X120065890Y-92500500D01*
X120065892Y-92500500D01*
X120193186Y-92466392D01*
X120307314Y-92400500D01*
X120400500Y-92307314D01*
X120466392Y-92193186D01*
X120500500Y-92065892D01*
X120500500Y-91934108D01*
X120466392Y-91806814D01*
X120400500Y-91692686D01*
X120307314Y-91599500D01*
X120250250Y-91566554D01*
X120193187Y-91533608D01*
X120129539Y-91516554D01*
X120065892Y-91499500D01*
X119934108Y-91499500D01*
X119806812Y-91533608D01*
X119692686Y-91599500D01*
X119692683Y-91599502D01*
X119599502Y-91692683D01*
X119599500Y-91692686D01*
X119533608Y-91806812D01*
X119499500Y-91934108D01*
X108141922Y-91934108D01*
X108057314Y-91849500D01*
X107983380Y-91806814D01*
X107943187Y-91783608D01*
X107879539Y-91766554D01*
X107815892Y-91749500D01*
X107684108Y-91749500D01*
X107556812Y-91783608D01*
X107442686Y-91849500D01*
X107442683Y-91849502D01*
X107349502Y-91942683D01*
X107349500Y-91942686D01*
X107283608Y-92056812D01*
X107258487Y-92150569D01*
X107249500Y-92184108D01*
X80673706Y-92184108D01*
X80725500Y-92132314D01*
X80726005Y-92131438D01*
X80736086Y-92113980D01*
X80777931Y-92041500D01*
X80791392Y-92018186D01*
X80825500Y-91890892D01*
X80825500Y-91759108D01*
X80825500Y-91750981D01*
X80828659Y-91750981D01*
X80837131Y-91696652D01*
X80883510Y-91644395D01*
X80949305Y-91625500D01*
X80990890Y-91625500D01*
X80990892Y-91625500D01*
X81118186Y-91591392D01*
X81232314Y-91525500D01*
X81325500Y-91432314D01*
X81391392Y-91318186D01*
X81407222Y-91259108D01*
X102124500Y-91259108D01*
X102124500Y-91390892D01*
X102141554Y-91454539D01*
X102158608Y-91518187D01*
X102191554Y-91575250D01*
X102224500Y-91632314D01*
X102317686Y-91725500D01*
X102431814Y-91791392D01*
X102559108Y-91825500D01*
X102559110Y-91825500D01*
X102690890Y-91825500D01*
X102690892Y-91825500D01*
X102818186Y-91791392D01*
X102932314Y-91725500D01*
X103025500Y-91632314D01*
X103091392Y-91518186D01*
X103125500Y-91390892D01*
X103125500Y-91259108D01*
X103091392Y-91131814D01*
X103025500Y-91017686D01*
X102941922Y-90934108D01*
X121499500Y-90934108D01*
X121499500Y-91065891D01*
X121533608Y-91193187D01*
X121548447Y-91218888D01*
X121599500Y-91307314D01*
X121692686Y-91400500D01*
X121806814Y-91466392D01*
X121934108Y-91500500D01*
X121934110Y-91500500D01*
X122065890Y-91500500D01*
X122065892Y-91500500D01*
X122193186Y-91466392D01*
X122307314Y-91400500D01*
X122400500Y-91307314D01*
X122466392Y-91193186D01*
X122500500Y-91065892D01*
X122500500Y-90934108D01*
X122466392Y-90806814D01*
X122400500Y-90692686D01*
X122307314Y-90599500D01*
X122250250Y-90566554D01*
X122193187Y-90533608D01*
X122129539Y-90516554D01*
X122065892Y-90499500D01*
X121934108Y-90499500D01*
X121806812Y-90533608D01*
X121692686Y-90599500D01*
X121692683Y-90599502D01*
X121599502Y-90692683D01*
X121599500Y-90692686D01*
X121533608Y-90806812D01*
X121499500Y-90934108D01*
X102941922Y-90934108D01*
X102932314Y-90924500D01*
X102875250Y-90891554D01*
X102818187Y-90858608D01*
X102754539Y-90841554D01*
X102690892Y-90824500D01*
X102559108Y-90824500D01*
X102431812Y-90858608D01*
X102317686Y-90924500D01*
X102317683Y-90924502D01*
X102224502Y-91017683D01*
X102224500Y-91017686D01*
X102158608Y-91131812D01*
X102135277Y-91218887D01*
X102124500Y-91259108D01*
X81407222Y-91259108D01*
X81425500Y-91190892D01*
X81425500Y-91059108D01*
X81391392Y-90931814D01*
X81325500Y-90817686D01*
X81232314Y-90724500D01*
X81175250Y-90691554D01*
X81118187Y-90658608D01*
X81054539Y-90641554D01*
X80990892Y-90624500D01*
X80859108Y-90624500D01*
X80731812Y-90658608D01*
X80617686Y-90724500D01*
X80617683Y-90724502D01*
X80524502Y-90817683D01*
X80524500Y-90817686D01*
X80458608Y-90931812D01*
X80424500Y-91059108D01*
X80424500Y-91199019D01*
X80421341Y-91199019D01*
X80412869Y-91253348D01*
X80366490Y-91305605D01*
X80300695Y-91324500D01*
X80259108Y-91324500D01*
X80131812Y-91358608D01*
X80017686Y-91424500D01*
X80017683Y-91424502D01*
X79924502Y-91517683D01*
X79924500Y-91517686D01*
X79858608Y-91631812D01*
X79824500Y-91759108D01*
X76781542Y-91759108D01*
X76804587Y-87806992D01*
X76824662Y-87740069D01*
X76850457Y-87711424D01*
X79164358Y-85834108D01*
X81149500Y-85834108D01*
X81149500Y-85965891D01*
X81183608Y-86093187D01*
X81216554Y-86150250D01*
X81249500Y-86207314D01*
X81342686Y-86300500D01*
X81456814Y-86366392D01*
X81584108Y-86400500D01*
X81584110Y-86400500D01*
X81715890Y-86400500D01*
X81715892Y-86400500D01*
X81843186Y-86366392D01*
X81957314Y-86300500D01*
X82050500Y-86207314D01*
X82116392Y-86093186D01*
X82150500Y-85965892D01*
X82150500Y-85834108D01*
X94599500Y-85834108D01*
X94599500Y-85965891D01*
X94633608Y-86093187D01*
X94666554Y-86150250D01*
X94699500Y-86207314D01*
X94792686Y-86300500D01*
X94906814Y-86366392D01*
X95034108Y-86400500D01*
X95034110Y-86400500D01*
X95165890Y-86400500D01*
X95165892Y-86400500D01*
X95293186Y-86366392D01*
X95407314Y-86300500D01*
X95500500Y-86207314D01*
X95566392Y-86093186D01*
X95600500Y-85965892D01*
X95600500Y-85934108D01*
X100599500Y-85934108D01*
X100599500Y-86065891D01*
X100633608Y-86193187D01*
X100641766Y-86207316D01*
X100699500Y-86307314D01*
X100792686Y-86400500D01*
X100906814Y-86466392D01*
X101034108Y-86500500D01*
X101034110Y-86500500D01*
X101165890Y-86500500D01*
X101165892Y-86500500D01*
X101293186Y-86466392D01*
X101407314Y-86400500D01*
X101500500Y-86307314D01*
X101566392Y-86193186D01*
X101600500Y-86065892D01*
X101600500Y-85934108D01*
X101572366Y-85829108D01*
X114094500Y-85829108D01*
X114094500Y-85960892D01*
X114095840Y-85965892D01*
X114128608Y-86088187D01*
X114131495Y-86093187D01*
X114194500Y-86202314D01*
X114287686Y-86295500D01*
X114401814Y-86361392D01*
X114529108Y-86395500D01*
X114529110Y-86395500D01*
X114660890Y-86395500D01*
X114660892Y-86395500D01*
X114788186Y-86361392D01*
X114902314Y-86295500D01*
X114995500Y-86202314D01*
X115061392Y-86088186D01*
X115095500Y-85960892D01*
X115095500Y-85829108D01*
X115061392Y-85701814D01*
X114995500Y-85587686D01*
X114902314Y-85494500D01*
X114821064Y-85447590D01*
X114788187Y-85428608D01*
X114679552Y-85399500D01*
X114660892Y-85394500D01*
X114529108Y-85394500D01*
X114401812Y-85428608D01*
X114287686Y-85494500D01*
X114287683Y-85494502D01*
X114194502Y-85587683D01*
X114194500Y-85587686D01*
X114128608Y-85701812D01*
X114100474Y-85806812D01*
X114094500Y-85829108D01*
X101572366Y-85829108D01*
X101566392Y-85806814D01*
X101500500Y-85692686D01*
X101407314Y-85599500D01*
X101350250Y-85566554D01*
X101293187Y-85533608D01*
X101229539Y-85516554D01*
X101165892Y-85499500D01*
X101034108Y-85499500D01*
X100906812Y-85533608D01*
X100792686Y-85599500D01*
X100792683Y-85599502D01*
X100699502Y-85692683D01*
X100699500Y-85692686D01*
X100633608Y-85806812D01*
X100599500Y-85934108D01*
X95600500Y-85934108D01*
X95600500Y-85834108D01*
X95566392Y-85706814D01*
X95500500Y-85592686D01*
X95407314Y-85499500D01*
X95320620Y-85449447D01*
X95293187Y-85433608D01*
X95229539Y-85416554D01*
X95165892Y-85399500D01*
X95034108Y-85399500D01*
X94906812Y-85433608D01*
X94792686Y-85499500D01*
X94792683Y-85499502D01*
X94699502Y-85592683D01*
X94699500Y-85592686D01*
X94633608Y-85706812D01*
X94599500Y-85834108D01*
X82150500Y-85834108D01*
X82116392Y-85706814D01*
X82050500Y-85592686D01*
X81957314Y-85499500D01*
X81870620Y-85449447D01*
X81843187Y-85433608D01*
X81779539Y-85416554D01*
X81715892Y-85399500D01*
X81584108Y-85399500D01*
X81456812Y-85433608D01*
X81342686Y-85499500D01*
X81342683Y-85499502D01*
X81249502Y-85592683D01*
X81249500Y-85592686D01*
X81183608Y-85706812D01*
X81149500Y-85834108D01*
X79164358Y-85834108D01*
X81938911Y-83583056D01*
X82003370Y-83556107D01*
X82016860Y-83555352D01*
X85969704Y-83550392D01*
X86001892Y-83550352D01*
X86006313Y-83550163D01*
X86018858Y-83549628D01*
X86025873Y-83549037D01*
X86094324Y-83563027D01*
X86143661Y-83610599D01*
X86166544Y-83650233D01*
X86199500Y-83707314D01*
X86292686Y-83800500D01*
X86406814Y-83866392D01*
X86534108Y-83900500D01*
X86534110Y-83900500D01*
X86665890Y-83900500D01*
X86665892Y-83900500D01*
X86793186Y-83866392D01*
X86907314Y-83800500D01*
X87000500Y-83707314D01*
X87058183Y-83607403D01*
X87108749Y-83559190D01*
X87177356Y-83545966D01*
X87183059Y-83546645D01*
X87198539Y-83548851D01*
X99476507Y-83533445D01*
X99543572Y-83553046D01*
X99589393Y-83605792D01*
X99599423Y-83674938D01*
X99584050Y-83719445D01*
X99533609Y-83806810D01*
X99533609Y-83806811D01*
X99533608Y-83806813D01*
X99533608Y-83806814D01*
X99517645Y-83866391D01*
X99499500Y-83934108D01*
X99499500Y-84065891D01*
X99533608Y-84193187D01*
X99566554Y-84250250D01*
X99599500Y-84307314D01*
X99692686Y-84400500D01*
X99806814Y-84466392D01*
X99934108Y-84500500D01*
X99934110Y-84500500D01*
X100065890Y-84500500D01*
X100065892Y-84500500D01*
X100193186Y-84466392D01*
X100307314Y-84400500D01*
X100400500Y-84307314D01*
X100466392Y-84193186D01*
X100500500Y-84065892D01*
X100500500Y-83934108D01*
X100466392Y-83806814D01*
X100415190Y-83718130D01*
X100398718Y-83650233D01*
X100421570Y-83584206D01*
X100476491Y-83541015D01*
X100522416Y-83532133D01*
X105506873Y-83525879D01*
X105573936Y-83545480D01*
X105619757Y-83598226D01*
X105626801Y-83617784D01*
X105633607Y-83643184D01*
X105633607Y-83643185D01*
X105646716Y-83665890D01*
X105699500Y-83757314D01*
X105792686Y-83850500D01*
X105906814Y-83916392D01*
X106034108Y-83950500D01*
X106034110Y-83950500D01*
X106165890Y-83950500D01*
X106165892Y-83950500D01*
X106293186Y-83916392D01*
X106407314Y-83850500D01*
X106500500Y-83757314D01*
X106566392Y-83643186D01*
X106573596Y-83616296D01*
X106609960Y-83556637D01*
X106672806Y-83526107D01*
X106693200Y-83524391D01*
X119375345Y-83508478D01*
X119442409Y-83528079D01*
X119488230Y-83580825D01*
X119499500Y-83632478D01*
X119499500Y-83665892D01*
X119513498Y-83718133D01*
X119533608Y-83793187D01*
X119541476Y-83806814D01*
X119599500Y-83907314D01*
X119692686Y-84000500D01*
X119791521Y-84057563D01*
X119805944Y-84065890D01*
X119806814Y-84066392D01*
X119934108Y-84100500D01*
X119934110Y-84100500D01*
X120065890Y-84100500D01*
X120065892Y-84100500D01*
X120193186Y-84066392D01*
X120307314Y-84000500D01*
X120400500Y-83907314D01*
X120466392Y-83793186D01*
X120500500Y-83665892D01*
X120500500Y-83630910D01*
X120520185Y-83563871D01*
X120572989Y-83518116D01*
X120624341Y-83506910D01*
X121623859Y-83505658D01*
X121669455Y-83500477D01*
X121723102Y-83488197D01*
X121735144Y-83485054D01*
X121814962Y-83440407D01*
X121866822Y-83393584D01*
X121884416Y-83375627D01*
X121927424Y-83294914D01*
X121945736Y-83227487D01*
X121952877Y-83169435D01*
X121905526Y-80849197D01*
X121905500Y-80846667D01*
X121905500Y-74924484D01*
X121905500Y-74924480D01*
X121900719Y-74880409D01*
X121889313Y-74828461D01*
X121886700Y-74817902D01*
X121886699Y-74817901D01*
X121886699Y-74817899D01*
X121886698Y-74817897D01*
X121849994Y-74749657D01*
X121843378Y-74737357D01*
X121797419Y-74684731D01*
X121793187Y-74680445D01*
X121779759Y-74666845D01*
X121699773Y-74622509D01*
X121699765Y-74622506D01*
X121632662Y-74603084D01*
X121632644Y-74603080D01*
X121574733Y-74594983D01*
X121574727Y-74594983D01*
X121408699Y-74595625D01*
X119417197Y-74603337D01*
X119415508Y-74602848D01*
X119413811Y-74603304D01*
X119382066Y-74593169D01*
X119350082Y-74583912D01*
X119348926Y-74582588D01*
X119347251Y-74582054D01*
X119326023Y-74556363D01*
X119304123Y-74531286D01*
X119303866Y-74529547D01*
X119302746Y-74528192D01*
X119298776Y-74495097D01*
X119293912Y-74462166D01*
X119294635Y-74460565D01*
X119294426Y-74458819D01*
X119308973Y-74428844D01*
X119322690Y-74398499D01*
X119324410Y-74397037D01*
X119324933Y-74395961D01*
X119352141Y-74373480D01*
X119358850Y-74369387D01*
X119366646Y-74365010D01*
X119405159Y-74345183D01*
X119409997Y-74340788D01*
X119428783Y-74326726D01*
X119741216Y-74136143D01*
X119757727Y-74130015D01*
X119797284Y-74101941D01*
X119838688Y-74076685D01*
X119842579Y-74072600D01*
X119860586Y-74057014D01*
X120136273Y-73861362D01*
X120151270Y-73854663D01*
X120189839Y-73823348D01*
X120230351Y-73794597D01*
X120233009Y-73791387D01*
X120250339Y-73774226D01*
X120492682Y-73577463D01*
X120505812Y-73570654D01*
X120543696Y-73536044D01*
X120583515Y-73503715D01*
X120584757Y-73501999D01*
X120601531Y-73483207D01*
X120804127Y-73298125D01*
X120813857Y-73289235D01*
X120824836Y-73282826D01*
X120862370Y-73244918D01*
X120901765Y-73208929D01*
X120901768Y-73208924D01*
X120903036Y-73207418D01*
X120917881Y-73188853D01*
X121103355Y-73001535D01*
X121111970Y-72996028D01*
X121149605Y-72954825D01*
X121188883Y-72915157D01*
X121188884Y-72915154D01*
X121193802Y-72908680D01*
X121193986Y-72908820D01*
X121203253Y-72896091D01*
X121366115Y-72717793D01*
X121373697Y-72712550D01*
X121410477Y-72669227D01*
X121448781Y-72627293D01*
X121448784Y-72627285D01*
X121453433Y-72620625D01*
X121453759Y-72620852D01*
X121462107Y-72608411D01*
X121857582Y-72142591D01*
X121857672Y-72142487D01*
X122184813Y-71758028D01*
X122237973Y-71695553D01*
X122243066Y-71689928D01*
X122473080Y-71451101D01*
X122482013Y-71442703D01*
X122614420Y-71330036D01*
X122653578Y-71296716D01*
X122666572Y-71287047D01*
X122801043Y-71200046D01*
X122818094Y-71190820D01*
X122929547Y-71141369D01*
X122949893Y-71134383D01*
X123067892Y-71105030D01*
X123084210Y-71102114D01*
X123125819Y-71097524D01*
X123136703Y-71096808D01*
X123197408Y-71095495D01*
X123208034Y-71095721D01*
G37*
%TD.AperFunction*%
%TA.AperFunction,Conductor*%
G36*
X75554601Y-111909223D02*
G01*
X75598102Y-111920879D01*
X75627999Y-111933263D01*
X75667000Y-111955780D01*
X75692679Y-111975485D01*
X75724513Y-112007319D01*
X75744219Y-112033000D01*
X75766733Y-112071995D01*
X75779119Y-112101898D01*
X75790774Y-112145392D01*
X75795000Y-112177485D01*
X75795000Y-112222513D01*
X75790774Y-112254609D01*
X75779120Y-112298099D01*
X75766733Y-112328003D01*
X75744219Y-112366998D01*
X75724513Y-112392679D01*
X75692679Y-112424513D01*
X75666998Y-112444219D01*
X75628003Y-112466733D01*
X75598099Y-112479120D01*
X75579887Y-112484000D01*
X75554607Y-112490774D01*
X75522513Y-112495000D01*
X75477489Y-112495000D01*
X75445397Y-112490775D01*
X75401902Y-112479121D01*
X75371997Y-112466734D01*
X75332997Y-112444217D01*
X75307320Y-112424514D01*
X75275485Y-112392679D01*
X75255778Y-112366996D01*
X75233265Y-112328001D01*
X75220878Y-112298096D01*
X75209225Y-112254605D01*
X75205000Y-112222512D01*
X75205000Y-112177484D01*
X75209223Y-112145398D01*
X75220879Y-112101895D01*
X75233261Y-112072001D01*
X75255783Y-112032993D01*
X75275476Y-112007329D01*
X75307324Y-111975481D01*
X75332996Y-111955781D01*
X75371997Y-111933263D01*
X75401905Y-111920877D01*
X75445394Y-111909225D01*
X75477485Y-111905000D01*
X75522513Y-111905000D01*
X75554601Y-111909223D01*
G37*
%TD.AperFunction*%
%TD*%
M02*
