%TF.GenerationSoftware,KiCad,Pcbnew,9.0.3*%
%TF.CreationDate,2026-03-01T17:18:48-06:00*%
%TF.ProjectId,Main,4d61696e-2e6b-4696-9361-645f70636258,rev?*%
%TF.SameCoordinates,Original*%
%TF.FileFunction,Paste,Top*%
%TF.FilePolarity,Positive*%
%FSLAX46Y46*%
G04 Gerber Fmt 4.6, Leading zero omitted, Abs format (unit mm)*
G04 Created by KiCad (PCBNEW 9.0.3) date 2026-03-01 17:18:48*
%MOMM*%
%LPD*%
G01*
G04 APERTURE LIST*
G04 Aperture macros list*
%AMRoundRect*
0 Rectangle with rounded corners*
0 $1 Rounding radius*
0 $2 $3 $4 $5 $6 $7 $8 $9 X,Y pos of 4 corners*
0 Add a 4 corners polygon primitive as box body*
4,1,4,$2,$3,$4,$5,$6,$7,$8,$9,$2,$3,0*
0 Add four circle primitives for the rounded corners*
1,1,$1+$1,$2,$3*
1,1,$1+$1,$4,$5*
1,1,$1+$1,$6,$7*
1,1,$1+$1,$8,$9*
0 Add four rect primitives between the rounded corners*
20,1,$1+$1,$2,$3,$4,$5,0*
20,1,$1+$1,$4,$5,$6,$7,0*
20,1,$1+$1,$6,$7,$8,$9,0*
20,1,$1+$1,$8,$9,$2,$3,0*%
G04 Aperture macros list end*
%ADD10RoundRect,0.050000X0.282843X0.212132X0.212132X0.282843X-0.282843X-0.212132X-0.212132X-0.282843X0*%
%ADD11RoundRect,0.050000X0.282843X-0.212132X-0.212132X0.282843X-0.282843X0.212132X0.212132X-0.282843X0*%
%ADD12RoundRect,0.227500X0.321734X0.000000X0.000000X0.321734X-0.321734X0.000000X0.000000X-0.321734X0*%
%ADD13RoundRect,0.150000X-0.150000X0.825000X-0.150000X-0.825000X0.150000X-0.825000X0.150000X0.825000X0*%
%ADD14RoundRect,0.230000X-0.375000X0.230000X-0.375000X-0.230000X0.375000X-0.230000X0.375000X0.230000X0*%
%ADD15RoundRect,0.150000X-0.825000X-0.150000X0.825000X-0.150000X0.825000X0.150000X-0.825000X0.150000X0*%
%ADD16RoundRect,0.230000X-0.230000X-0.375000X0.230000X-0.375000X0.230000X0.375000X-0.230000X0.375000X0*%
%ADD17RoundRect,0.140000X-0.170000X0.140000X-0.170000X-0.140000X0.170000X-0.140000X0.170000X0.140000X0*%
%ADD18RoundRect,0.100000X-0.100000X-0.575000X0.100000X-0.575000X0.100000X0.575000X-0.100000X0.575000X0*%
%ADD19O,0.900000X1.600000*%
%ADD20RoundRect,0.250000X-0.550000X-0.450000X0.550000X-0.450000X0.550000X0.450000X-0.550000X0.450000X0*%
%ADD21RoundRect,0.250000X-0.700000X-0.700000X0.700000X-0.700000X0.700000X0.700000X-0.700000X0.700000X0*%
%ADD22R,0.375000X0.350000*%
%ADD23R,0.350000X0.375000*%
%ADD24RoundRect,0.135000X-0.135000X-0.185000X0.135000X-0.185000X0.135000X0.185000X-0.135000X0.185000X0*%
%ADD25RoundRect,0.140000X-0.021213X0.219203X-0.219203X0.021213X0.021213X-0.219203X0.219203X-0.021213X0*%
%ADD26RoundRect,0.135000X-0.035355X0.226274X-0.226274X0.035355X0.035355X-0.226274X0.226274X-0.035355X0*%
%ADD27R,0.950000X0.550000*%
%ADD28RoundRect,0.250000X-0.312500X-0.625000X0.312500X-0.625000X0.312500X0.625000X-0.312500X0.625000X0*%
%ADD29RoundRect,0.135000X-0.226274X-0.035355X-0.035355X-0.226274X0.226274X0.035355X0.035355X0.226274X0*%
%ADD30RoundRect,0.150000X-0.512500X-0.150000X0.512500X-0.150000X0.512500X0.150000X-0.512500X0.150000X0*%
%ADD31RoundRect,0.140000X-0.219203X-0.021213X-0.021213X-0.219203X0.219203X0.021213X0.021213X0.219203X0*%
%ADD32RoundRect,0.140000X0.021213X-0.219203X0.219203X-0.021213X-0.021213X0.219203X-0.219203X0.021213X0*%
%ADD33RoundRect,0.140000X0.219203X0.021213X0.021213X0.219203X-0.219203X-0.021213X-0.021213X-0.219203X0*%
%ADD34RoundRect,0.140000X0.170000X-0.140000X0.170000X0.140000X-0.170000X0.140000X-0.170000X-0.140000X0*%
%ADD35RoundRect,0.375000X0.375000X-0.625000X0.375000X0.625000X-0.375000X0.625000X-0.375000X-0.625000X0*%
%ADD36RoundRect,0.500000X1.400000X-0.500000X1.400000X0.500000X-1.400000X0.500000X-1.400000X-0.500000X0*%
%ADD37RoundRect,0.250000X0.250000X0.475000X-0.250000X0.475000X-0.250000X-0.475000X0.250000X-0.475000X0*%
%ADD38RoundRect,0.135000X0.035355X-0.226274X0.226274X-0.035355X-0.035355X0.226274X-0.226274X0.035355X0*%
%ADD39RoundRect,0.135000X-0.185000X0.135000X-0.185000X-0.135000X0.185000X-0.135000X0.185000X0.135000X0*%
%ADD40RoundRect,0.140000X-0.140000X-0.170000X0.140000X-0.170000X0.140000X0.170000X-0.140000X0.170000X0*%
%ADD41RoundRect,0.162500X-0.162500X0.650000X-0.162500X-0.650000X0.162500X-0.650000X0.162500X0.650000X0*%
%ADD42RoundRect,0.087500X0.087500X0.225000X-0.087500X0.225000X-0.087500X-0.225000X0.087500X-0.225000X0*%
%ADD43RoundRect,0.087500X0.225000X0.087500X-0.225000X0.087500X-0.225000X-0.087500X0.225000X-0.087500X0*%
%ADD44RoundRect,0.250000X0.565685X-0.070711X-0.070711X0.565685X-0.565685X0.070711X0.070711X-0.565685X0*%
%ADD45RoundRect,0.250000X0.475000X-0.250000X0.475000X0.250000X-0.475000X0.250000X-0.475000X-0.250000X0*%
%ADD46RoundRect,0.150000X0.707107X0.212132X0.212132X0.707107X-0.707107X-0.212132X-0.212132X-0.707107X0*%
%ADD47RoundRect,0.135000X0.135000X0.185000X-0.135000X0.185000X-0.135000X-0.185000X0.135000X-0.185000X0*%
%ADD48RoundRect,0.135000X0.185000X-0.135000X0.185000X0.135000X-0.185000X0.135000X-0.185000X-0.135000X0*%
%ADD49RoundRect,0.243750X-0.243750X-0.456250X0.243750X-0.456250X0.243750X0.456250X-0.243750X0.456250X0*%
%ADD50RoundRect,0.140000X0.140000X0.170000X-0.140000X0.170000X-0.140000X-0.170000X0.140000X-0.170000X0*%
%ADD51R,0.300000X0.450000*%
%ADD52R,0.450000X0.300000*%
%ADD53RoundRect,0.200000X-0.200000X-0.800000X0.200000X-0.800000X0.200000X0.800000X-0.200000X0.800000X0*%
%ADD54RoundRect,0.250000X-0.250000X-0.475000X0.250000X-0.475000X0.250000X0.475000X-0.250000X0.475000X0*%
%ADD55RoundRect,0.250000X-0.475000X0.250000X-0.475000X-0.250000X0.475000X-0.250000X0.475000X0.250000X0*%
%ADD56RoundRect,0.100000X-0.100000X0.425000X-0.100000X-0.425000X0.100000X-0.425000X0.100000X0.425000X0*%
%ADD57RoundRect,0.050000X-0.250000X0.050000X-0.250000X-0.050000X0.250000X-0.050000X0.250000X0.050000X0*%
%ADD58RoundRect,0.075000X-0.075000X0.650000X-0.075000X-0.650000X0.075000X-0.650000X0.075000X0.650000X0*%
%ADD59RoundRect,0.250000X0.512652X0.159099X0.159099X0.512652X-0.512652X-0.159099X-0.159099X-0.512652X0*%
%ADD60RoundRect,0.250001X-0.462499X-0.849999X0.462499X-0.849999X0.462499X0.849999X-0.462499X0.849999X0*%
G04 APERTURE END LIST*
D10*
%TO.C,U1*%
X99540381Y-104419417D03*
X99257538Y-104136575D03*
X98974695Y-103853732D03*
X98691852Y-103570889D03*
X98409010Y-103288047D03*
X98126167Y-103005204D03*
X97843324Y-102722361D03*
X97560482Y-102439518D03*
X97277639Y-102156676D03*
X96994796Y-101873833D03*
X96711953Y-101590990D03*
X96429111Y-101308148D03*
X96146268Y-101025305D03*
X95863425Y-100742462D03*
X95580583Y-100459619D03*
D11*
X95580583Y-99540381D03*
X95863425Y-99257538D03*
X96146268Y-98974695D03*
X96429111Y-98691852D03*
X96711953Y-98409010D03*
X96994796Y-98126167D03*
X97277639Y-97843324D03*
X97560482Y-97560482D03*
X97843324Y-97277639D03*
X98126167Y-96994796D03*
X98409010Y-96711953D03*
X98691852Y-96429111D03*
X98974695Y-96146268D03*
X99257538Y-95863425D03*
X99540381Y-95580583D03*
D10*
X100459619Y-95580583D03*
X100742462Y-95863425D03*
X101025305Y-96146268D03*
X101308148Y-96429111D03*
X101590990Y-96711953D03*
X101873833Y-96994796D03*
X102156676Y-97277639D03*
X102439518Y-97560482D03*
X102722361Y-97843324D03*
X103005204Y-98126167D03*
X103288047Y-98409010D03*
X103570889Y-98691852D03*
X103853732Y-98974695D03*
X104136575Y-99257538D03*
X104419417Y-99540381D03*
D11*
X104419417Y-100459619D03*
X104136575Y-100742462D03*
X103853732Y-101025305D03*
X103570889Y-101308148D03*
X103288047Y-101590990D03*
X103005204Y-101873833D03*
X102722361Y-102156676D03*
X102439518Y-102439518D03*
X102156676Y-102722361D03*
X101873833Y-103005204D03*
X101590990Y-103288047D03*
X101308148Y-103570889D03*
X101025305Y-103853732D03*
X100742462Y-104136575D03*
X100459619Y-104419417D03*
D12*
X100000000Y-98401939D03*
X99200969Y-99200969D03*
X98401939Y-100000000D03*
X100799031Y-99200969D03*
X100000000Y-100000000D03*
X99200969Y-100799031D03*
X101598061Y-100000000D03*
X100799031Y-100799031D03*
X100000000Y-101598061D03*
%TD*%
D13*
%TO.C,U9*%
X104905000Y-84475000D03*
X103635000Y-84475000D03*
X102365000Y-84475000D03*
X101095000Y-84475000D03*
X101095000Y-79525000D03*
X102365000Y-79525000D03*
X103635000Y-79525000D03*
X104905000Y-79525000D03*
D14*
X102250000Y-82570000D03*
X103750000Y-82570000D03*
X102250000Y-81430000D03*
X103750000Y-81430000D03*
%TD*%
D15*
%TO.C,U10*%
X78905000Y-89295000D03*
X78905000Y-90565000D03*
X78905000Y-91835000D03*
X78905000Y-93105000D03*
X73955000Y-93105000D03*
X73955000Y-91835000D03*
X73955000Y-90565000D03*
X73955000Y-89295000D03*
D16*
X77000000Y-91950000D03*
X77000000Y-90450000D03*
X75860000Y-91950000D03*
X75860000Y-90450000D03*
%TD*%
D13*
%TO.C,U11*%
X118405000Y-84475000D03*
X117135000Y-84475000D03*
X115865000Y-84475000D03*
X114595000Y-84475000D03*
X114595000Y-79525000D03*
X115865000Y-79525000D03*
X117135000Y-79525000D03*
X118405000Y-79525000D03*
D14*
X115750000Y-82570000D03*
X117250000Y-82570000D03*
X115750000Y-81430000D03*
X117250000Y-81430000D03*
%TD*%
D13*
%TO.C,U12*%
X85405000Y-84475000D03*
X84135000Y-84475000D03*
X82865000Y-84475000D03*
X81595000Y-84475000D03*
X81595000Y-79525000D03*
X82865000Y-79525000D03*
X84135000Y-79525000D03*
X85405000Y-79525000D03*
D14*
X82750000Y-82570000D03*
X84250000Y-82570000D03*
X82750000Y-81430000D03*
X84250000Y-81430000D03*
%TD*%
D13*
%TO.C,U13*%
X98905000Y-84475000D03*
X97635000Y-84475000D03*
X96365000Y-84475000D03*
X95095000Y-84475000D03*
X95095000Y-79525000D03*
X96365000Y-79525000D03*
X97635000Y-79525000D03*
X98905000Y-79525000D03*
D14*
X96250000Y-82570000D03*
X97750000Y-82570000D03*
X96250000Y-81430000D03*
X97750000Y-81430000D03*
%TD*%
D17*
%TO.C,C40*%
X72000000Y-100270000D03*
X72000000Y-101230000D03*
%TD*%
D18*
%TO.C,J1*%
X98700000Y-131225000D03*
X99350000Y-131225000D03*
X100000000Y-131225000D03*
X100650000Y-131225000D03*
X101300000Y-131225000D03*
D19*
X96700000Y-133900000D03*
D20*
X96800000Y-131450000D03*
D21*
X98800000Y-133900000D03*
X101200000Y-133900000D03*
D20*
X103200000Y-131450000D03*
D19*
X103300000Y-133900000D03*
%TD*%
D22*
%TO.C,U7*%
X120762500Y-92750000D03*
X120762500Y-92250000D03*
X120762500Y-91750000D03*
X120762500Y-91250000D03*
D23*
X120250000Y-91237500D03*
X119750000Y-91237500D03*
D22*
X119237500Y-91250000D03*
X119237500Y-91750000D03*
X119237500Y-92250000D03*
X119237500Y-92750000D03*
D23*
X119750000Y-92762500D03*
X120250000Y-92762500D03*
%TD*%
D24*
%TO.C,R10*%
X90490000Y-107000000D03*
X91510000Y-107000000D03*
%TD*%
D25*
%TO.C,C17*%
X107266188Y-92789447D03*
X106587366Y-93468269D03*
%TD*%
D26*
%TO.C,R3*%
X95610624Y-104889376D03*
X94889376Y-105610624D03*
%TD*%
D27*
%TO.C,U8*%
X121075000Y-109875000D03*
X121075000Y-108625000D03*
X121075000Y-107375000D03*
X121075000Y-106125000D03*
X118925000Y-106125000D03*
X118925000Y-107375000D03*
X118925000Y-108625000D03*
X118925000Y-109875000D03*
%TD*%
D26*
%TO.C,R2*%
X96360624Y-105639376D03*
X95639376Y-106360624D03*
%TD*%
D28*
%TO.C,R13*%
X75537500Y-115000000D03*
X78462500Y-115000000D03*
%TD*%
D29*
%TO.C,R8*%
X96039376Y-93739376D03*
X96760624Y-94460624D03*
%TD*%
D30*
%TO.C,U15*%
X68112500Y-101500000D03*
X68112500Y-102450000D03*
X68112500Y-103400000D03*
X70387500Y-103400000D03*
X70387500Y-102450000D03*
X70387500Y-101500000D03*
%TD*%
D24*
%TO.C,R5*%
X106490000Y-125000000D03*
X107510000Y-125000000D03*
%TD*%
D31*
%TO.C,C8*%
X100800000Y-106000000D03*
X101478822Y-106678822D03*
%TD*%
D24*
%TO.C,R11*%
X90490000Y-109000000D03*
X91510000Y-109000000D03*
%TD*%
D32*
%TO.C,C10*%
X101710589Y-94289411D03*
X102389411Y-93610589D03*
%TD*%
D33*
%TO.C,C9*%
X92989411Y-98089411D03*
X92310589Y-97410589D03*
%TD*%
D32*
%TO.C,C13*%
X106460589Y-98539411D03*
X107139411Y-97860589D03*
%TD*%
D34*
%TO.C,C33*%
X100000000Y-85630000D03*
X100000000Y-84670000D03*
%TD*%
D35*
%TO.C,U3*%
X112700000Y-128150000D03*
X115000000Y-128150000D03*
D36*
X115000000Y-121850000D03*
D35*
X117300000Y-128150000D03*
%TD*%
D24*
%TO.C,R27*%
X83290000Y-100550000D03*
X84310000Y-100550000D03*
%TD*%
D37*
%TO.C,C20*%
X117450000Y-130750000D03*
X115550000Y-130750000D03*
%TD*%
D24*
%TO.C,R21*%
X70990000Y-104750000D03*
X72010000Y-104750000D03*
%TD*%
D33*
%TO.C,C2*%
X94989411Y-102839411D03*
X94310589Y-102160589D03*
%TD*%
%TO.C,C6*%
X95339411Y-95839411D03*
X94660589Y-95160589D03*
%TD*%
D34*
%TO.C,C27*%
X122500000Y-109730000D03*
X122500000Y-108770000D03*
%TD*%
D38*
%TO.C,R1*%
X91539376Y-101960624D03*
X92260624Y-101239376D03*
%TD*%
D39*
%TO.C,R9*%
X105500000Y-120240000D03*
X105500000Y-121260000D03*
%TD*%
D31*
%TO.C,C5*%
X104160589Y-105310589D03*
X104839411Y-105989411D03*
%TD*%
D33*
%TO.C,C12*%
X93739411Y-97339411D03*
X93060589Y-96660589D03*
%TD*%
D40*
%TO.C,C29*%
X115480000Y-97850000D03*
X114520000Y-97850000D03*
%TD*%
D37*
%TO.C,C23*%
X125950000Y-97000000D03*
X124050000Y-97000000D03*
%TD*%
D41*
%TO.C,U2*%
X101905000Y-110412500D03*
X100635000Y-110412500D03*
X99365000Y-110412500D03*
X98095000Y-110412500D03*
X98095000Y-117587500D03*
X99365000Y-117587500D03*
X100635000Y-117587500D03*
X101905000Y-117587500D03*
%TD*%
D33*
%TO.C,C1*%
X95689411Y-102139411D03*
X95010589Y-101460589D03*
%TD*%
D37*
%TO.C,C22*%
X125950000Y-103000000D03*
X124050000Y-103000000D03*
%TD*%
D34*
%TO.C,C32*%
X87000000Y-85480000D03*
X87000000Y-84520000D03*
%TD*%
D42*
%TO.C,U5*%
X116500000Y-100912500D03*
X116000000Y-100912500D03*
X115500000Y-100912500D03*
D43*
X114837500Y-100750000D03*
X114837500Y-100250000D03*
X114837500Y-99750000D03*
X114837500Y-99250000D03*
D42*
X115500000Y-99087500D03*
X116000000Y-99087500D03*
X116500000Y-99087500D03*
D43*
X117162500Y-99250000D03*
X117162500Y-99750000D03*
X117162500Y-100250000D03*
X117162500Y-100750000D03*
%TD*%
D44*
%TO.C,Y1*%
X110305635Y-95305635D03*
X108750000Y-93750000D03*
X107547919Y-94952081D03*
X109103554Y-96507716D03*
%TD*%
D45*
%TO.C,C39*%
X65750000Y-104450000D03*
X65750000Y-102550000D03*
%TD*%
D25*
%TO.C,C7*%
X97089411Y-106410589D03*
X96410589Y-107089411D03*
%TD*%
D34*
%TO.C,C24*%
X74750000Y-112230000D03*
X74750000Y-111270000D03*
%TD*%
D46*
%TO.C,L1*%
X94307107Y-104357107D03*
X92892893Y-102942893D03*
%TD*%
D47*
%TO.C,R23*%
X73010000Y-103250000D03*
X71990000Y-103250000D03*
%TD*%
D48*
%TO.C,R15*%
X106500000Y-121260000D03*
X106500000Y-120240000D03*
%TD*%
D37*
%TO.C,C21*%
X113950000Y-130750000D03*
X112050000Y-130750000D03*
%TD*%
D48*
%TO.C,R18*%
X101500000Y-121260000D03*
X101500000Y-120240000D03*
%TD*%
D47*
%TO.C,R20*%
X75510000Y-103250000D03*
X74490000Y-103250000D03*
%TD*%
D29*
%TO.C,R7*%
X96739376Y-93039376D03*
X97460624Y-93760624D03*
%TD*%
D49*
%TO.C,D1*%
X87062500Y-107000000D03*
X88937500Y-107000000D03*
%TD*%
D50*
%TO.C,C30*%
X116520000Y-97850000D03*
X117480000Y-97850000D03*
%TD*%
D31*
%TO.C,C15*%
X105660589Y-103960589D03*
X106339411Y-104639411D03*
%TD*%
D17*
%TO.C,C26*%
X122000000Y-91770000D03*
X122000000Y-92730000D03*
%TD*%
D51*
%TO.C,U4*%
X124250000Y-101275000D03*
X124750000Y-101275000D03*
X125250000Y-101275000D03*
X125750000Y-101275000D03*
D52*
X126275000Y-100750000D03*
X126275000Y-100250000D03*
X126275000Y-99750000D03*
X126275000Y-99250000D03*
D51*
X125750000Y-98725000D03*
X125250000Y-98725000D03*
X124750000Y-98725000D03*
X124250000Y-98725000D03*
D52*
X123725000Y-99250000D03*
X123725000Y-99750000D03*
X123725000Y-100250000D03*
X123725000Y-100750000D03*
%TD*%
D47*
%TO.C,R19*%
X80760000Y-102000000D03*
X79740000Y-102000000D03*
%TD*%
D34*
%TO.C,C31*%
X120000000Y-85250000D03*
X120000000Y-84290000D03*
%TD*%
D53*
%TO.C,SW2*%
X100900000Y-125000000D03*
X105100000Y-125000000D03*
%TD*%
D32*
%TO.C,C4*%
X103410589Y-95839411D03*
X104089411Y-95160589D03*
%TD*%
D45*
%TO.C,C35*%
X83800000Y-99250000D03*
X83800000Y-97350000D03*
%TD*%
D49*
%TO.C,D3*%
X87062500Y-111000000D03*
X88937500Y-111000000D03*
%TD*%
D24*
%TO.C,R4*%
X92490000Y-125000000D03*
X93510000Y-125000000D03*
%TD*%
D33*
%TO.C,C14*%
X96039411Y-95139411D03*
X95360589Y-94460589D03*
%TD*%
D48*
%TO.C,R24*%
X78750000Y-101510000D03*
X78750000Y-100490000D03*
%TD*%
D17*
%TO.C,C19*%
X103250000Y-117520000D03*
X103250000Y-118480000D03*
%TD*%
D54*
%TO.C,C37*%
X105550000Y-118000000D03*
X107450000Y-118000000D03*
%TD*%
D49*
%TO.C,D4*%
X87062500Y-105000000D03*
X88937500Y-105000000D03*
%TD*%
D53*
%TO.C,SW1*%
X94900000Y-125000000D03*
X99100000Y-125000000D03*
%TD*%
D55*
%TO.C,C41*%
X65750000Y-99050000D03*
X65750000Y-100950000D03*
%TD*%
D32*
%TO.C,C3*%
X92910589Y-100589411D03*
X93589411Y-99910589D03*
%TD*%
D34*
%TO.C,C34*%
X106500000Y-85480000D03*
X106500000Y-84520000D03*
%TD*%
D47*
%TO.C,R25*%
X80760000Y-98000000D03*
X79740000Y-98000000D03*
%TD*%
D56*
%TO.C,U14*%
X81350000Y-99325000D03*
X80650000Y-99325000D03*
D57*
X79850000Y-99250000D03*
X79850000Y-99750000D03*
X79850000Y-100250000D03*
X79850000Y-100750000D03*
D56*
X80650000Y-100675000D03*
X81350000Y-100675000D03*
D57*
X82150000Y-100750000D03*
X82150000Y-100250000D03*
X82150000Y-99750000D03*
X82150000Y-99250000D03*
%TD*%
D39*
%TO.C,R14*%
X99500000Y-120240000D03*
X99500000Y-121260000D03*
%TD*%
%TO.C,R26*%
X78750000Y-98490000D03*
X78750000Y-99510000D03*
%TD*%
D32*
%TO.C,C16*%
X110587366Y-97378858D03*
X111266188Y-96700036D03*
%TD*%
D26*
%TO.C,R6*%
X104860624Y-95889376D03*
X104139376Y-96610624D03*
%TD*%
D58*
%TO.C,U6*%
X78000000Y-107800000D03*
X77500000Y-107800000D03*
X77000000Y-107800000D03*
X76500000Y-107800000D03*
X76000000Y-107800000D03*
X76000000Y-112200000D03*
X76500000Y-112200000D03*
X77000000Y-112200000D03*
X77500000Y-112200000D03*
X78000000Y-112200000D03*
%TD*%
D59*
%TO.C,C18*%
X91671751Y-98921751D03*
X90328249Y-97578249D03*
%TD*%
D17*
%TO.C,C25*%
X118000000Y-91770000D03*
X118000000Y-92730000D03*
%TD*%
%TO.C,C28*%
X80905000Y-89470000D03*
X80905000Y-90430000D03*
%TD*%
D48*
%TO.C,R16*%
X104500000Y-121260000D03*
X104500000Y-120240000D03*
%TD*%
%TO.C,R17*%
X100500000Y-121260000D03*
X100500000Y-120240000D03*
%TD*%
D17*
%TO.C,C38*%
X104250000Y-117520000D03*
X104250000Y-118480000D03*
%TD*%
D24*
%TO.C,R12*%
X90490000Y-111000000D03*
X91510000Y-111000000D03*
%TD*%
D49*
%TO.C,D2*%
X87062500Y-109000000D03*
X88937500Y-109000000D03*
%TD*%
D31*
%TO.C,C11*%
X101510589Y-105260589D03*
X102189411Y-105939411D03*
%TD*%
D60*
%TO.C,L3*%
X68087500Y-99000000D03*
X70412500Y-99000000D03*
%TD*%
D47*
%TO.C,R22*%
X91510000Y-105000000D03*
X90490000Y-105000000D03*
%TD*%
M02*
