M48
; DRILL file {KiCad 9.0.3} date 2026-03-01T17:18:40-0600
; FORMAT={-:-/ absolute / metric / decimal}
; #@! TF.CreationDate,2026-03-01T17:18:40-06:00
; #@! TF.GenerationSoftware,Kicad,Pcbnew,9.0.3
; #@! TF.FileFunction,Plated,1,4,PTH
FMAT,2
METRIC
; #@! TA.AperFunction,Plated,PTH,ViaDrill
T1C0.300
; #@! TA.AperFunction,Plated,PTH,ComponentDrill
T2C0.500
; #@! TA.AperFunction,Plated,PTH,ComponentDrill
T3C1.000
; #@! TA.AperFunction,Plated,PTH,ComponentDrill
T4C3.200
; #@! TA.AperFunction,Plated,PTH,ComponentDrill
T5C4.500
%
G90
G05
T1
X64.1Y-101.05
X64.1Y-101.8
X64.1Y-102.5
X64.2Y-104.5
X64.2Y-105.65
X65.75Y-105.65
X67.5Y-104.5
X67.5Y-105.65
X72.375Y-89.275
X72.475Y-90.575
X72.55Y-93.1
X72.8Y-104.75
X73.35Y-114.05
X73.35Y-114.8
X73.35Y-115.6
X74.15Y-114.05
X74.15Y-114.8
X74.15Y-115.6
X75.0Y-113.7
X75.5Y-112.2
X75.9Y-113.7
X76.0Y-106.5
X76.599Y-110.849
X76.812Y-106.487
X78.0Y-109.448
X78.05Y-100.5
X78.06Y-99.51
X78.075Y-106.525
X79.8Y-103.05
X80.2Y-77.9
X80.2Y-78.9
X80.2Y-79.85
X80.325Y-91.825
X80.35Y-93.1
X80.4Y-103.05
X80.925Y-91.125
X81.0Y-103.05
X81.55Y-77.9
X81.65Y-85.9
X81.75Y-89.5
X81.8Y-96.8
X81.8Y-97.75
X82.0Y-101.85
X82.0Y-102.6
X82.35Y-111.7
X82.85Y-77.9
X83.8Y-96.6
X84.75Y-97.35
X84.9Y-100.55
X85.4Y-85.8
X86.0Y-107.0
X86.0Y-109.0
X86.0Y-111.0
X86.6Y-83.4
X89.55Y-96.8
X91.05Y-102.5
X91.5Y-96.6
X91.51Y-104.36
X91.75Y-125.0
X92.25Y-107.0
X92.25Y-126.5
X92.312Y-95.988
X92.312Y-111.05
X92.35Y-99.6
X92.35Y-108.95
X93.25Y-117.25
X93.45Y-98.55
X93.75Y-101.55
X94.05Y-99.45
X94.5Y-100.85
X94.825Y-93.925
X95.1Y-85.9
X95.55Y-93.25
X95.95Y-108.1
X96.975Y-107.975
X97.3Y-96.4
X97.75Y-78.0
X98.075Y-95.45
X98.1Y-111.75
X98.188Y-130.812
X98.25Y-130.0
X98.25Y-131.75
X98.25Y-132.5
X98.5Y-123.0
X98.625Y-95.0
X98.625Y-120.125
X98.65Y-97.8
X99.0Y-78.0
X99.0Y-100.0
X99.0Y-132.5
X99.4Y-97.227
X100.0Y-78.0
X100.0Y-79.0
X100.0Y-80.0
X100.0Y-84.0
X100.0Y-86.2
X100.0Y-99.0
X100.0Y-100.0
X100.0Y-101.0
X100.05Y-103.65
X100.15Y-105.35
X100.2Y-96.7
X100.5Y-103.1
X100.5Y-119.5
X101.0Y-78.0
X101.0Y-97.25
X101.0Y-100.0
X101.05Y-116.25
X101.1Y-86.0
X101.5Y-93.7
X101.75Y-119.5
X101.975Y-107.175
X102.15Y-96.04
X102.25Y-78.0
X102.25Y-125.0
X102.35Y-121.26
X102.625Y-91.325
X102.7Y-106.45
X102.75Y-96.4
X103.0Y-93.0
X103.25Y-109.65
X103.25Y-116.25
X103.25Y-119.25
X103.45Y-100.1
X103.8Y-121.26
X104.5Y-119.5
X104.55Y-109.85
X104.75Y-94.5
X104.9Y-85.8
X105.25Y-106.4
X105.5Y-119.5
X105.85Y-97.85
X106.1Y-83.45
X106.55Y-119.45
X106.65Y-111.85
X106.7Y-105.0
X107.75Y-92.25
X107.75Y-129.75
X108.0Y-97.0
X108.5Y-97.5
X108.5Y-117.75
X108.75Y-92.5
X109.5Y-93.0
X109.8Y-101.5
X110.0Y-98.0
X110.55Y-117.7
X111.3Y-102.0
X112.05Y-131.75
X112.125Y-132.375
X112.9Y-96.9
X113.25Y-99.25
X114.2Y-99.8
X114.525Y-102.825
X114.595Y-85.895
X114.75Y-97.25
X115.0Y-123.5
X115.0Y-125.0
X115.0Y-126.5
X115.125Y-132.625
X115.55Y-132.0
X115.65Y-101.7
X115.75Y-97.25
X116.5Y-97.25
X116.5Y-102.05
X116.652Y-105.808
X117.15Y-77.9
X117.5Y-97.25
X117.5Y-131.75
X117.75Y-100.25
X118.0Y-93.25
X118.0Y-108.5
X118.013Y-91.244
X118.05Y-109.85
X118.4Y-85.8
X118.45Y-77.9
X118.5Y-129.75
X118.5Y-130.75
X118.5Y-131.75
X118.55Y-99.2
X119.8Y-77.9
X119.8Y-78.9
X119.8Y-79.85
X120.0Y-83.6
X120.0Y-92.0
X120.65Y-99.15
X122.0Y-91.0
X122.0Y-99.95
X122.75Y-92.75
X122.95Y-100.75
X123.2Y-99.3
X123.25Y-109.75
X123.3Y-108.8
X123.65Y-101.35
X124.05Y-104.05
X124.25Y-98.0
X125.575Y-100.675
X126.0Y-98.25
X126.8Y-103.0
T3
X88.46Y-76.92
X88.46Y-79.46
X88.46Y-82.0
X92.0Y-76.92
X92.0Y-79.46
X92.0Y-82.0
X108.0Y-76.92
X108.0Y-79.46
X108.0Y-82.0
X111.54Y-76.92
X111.54Y-79.46
X111.54Y-82.0
X112.92Y-116.0
X115.46Y-116.0
X118.0Y-116.0
T4
X75.0Y-75.0
X75.0Y-125.0
X125.0Y-75.0
X125.0Y-125.0
T5
X85.0Y-121.8
X85.0Y-129.0
T2
G00X96.7Y-134.25
M15
G01X96.7Y-133.55
M16
G05
G00X103.3Y-134.25
M15
G01X103.3Y-133.55
M16
G05
M30
