%TF.GenerationSoftware,KiCad,Pcbnew,9.0.3*%
%TF.CreationDate,2026-03-01T17:18:48-06:00*%
%TF.ProjectId,Main,4d61696e-2e6b-4696-9361-645f70636258,rev?*%
%TF.SameCoordinates,Original*%
%TF.FileFunction,Copper,L4,Bot*%
%TF.FilePolarity,Positive*%
%FSLAX46Y46*%
G04 Gerber Fmt 4.6, Leading zero omitted, Abs format (unit mm)*
G04 Created by KiCad (PCBNEW 9.0.3) date 2026-03-01 17:18:48*
%MOMM*%
%LPD*%
G01*
G04 APERTURE LIST*
G04 Aperture macros list*
%AMRoundRect*
0 Rectangle with rounded corners*
0 $1 Rounding radius*
0 $2 $3 $4 $5 $6 $7 $8 $9 X,Y pos of 4 corners*
0 Add a 4 corners polygon primitive as box body*
4,1,4,$2,$3,$4,$5,$6,$7,$8,$9,$2,$3,0*
0 Add four circle primitives for the rounded corners*
1,1,$1+$1,$2,$3*
1,1,$1+$1,$4,$5*
1,1,$1+$1,$6,$7*
1,1,$1+$1,$8,$9*
0 Add four rect primitives between the rounded corners*
20,1,$1+$1,$2,$3,$4,$5,0*
20,1,$1+$1,$4,$5,$6,$7,0*
20,1,$1+$1,$6,$7,$8,$9,0*
20,1,$1+$1,$8,$9,$2,$3,0*%
G04 Aperture macros list end*
%TA.AperFunction,ComponentPad*%
%ADD10C,4.000000*%
%TD*%
%TA.AperFunction,SMDPad,CuDef*%
%ADD11R,1.200000X2.200000*%
%TD*%
%TA.AperFunction,SMDPad,CuDef*%
%ADD12R,1.600000X1.500000*%
%TD*%
%TA.AperFunction,SMDPad,CuDef*%
%ADD13R,1.200000X1.800000*%
%TD*%
%TA.AperFunction,SMDPad,CuDef*%
%ADD14R,0.700000X1.600000*%
%TD*%
%TA.AperFunction,HeatsinkPad*%
%ADD15O,0.900000X1.600000*%
%TD*%
%TA.AperFunction,ComponentPad*%
%ADD16RoundRect,1.500000X1.500000X-1.500000X1.500000X1.500000X-1.500000X1.500000X-1.500000X-1.500000X0*%
%TD*%
%TA.AperFunction,ComponentPad*%
%ADD17C,6.000000*%
%TD*%
%TA.AperFunction,ComponentPad*%
%ADD18R,1.700000X1.700000*%
%TD*%
%TA.AperFunction,ComponentPad*%
%ADD19C,1.700000*%
%TD*%
%TA.AperFunction,ViaPad*%
%ADD20C,0.600000*%
%TD*%
%TA.AperFunction,ViaPad*%
%ADD21C,0.700000*%
%TD*%
%TA.AperFunction,Conductor*%
%ADD22C,0.200000*%
%TD*%
%TA.AperFunction,Conductor*%
%ADD23C,0.300000*%
%TD*%
G04 APERTURE END LIST*
D10*
%TO.P,H1,1*%
%TO.N,GND*%
X75000000Y-75000000D03*
%TD*%
%TO.P,H2,1*%
%TO.N,GND*%
X125000000Y-75000000D03*
%TD*%
%TO.P,H3,1*%
%TO.N,GND*%
X75000000Y-125000000D03*
%TD*%
%TO.P,H4,1*%
%TO.N,GND*%
X125000000Y-125000000D03*
%TD*%
D11*
%TO.P,J7,G4,COVER_GND__3*%
%TO.N,GND*%
X92250000Y-128120000D03*
%TO.P,J7,G3,COVER_GND__2*%
X107750000Y-128120000D03*
D12*
%TO.P,J7,G2,COVER_GND__1*%
X93150000Y-118570000D03*
D13*
%TO.P,J7,G1,COVER_GND*%
X107750000Y-118820000D03*
D14*
%TO.P,J7,CD,CD*%
%TO.N,SD_CD*%
X106550000Y-117520000D03*
%TO.P,J7,8,DAT1*%
%TO.N,Net-(J7-DAT1)*%
X105450000Y-117520000D03*
%TO.P,J7,7,DAT0*%
%TO.N,SPI_SDO2*%
X104350000Y-117520000D03*
%TO.P,J7,6,VSS*%
%TO.N,GND*%
X103250000Y-117520000D03*
%TO.P,J7,5,CLK*%
%TO.N,SPI_SCLK2*%
X102150000Y-117520000D03*
%TO.P,J7,4,VDD*%
%TO.N,+3.3V*%
X101050000Y-117520000D03*
%TO.P,J7,3,CMD*%
%TO.N,SPI_SDI2*%
X99950000Y-117520000D03*
%TO.P,J7,2,CD/DAT3*%
%TO.N,SD_ChipSelect*%
X98850000Y-117520000D03*
%TO.P,J7,1,DAT2*%
%TO.N,Net-(J7-DAT2)*%
X97750000Y-117520000D03*
%TD*%
D15*
%TO.P,J1,6,Shield*%
%TO.N,GND*%
X96700000Y-133900000D03*
X103300000Y-133900000D03*
%TD*%
D16*
%TO.P,J2,1,Pin_1*%
%TO.N,GND*%
X85000000Y-129000000D03*
D17*
%TO.P,J2,2,Pin_2*%
%TO.N,Net-(J2-Pin_2)*%
X85000000Y-121800000D03*
%TD*%
D18*
%TO.P,J5,1,Pin_1*%
%TO.N,PWM4*%
X88460000Y-82000000D03*
D19*
%TO.P,J5,2,Pin_2*%
%TO.N,current -4*%
X88460000Y-79460000D03*
%TO.P,J5,3,Pin_3*%
%TO.N,GND*%
X88460000Y-76920000D03*
%TD*%
D18*
%TO.P,J3,1,Pin_1*%
%TO.N,PWM1*%
X111540000Y-82000000D03*
D19*
%TO.P,J3,2,Pin_2*%
%TO.N,current -1*%
X111540000Y-79460000D03*
%TO.P,J3,3,Pin_3*%
%TO.N,GND*%
X111540000Y-76920000D03*
%TD*%
D18*
%TO.P,J6,1,Pin_1*%
%TO.N,PWM3*%
X92000000Y-82000000D03*
D19*
%TO.P,J6,2,Pin_2*%
%TO.N,current -3*%
X92000000Y-79460000D03*
%TO.P,J6,3,Pin_3*%
%TO.N,GND*%
X92000000Y-76920000D03*
%TD*%
D18*
%TO.P,J9,1,Pin_1*%
%TO.N,GND*%
X118000000Y-116000000D03*
D19*
%TO.P,J9,2,Pin_2*%
%TO.N,Net-(J9-Pin_2)*%
X115460000Y-116000000D03*
%TO.P,J9,3,Pin_3*%
%TO.N,Net-(J9-Pin_3)*%
X112920000Y-116000000D03*
%TD*%
D18*
%TO.P,J4,1,Pin_1*%
%TO.N,PWM2*%
X108000000Y-82000000D03*
D19*
%TO.P,J4,2,Pin_2*%
%TO.N,current -2*%
X108000000Y-79460000D03*
%TO.P,J4,3,Pin_3*%
%TO.N,GND*%
X108000000Y-76920000D03*
%TD*%
D20*
%TO.N,+3.3V*%
X102350000Y-121260000D03*
X103800000Y-121260000D03*
%TO.N,LED2*%
X92312015Y-111050266D03*
X110550000Y-117700000D03*
%TO.N,LED1*%
X92350000Y-108950000D03*
X97300000Y-96400000D03*
%TO.N,+3.3V*%
X91510000Y-104360000D03*
%TO.N,SD_CD*%
X106650000Y-111850000D03*
%TO.N,INT2{slash}DRDY*%
X114200000Y-99800000D03*
X112900000Y-96900000D03*
%TO.N,SPI_SCLK2*%
X104550000Y-109850000D03*
%TO.N,SPI_SDI2*%
X100500000Y-103100000D03*
%TO.N,SD_ChipSelect*%
X103250000Y-109650000D03*
%TO.N,SPI_SDO2*%
X100050000Y-103650000D03*
%TO.N,PWM4*%
X98650000Y-97800000D03*
%TO.N,PWM3*%
X99399608Y-97226621D03*
%TO.N,PWM2*%
X100200000Y-96700000D03*
%TO.N,PWM1*%
X102625000Y-91325000D03*
%TO.N,+3.3V*%
X101500000Y-93700000D03*
%TO.N,GND*%
X126800000Y-103000000D03*
X123300000Y-108800000D03*
%TO.N,+3.3V*%
X123250000Y-109750000D03*
%TO.N,MS5611_CS*%
X116651817Y-105807662D03*
X109800000Y-101500000D03*
%TO.N,MMC_CS*%
X125575000Y-100675000D03*
X122000000Y-99950000D03*
X120650000Y-99150000D03*
X113250000Y-99250000D03*
%TO.N,+3.3V*%
X123200000Y-99300000D03*
%TO.N,SPI_SCK*%
X123650000Y-101350000D03*
X115650000Y-101700000D03*
X114525000Y-102825000D03*
X118550000Y-99200000D03*
X118050000Y-109850000D03*
%TO.N,SPI_SDI*%
X118000000Y-108500000D03*
X120000000Y-92000000D03*
X122950000Y-100750000D03*
X116500000Y-102050000D03*
%TO.N,+3.3V*%
X103450000Y-100100000D03*
X105850000Y-97850000D03*
%TO.N,GND*%
X106700000Y-105000000D03*
X105250000Y-106400000D03*
X118000000Y-93250000D03*
%TO.N,+3.3V*%
X118013173Y-91244410D03*
X122750000Y-92750000D03*
%TO.N,GND*%
X122000000Y-91000000D03*
%TO.N,+3.3V*%
X124050000Y-104050000D03*
%TO.N,GND*%
X126000000Y-98250000D03*
X124250000Y-98000000D03*
%TO.N,+3.3V*%
X117750000Y-100250000D03*
X117500000Y-97250000D03*
%TO.N,GND*%
X116500000Y-97250000D03*
X115750000Y-97250000D03*
%TO.N,+3.3V*%
X114750000Y-97250000D03*
X82000000Y-102600000D03*
X92350000Y-99600000D03*
D21*
X101050000Y-116250000D03*
D20*
X82350000Y-111700000D03*
X81800000Y-97750000D03*
X92250000Y-107000000D03*
X95550000Y-93250000D03*
X96975000Y-107975000D03*
X93450000Y-98550000D03*
X100000000Y-86200000D03*
X81800000Y-96800000D03*
X118400000Y-85800000D03*
X100150000Y-105350000D03*
X75500000Y-112200000D03*
X85400000Y-85800000D03*
X81750000Y-89500000D03*
X82000000Y-101850000D03*
X104900000Y-85800000D03*
X91050000Y-102500000D03*
%TO.N,GND*%
X108500000Y-117750000D03*
X100000000Y-100000000D03*
D21*
X103250000Y-116250000D03*
X93750000Y-101550000D03*
D20*
X99000000Y-100000000D03*
X80350000Y-93100000D03*
X72800000Y-104750000D03*
X104750000Y-94500000D03*
X86000000Y-111000000D03*
X98100000Y-111750000D03*
X64100000Y-101800000D03*
D21*
X94500000Y-100850000D03*
D20*
X94825000Y-93925000D03*
X100000000Y-84000000D03*
X91750000Y-125000000D03*
X112050000Y-131750000D03*
X101000000Y-100000000D03*
X101975000Y-107175000D03*
X81650000Y-85900000D03*
X115125000Y-132625000D03*
X80325000Y-91825000D03*
X115550000Y-132000000D03*
X93250000Y-117250000D03*
X76599000Y-110849000D03*
X95100000Y-85900000D03*
X107750000Y-129750000D03*
X84900000Y-100550000D03*
X107750000Y-92250000D03*
X106100000Y-83450000D03*
X95950000Y-108100000D03*
X102250000Y-125000000D03*
X64100000Y-101050000D03*
X108750000Y-92500000D03*
X108000000Y-97000000D03*
X102700000Y-106450000D03*
X100000000Y-99000000D03*
X64100000Y-102500000D03*
X86000000Y-109000000D03*
X120000000Y-83600000D03*
X103000000Y-93000000D03*
X92250000Y-126500000D03*
X101100000Y-86000000D03*
X89550000Y-96800000D03*
X91500000Y-96600000D03*
X80925000Y-91125000D03*
X78000000Y-109448000D03*
X114595000Y-85895000D03*
X78050000Y-100500000D03*
X84750000Y-97350000D03*
X109500000Y-93000000D03*
X72550000Y-93100000D03*
X92311522Y-95988478D03*
X86600000Y-83400000D03*
X78060000Y-99510000D03*
X83800000Y-96600000D03*
X86000000Y-107000000D03*
X78075000Y-106525000D03*
X110000000Y-98000000D03*
X94050000Y-99450000D03*
X108500000Y-97500000D03*
X112125000Y-132375000D03*
D21*
X103250000Y-119250000D03*
D20*
X100000000Y-101000000D03*
%TO.N,VBUS*%
X117500000Y-131750000D03*
X98250000Y-130000000D03*
X98187500Y-130812500D03*
X118500000Y-129750000D03*
X98250000Y-131750000D03*
X118500000Y-131750000D03*
X99000000Y-132500000D03*
X118500000Y-130750000D03*
X98250000Y-132500000D03*
%TO.N,SDA*%
X72375000Y-89275000D03*
X98625000Y-95000000D03*
X76812500Y-106487500D03*
%TO.N,SCL*%
X98075000Y-95450000D03*
X72475000Y-90575000D03*
X76000000Y-106500000D03*
%TO.N,Net-(U1-RUN)*%
X101000000Y-97250000D03*
X98500000Y-123000000D03*
%TO.N,Net-(J9-Pin_3)*%
X102750000Y-96400000D03*
%TO.N,Net-(J9-Pin_2)*%
X102149753Y-96039852D03*
%TO.N,VIN*%
X100000000Y-80000000D03*
D21*
X73350000Y-114050000D03*
D20*
X80200000Y-78900000D03*
D21*
X73350000Y-115600000D03*
D20*
X100000000Y-79000000D03*
X65750000Y-105650000D03*
X64200000Y-105650000D03*
X119800000Y-77900000D03*
X81550000Y-77900000D03*
X101000000Y-78000000D03*
X97750000Y-78000000D03*
X82850000Y-77900000D03*
X80200000Y-79850000D03*
X67500000Y-105650000D03*
D21*
X74150000Y-115600000D03*
D20*
X117150000Y-77900000D03*
D21*
X73350000Y-114800000D03*
D20*
X64200000Y-104500000D03*
X67500000Y-104500000D03*
D21*
X74150000Y-114800000D03*
D20*
X118450000Y-77900000D03*
X102250000Y-78000000D03*
D21*
X75000000Y-113700000D03*
D20*
X99000000Y-78000000D03*
X119800000Y-79850000D03*
X119800000Y-78900000D03*
X100000000Y-78000000D03*
D21*
X75900000Y-113700000D03*
D20*
X80200000Y-77900000D03*
D21*
X74150000Y-114050000D03*
%TO.N,Net-(J7-DAT2)*%
X98625000Y-120125000D03*
%TO.N,SPI_SDO2*%
X104500000Y-119500000D03*
%TO.N,SPI_SDI2*%
X100500000Y-119500000D03*
%TO.N,SPI_SCLK2*%
X101750000Y-119500000D03*
%TO.N,Net-(J7-DAT1)*%
X105500000Y-119500000D03*
%TO.N,SD_CD*%
X106550000Y-119450000D03*
D20*
%TO.N,3.3v_usb*%
X115000000Y-123500000D03*
X115000000Y-125000000D03*
X79800000Y-103050000D03*
X115000000Y-126500000D03*
X81000000Y-103050000D03*
X80400000Y-103050000D03*
%TO.N,SPI_SDI*%
X111300000Y-102000000D03*
%TD*%
D22*
%TO.N,SPI_SDO2*%
X104350000Y-117070000D02*
X104350000Y-117520000D01*
X105150000Y-116270000D02*
X104350000Y-117070000D01*
X105150000Y-109608521D02*
X105150000Y-116270000D01*
X100050000Y-104508521D02*
X105150000Y-109608521D01*
X100050000Y-103650000D02*
X100050000Y-104508521D01*
%TO.N,SD_ChipSelect*%
X98850000Y-116650000D02*
X98850000Y-117520000D01*
X103250000Y-112250000D02*
X98850000Y-116650000D01*
X103250000Y-109650000D02*
X103250000Y-112250000D01*
%TO.N,LED2*%
X95700000Y-114350000D02*
X92350000Y-111000000D01*
X95700000Y-121350000D02*
X95700000Y-118650000D01*
X98500000Y-124150000D02*
X95700000Y-121350000D01*
X104322000Y-124150000D02*
X98500000Y-124150000D01*
X95700000Y-118650000D02*
X95700000Y-114350000D01*
X110550000Y-117922000D02*
X104322000Y-124150000D01*
X110550000Y-117700000D02*
X110550000Y-117922000D01*
%TO.N,LED1*%
X94350000Y-108950000D02*
X92350000Y-108950000D01*
X97300000Y-106000000D02*
X94350000Y-108950000D01*
X97300000Y-96400000D02*
X97300000Y-106000000D01*
%TO.N,SD_CD*%
X106550000Y-111950000D02*
X106550000Y-117520000D01*
X106650000Y-111850000D02*
X106550000Y-111950000D01*
%TO.N,INT2{slash}DRDY*%
X114100000Y-99900000D02*
X114200000Y-99800000D01*
X112749000Y-99749000D02*
X112900000Y-99900000D01*
X112900000Y-99900000D02*
X114100000Y-99900000D01*
X112749000Y-97051000D02*
X112749000Y-99749000D01*
X112900000Y-96900000D02*
X112749000Y-97051000D01*
%TO.N,SPI_SCLK2*%
X102150000Y-116570768D02*
X102150000Y-117520000D01*
X104550000Y-114170768D02*
X102150000Y-116570768D01*
X104550000Y-109850000D02*
X104550000Y-114170768D01*
%TO.N,SPI_SDI2*%
X99950000Y-116520000D02*
X99950000Y-117520000D01*
X103900000Y-112570000D02*
X99950000Y-116520000D01*
X103900000Y-109350000D02*
X103900000Y-112570000D01*
X103000000Y-108450000D02*
X103900000Y-109350000D01*
X102200000Y-108450000D02*
X103000000Y-108450000D01*
X99350000Y-105600000D02*
X102200000Y-108450000D01*
X99350000Y-103600000D02*
X99350000Y-105600000D01*
X99850000Y-103100000D02*
X99350000Y-103600000D01*
X100500000Y-103100000D02*
X99850000Y-103100000D01*
%TO.N,PWM4*%
X88550000Y-82000000D02*
X88460000Y-82000000D01*
X98650000Y-96750000D02*
X99950000Y-95450000D01*
X98650000Y-97800000D02*
X98650000Y-96750000D01*
X99950000Y-95450000D02*
X99950000Y-93400000D01*
X99950000Y-93400000D02*
X88550000Y-82000000D01*
%TO.N,PWM3*%
X100400000Y-90400000D02*
X92000000Y-82000000D01*
X99399608Y-96700392D02*
X100400000Y-95700000D01*
X99399608Y-97226621D02*
X99399608Y-96700392D01*
X100400000Y-95700000D02*
X100400000Y-90400000D01*
%TO.N,PWM2*%
X104650000Y-88550000D02*
X104750000Y-88550000D01*
X100900000Y-95800000D02*
X100900000Y-92300000D01*
X100113551Y-96586449D02*
X100900000Y-95800000D01*
X100086449Y-96586449D02*
X100113551Y-96586449D01*
X108000000Y-85300000D02*
X108000000Y-82000000D01*
X100200000Y-96700000D02*
X100086449Y-96586449D01*
X100900000Y-92300000D02*
X104650000Y-88550000D01*
X104750000Y-88550000D02*
X108000000Y-85300000D01*
%TO.N,PWM1*%
X111540000Y-82410000D02*
X111540000Y-82000000D01*
X102625000Y-91325000D02*
X111540000Y-82410000D01*
%TO.N,MS5611_CS*%
X116250000Y-105800000D02*
X116700000Y-105800000D01*
%TO.N,SPI_SDI*%
X116300000Y-102250000D02*
X116500000Y-102050000D01*
X111550000Y-102250000D02*
X116300000Y-102250000D01*
X111300000Y-102000000D02*
X111550000Y-102250000D01*
X111300000Y-102000000D02*
X111250000Y-102050000D01*
%TO.N,MMC_CS*%
X125575000Y-100675000D02*
X125600000Y-100700000D01*
X124850000Y-99950000D02*
X125575000Y-100675000D01*
X122000000Y-99950000D02*
X124850000Y-99950000D01*
X118400000Y-98600000D02*
X120100000Y-98600000D01*
X117950000Y-98600000D02*
X118400000Y-98600000D01*
X120100000Y-98600000D02*
X120650000Y-99150000D01*
X117300000Y-99250000D02*
X117950000Y-98600000D01*
%TO.N,SPI_SDI*%
X121400000Y-99600000D02*
X121400000Y-93400000D01*
X118950000Y-102050000D02*
X121400000Y-99600000D01*
X121400000Y-93400000D02*
X120000000Y-92000000D01*
X116500000Y-102050000D02*
X118950000Y-102050000D01*
%TO.N,MMC_CS*%
X113250000Y-99250000D02*
X117300000Y-99250000D01*
%TO.N,SPI_SCK*%
X123750000Y-101450000D02*
X123750000Y-103641479D01*
X123750000Y-103641479D02*
X118050000Y-109341479D01*
X118050000Y-109341479D02*
X118050000Y-109850000D01*
X123650000Y-101350000D02*
X123750000Y-101450000D01*
X117249000Y-100151000D02*
X115850000Y-101550000D01*
X117542479Y-99749000D02*
X117249000Y-100042479D01*
X117249000Y-100042479D02*
X117249000Y-100151000D01*
X117651000Y-99749000D02*
X117542479Y-99749000D01*
X118200000Y-99200000D02*
X117651000Y-99749000D01*
X115850000Y-101550000D02*
X115550000Y-101550000D01*
X118550000Y-99200000D02*
X118200000Y-99200000D01*
%TO.N,SPI_SDI*%
X118000000Y-103900000D02*
X118000000Y-108500000D01*
X116500000Y-102400000D02*
X118000000Y-103900000D01*
X116500000Y-102050000D02*
X116500000Y-102400000D01*
X121650000Y-102050000D02*
X122950000Y-100750000D01*
X116500000Y-102050000D02*
X121650000Y-102050000D01*
D23*
%TO.N,+3.3V*%
X81850000Y-112200000D02*
X82350000Y-111700000D01*
X75500000Y-112200000D02*
X81850000Y-112200000D01*
X101050000Y-117520000D02*
X101050000Y-116250000D01*
%TO.N,GND*%
X93250000Y-117250000D02*
X93150000Y-117350000D01*
X92250000Y-128120000D02*
X92250000Y-126500000D01*
X107750000Y-118820000D02*
X107750000Y-118500000D01*
X103250000Y-117520000D02*
X103250000Y-116250000D01*
X107750000Y-128120000D02*
X107750000Y-129750000D01*
X107750000Y-118500000D02*
X108500000Y-117750000D01*
X93150000Y-117350000D02*
X93150000Y-118570000D01*
D22*
%TO.N,SDA*%
X76812500Y-106487500D02*
X76800000Y-106500000D01*
X76200000Y-93100000D02*
X77526000Y-94426000D01*
X76812500Y-106487500D02*
X76400000Y-106075000D01*
X76400000Y-106075000D02*
X76400000Y-93300000D01*
X98051000Y-94426000D02*
X98625000Y-95000000D01*
X76400000Y-93300000D02*
X76200000Y-93100000D01*
X77526000Y-94426000D02*
X98051000Y-94426000D01*
X76200000Y-93100000D02*
X72375000Y-89275000D01*
X72375000Y-89275000D02*
X72350000Y-89275000D01*
%TO.N,SCL*%
X99500000Y-95200000D02*
X99500000Y-94300000D01*
X99100000Y-95600000D02*
X99500000Y-95200000D01*
X70350000Y-88900000D02*
X70350000Y-89900000D01*
X97800000Y-92600000D02*
X77900000Y-92600000D01*
X98075000Y-95450000D02*
X98225000Y-95600000D01*
X71025000Y-90575000D02*
X72475000Y-90575000D01*
X73450000Y-88150000D02*
X71100000Y-88150000D01*
X77900000Y-92600000D02*
X73450000Y-88150000D01*
X76000000Y-106500000D02*
X76000000Y-94100000D01*
X70350000Y-89900000D02*
X71025000Y-90575000D01*
X99500000Y-94300000D02*
X97800000Y-92600000D01*
X71100000Y-88150000D02*
X70350000Y-88900000D01*
X76000000Y-94100000D02*
X72475000Y-90575000D01*
X98225000Y-95600000D02*
X99100000Y-95600000D01*
D23*
%TO.N,Net-(U1-RUN)*%
X100970768Y-97250000D02*
X101000000Y-97250000D01*
X96900000Y-121400000D02*
X96900000Y-112048000D01*
X96900000Y-112048000D02*
X98449000Y-110499000D01*
X98500000Y-123000000D02*
X96900000Y-121400000D01*
X98449000Y-99771768D02*
X100970768Y-97250000D01*
X98449000Y-110499000D02*
X98449000Y-99771768D01*
D22*
%TO.N,Net-(J9-Pin_3)*%
X112920000Y-106570000D02*
X112920000Y-116000000D01*
X102750000Y-96400000D02*
X112920000Y-106570000D01*
%TO.N,Net-(J9-Pin_2)*%
X102290605Y-95899000D02*
X102149753Y-96039852D01*
X115460000Y-108401479D02*
X102957521Y-95899000D01*
X115460000Y-116000000D02*
X115460000Y-108401479D01*
X102957521Y-95899000D02*
X102290605Y-95899000D01*
D23*
%TO.N,Net-(J7-DAT2)*%
X97750000Y-119250000D02*
X98625000Y-120125000D01*
X97750000Y-117520000D02*
X97750000Y-119250000D01*
%TO.N,SPI_SDO2*%
X104350000Y-119350000D02*
X104500000Y-119500000D01*
X104350000Y-117520000D02*
X104350000Y-119350000D01*
%TO.N,SPI_SDI2*%
X99950000Y-118950000D02*
X100500000Y-119500000D01*
X99950000Y-117520000D02*
X99950000Y-118950000D01*
%TO.N,SPI_SCLK2*%
X102150000Y-117520000D02*
X102150000Y-119100000D01*
X102150000Y-119100000D02*
X101750000Y-119500000D01*
%TO.N,Net-(J7-DAT1)*%
X105450000Y-119450000D02*
X105500000Y-119500000D01*
X105450000Y-117520000D02*
X105450000Y-119450000D01*
%TO.N,SD_CD*%
X106550000Y-117520000D02*
X106550000Y-119450000D01*
D22*
%TO.N,SPI_SCK*%
X117250000Y-105550000D02*
X117250000Y-106800000D01*
X114525000Y-102825000D02*
X117250000Y-105550000D01*
X117250000Y-109100000D02*
X118000000Y-109850000D01*
X117250000Y-106800000D02*
X117250000Y-109100000D01*
%TO.N,MS5611_CS*%
X114100000Y-105800000D02*
X116250000Y-105800000D01*
X109800000Y-101500000D02*
X114100000Y-105800000D01*
%TD*%
%TA.AperFunction,Conductor*%
%TO.N,GND*%
G36*
X73360591Y-88414852D02*
G01*
X77758100Y-92812362D01*
X77758101Y-92812362D01*
X77758103Y-92812364D01*
X77850172Y-92850500D01*
X77949827Y-92850500D01*
X95194102Y-92850500D01*
X95228750Y-92864852D01*
X95243102Y-92899500D01*
X95228750Y-92934148D01*
X95189512Y-92973386D01*
X95189511Y-92973386D01*
X95130201Y-93076112D01*
X95130200Y-93076115D01*
X95099500Y-93190688D01*
X95099500Y-93309311D01*
X95130200Y-93423884D01*
X95130201Y-93423887D01*
X95168030Y-93489408D01*
X95189511Y-93526613D01*
X95273387Y-93610489D01*
X95376114Y-93669799D01*
X95404758Y-93677474D01*
X95490688Y-93700500D01*
X95490691Y-93700500D01*
X95609311Y-93700500D01*
X95666597Y-93685149D01*
X95723886Y-93669799D01*
X95826613Y-93610489D01*
X95910489Y-93526613D01*
X95969799Y-93423886D01*
X95991191Y-93344052D01*
X96000500Y-93309311D01*
X96000500Y-93190688D01*
X95969799Y-93076115D01*
X95969798Y-93076112D01*
X95910488Y-92973386D01*
X95871250Y-92934148D01*
X95856898Y-92899500D01*
X95871250Y-92864852D01*
X95905898Y-92850500D01*
X97675943Y-92850500D01*
X97710591Y-92864852D01*
X99235148Y-94389409D01*
X99249500Y-94424057D01*
X99249500Y-95075943D01*
X99235148Y-95110591D01*
X99127602Y-95218136D01*
X99092954Y-95232488D01*
X99058306Y-95218136D01*
X99043954Y-95183488D01*
X99045623Y-95170809D01*
X99075500Y-95059309D01*
X99075500Y-94940691D01*
X99075500Y-94940688D01*
X99044799Y-94826115D01*
X99044798Y-94826112D01*
X98985488Y-94723386D01*
X98901613Y-94639511D01*
X98798887Y-94580201D01*
X98798884Y-94580200D01*
X98684312Y-94549500D01*
X98684309Y-94549500D01*
X98565691Y-94549500D01*
X98565689Y-94549500D01*
X98563881Y-94549984D01*
X98562946Y-94549860D01*
X98562505Y-94549919D01*
X98562489Y-94549800D01*
X98526700Y-94545081D01*
X98516560Y-94537299D01*
X98192899Y-94213637D01*
X98100829Y-94175500D01*
X98100828Y-94175500D01*
X77650057Y-94175500D01*
X77615409Y-94161148D01*
X76339107Y-92884846D01*
X76339100Y-92884840D01*
X72837699Y-89383438D01*
X72823347Y-89348790D01*
X72825017Y-89336109D01*
X72825500Y-89334309D01*
X72825500Y-89215691D01*
X72825500Y-89215688D01*
X72794799Y-89101115D01*
X72794798Y-89101112D01*
X72764999Y-89049500D01*
X72735489Y-88998387D01*
X72651613Y-88914511D01*
X72548887Y-88855201D01*
X72548884Y-88855200D01*
X72434312Y-88824500D01*
X72434309Y-88824500D01*
X72315691Y-88824500D01*
X72315688Y-88824500D01*
X72201115Y-88855200D01*
X72201112Y-88855201D01*
X72098386Y-88914511D01*
X72098386Y-88914512D01*
X72014512Y-88998386D01*
X72014511Y-88998386D01*
X71955201Y-89101112D01*
X71955200Y-89101115D01*
X71924500Y-89215688D01*
X71924500Y-89334311D01*
X71955200Y-89448884D01*
X71955201Y-89448887D01*
X71968619Y-89472127D01*
X72014511Y-89551613D01*
X72098387Y-89635489D01*
X72201114Y-89694799D01*
X72229758Y-89702474D01*
X72315688Y-89725500D01*
X72315691Y-89725500D01*
X72434304Y-89725500D01*
X72434309Y-89725500D01*
X72436101Y-89725019D01*
X72437030Y-89725141D01*
X72437490Y-89725081D01*
X72437506Y-89725204D01*
X72473282Y-89729907D01*
X72483438Y-89737699D01*
X75984840Y-93239100D01*
X75984843Y-93239104D01*
X76135148Y-93389409D01*
X76149500Y-93424057D01*
X76149500Y-93776943D01*
X76135148Y-93811591D01*
X76100500Y-93825943D01*
X76065852Y-93811591D01*
X72937699Y-90683438D01*
X72923347Y-90648790D01*
X72925017Y-90636109D01*
X72925500Y-90634309D01*
X72925500Y-90515691D01*
X72925500Y-90515688D01*
X72894799Y-90401115D01*
X72894798Y-90401112D01*
X72878905Y-90373585D01*
X72835489Y-90298387D01*
X72751613Y-90214511D01*
X72705063Y-90187635D01*
X72648887Y-90155201D01*
X72648884Y-90155200D01*
X72534312Y-90124500D01*
X72534309Y-90124500D01*
X72415691Y-90124500D01*
X72415688Y-90124500D01*
X72301115Y-90155200D01*
X72301112Y-90155201D01*
X72198386Y-90214511D01*
X72198386Y-90214512D01*
X72114513Y-90298384D01*
X72114508Y-90298390D01*
X72113579Y-90300001D01*
X72112834Y-90300572D01*
X72112553Y-90300939D01*
X72112454Y-90300863D01*
X72083825Y-90322831D01*
X72071144Y-90324500D01*
X71149057Y-90324500D01*
X71114409Y-90310148D01*
X70614852Y-89810591D01*
X70600500Y-89775943D01*
X70600500Y-89024057D01*
X70614852Y-88989409D01*
X71189409Y-88414852D01*
X71224057Y-88400500D01*
X73325943Y-88400500D01*
X73360591Y-88414852D01*
G37*
%TD.AperFunction*%
%TA.AperFunction,Conductor*%
G36*
X100659672Y-105472454D02*
G01*
X104506412Y-109319194D01*
X104520764Y-109353842D01*
X104506412Y-109388490D01*
X104484447Y-109401172D01*
X104376113Y-109430201D01*
X104376112Y-109430201D01*
X104273386Y-109489511D01*
X104273386Y-109489512D01*
X104234148Y-109528750D01*
X104199500Y-109543102D01*
X104164852Y-109528750D01*
X104150500Y-109494102D01*
X104150500Y-109300174D01*
X104150499Y-109300170D01*
X104112364Y-109208103D01*
X104112362Y-109208101D01*
X104112362Y-109208100D01*
X104041897Y-109137636D01*
X103141899Y-108237637D01*
X103049829Y-108199500D01*
X103049828Y-108199500D01*
X102324056Y-108199500D01*
X102289408Y-108185148D01*
X99966014Y-105861753D01*
X99951662Y-105827105D01*
X99966014Y-105792457D01*
X100000662Y-105778105D01*
X100013345Y-105779775D01*
X100090689Y-105800500D01*
X100090691Y-105800500D01*
X100209311Y-105800500D01*
X100286655Y-105779775D01*
X100323886Y-105769799D01*
X100426613Y-105710489D01*
X100510489Y-105626613D01*
X100569799Y-105523886D01*
X100577694Y-105494418D01*
X100600523Y-105464667D01*
X100637705Y-105459771D01*
X100659672Y-105472454D01*
G37*
%TD.AperFunction*%
%TA.AperFunction,Conductor*%
G36*
X76945197Y-71031001D02*
G01*
X76998142Y-71035425D01*
X77004556Y-71036392D01*
X77137286Y-71065507D01*
X77145401Y-71068043D01*
X77265676Y-71117448D01*
X77268961Y-71118797D01*
X77275893Y-71122311D01*
X77417622Y-71208918D01*
X77423000Y-71212723D01*
X77596482Y-71353900D01*
X77600275Y-71357331D01*
X77824422Y-71582426D01*
X77826705Y-71584881D01*
X78151310Y-71958845D01*
X78151936Y-71959581D01*
X78219126Y-72040142D01*
X78220958Y-72042338D01*
X78222687Y-72044411D01*
X78223713Y-72046574D01*
X78264795Y-72094898D01*
X78264952Y-72095086D01*
X78264971Y-72095108D01*
X78305556Y-72143771D01*
X78307005Y-72145107D01*
X78311119Y-72149390D01*
X78670291Y-72571883D01*
X78674395Y-72579806D01*
X78712868Y-72621967D01*
X78713425Y-72622622D01*
X78749868Y-72665489D01*
X78752619Y-72667389D01*
X78760970Y-72674679D01*
X78928000Y-72857721D01*
X78932901Y-72866341D01*
X78972327Y-72906297D01*
X78972974Y-72907006D01*
X79010150Y-72947746D01*
X79013877Y-72950130D01*
X79022346Y-72956987D01*
X79211248Y-73148426D01*
X79217863Y-73158848D01*
X79257398Y-73195198D01*
X79258246Y-73196057D01*
X79260376Y-73198215D01*
X79295140Y-73233445D01*
X79301271Y-73237039D01*
X79309643Y-73243232D01*
X79524681Y-73440940D01*
X79533058Y-73452619D01*
X79573029Y-73485392D01*
X79574037Y-73486319D01*
X79574045Y-73486326D01*
X79611110Y-73520404D01*
X79619383Y-73524728D01*
X79627751Y-73530261D01*
X79872018Y-73730543D01*
X79882145Y-73742932D01*
X79922819Y-73772196D01*
X79924017Y-73773179D01*
X79961553Y-73803957D01*
X79961554Y-73803957D01*
X79961556Y-73803959D01*
X79971676Y-73808539D01*
X79980090Y-73813404D01*
X80230840Y-73993820D01*
X80252981Y-74009750D01*
X80252980Y-74009750D01*
X80256851Y-74012535D01*
X80268606Y-74025075D01*
X80310155Y-74050887D01*
X80349868Y-74079461D01*
X80361488Y-74083859D01*
X80369991Y-74088060D01*
X80678571Y-74279766D01*
X80678570Y-74279766D01*
X80682559Y-74282244D01*
X80695723Y-74294432D01*
X80738339Y-74316897D01*
X80779260Y-74342319D01*
X80791933Y-74346157D01*
X80800582Y-74349708D01*
X80892204Y-74398006D01*
X81152348Y-74535140D01*
X81166601Y-74546547D01*
X81210437Y-74565762D01*
X81252778Y-74588082D01*
X81263545Y-74590527D01*
X81266030Y-74591092D01*
X81274849Y-74593997D01*
X81507376Y-74695922D01*
X81665099Y-74765058D01*
X81676160Y-74772977D01*
X81725284Y-74791440D01*
X81773340Y-74812505D01*
X81781731Y-74813784D01*
X81791574Y-74816355D01*
X81945899Y-74874357D01*
X81953419Y-74879347D01*
X82007470Y-74897499D01*
X82046387Y-74912126D01*
X82060813Y-74917548D01*
X82060816Y-74917549D01*
X82064247Y-74917885D01*
X82075073Y-74920201D01*
X82235965Y-74974235D01*
X82243543Y-74978889D01*
X82298301Y-74995169D01*
X82352461Y-75013358D01*
X82355765Y-75013563D01*
X82366682Y-75015499D01*
X82539317Y-75066827D01*
X82546909Y-75071138D01*
X82602352Y-75085568D01*
X82657269Y-75101896D01*
X82657267Y-75101896D01*
X82659312Y-75101951D01*
X82660400Y-75101981D01*
X82671412Y-75103542D01*
X82856347Y-75151676D01*
X82863910Y-75155641D01*
X82919991Y-75168241D01*
X82975619Y-75182720D01*
X82978544Y-75182698D01*
X82989633Y-75183888D01*
X83187445Y-75228334D01*
X83194940Y-75231955D01*
X83251628Y-75242755D01*
X83307907Y-75255400D01*
X83310588Y-75255290D01*
X83321755Y-75256114D01*
X83533018Y-75296364D01*
X83540406Y-75299648D01*
X83597627Y-75308673D01*
X83654532Y-75319515D01*
X83656945Y-75319337D01*
X83668176Y-75319801D01*
X83893472Y-75355338D01*
X83900726Y-75358298D01*
X83958452Y-75365587D01*
X84015911Y-75374651D01*
X84018046Y-75374425D01*
X84029337Y-75374538D01*
X84269239Y-75404834D01*
X84276331Y-75407485D01*
X84334487Y-75413074D01*
X84392471Y-75420397D01*
X84394316Y-75420143D01*
X84405655Y-75419914D01*
X84660744Y-75444432D01*
X84667655Y-75446791D01*
X84726220Y-75450725D01*
X84754562Y-75453449D01*
X84784649Y-75456342D01*
X84784650Y-75456341D01*
X84784654Y-75456342D01*
X84786194Y-75456083D01*
X84797575Y-75455519D01*
X85068429Y-75473717D01*
X85075144Y-75475803D01*
X85134082Y-75478127D01*
X85192907Y-75482080D01*
X85194146Y-75481835D01*
X85205557Y-75480947D01*
X85492752Y-75492275D01*
X85499255Y-75494108D01*
X85558489Y-75494869D01*
X85612336Y-75496993D01*
X85617684Y-75497204D01*
X85617684Y-75497203D01*
X85617685Y-75497204D01*
X85618618Y-75496992D01*
X85630059Y-75495788D01*
X85930950Y-75499654D01*
X85934108Y-75500500D01*
X85996797Y-75500500D01*
X86059457Y-75501305D01*
X86059466Y-75501302D01*
X86062646Y-75500926D01*
X86062685Y-75501260D01*
X86068753Y-75500500D01*
X113999852Y-75500500D01*
X114379397Y-75500724D01*
X114385940Y-75502297D01*
X114445192Y-75500763D01*
X114504364Y-75500797D01*
X114504453Y-75500798D01*
X114504453Y-75500797D01*
X114504454Y-75500798D01*
X114505351Y-75500557D01*
X114516744Y-75498910D01*
X114813639Y-75491224D01*
X114820498Y-75492674D01*
X114879393Y-75489521D01*
X114938369Y-75487995D01*
X114939554Y-75487643D01*
X114950843Y-75485697D01*
X115230792Y-75470714D01*
X115237971Y-75472018D01*
X115296495Y-75467197D01*
X115355106Y-75464061D01*
X115356577Y-75463580D01*
X115367756Y-75461328D01*
X115631354Y-75439618D01*
X115638841Y-75440749D01*
X115696876Y-75434222D01*
X115755140Y-75429424D01*
X115756902Y-75428792D01*
X115767942Y-75426230D01*
X116015779Y-75398360D01*
X116023579Y-75399292D01*
X116081174Y-75391006D01*
X116138941Y-75384510D01*
X116140955Y-75383719D01*
X116151862Y-75380836D01*
X116384554Y-75347361D01*
X116392639Y-75348066D01*
X116449654Y-75337995D01*
X116506963Y-75329751D01*
X116509223Y-75328782D01*
X116519989Y-75325571D01*
X116738119Y-75287045D01*
X116746475Y-75287497D01*
X116802878Y-75275606D01*
X116859653Y-75265579D01*
X116862136Y-75264419D01*
X116872743Y-75260878D01*
X117076916Y-75217838D01*
X117085518Y-75218012D01*
X117141277Y-75204270D01*
X117197452Y-75192429D01*
X117200115Y-75191077D01*
X117210561Y-75187196D01*
X117401385Y-75140170D01*
X117410192Y-75140043D01*
X117465210Y-75124442D01*
X117520783Y-75110747D01*
X117523607Y-75109190D01*
X117533878Y-75104969D01*
X117711922Y-75054484D01*
X117720908Y-75054036D01*
X117775209Y-75036539D01*
X117830060Y-75020986D01*
X117832997Y-75019232D01*
X117843073Y-75014672D01*
X118008955Y-74961223D01*
X118018063Y-74960439D01*
X118071557Y-74941051D01*
X118125692Y-74923609D01*
X118128702Y-74921664D01*
X118138581Y-74916761D01*
X118292868Y-74860845D01*
X118302045Y-74859718D01*
X118354678Y-74838445D01*
X118408071Y-74819095D01*
X118411105Y-74816975D01*
X118420790Y-74811724D01*
X118564038Y-74753828D01*
X118573229Y-74752355D01*
X118624992Y-74729192D01*
X118677588Y-74707935D01*
X118680600Y-74705663D01*
X118690071Y-74700070D01*
X118827002Y-74638799D01*
X118840569Y-74635856D01*
X118886984Y-74611959D01*
X118934627Y-74590641D01*
X118941449Y-74585094D01*
X118949920Y-74579556D01*
X119304283Y-74397117D01*
X119321867Y-74391948D01*
X119362669Y-74367058D01*
X119364239Y-74366250D01*
X119364240Y-74366249D01*
X119405159Y-74345183D01*
X119415283Y-74335988D01*
X119422700Y-74330438D01*
X119741216Y-74136143D01*
X119757727Y-74130015D01*
X119797284Y-74101941D01*
X119838688Y-74076685D01*
X119847579Y-74067351D01*
X119854682Y-74061204D01*
X120136273Y-73861362D01*
X120151270Y-73854663D01*
X120189839Y-73823348D01*
X120230351Y-73794597D01*
X120237743Y-73785672D01*
X120244581Y-73778901D01*
X120492682Y-73577463D01*
X120505812Y-73570654D01*
X120543696Y-73536044D01*
X120583515Y-73503715D01*
X120589258Y-73495788D01*
X120595872Y-73488377D01*
X120813857Y-73289236D01*
X120824836Y-73282826D01*
X120862370Y-73244918D01*
X120901765Y-73208929D01*
X120905812Y-73202597D01*
X120912275Y-73194515D01*
X121103355Y-73001535D01*
X121111970Y-72996028D01*
X121149605Y-72954825D01*
X121171771Y-72932438D01*
X121188880Y-72915161D01*
X121188881Y-72915158D01*
X121188883Y-72915157D01*
X121191250Y-72911008D01*
X121197625Y-72902251D01*
X121366115Y-72717793D01*
X121373697Y-72712550D01*
X121410477Y-72669227D01*
X121448781Y-72627293D01*
X121450466Y-72624043D01*
X121456613Y-72614883D01*
X121493120Y-72571883D01*
X121857672Y-72142486D01*
X121857686Y-72142498D01*
X121857705Y-72142446D01*
X122239476Y-71693787D01*
X122241478Y-71691576D01*
X122475652Y-71448431D01*
X122479175Y-71445117D01*
X122657327Y-71293525D01*
X122662444Y-71289719D01*
X122805990Y-71196845D01*
X122812707Y-71193211D01*
X122935515Y-71138721D01*
X122943555Y-71135960D01*
X123072769Y-71103816D01*
X123079204Y-71102666D01*
X123129104Y-71097162D01*
X123133404Y-71096879D01*
X123200639Y-71095425D01*
X123204826Y-71095514D01*
X123280792Y-71100394D01*
X123284736Y-71100809D01*
X123368941Y-71113165D01*
X123372636Y-71113853D01*
X123471022Y-71136118D01*
X123474345Y-71136996D01*
X123583207Y-71169917D01*
X123586211Y-71170934D01*
X123714003Y-71218901D01*
X123716659Y-71219989D01*
X123856648Y-71282250D01*
X123858987Y-71283366D01*
X124022677Y-71366971D01*
X124024733Y-71368085D01*
X124066790Y-71392188D01*
X124202384Y-71469896D01*
X124204195Y-71470986D01*
X124411175Y-71601773D01*
X124412744Y-71602807D01*
X124636178Y-71756290D01*
X124637541Y-71757261D01*
X124897671Y-71949341D01*
X124898843Y-71950234D01*
X124910324Y-71959260D01*
X125178926Y-72170424D01*
X125179946Y-72171248D01*
X125292654Y-72264841D01*
X125506953Y-72442796D01*
X125507753Y-72443476D01*
X125709384Y-72619114D01*
X125859754Y-72750100D01*
X125860517Y-72750779D01*
X126273724Y-73126150D01*
X126274383Y-73126760D01*
X126713597Y-73540692D01*
X126715378Y-73542458D01*
X127540007Y-74403462D01*
X127541030Y-74404567D01*
X128341169Y-75295304D01*
X128342045Y-75296279D01*
X128343062Y-75297447D01*
X128514313Y-75500798D01*
X129115216Y-76214337D01*
X129116205Y-76215551D01*
X129149439Y-76257675D01*
X129858642Y-77156602D01*
X129859562Y-77157807D01*
X130540799Y-78080440D01*
X130571581Y-78122129D01*
X130572478Y-78123385D01*
X130777036Y-78419799D01*
X131253313Y-79109945D01*
X131254181Y-79111247D01*
X131903135Y-80119027D01*
X131903962Y-80120357D01*
X132520403Y-81148382D01*
X132521186Y-81149737D01*
X133104458Y-82196905D01*
X133105198Y-82198285D01*
X133654715Y-83263550D01*
X133655411Y-83264953D01*
X134170629Y-84347257D01*
X134171279Y-84348681D01*
X134183161Y-84375844D01*
X134632392Y-85402849D01*
X134651653Y-85446881D01*
X134652257Y-85448325D01*
X135097295Y-86561299D01*
X135097853Y-86562762D01*
X135507111Y-87689392D01*
X135507622Y-87690872D01*
X135880672Y-88829982D01*
X135881136Y-88831477D01*
X136217621Y-89981981D01*
X136218036Y-89983491D01*
X136517580Y-91144104D01*
X136517947Y-91145626D01*
X136780265Y-92315239D01*
X136780583Y-92316772D01*
X137005399Y-93494156D01*
X137005668Y-93495698D01*
X137192754Y-94679658D01*
X137192974Y-94681208D01*
X137342143Y-95870566D01*
X137342313Y-95872123D01*
X137453409Y-97065629D01*
X137453529Y-97067190D01*
X137526437Y-98263603D01*
X137526508Y-98265167D01*
X137561159Y-99463359D01*
X137561179Y-99464924D01*
X137557533Y-100663581D01*
X137557503Y-100665146D01*
X137515565Y-101863073D01*
X137515485Y-101864637D01*
X137435300Y-103060586D01*
X137435171Y-103062146D01*
X137316813Y-104254989D01*
X137316633Y-104256544D01*
X137160236Y-105444939D01*
X137160007Y-105446488D01*
X136965722Y-106629286D01*
X136965444Y-106630827D01*
X136733462Y-107806857D01*
X136733134Y-107808388D01*
X136463714Y-108976355D01*
X136463338Y-108977875D01*
X136156729Y-110136680D01*
X136156304Y-110138187D01*
X135812843Y-111286565D01*
X135812371Y-111288057D01*
X135432388Y-112424906D01*
X135431868Y-112426383D01*
X135015760Y-113550513D01*
X135015193Y-113551972D01*
X134563397Y-114662207D01*
X134562784Y-114663648D01*
X134075734Y-115758916D01*
X134075075Y-115760336D01*
X133553288Y-116839472D01*
X133552584Y-116840870D01*
X132996603Y-117902761D01*
X132995855Y-117904137D01*
X132406203Y-118947776D01*
X132405411Y-118949126D01*
X131782741Y-119973357D01*
X131781906Y-119974682D01*
X131126834Y-120978495D01*
X131125958Y-120979792D01*
X130439137Y-121962187D01*
X130438219Y-121963456D01*
X129720388Y-122923376D01*
X129719431Y-122924615D01*
X128971258Y-123861161D01*
X128970261Y-123862368D01*
X128192599Y-124774481D01*
X128191565Y-124775656D01*
X127385115Y-125662505D01*
X127384043Y-125663646D01*
X126549706Y-126524246D01*
X126548598Y-126525353D01*
X125687176Y-127358875D01*
X125686034Y-127359945D01*
X124798439Y-128165507D01*
X124797263Y-128166541D01*
X123884351Y-128943366D01*
X123883143Y-128944361D01*
X123427441Y-129307684D01*
X123090758Y-129576115D01*
X122945943Y-129691573D01*
X122944703Y-129692530D01*
X121984035Y-130409476D01*
X121982765Y-130410392D01*
X120999728Y-131096249D01*
X120998430Y-131097124D01*
X119993976Y-131751232D01*
X119992651Y-131752065D01*
X118967814Y-132373749D01*
X118966462Y-132374540D01*
X117922282Y-132963168D01*
X117920906Y-132963915D01*
X116858442Y-133518890D01*
X116857043Y-133519592D01*
X115777440Y-134040318D01*
X115776020Y-134040976D01*
X114680271Y-134526974D01*
X114678829Y-134527586D01*
X113659487Y-134941248D01*
X113641070Y-134944844D01*
X86203544Y-134949507D01*
X86184971Y-134945854D01*
X86182501Y-134944843D01*
X86138728Y-134926922D01*
X85169531Y-134530144D01*
X85168094Y-134529529D01*
X84075513Y-134040988D01*
X84074097Y-134040327D01*
X82997681Y-133517196D01*
X82996286Y-133516490D01*
X81937129Y-132959304D01*
X81935757Y-132958555D01*
X80894862Y-132367841D01*
X80893515Y-132367048D01*
X79872001Y-131743436D01*
X79870680Y-131742600D01*
X78869592Y-131086733D01*
X78868298Y-131085856D01*
X78637486Y-130923886D01*
X78446821Y-130790088D01*
X78446821Y-130790087D01*
X78394239Y-130753188D01*
X97737000Y-130753188D01*
X97737000Y-130871811D01*
X97767700Y-130986384D01*
X97767701Y-130986387D01*
X97790926Y-131026613D01*
X97827011Y-131089113D01*
X97910887Y-131172989D01*
X97958537Y-131200500D01*
X98007172Y-131228580D01*
X98013614Y-131232299D01*
X98039791Y-131239313D01*
X98057856Y-131244154D01*
X98087608Y-131266984D01*
X98092503Y-131304167D01*
X98069674Y-131333919D01*
X97973384Y-131389513D01*
X97889512Y-131473386D01*
X97889511Y-131473386D01*
X97830201Y-131576112D01*
X97830200Y-131576115D01*
X97799500Y-131690688D01*
X97799500Y-131809311D01*
X97830200Y-131923884D01*
X97830201Y-131923887D01*
X97889511Y-132026613D01*
X97953250Y-132090352D01*
X97967602Y-132125000D01*
X97953250Y-132159648D01*
X97889512Y-132223386D01*
X97889511Y-132223386D01*
X97830201Y-132326112D01*
X97830200Y-132326115D01*
X97799500Y-132440688D01*
X97799500Y-132559311D01*
X97830200Y-132673884D01*
X97830201Y-132673887D01*
X97875000Y-132751479D01*
X97889511Y-132776613D01*
X97973387Y-132860489D01*
X98076114Y-132919799D01*
X98104758Y-132927474D01*
X98190688Y-132950500D01*
X98190691Y-132950500D01*
X98309311Y-132950500D01*
X98366597Y-132935149D01*
X98423886Y-132919799D01*
X98526613Y-132860489D01*
X98590352Y-132796750D01*
X98625000Y-132782398D01*
X98659648Y-132796750D01*
X98723387Y-132860489D01*
X98826114Y-132919799D01*
X98854758Y-132927474D01*
X98940688Y-132950500D01*
X98940691Y-132950500D01*
X99059311Y-132950500D01*
X99116597Y-132935149D01*
X99173886Y-132919799D01*
X99276613Y-132860489D01*
X99360489Y-132776613D01*
X99419799Y-132673886D01*
X99435149Y-132616597D01*
X99450500Y-132559311D01*
X99450500Y-132440688D01*
X99419799Y-132326115D01*
X99419798Y-132326112D01*
X99381671Y-132260075D01*
X99360489Y-132223387D01*
X99276613Y-132139511D01*
X99173887Y-132080201D01*
X99173884Y-132080200D01*
X99059312Y-132049500D01*
X99059309Y-132049500D01*
X98940691Y-132049500D01*
X98940688Y-132049500D01*
X98826115Y-132080200D01*
X98826112Y-132080201D01*
X98723386Y-132139511D01*
X98723386Y-132139512D01*
X98659648Y-132203250D01*
X98625000Y-132217602D01*
X98590352Y-132203250D01*
X98546750Y-132159648D01*
X98532398Y-132125000D01*
X98546750Y-132090352D01*
X98610488Y-132026614D01*
X98610489Y-132026613D01*
X98669799Y-131923886D01*
X98685149Y-131866597D01*
X98700500Y-131809311D01*
X98700500Y-131690688D01*
X117049500Y-131690688D01*
X117049500Y-131809311D01*
X117080200Y-131923884D01*
X117080201Y-131923887D01*
X117139511Y-132026613D01*
X117223387Y-132110489D01*
X117326114Y-132169799D01*
X117354758Y-132177474D01*
X117440688Y-132200500D01*
X117440691Y-132200500D01*
X117559311Y-132200500D01*
X117616597Y-132185149D01*
X117673886Y-132169799D01*
X117776613Y-132110489D01*
X117860489Y-132026613D01*
X117919799Y-131923886D01*
X117935149Y-131866597D01*
X117950500Y-131809311D01*
X117950500Y-131690688D01*
X118049500Y-131690688D01*
X118049500Y-131809311D01*
X118080200Y-131923884D01*
X118080201Y-131923887D01*
X118139511Y-132026613D01*
X118223387Y-132110489D01*
X118326114Y-132169799D01*
X118354758Y-132177474D01*
X118440688Y-132200500D01*
X118440691Y-132200500D01*
X118559311Y-132200500D01*
X118616597Y-132185149D01*
X118673886Y-132169799D01*
X118776613Y-132110489D01*
X118860489Y-132026613D01*
X118919799Y-131923886D01*
X118935149Y-131866597D01*
X118950500Y-131809311D01*
X118950500Y-131690688D01*
X118919799Y-131576115D01*
X118919798Y-131576112D01*
X118860488Y-131473386D01*
X118776613Y-131389511D01*
X118673887Y-131330201D01*
X118673884Y-131330200D01*
X118559312Y-131299500D01*
X118559309Y-131299500D01*
X118440691Y-131299500D01*
X118440688Y-131299500D01*
X118326115Y-131330200D01*
X118326112Y-131330201D01*
X118223386Y-131389511D01*
X118223386Y-131389512D01*
X118139512Y-131473386D01*
X118139511Y-131473386D01*
X118080201Y-131576112D01*
X118080200Y-131576115D01*
X118049500Y-131690688D01*
X117950500Y-131690688D01*
X117919799Y-131576115D01*
X117919798Y-131576112D01*
X117860488Y-131473386D01*
X117776613Y-131389511D01*
X117673887Y-131330201D01*
X117673884Y-131330200D01*
X117559312Y-131299500D01*
X117559309Y-131299500D01*
X117440691Y-131299500D01*
X117440688Y-131299500D01*
X117326115Y-131330200D01*
X117326112Y-131330201D01*
X117223386Y-131389511D01*
X117223386Y-131389512D01*
X117139512Y-131473386D01*
X117139511Y-131473386D01*
X117080201Y-131576112D01*
X117080200Y-131576115D01*
X117049500Y-131690688D01*
X98700500Y-131690688D01*
X98669799Y-131576115D01*
X98669798Y-131576112D01*
X98610488Y-131473386D01*
X98526613Y-131389511D01*
X98423887Y-131330201D01*
X98379643Y-131318345D01*
X98349890Y-131295514D01*
X98344996Y-131258332D01*
X98367824Y-131228581D01*
X98464113Y-131172989D01*
X98547989Y-131089113D01*
X98607299Y-130986386D01*
X98624046Y-130923886D01*
X98638000Y-130871811D01*
X98638000Y-130753189D01*
X98623791Y-130700162D01*
X98623791Y-130700161D01*
X98621253Y-130690688D01*
X118049500Y-130690688D01*
X118049500Y-130809311D01*
X118080200Y-130923884D01*
X118080201Y-130923887D01*
X118116286Y-130986387D01*
X118139511Y-131026613D01*
X118223387Y-131110489D01*
X118326114Y-131169799D01*
X118354758Y-131177474D01*
X118440688Y-131200500D01*
X118440691Y-131200500D01*
X118559311Y-131200500D01*
X118616597Y-131185149D01*
X118673886Y-131169799D01*
X118776613Y-131110489D01*
X118860489Y-131026613D01*
X118919799Y-130923886D01*
X118940493Y-130846655D01*
X118950500Y-130809311D01*
X118950500Y-130690688D01*
X118919799Y-130576115D01*
X118919798Y-130576112D01*
X118860488Y-130473386D01*
X118776613Y-130389511D01*
X118673887Y-130330201D01*
X118673884Y-130330200D01*
X118559312Y-130299500D01*
X118559309Y-130299500D01*
X118440691Y-130299500D01*
X118440688Y-130299500D01*
X118326115Y-130330200D01*
X118326112Y-130330201D01*
X118223386Y-130389511D01*
X118223386Y-130389512D01*
X118139512Y-130473386D01*
X118139511Y-130473386D01*
X118080201Y-130576112D01*
X118080200Y-130576115D01*
X118049500Y-130690688D01*
X98621253Y-130690688D01*
X98607299Y-130638615D01*
X98607298Y-130638612D01*
X98547988Y-130535886D01*
X98474121Y-130462019D01*
X98459769Y-130427371D01*
X98474121Y-130392723D01*
X98484266Y-130384938D01*
X98526613Y-130360489D01*
X98610489Y-130276613D01*
X98669799Y-130173886D01*
X98691611Y-130092483D01*
X98700500Y-130059311D01*
X98700500Y-129940688D01*
X98669799Y-129826115D01*
X98669798Y-129826112D01*
X98610488Y-129723386D01*
X98577790Y-129690688D01*
X118049500Y-129690688D01*
X118049500Y-129809311D01*
X118080200Y-129923884D01*
X118080201Y-129923887D01*
X118089903Y-129940691D01*
X118139511Y-130026613D01*
X118223387Y-130110489D01*
X118326114Y-130169799D01*
X118341367Y-130173886D01*
X118440688Y-130200500D01*
X118440691Y-130200500D01*
X118559311Y-130200500D01*
X118616597Y-130185149D01*
X118673886Y-130169799D01*
X118776613Y-130110489D01*
X118860489Y-130026613D01*
X118919799Y-129923886D01*
X118945998Y-129826112D01*
X118950500Y-129809311D01*
X118950500Y-129690688D01*
X118919799Y-129576115D01*
X118919798Y-129576112D01*
X118860488Y-129473386D01*
X118776613Y-129389511D01*
X118673887Y-129330201D01*
X118673884Y-129330200D01*
X118559312Y-129299500D01*
X118559309Y-129299500D01*
X118440691Y-129299500D01*
X118440688Y-129299500D01*
X118326115Y-129330200D01*
X118326112Y-129330201D01*
X118223386Y-129389511D01*
X118223386Y-129389512D01*
X118139512Y-129473386D01*
X118139511Y-129473386D01*
X118080201Y-129576112D01*
X118080200Y-129576115D01*
X118049500Y-129690688D01*
X98577790Y-129690688D01*
X98526613Y-129639511D01*
X98423887Y-129580201D01*
X98423884Y-129580200D01*
X98309312Y-129549500D01*
X98309309Y-129549500D01*
X98190691Y-129549500D01*
X98190688Y-129549500D01*
X98076115Y-129580200D01*
X98076112Y-129580201D01*
X97973386Y-129639511D01*
X97973386Y-129639512D01*
X97889512Y-129723386D01*
X97889511Y-129723386D01*
X97830201Y-129826112D01*
X97830200Y-129826115D01*
X97799500Y-129940688D01*
X97799500Y-130059311D01*
X97830200Y-130173884D01*
X97830201Y-130173887D01*
X97889511Y-130276613D01*
X97963378Y-130350480D01*
X97977730Y-130385128D01*
X97963378Y-130419776D01*
X97953231Y-130427563D01*
X97910884Y-130452013D01*
X97827012Y-130535886D01*
X97827011Y-130535886D01*
X97767701Y-130638612D01*
X97767700Y-130638615D01*
X97737000Y-130753188D01*
X78394239Y-130753188D01*
X77888636Y-130398387D01*
X77887370Y-130397468D01*
X76930137Y-129679102D01*
X76928902Y-129678144D01*
X75995068Y-128929610D01*
X75993864Y-128928613D01*
X75772088Y-128738913D01*
X75429738Y-128446078D01*
X96199500Y-128446078D01*
X96199500Y-128593921D01*
X96228340Y-128738906D01*
X96228342Y-128738915D01*
X96284914Y-128875491D01*
X96284916Y-128875495D01*
X96367049Y-128998416D01*
X96471584Y-129102951D01*
X96594505Y-129185084D01*
X96662796Y-129213371D01*
X96731084Y-129241657D01*
X96731085Y-129241657D01*
X96731087Y-129241658D01*
X96876082Y-129270500D01*
X97023918Y-129270500D01*
X97168913Y-129241658D01*
X97305495Y-129185084D01*
X97428416Y-129102951D01*
X97532951Y-128998416D01*
X97615084Y-128875495D01*
X97671658Y-128738913D01*
X97700500Y-128593918D01*
X97700500Y-128446082D01*
X97700499Y-128446078D01*
X104199500Y-128446078D01*
X104199500Y-128593921D01*
X104228340Y-128738906D01*
X104228342Y-128738915D01*
X104284914Y-128875491D01*
X104284916Y-128875495D01*
X104367049Y-128998416D01*
X104471584Y-129102951D01*
X104594505Y-129185084D01*
X104662796Y-129213371D01*
X104731084Y-129241657D01*
X104731085Y-129241657D01*
X104731087Y-129241658D01*
X104876082Y-129270500D01*
X105023918Y-129270500D01*
X105168913Y-129241658D01*
X105305495Y-129185084D01*
X105428416Y-129102951D01*
X105532951Y-128998416D01*
X105615084Y-128875495D01*
X105671658Y-128738913D01*
X105700500Y-128593918D01*
X105700500Y-128446082D01*
X105671658Y-128301087D01*
X105615084Y-128164505D01*
X105532951Y-128041584D01*
X105428416Y-127937049D01*
X105305495Y-127854916D01*
X105305492Y-127854914D01*
X105305491Y-127854914D01*
X105168915Y-127798342D01*
X105168906Y-127798340D01*
X105023921Y-127769500D01*
X105023918Y-127769500D01*
X104876082Y-127769500D01*
X104876078Y-127769500D01*
X104731093Y-127798340D01*
X104731084Y-127798342D01*
X104594508Y-127854914D01*
X104471584Y-127937048D01*
X104367048Y-128041584D01*
X104284914Y-128164508D01*
X104228342Y-128301084D01*
X104228340Y-128301093D01*
X104199500Y-128446078D01*
X97700499Y-128446078D01*
X97671658Y-128301087D01*
X97615084Y-128164505D01*
X97532951Y-128041584D01*
X97428416Y-127937049D01*
X97305495Y-127854916D01*
X97305492Y-127854914D01*
X97305491Y-127854914D01*
X97168915Y-127798342D01*
X97168906Y-127798340D01*
X97023921Y-127769500D01*
X97023918Y-127769500D01*
X96876082Y-127769500D01*
X96876078Y-127769500D01*
X96731093Y-127798340D01*
X96731084Y-127798342D01*
X96594508Y-127854914D01*
X96471584Y-127937048D01*
X96367048Y-128041584D01*
X96284914Y-128164508D01*
X96228342Y-128301084D01*
X96228340Y-128301093D01*
X96199500Y-128446078D01*
X75429738Y-128446078D01*
X75084358Y-128150652D01*
X75083199Y-128149627D01*
X74964754Y-128041584D01*
X74199017Y-127343093D01*
X74197879Y-127342022D01*
X73392951Y-126559309D01*
X73339820Y-126507644D01*
X73338722Y-126506541D01*
X73304915Y-126471501D01*
X73275189Y-126440691D01*
X73275186Y-126440688D01*
X114549500Y-126440688D01*
X114549500Y-126559311D01*
X114580200Y-126673884D01*
X114580201Y-126673887D01*
X114639511Y-126776613D01*
X114723387Y-126860489D01*
X114826114Y-126919799D01*
X114854758Y-126927474D01*
X114940688Y-126950500D01*
X114940691Y-126950500D01*
X115059311Y-126950500D01*
X115116597Y-126935149D01*
X115173886Y-126919799D01*
X115276613Y-126860489D01*
X115360489Y-126776613D01*
X115419799Y-126673886D01*
X115435149Y-126616597D01*
X115450500Y-126559311D01*
X115450500Y-126440688D01*
X115419799Y-126326115D01*
X115419798Y-126326112D01*
X115360488Y-126223386D01*
X115276613Y-126139511D01*
X115173887Y-126080201D01*
X115173884Y-126080200D01*
X115059312Y-126049500D01*
X115059309Y-126049500D01*
X114940691Y-126049500D01*
X114940688Y-126049500D01*
X114826115Y-126080200D01*
X114826112Y-126080201D01*
X114723386Y-126139511D01*
X114723386Y-126139512D01*
X114639512Y-126223386D01*
X114639511Y-126223386D01*
X114580201Y-126326112D01*
X114580200Y-126326115D01*
X114549500Y-126440688D01*
X73275186Y-126440688D01*
X72507767Y-125645272D01*
X72506699Y-125644130D01*
X71703593Y-124756743D01*
X71702563Y-124755567D01*
X70928209Y-123843061D01*
X70927217Y-123841854D01*
X70182336Y-122905077D01*
X70181383Y-122903838D01*
X70047063Y-122723386D01*
X69466781Y-121943804D01*
X69465872Y-121942542D01*
X69262072Y-121649686D01*
X69243550Y-121623071D01*
X81849500Y-121623071D01*
X81849500Y-121976928D01*
X81889118Y-122328551D01*
X81889121Y-122328573D01*
X81967854Y-122673525D01*
X81967859Y-122673541D01*
X82084732Y-123007548D01*
X82084735Y-123007554D01*
X82238262Y-123326355D01*
X82238264Y-123326359D01*
X82426524Y-123625972D01*
X82647146Y-123902625D01*
X82647157Y-123902637D01*
X82897362Y-124152842D01*
X82897374Y-124152853D01*
X82969257Y-124210177D01*
X83174024Y-124373473D01*
X83174027Y-124373475D01*
X83473640Y-124561735D01*
X83473644Y-124561737D01*
X83792445Y-124715264D01*
X83792451Y-124715267D01*
X83792454Y-124715268D01*
X83792456Y-124715269D01*
X84126456Y-124832140D01*
X84126463Y-124832141D01*
X84126474Y-124832145D01*
X84471426Y-124910878D01*
X84471428Y-124910878D01*
X84471440Y-124910881D01*
X84784001Y-124946097D01*
X84823071Y-124950500D01*
X84823072Y-124950500D01*
X85176929Y-124950500D01*
X85212091Y-124946538D01*
X85264012Y-124940688D01*
X114549500Y-124940688D01*
X114549500Y-125059311D01*
X114580200Y-125173884D01*
X114580201Y-125173887D01*
X114639511Y-125276613D01*
X114723387Y-125360489D01*
X114826114Y-125419799D01*
X114854758Y-125427474D01*
X114940688Y-125450500D01*
X114940691Y-125450500D01*
X115059311Y-125450500D01*
X115116597Y-125435149D01*
X115173886Y-125419799D01*
X115276613Y-125360489D01*
X115360489Y-125276613D01*
X115419799Y-125173886D01*
X115435149Y-125116597D01*
X115450500Y-125059311D01*
X115450500Y-124940688D01*
X115421415Y-124832145D01*
X115419799Y-124826114D01*
X115360489Y-124723387D01*
X115276613Y-124639511D01*
X115173887Y-124580201D01*
X115173884Y-124580200D01*
X115059312Y-124549500D01*
X115059309Y-124549500D01*
X114940691Y-124549500D01*
X114940688Y-124549500D01*
X114826115Y-124580200D01*
X114826112Y-124580201D01*
X114723386Y-124639511D01*
X114723386Y-124639512D01*
X114639512Y-124723386D01*
X114639511Y-124723386D01*
X114580201Y-124826112D01*
X114580200Y-124826115D01*
X114549500Y-124940688D01*
X85264012Y-124940688D01*
X85528560Y-124910881D01*
X85535448Y-124909308D01*
X85621326Y-124889708D01*
X85873525Y-124832145D01*
X85873532Y-124832142D01*
X85873544Y-124832140D01*
X86207544Y-124715269D01*
X86526358Y-124561736D01*
X86825976Y-124373473D01*
X87102633Y-124152847D01*
X87352847Y-123902633D01*
X87573473Y-123625976D01*
X87761736Y-123326358D01*
X87915269Y-123007544D01*
X88032140Y-122673544D01*
X88032142Y-122673532D01*
X88032145Y-122673525D01*
X88110878Y-122328573D01*
X88110877Y-122328573D01*
X88110881Y-122328560D01*
X88150500Y-121976928D01*
X88150500Y-121623072D01*
X88110881Y-121271440D01*
X88094733Y-121200691D01*
X88032145Y-120926474D01*
X88032140Y-120926458D01*
X88032140Y-120926456D01*
X87915269Y-120592456D01*
X87761736Y-120273642D01*
X87709742Y-120190895D01*
X87573475Y-119974027D01*
X87567386Y-119966392D01*
X87374485Y-119724500D01*
X87352853Y-119697374D01*
X87352842Y-119697362D01*
X87102637Y-119447157D01*
X87102625Y-119447146D01*
X86948082Y-119323903D01*
X86825976Y-119226527D01*
X86825971Y-119226524D01*
X86825972Y-119226524D01*
X86526359Y-119038264D01*
X86526355Y-119038262D01*
X86207554Y-118884735D01*
X86207548Y-118884732D01*
X85873541Y-118767859D01*
X85873525Y-118767854D01*
X85528573Y-118689121D01*
X85528562Y-118689119D01*
X85528560Y-118689119D01*
X85489575Y-118684726D01*
X85176929Y-118649500D01*
X85176928Y-118649500D01*
X84823072Y-118649500D01*
X84823071Y-118649500D01*
X84471448Y-118689118D01*
X84471443Y-118689118D01*
X84471440Y-118689119D01*
X84471439Y-118689119D01*
X84471426Y-118689121D01*
X84126474Y-118767854D01*
X84126458Y-118767859D01*
X83792451Y-118884732D01*
X83792445Y-118884735D01*
X83473644Y-119038262D01*
X83473640Y-119038264D01*
X83174027Y-119226524D01*
X82897374Y-119447146D01*
X82897362Y-119447157D01*
X82647157Y-119697362D01*
X82647146Y-119697374D01*
X82426524Y-119974027D01*
X82238264Y-120273640D01*
X82238262Y-120273644D01*
X82084735Y-120592445D01*
X82084732Y-120592451D01*
X81967859Y-120926458D01*
X81967854Y-120926474D01*
X81889121Y-121271426D01*
X81889118Y-121271448D01*
X81849500Y-121623071D01*
X69243550Y-121623071D01*
X69216716Y-121584511D01*
X69011682Y-121289881D01*
X68782239Y-120960176D01*
X68781367Y-120958879D01*
X68129424Y-119955221D01*
X68128594Y-119953897D01*
X67508999Y-118929956D01*
X67508211Y-118928605D01*
X67278156Y-118519500D01*
X66921599Y-117885435D01*
X66920863Y-117884078D01*
X66367778Y-116822638D01*
X66367124Y-116821333D01*
X65848188Y-115742812D01*
X65847540Y-115741408D01*
X65814129Y-115665895D01*
X65363290Y-114646929D01*
X65362682Y-114645493D01*
X65300823Y-114492686D01*
X65094939Y-113984104D01*
X72849500Y-113984104D01*
X72849500Y-114115895D01*
X72883607Y-114243184D01*
X72883608Y-114243186D01*
X72949500Y-114357314D01*
X72982538Y-114390352D01*
X72996890Y-114425000D01*
X72982538Y-114459648D01*
X72949501Y-114492685D01*
X72949500Y-114492685D01*
X72883608Y-114606811D01*
X72883607Y-114606815D01*
X72849500Y-114734104D01*
X72849500Y-114865895D01*
X72883607Y-114993184D01*
X72883608Y-114993188D01*
X72949500Y-115107314D01*
X73007538Y-115165352D01*
X73021890Y-115200000D01*
X73007538Y-115234648D01*
X72949501Y-115292685D01*
X72949500Y-115292685D01*
X72883608Y-115406811D01*
X72883607Y-115406815D01*
X72849500Y-115534104D01*
X72849500Y-115665895D01*
X72883607Y-115793184D01*
X72883608Y-115793188D01*
X72946117Y-115901455D01*
X72949500Y-115907314D01*
X73042686Y-116000500D01*
X73084457Y-116024617D01*
X73156811Y-116066391D01*
X73156813Y-116066391D01*
X73156814Y-116066392D01*
X73257207Y-116093292D01*
X73284104Y-116100499D01*
X73284105Y-116100500D01*
X73284108Y-116100500D01*
X73415895Y-116100500D01*
X73415895Y-116100499D01*
X73543186Y-116066392D01*
X73657314Y-116000500D01*
X73715352Y-115942462D01*
X73750000Y-115928110D01*
X73784648Y-115942462D01*
X73842686Y-116000500D01*
X73884457Y-116024617D01*
X73956811Y-116066391D01*
X73956813Y-116066391D01*
X73956814Y-116066392D01*
X74057207Y-116093292D01*
X74084104Y-116100499D01*
X74084105Y-116100500D01*
X74084108Y-116100500D01*
X74215895Y-116100500D01*
X74215895Y-116100499D01*
X74343186Y-116066392D01*
X74457314Y-116000500D01*
X74550500Y-115907314D01*
X74616392Y-115793186D01*
X74650499Y-115665895D01*
X74650500Y-115665895D01*
X74650500Y-115534105D01*
X74650499Y-115534104D01*
X74616392Y-115406815D01*
X74616391Y-115406811D01*
X74550499Y-115292685D01*
X74492462Y-115234648D01*
X74478110Y-115200000D01*
X74492462Y-115165352D01*
X74550499Y-115107315D01*
X74550500Y-115107314D01*
X74616392Y-114993186D01*
X74650499Y-114865895D01*
X74650500Y-114865895D01*
X74650500Y-114734105D01*
X74650499Y-114734104D01*
X74616392Y-114606815D01*
X74616391Y-114606811D01*
X74550499Y-114492685D01*
X74517462Y-114459648D01*
X74503110Y-114425000D01*
X74517462Y-114390352D01*
X74550499Y-114357315D01*
X74550500Y-114357314D01*
X74616392Y-114243186D01*
X74643196Y-114143150D01*
X74666026Y-114113398D01*
X74703208Y-114108503D01*
X74715026Y-114113398D01*
X74806811Y-114166391D01*
X74806813Y-114166391D01*
X74806814Y-114166392D01*
X74907207Y-114193292D01*
X74934104Y-114200499D01*
X74934105Y-114200500D01*
X74934108Y-114200500D01*
X75065895Y-114200500D01*
X75065895Y-114200499D01*
X75193186Y-114166392D01*
X75307314Y-114100500D01*
X75400500Y-114007314D01*
X75407566Y-113995073D01*
X75437317Y-113972246D01*
X75474500Y-113977140D01*
X75492432Y-113995072D01*
X75499500Y-114007314D01*
X75592686Y-114100500D01*
X75621260Y-114116997D01*
X75706811Y-114166391D01*
X75706813Y-114166391D01*
X75706814Y-114166392D01*
X75807207Y-114193292D01*
X75834104Y-114200499D01*
X75834105Y-114200500D01*
X75834108Y-114200500D01*
X75965895Y-114200500D01*
X75965895Y-114200499D01*
X76093186Y-114166392D01*
X76207314Y-114100500D01*
X76300500Y-114007314D01*
X76366392Y-113893186D01*
X76400499Y-113765895D01*
X76400500Y-113765895D01*
X76400500Y-113634105D01*
X76400499Y-113634104D01*
X76378101Y-113550513D01*
X76366392Y-113506814D01*
X76366391Y-113506813D01*
X76366391Y-113506811D01*
X76317920Y-113422858D01*
X76300500Y-113392686D01*
X76207314Y-113299500D01*
X76093188Y-113233608D01*
X76093184Y-113233607D01*
X75965895Y-113199500D01*
X75965892Y-113199500D01*
X75834108Y-113199500D01*
X75834105Y-113199500D01*
X75706815Y-113233607D01*
X75706811Y-113233608D01*
X75592685Y-113299500D01*
X75592685Y-113299501D01*
X75499502Y-113392683D01*
X75499500Y-113392685D01*
X75499500Y-113392686D01*
X75492433Y-113404924D01*
X75462681Y-113427754D01*
X75425499Y-113422858D01*
X75407566Y-113404925D01*
X75400500Y-113392686D01*
X75307314Y-113299500D01*
X75193188Y-113233608D01*
X75193184Y-113233607D01*
X75065895Y-113199500D01*
X75065892Y-113199500D01*
X74934108Y-113199500D01*
X74934105Y-113199500D01*
X74806815Y-113233607D01*
X74806811Y-113233608D01*
X74692685Y-113299500D01*
X74692685Y-113299501D01*
X74599501Y-113392685D01*
X74599500Y-113392685D01*
X74533608Y-113506811D01*
X74533607Y-113506815D01*
X74506803Y-113606848D01*
X74483973Y-113636601D01*
X74446791Y-113641496D01*
X74434973Y-113636601D01*
X74343188Y-113583608D01*
X74343184Y-113583607D01*
X74215895Y-113549500D01*
X74215892Y-113549500D01*
X74084108Y-113549500D01*
X74084105Y-113549500D01*
X73956815Y-113583607D01*
X73956811Y-113583608D01*
X73842685Y-113649500D01*
X73842685Y-113649501D01*
X73784648Y-113707538D01*
X73750000Y-113721890D01*
X73715352Y-113707538D01*
X73657314Y-113649500D01*
X73543188Y-113583608D01*
X73543184Y-113583607D01*
X73415895Y-113549500D01*
X73415892Y-113549500D01*
X73284108Y-113549500D01*
X73284105Y-113549500D01*
X73156815Y-113583607D01*
X73156811Y-113583608D01*
X73042685Y-113649500D01*
X73042685Y-113649501D01*
X72949501Y-113742685D01*
X72949500Y-113742685D01*
X72883608Y-113856811D01*
X72883607Y-113856815D01*
X72849500Y-113984104D01*
X65094939Y-113984104D01*
X64913596Y-113536144D01*
X64913041Y-113534707D01*
X64902773Y-113506815D01*
X64499537Y-112411509D01*
X64499051Y-112410118D01*
X64409511Y-112140688D01*
X75049500Y-112140688D01*
X75049500Y-112259311D01*
X75080200Y-112373884D01*
X75080201Y-112373887D01*
X75135262Y-112469253D01*
X75139511Y-112476613D01*
X75223387Y-112560489D01*
X75326114Y-112619799D01*
X75354758Y-112627474D01*
X75440688Y-112650500D01*
X75440691Y-112650500D01*
X75559311Y-112650500D01*
X75616597Y-112635149D01*
X75673886Y-112619799D01*
X75776613Y-112560489D01*
X75822250Y-112514852D01*
X75856898Y-112500500D01*
X81889564Y-112500500D01*
X81916230Y-112493354D01*
X81965989Y-112480021D01*
X82034511Y-112440460D01*
X82090460Y-112384511D01*
X82310119Y-112164852D01*
X82344767Y-112150500D01*
X82409311Y-112150500D01*
X82466597Y-112135149D01*
X82523886Y-112119799D01*
X82626613Y-112060489D01*
X82710489Y-111976613D01*
X82769799Y-111873886D01*
X82785149Y-111816597D01*
X82800500Y-111759311D01*
X82800500Y-111640688D01*
X82769799Y-111526115D01*
X82769798Y-111526112D01*
X82714423Y-111430201D01*
X82710489Y-111423387D01*
X82626613Y-111339511D01*
X82604734Y-111326879D01*
X82523887Y-111280201D01*
X82523884Y-111280200D01*
X82409312Y-111249500D01*
X82409309Y-111249500D01*
X82290691Y-111249500D01*
X82290688Y-111249500D01*
X82176115Y-111280200D01*
X82176112Y-111280201D01*
X82073386Y-111339511D01*
X82073386Y-111339512D01*
X81989512Y-111423386D01*
X81989511Y-111423386D01*
X81930201Y-111526112D01*
X81930200Y-111526115D01*
X81899500Y-111640688D01*
X81899500Y-111705233D01*
X81885148Y-111739881D01*
X81739881Y-111885148D01*
X81705233Y-111899500D01*
X75856898Y-111899500D01*
X75822250Y-111885148D01*
X75776613Y-111839511D01*
X75673887Y-111780201D01*
X75673884Y-111780200D01*
X75559312Y-111749500D01*
X75559309Y-111749500D01*
X75440691Y-111749500D01*
X75440688Y-111749500D01*
X75326115Y-111780200D01*
X75326112Y-111780201D01*
X75223386Y-111839511D01*
X75223386Y-111839512D01*
X75139512Y-111923386D01*
X75139511Y-111923386D01*
X75080201Y-112026112D01*
X75080200Y-112026115D01*
X75049500Y-112140688D01*
X64409511Y-112140688D01*
X64121600Y-111274350D01*
X64121151Y-111272925D01*
X64037331Y-110990954D01*
X91861515Y-110990954D01*
X91861515Y-111109577D01*
X91892215Y-111224150D01*
X91892216Y-111224153D01*
X91924576Y-111280201D01*
X91951526Y-111326879D01*
X92035402Y-111410755D01*
X92138129Y-111470065D01*
X92153979Y-111474312D01*
X92252703Y-111500766D01*
X92252706Y-111500766D01*
X92371326Y-111500766D01*
X92417241Y-111488462D01*
X92442724Y-111481634D01*
X92479906Y-111486528D01*
X92490055Y-111494316D01*
X95435148Y-114439409D01*
X95449500Y-114474057D01*
X95449500Y-118600172D01*
X95449500Y-121300172D01*
X95449500Y-121399828D01*
X95487636Y-121491897D01*
X95487637Y-121491898D01*
X95487637Y-121491899D01*
X98287636Y-124291897D01*
X98358100Y-124362362D01*
X98358101Y-124362362D01*
X98358103Y-124362364D01*
X98450172Y-124400500D01*
X98450174Y-124400500D01*
X104371826Y-124400500D01*
X104371828Y-124400500D01*
X104463897Y-124362364D01*
X104463899Y-124362362D01*
X104463900Y-124362362D01*
X105385574Y-123440688D01*
X114549500Y-123440688D01*
X114549500Y-123559311D01*
X114580200Y-123673884D01*
X114580201Y-123673887D01*
X114639511Y-123776613D01*
X114723387Y-123860489D01*
X114826114Y-123919799D01*
X114854758Y-123927474D01*
X114940688Y-123950500D01*
X114940691Y-123950500D01*
X115059311Y-123950500D01*
X115116597Y-123935149D01*
X115173886Y-123919799D01*
X115276613Y-123860489D01*
X115360489Y-123776613D01*
X115419799Y-123673886D01*
X115435149Y-123616597D01*
X115450500Y-123559311D01*
X115450500Y-123440688D01*
X115427474Y-123354758D01*
X115419799Y-123326114D01*
X115360489Y-123223387D01*
X115276613Y-123139511D01*
X115173887Y-123080201D01*
X115173884Y-123080200D01*
X115059312Y-123049500D01*
X115059309Y-123049500D01*
X114940691Y-123049500D01*
X114940688Y-123049500D01*
X114826115Y-123080200D01*
X114826112Y-123080201D01*
X114723386Y-123139511D01*
X114723386Y-123139512D01*
X114639512Y-123223386D01*
X114639511Y-123223386D01*
X114580201Y-123326112D01*
X114580200Y-123326115D01*
X114549500Y-123440688D01*
X105385574Y-123440688D01*
X105423431Y-123402831D01*
X109804090Y-119022170D01*
X110690801Y-118135458D01*
X110712763Y-118122778D01*
X110723886Y-118119799D01*
X110826613Y-118060489D01*
X110910489Y-117976613D01*
X110969799Y-117873886D01*
X110985149Y-117816597D01*
X111000500Y-117759311D01*
X111000500Y-117640688D01*
X110969799Y-117526115D01*
X110969798Y-117526112D01*
X110910488Y-117423386D01*
X110826613Y-117339511D01*
X110723887Y-117280201D01*
X110723884Y-117280200D01*
X110609312Y-117249500D01*
X110609309Y-117249500D01*
X110490691Y-117249500D01*
X110490688Y-117249500D01*
X110376115Y-117280200D01*
X110376112Y-117280201D01*
X110273386Y-117339511D01*
X110273386Y-117339512D01*
X110189512Y-117423386D01*
X110189511Y-117423386D01*
X110130201Y-117526112D01*
X110130200Y-117526115D01*
X110099500Y-117640688D01*
X110099500Y-117759311D01*
X110130200Y-117873884D01*
X110130201Y-117873888D01*
X110153000Y-117913376D01*
X110157895Y-117950558D01*
X110145213Y-117972524D01*
X104232591Y-123885148D01*
X104197943Y-123899500D01*
X98624057Y-123899500D01*
X98589409Y-123885148D01*
X95964852Y-121260591D01*
X95950500Y-121225943D01*
X95950500Y-114300174D01*
X95950499Y-114300170D01*
X95912364Y-114208103D01*
X95912362Y-114208101D01*
X95912362Y-114208100D01*
X95841897Y-114137636D01*
X92776867Y-111072606D01*
X92762515Y-111037958D01*
X92762515Y-110990954D01*
X92731814Y-110876381D01*
X92731813Y-110876378D01*
X92672503Y-110773652D01*
X92588628Y-110689777D01*
X92485902Y-110630467D01*
X92485899Y-110630466D01*
X92371327Y-110599766D01*
X92371324Y-110599766D01*
X92252706Y-110599766D01*
X92252703Y-110599766D01*
X92138130Y-110630466D01*
X92138127Y-110630467D01*
X92035401Y-110689777D01*
X92035401Y-110689778D01*
X91951527Y-110773652D01*
X91951526Y-110773652D01*
X91892216Y-110876378D01*
X91892215Y-110876381D01*
X91861515Y-110990954D01*
X64037331Y-110990954D01*
X63780104Y-110125643D01*
X63779690Y-110124160D01*
X63475423Y-108966622D01*
X63475075Y-108965208D01*
X63458008Y-108890688D01*
X91899500Y-108890688D01*
X91899500Y-109009311D01*
X91930200Y-109123884D01*
X91930201Y-109123887D01*
X91975398Y-109202169D01*
X91989511Y-109226613D01*
X92073387Y-109310489D01*
X92176114Y-109369799D01*
X92189501Y-109373386D01*
X92290688Y-109400500D01*
X92290691Y-109400500D01*
X92409311Y-109400500D01*
X92466597Y-109385149D01*
X92523886Y-109369799D01*
X92626613Y-109310489D01*
X92710489Y-109226613D01*
X92711421Y-109224999D01*
X92712165Y-109224427D01*
X92712447Y-109224061D01*
X92712545Y-109224136D01*
X92741175Y-109202169D01*
X92753856Y-109200500D01*
X94399826Y-109200500D01*
X94399828Y-109200500D01*
X94491897Y-109162364D01*
X94491899Y-109162362D01*
X94491900Y-109162362D01*
X95738574Y-107915688D01*
X96524500Y-107915688D01*
X96524500Y-108034311D01*
X96555200Y-108148884D01*
X96555201Y-108148887D01*
X96606441Y-108237636D01*
X96614511Y-108251613D01*
X96698387Y-108335489D01*
X96801114Y-108394799D01*
X96829758Y-108402474D01*
X96915688Y-108425500D01*
X96915691Y-108425500D01*
X97034311Y-108425500D01*
X97091597Y-108410149D01*
X97148886Y-108394799D01*
X97251613Y-108335489D01*
X97335489Y-108251613D01*
X97394799Y-108148886D01*
X97410149Y-108091597D01*
X97425500Y-108034311D01*
X97425500Y-107915688D01*
X97394799Y-107801115D01*
X97394798Y-107801112D01*
X97335488Y-107698386D01*
X97251613Y-107614511D01*
X97148887Y-107555201D01*
X97148884Y-107555200D01*
X97034312Y-107524500D01*
X97034309Y-107524500D01*
X96915691Y-107524500D01*
X96915688Y-107524500D01*
X96801115Y-107555200D01*
X96801112Y-107555201D01*
X96698386Y-107614511D01*
X96698386Y-107614512D01*
X96614512Y-107698386D01*
X96614511Y-107698386D01*
X96555201Y-107801112D01*
X96555200Y-107801115D01*
X96524500Y-107915688D01*
X95738574Y-107915688D01*
X97512362Y-106141900D01*
X97512362Y-106141899D01*
X97512364Y-106141897D01*
X97550500Y-106049828D01*
X97550500Y-105950172D01*
X97550500Y-96803855D01*
X97564852Y-96769207D01*
X97575001Y-96761419D01*
X97576613Y-96760489D01*
X97660489Y-96676613D01*
X97719799Y-96573886D01*
X97744902Y-96480201D01*
X97750500Y-96459311D01*
X97750500Y-96340688D01*
X97719799Y-96226115D01*
X97719798Y-96226112D01*
X97660488Y-96123386D01*
X97576613Y-96039511D01*
X97473887Y-95980201D01*
X97473884Y-95980200D01*
X97359312Y-95949500D01*
X97359309Y-95949500D01*
X97240691Y-95949500D01*
X97240688Y-95949500D01*
X97126115Y-95980200D01*
X97126112Y-95980201D01*
X97023386Y-96039511D01*
X97023386Y-96039512D01*
X96939512Y-96123386D01*
X96939511Y-96123386D01*
X96880201Y-96226112D01*
X96880200Y-96226115D01*
X96849500Y-96340688D01*
X96849500Y-96459311D01*
X96880200Y-96573884D01*
X96880201Y-96573887D01*
X96918771Y-96640691D01*
X96939511Y-96676613D01*
X97023387Y-96760489D01*
X97024995Y-96761417D01*
X97025565Y-96762160D01*
X97025939Y-96762447D01*
X97025862Y-96762547D01*
X97047828Y-96791166D01*
X97049500Y-96803855D01*
X97049500Y-105875943D01*
X97035148Y-105910591D01*
X94260591Y-108685148D01*
X94225943Y-108699500D01*
X92753856Y-108699500D01*
X92719208Y-108685148D01*
X92711421Y-108675001D01*
X92710491Y-108673390D01*
X92710486Y-108673384D01*
X92626613Y-108589511D01*
X92523887Y-108530201D01*
X92523884Y-108530200D01*
X92409312Y-108499500D01*
X92409309Y-108499500D01*
X92290691Y-108499500D01*
X92290688Y-108499500D01*
X92176115Y-108530200D01*
X92176112Y-108530201D01*
X92073386Y-108589511D01*
X92073386Y-108589512D01*
X91989512Y-108673386D01*
X91989511Y-108673386D01*
X91930201Y-108776112D01*
X91930200Y-108776115D01*
X91899500Y-108890688D01*
X63458008Y-108890688D01*
X63207889Y-107798566D01*
X63207565Y-107797040D01*
X63188261Y-107698387D01*
X62977724Y-106622463D01*
X62977463Y-106621003D01*
X62809781Y-105590688D01*
X63749500Y-105590688D01*
X63749500Y-105709311D01*
X63780200Y-105823884D01*
X63780201Y-105823887D01*
X63810256Y-105875943D01*
X63839511Y-105926613D01*
X63923387Y-106010489D01*
X63998585Y-106053905D01*
X64017545Y-106064852D01*
X64026114Y-106069799D01*
X64045521Y-106074999D01*
X64140688Y-106100500D01*
X64140691Y-106100500D01*
X64259311Y-106100500D01*
X64319861Y-106084275D01*
X64373886Y-106069799D01*
X64476613Y-106010489D01*
X64560489Y-105926613D01*
X64619799Y-105823886D01*
X64635149Y-105766597D01*
X64650500Y-105709311D01*
X64650500Y-105590688D01*
X65299500Y-105590688D01*
X65299500Y-105709311D01*
X65330200Y-105823884D01*
X65330201Y-105823887D01*
X65360256Y-105875943D01*
X65389511Y-105926613D01*
X65473387Y-106010489D01*
X65548585Y-106053905D01*
X65567545Y-106064852D01*
X65576114Y-106069799D01*
X65595521Y-106074999D01*
X65690688Y-106100500D01*
X65690691Y-106100500D01*
X65809311Y-106100500D01*
X65869861Y-106084275D01*
X65923886Y-106069799D01*
X66026613Y-106010489D01*
X66110489Y-105926613D01*
X66169799Y-105823886D01*
X66185149Y-105766597D01*
X66200500Y-105709311D01*
X66200500Y-105590688D01*
X67049500Y-105590688D01*
X67049500Y-105709311D01*
X67080200Y-105823884D01*
X67080201Y-105823887D01*
X67110256Y-105875943D01*
X67139511Y-105926613D01*
X67223387Y-106010489D01*
X67298585Y-106053905D01*
X67317545Y-106064852D01*
X67326114Y-106069799D01*
X67345521Y-106074999D01*
X67440688Y-106100500D01*
X67440691Y-106100500D01*
X67559311Y-106100500D01*
X67619861Y-106084275D01*
X67673886Y-106069799D01*
X67776613Y-106010489D01*
X67860489Y-105926613D01*
X67919799Y-105823886D01*
X67935149Y-105766597D01*
X67950500Y-105709311D01*
X67950500Y-105590688D01*
X67926245Y-105500170D01*
X67919799Y-105476114D01*
X67860489Y-105373387D01*
X67776613Y-105289511D01*
X67749850Y-105274059D01*
X67673887Y-105230201D01*
X67673884Y-105230200D01*
X67559312Y-105199500D01*
X67559309Y-105199500D01*
X67440691Y-105199500D01*
X67440688Y-105199500D01*
X67326115Y-105230200D01*
X67326112Y-105230201D01*
X67223386Y-105289511D01*
X67223386Y-105289512D01*
X67139512Y-105373386D01*
X67139511Y-105373386D01*
X67080201Y-105476112D01*
X67080200Y-105476115D01*
X67049500Y-105590688D01*
X66200500Y-105590688D01*
X66176245Y-105500170D01*
X66169799Y-105476114D01*
X66110489Y-105373387D01*
X66026613Y-105289511D01*
X65999850Y-105274059D01*
X65923887Y-105230201D01*
X65923884Y-105230200D01*
X65809312Y-105199500D01*
X65809309Y-105199500D01*
X65690691Y-105199500D01*
X65690688Y-105199500D01*
X65576115Y-105230200D01*
X65576112Y-105230201D01*
X65473386Y-105289511D01*
X65473386Y-105289512D01*
X65389512Y-105373386D01*
X65389511Y-105373386D01*
X65330201Y-105476112D01*
X65330200Y-105476115D01*
X65299500Y-105590688D01*
X64650500Y-105590688D01*
X64626245Y-105500170D01*
X64619799Y-105476114D01*
X64560489Y-105373387D01*
X64476613Y-105289511D01*
X64449850Y-105274059D01*
X64373887Y-105230201D01*
X64373884Y-105230200D01*
X64259312Y-105199500D01*
X64259309Y-105199500D01*
X64140691Y-105199500D01*
X64140688Y-105199500D01*
X64026115Y-105230200D01*
X64026112Y-105230201D01*
X63923386Y-105289511D01*
X63923386Y-105289512D01*
X63839512Y-105373386D01*
X63839511Y-105373386D01*
X63780201Y-105476112D01*
X63780200Y-105476115D01*
X63749500Y-105590688D01*
X62809781Y-105590688D01*
X62785203Y-105439670D01*
X62784978Y-105438126D01*
X62776552Y-105373387D01*
X62655151Y-104440688D01*
X63749500Y-104440688D01*
X63749500Y-104559311D01*
X63780200Y-104673884D01*
X63780201Y-104673887D01*
X63807107Y-104720488D01*
X63839511Y-104776613D01*
X63923387Y-104860489D01*
X64026114Y-104919799D01*
X64054758Y-104927474D01*
X64140688Y-104950500D01*
X64140691Y-104950500D01*
X64259311Y-104950500D01*
X64335069Y-104930200D01*
X64373886Y-104919799D01*
X64476613Y-104860489D01*
X64560489Y-104776613D01*
X64619799Y-104673886D01*
X64635149Y-104616597D01*
X64650500Y-104559311D01*
X64650500Y-104440688D01*
X67049500Y-104440688D01*
X67049500Y-104559311D01*
X67080200Y-104673884D01*
X67080201Y-104673887D01*
X67107107Y-104720488D01*
X67139511Y-104776613D01*
X67223387Y-104860489D01*
X67326114Y-104919799D01*
X67354758Y-104927474D01*
X67440688Y-104950500D01*
X67440691Y-104950500D01*
X67559311Y-104950500D01*
X67635069Y-104930200D01*
X67673886Y-104919799D01*
X67776613Y-104860489D01*
X67860489Y-104776613D01*
X67919799Y-104673886D01*
X67935149Y-104616597D01*
X67950500Y-104559311D01*
X67950500Y-104440688D01*
X67919933Y-104326614D01*
X67919799Y-104326114D01*
X67860489Y-104223387D01*
X67776613Y-104139511D01*
X67724306Y-104109311D01*
X67673887Y-104080201D01*
X67673884Y-104080200D01*
X67559312Y-104049500D01*
X67559309Y-104049500D01*
X67440691Y-104049500D01*
X67440688Y-104049500D01*
X67326115Y-104080200D01*
X67326112Y-104080201D01*
X67223386Y-104139511D01*
X67223386Y-104139512D01*
X67139512Y-104223386D01*
X67139511Y-104223386D01*
X67080201Y-104326112D01*
X67080200Y-104326115D01*
X67049500Y-104440688D01*
X64650500Y-104440688D01*
X64619933Y-104326614D01*
X64619799Y-104326114D01*
X64560489Y-104223387D01*
X64476613Y-104139511D01*
X64424306Y-104109311D01*
X64373887Y-104080201D01*
X64373884Y-104080200D01*
X64259312Y-104049500D01*
X64259309Y-104049500D01*
X64140691Y-104049500D01*
X64140688Y-104049500D01*
X64026115Y-104080200D01*
X64026112Y-104080201D01*
X63923386Y-104139511D01*
X63923386Y-104139512D01*
X63839512Y-104223386D01*
X63839511Y-104223386D01*
X63780201Y-104326112D01*
X63780200Y-104326115D01*
X63749500Y-104440688D01*
X62655151Y-104440688D01*
X62630498Y-104251282D01*
X62630335Y-104249844D01*
X62513794Y-103058687D01*
X62513666Y-103057129D01*
X62435178Y-101862857D01*
X62435101Y-101861296D01*
X62430629Y-101728750D01*
X62394748Y-100665146D01*
X62394721Y-100663667D01*
X62392543Y-99466792D01*
X62392565Y-99465256D01*
X62392599Y-99464134D01*
X62428563Y-98268946D01*
X62428632Y-98267459D01*
X62502772Y-97072899D01*
X62502894Y-97071346D01*
X62503285Y-97067190D01*
X62615097Y-95879789D01*
X62615264Y-95878275D01*
X62616336Y-95869798D01*
X62765424Y-94690848D01*
X62765628Y-94689417D01*
X62953590Y-93507369D01*
X62953847Y-93505903D01*
X63179418Y-92330451D01*
X63179716Y-92329019D01*
X63442671Y-91161336D01*
X63443014Y-91159922D01*
X63743078Y-90001234D01*
X63743463Y-89999840D01*
X64080338Y-88851299D01*
X64080688Y-88850170D01*
X70099500Y-88850170D01*
X70099500Y-88850172D01*
X70099500Y-89850172D01*
X70099500Y-89949828D01*
X70137636Y-90041897D01*
X70137637Y-90041898D01*
X70137638Y-90041900D01*
X70883100Y-90787362D01*
X70883101Y-90787362D01*
X70883103Y-90787364D01*
X70975172Y-90825500D01*
X71074828Y-90825500D01*
X72071144Y-90825500D01*
X72105792Y-90839852D01*
X72113579Y-90849999D01*
X72114508Y-90851609D01*
X72114510Y-90851611D01*
X72114511Y-90851613D01*
X72198387Y-90935489D01*
X72301114Y-90994799D01*
X72329758Y-91002474D01*
X72415688Y-91025500D01*
X72415691Y-91025500D01*
X72534304Y-91025500D01*
X72534309Y-91025500D01*
X72536101Y-91025019D01*
X72537030Y-91025141D01*
X72537490Y-91025081D01*
X72537506Y-91025204D01*
X72573282Y-91029907D01*
X72583438Y-91037699D01*
X75735148Y-94189408D01*
X75749500Y-94224056D01*
X75749500Y-106096144D01*
X75735148Y-106130792D01*
X75725004Y-106138577D01*
X75723393Y-106139507D01*
X75723383Y-106139514D01*
X75639512Y-106223386D01*
X75639511Y-106223386D01*
X75580201Y-106326112D01*
X75580200Y-106326115D01*
X75549500Y-106440688D01*
X75549500Y-106559311D01*
X75580200Y-106673884D01*
X75580201Y-106673887D01*
X75624245Y-106750172D01*
X75639511Y-106776613D01*
X75723387Y-106860489D01*
X75826114Y-106919799D01*
X75854758Y-106927474D01*
X75940688Y-106950500D01*
X75940691Y-106950500D01*
X76059311Y-106950500D01*
X76095927Y-106940688D01*
X91799500Y-106940688D01*
X91799500Y-107059311D01*
X91830200Y-107173884D01*
X91830201Y-107173887D01*
X91889511Y-107276613D01*
X91973387Y-107360489D01*
X92076114Y-107419799D01*
X92104758Y-107427474D01*
X92190688Y-107450500D01*
X92190691Y-107450500D01*
X92309311Y-107450500D01*
X92366597Y-107435149D01*
X92423886Y-107419799D01*
X92526613Y-107360489D01*
X92610489Y-107276613D01*
X92669799Y-107173886D01*
X92685149Y-107116597D01*
X92700500Y-107059311D01*
X92700500Y-106940688D01*
X92669799Y-106826115D01*
X92669798Y-106826112D01*
X92623930Y-106746667D01*
X92610489Y-106723387D01*
X92526613Y-106639511D01*
X92497155Y-106622503D01*
X92423887Y-106580201D01*
X92423884Y-106580200D01*
X92309312Y-106549500D01*
X92309309Y-106549500D01*
X92190691Y-106549500D01*
X92190688Y-106549500D01*
X92076115Y-106580200D01*
X92076112Y-106580201D01*
X91973386Y-106639511D01*
X91973386Y-106639512D01*
X91889512Y-106723386D01*
X91889511Y-106723386D01*
X91830201Y-106826112D01*
X91830200Y-106826115D01*
X91799500Y-106940688D01*
X76095927Y-106940688D01*
X76116597Y-106935149D01*
X76173886Y-106919799D01*
X76276613Y-106860489D01*
X76360489Y-106776613D01*
X76367423Y-106764601D01*
X76397175Y-106741772D01*
X76434358Y-106746667D01*
X76449602Y-106761910D01*
X76450055Y-106761563D01*
X76452008Y-106764109D01*
X76452011Y-106764113D01*
X76535887Y-106847989D01*
X76638614Y-106907299D01*
X76667258Y-106914974D01*
X76753188Y-106938000D01*
X76753191Y-106938000D01*
X76871811Y-106938000D01*
X76929097Y-106922649D01*
X76986386Y-106907299D01*
X77089113Y-106847989D01*
X77172989Y-106764113D01*
X77232299Y-106661386D01*
X77262279Y-106549500D01*
X77263000Y-106546811D01*
X77263000Y-106428188D01*
X77232299Y-106313615D01*
X77232298Y-106313612D01*
X77182558Y-106227461D01*
X77172989Y-106210887D01*
X77089113Y-106127011D01*
X77043195Y-106100500D01*
X76986387Y-106067701D01*
X76986384Y-106067700D01*
X76871812Y-106037000D01*
X76871809Y-106037000D01*
X76753191Y-106037000D01*
X76753185Y-106037000D01*
X76751383Y-106037483D01*
X76750451Y-106037360D01*
X76750004Y-106037419D01*
X76749988Y-106037299D01*
X76744822Y-106036618D01*
X76738708Y-106039151D01*
X76726887Y-106034254D01*
X76714202Y-106032583D01*
X76704060Y-106024799D01*
X76664852Y-105985591D01*
X76650500Y-105950943D01*
X76650500Y-104300688D01*
X91059500Y-104300688D01*
X91059500Y-104419311D01*
X91090200Y-104533884D01*
X91090201Y-104533887D01*
X91104325Y-104558350D01*
X91149511Y-104636613D01*
X91233387Y-104720489D01*
X91336114Y-104779799D01*
X91364758Y-104787474D01*
X91450688Y-104810500D01*
X91450691Y-104810500D01*
X91569311Y-104810500D01*
X91626597Y-104795149D01*
X91683886Y-104779799D01*
X91786613Y-104720489D01*
X91870489Y-104636613D01*
X91929799Y-104533886D01*
X91954771Y-104440691D01*
X91960500Y-104419311D01*
X91960500Y-104300688D01*
X91937474Y-104214758D01*
X91929799Y-104186114D01*
X91870489Y-104083387D01*
X91786613Y-103999511D01*
X91683887Y-103940201D01*
X91683884Y-103940200D01*
X91569312Y-103909500D01*
X91569309Y-103909500D01*
X91450691Y-103909500D01*
X91450688Y-103909500D01*
X91336115Y-103940200D01*
X91336112Y-103940201D01*
X91233386Y-103999511D01*
X91233386Y-103999512D01*
X91149512Y-104083386D01*
X91149511Y-104083386D01*
X91090201Y-104186112D01*
X91090200Y-104186115D01*
X91059500Y-104300688D01*
X76650500Y-104300688D01*
X76650500Y-102990688D01*
X79349500Y-102990688D01*
X79349500Y-103109311D01*
X79380200Y-103223884D01*
X79380201Y-103223887D01*
X79412545Y-103279907D01*
X79439511Y-103326613D01*
X79523387Y-103410489D01*
X79626114Y-103469799D01*
X79654758Y-103477474D01*
X79740688Y-103500500D01*
X79740691Y-103500500D01*
X79859311Y-103500500D01*
X79916597Y-103485149D01*
X79973886Y-103469799D01*
X80075501Y-103411130D01*
X80112682Y-103406235D01*
X80124496Y-103411129D01*
X80226114Y-103469799D01*
X80254758Y-103477474D01*
X80340688Y-103500500D01*
X80340691Y-103500500D01*
X80459311Y-103500500D01*
X80516597Y-103485149D01*
X80573886Y-103469799D01*
X80675501Y-103411130D01*
X80712682Y-103406235D01*
X80724496Y-103411129D01*
X80826114Y-103469799D01*
X80854758Y-103477474D01*
X80940688Y-103500500D01*
X80940691Y-103500500D01*
X81059311Y-103500500D01*
X81116597Y-103485149D01*
X81173886Y-103469799D01*
X81276613Y-103410489D01*
X81360489Y-103326613D01*
X81419799Y-103223886D01*
X81437102Y-103159311D01*
X81450500Y-103109311D01*
X81450500Y-102990688D01*
X81425875Y-102898790D01*
X81419799Y-102876114D01*
X81360489Y-102773387D01*
X81276613Y-102689511D01*
X81249550Y-102673886D01*
X81173887Y-102630201D01*
X81173884Y-102630200D01*
X81059312Y-102599500D01*
X81059309Y-102599500D01*
X80940691Y-102599500D01*
X80940688Y-102599500D01*
X80826115Y-102630200D01*
X80826111Y-102630201D01*
X80724500Y-102688868D01*
X80687318Y-102693763D01*
X80675500Y-102688868D01*
X80573888Y-102630201D01*
X80573884Y-102630200D01*
X80459312Y-102599500D01*
X80459309Y-102599500D01*
X80340691Y-102599500D01*
X80340688Y-102599500D01*
X80226115Y-102630200D01*
X80226111Y-102630201D01*
X80124500Y-102688868D01*
X80087318Y-102693763D01*
X80075500Y-102688868D01*
X79973888Y-102630201D01*
X79973884Y-102630200D01*
X79859312Y-102599500D01*
X79859309Y-102599500D01*
X79740691Y-102599500D01*
X79740688Y-102599500D01*
X79626115Y-102630200D01*
X79626112Y-102630201D01*
X79523386Y-102689511D01*
X79523386Y-102689512D01*
X79439512Y-102773386D01*
X79439511Y-102773386D01*
X79380201Y-102876112D01*
X79380200Y-102876115D01*
X79349500Y-102990688D01*
X76650500Y-102990688D01*
X76650500Y-101790688D01*
X81549500Y-101790688D01*
X81549500Y-101909311D01*
X81580200Y-102023884D01*
X81580201Y-102023887D01*
X81639511Y-102126613D01*
X81703250Y-102190352D01*
X81717602Y-102225000D01*
X81703250Y-102259648D01*
X81639512Y-102323386D01*
X81639511Y-102323386D01*
X81580201Y-102426112D01*
X81580200Y-102426115D01*
X81549500Y-102540688D01*
X81549500Y-102659311D01*
X81580200Y-102773884D01*
X81580201Y-102773887D01*
X81623857Y-102849500D01*
X81639511Y-102876613D01*
X81723387Y-102960489D01*
X81826114Y-103019799D01*
X81854758Y-103027474D01*
X81940688Y-103050500D01*
X81940691Y-103050500D01*
X82059311Y-103050500D01*
X82116597Y-103035149D01*
X82173886Y-103019799D01*
X82276613Y-102960489D01*
X82360489Y-102876613D01*
X82419799Y-102773886D01*
X82442407Y-102689512D01*
X82450500Y-102659311D01*
X82450500Y-102540688D01*
X82450499Y-102540687D01*
X82426243Y-102450161D01*
X82423704Y-102440688D01*
X90599500Y-102440688D01*
X90599500Y-102559311D01*
X90630200Y-102673884D01*
X90630201Y-102673887D01*
X90683203Y-102765688D01*
X90689511Y-102776613D01*
X90773387Y-102860489D01*
X90839726Y-102898790D01*
X90865089Y-102913434D01*
X90876114Y-102919799D01*
X90904758Y-102927474D01*
X90990688Y-102950500D01*
X90990691Y-102950500D01*
X91109311Y-102950500D01*
X91172985Y-102933438D01*
X91223886Y-102919799D01*
X91326613Y-102860489D01*
X91410489Y-102776613D01*
X91469799Y-102673886D01*
X91496564Y-102574000D01*
X91500500Y-102559311D01*
X91500500Y-102440688D01*
X91472272Y-102335344D01*
X91469799Y-102326114D01*
X91410489Y-102223387D01*
X91326613Y-102139511D01*
X91223887Y-102080201D01*
X91223884Y-102080200D01*
X91109312Y-102049500D01*
X91109309Y-102049500D01*
X90990691Y-102049500D01*
X90990688Y-102049500D01*
X90876115Y-102080200D01*
X90876112Y-102080201D01*
X90773386Y-102139511D01*
X90773386Y-102139512D01*
X90689512Y-102223386D01*
X90689511Y-102223386D01*
X90630201Y-102326112D01*
X90630200Y-102326115D01*
X90599500Y-102440688D01*
X82423704Y-102440688D01*
X82419799Y-102426115D01*
X82419799Y-102426114D01*
X82360489Y-102323387D01*
X82296750Y-102259648D01*
X82282398Y-102225000D01*
X82296750Y-102190352D01*
X82360488Y-102126614D01*
X82360489Y-102126613D01*
X82419799Y-102023886D01*
X82446028Y-101926000D01*
X82450500Y-101909311D01*
X82450500Y-101790688D01*
X82419799Y-101676115D01*
X82419798Y-101676112D01*
X82398606Y-101639407D01*
X82360489Y-101573387D01*
X82276613Y-101489511D01*
X82173887Y-101430201D01*
X82173884Y-101430200D01*
X82059312Y-101399500D01*
X82059309Y-101399500D01*
X81940691Y-101399500D01*
X81940688Y-101399500D01*
X81826115Y-101430200D01*
X81826112Y-101430201D01*
X81723386Y-101489511D01*
X81723386Y-101489512D01*
X81639512Y-101573386D01*
X81639511Y-101573386D01*
X81580201Y-101676112D01*
X81580200Y-101676115D01*
X81549500Y-101790688D01*
X76650500Y-101790688D01*
X76650500Y-99540688D01*
X91899500Y-99540688D01*
X91899500Y-99659311D01*
X91930200Y-99773884D01*
X91930201Y-99773887D01*
X91988035Y-99874056D01*
X91989511Y-99876613D01*
X92073387Y-99960489D01*
X92176114Y-100019799D01*
X92202772Y-100026942D01*
X92290688Y-100050500D01*
X92290691Y-100050500D01*
X92409311Y-100050500D01*
X92466597Y-100035149D01*
X92523886Y-100019799D01*
X92626613Y-99960489D01*
X92710489Y-99876613D01*
X92769799Y-99773886D01*
X92789819Y-99699172D01*
X92800500Y-99659311D01*
X92800500Y-99540688D01*
X92769933Y-99426614D01*
X92769799Y-99426114D01*
X92710489Y-99323387D01*
X92626613Y-99239511D01*
X92574306Y-99209311D01*
X92523887Y-99180201D01*
X92523884Y-99180200D01*
X92409312Y-99149500D01*
X92409309Y-99149500D01*
X92290691Y-99149500D01*
X92290688Y-99149500D01*
X92176115Y-99180200D01*
X92176112Y-99180201D01*
X92073386Y-99239511D01*
X92073386Y-99239512D01*
X91989512Y-99323386D01*
X91989511Y-99323386D01*
X91930201Y-99426112D01*
X91930200Y-99426115D01*
X91899500Y-99540688D01*
X76650500Y-99540688D01*
X76650500Y-98490688D01*
X92999500Y-98490688D01*
X92999500Y-98609311D01*
X93030200Y-98723884D01*
X93030201Y-98723887D01*
X93068090Y-98789511D01*
X93089511Y-98826613D01*
X93173387Y-98910489D01*
X93276114Y-98969799D01*
X93289505Y-98973387D01*
X93390688Y-99000500D01*
X93390691Y-99000500D01*
X93509311Y-99000500D01*
X93566603Y-98985148D01*
X93623886Y-98969799D01*
X93726613Y-98910489D01*
X93810489Y-98826613D01*
X93869799Y-98723886D01*
X93885149Y-98666597D01*
X93900500Y-98609311D01*
X93900500Y-98490688D01*
X93877474Y-98404758D01*
X93869799Y-98376114D01*
X93810489Y-98273387D01*
X93726613Y-98189511D01*
X93692471Y-98169799D01*
X93623887Y-98130201D01*
X93623884Y-98130200D01*
X93509312Y-98099500D01*
X93509309Y-98099500D01*
X93390691Y-98099500D01*
X93390688Y-98099500D01*
X93276115Y-98130200D01*
X93276112Y-98130201D01*
X93173386Y-98189511D01*
X93173386Y-98189512D01*
X93089512Y-98273386D01*
X93089511Y-98273386D01*
X93030201Y-98376112D01*
X93030200Y-98376115D01*
X92999500Y-98490688D01*
X76650500Y-98490688D01*
X76650500Y-96740688D01*
X81349500Y-96740688D01*
X81349500Y-96859311D01*
X81380200Y-96973884D01*
X81380201Y-96973887D01*
X81417168Y-97037914D01*
X81439511Y-97076613D01*
X81523387Y-97160489D01*
X81626114Y-97219799D01*
X81646250Y-97225194D01*
X81655488Y-97227670D01*
X81685240Y-97250500D01*
X81690135Y-97287683D01*
X81667305Y-97317435D01*
X81655488Y-97322330D01*
X81626113Y-97330201D01*
X81626112Y-97330201D01*
X81523386Y-97389511D01*
X81523386Y-97389512D01*
X81439512Y-97473386D01*
X81439511Y-97473386D01*
X81380201Y-97576112D01*
X81380200Y-97576115D01*
X81349500Y-97690688D01*
X81349500Y-97809311D01*
X81380200Y-97923884D01*
X81380201Y-97923887D01*
X81409069Y-97973887D01*
X81439511Y-98026613D01*
X81523387Y-98110489D01*
X81626114Y-98169799D01*
X81654758Y-98177474D01*
X81740688Y-98200500D01*
X81740691Y-98200500D01*
X81859311Y-98200500D01*
X81916597Y-98185149D01*
X81973886Y-98169799D01*
X82076613Y-98110489D01*
X82160489Y-98026613D01*
X82219799Y-97923886D01*
X82237102Y-97859311D01*
X82250500Y-97809311D01*
X82250500Y-97690688D01*
X82219799Y-97576115D01*
X82219798Y-97576112D01*
X82160488Y-97473386D01*
X82076613Y-97389511D01*
X81973887Y-97330201D01*
X81973884Y-97330200D01*
X81944512Y-97322330D01*
X81914759Y-97299500D01*
X81909864Y-97262318D01*
X81932694Y-97232565D01*
X81944512Y-97227670D01*
X81952862Y-97225432D01*
X81973886Y-97219799D01*
X82076613Y-97160489D01*
X82160489Y-97076613D01*
X82219799Y-96973886D01*
X82242407Y-96889512D01*
X82250500Y-96859311D01*
X82250500Y-96740688D01*
X82219799Y-96626115D01*
X82219798Y-96626112D01*
X82189644Y-96573884D01*
X82160489Y-96523387D01*
X82076613Y-96439511D01*
X81973887Y-96380201D01*
X81973884Y-96380200D01*
X81859312Y-96349500D01*
X81859309Y-96349500D01*
X81740691Y-96349500D01*
X81740688Y-96349500D01*
X81626115Y-96380200D01*
X81626112Y-96380201D01*
X81523386Y-96439511D01*
X81523386Y-96439512D01*
X81439512Y-96523386D01*
X81439511Y-96523386D01*
X81380201Y-96626112D01*
X81380200Y-96626115D01*
X81349500Y-96740688D01*
X76650500Y-96740688D01*
X76650500Y-94023057D01*
X76664852Y-93988409D01*
X76699500Y-93974057D01*
X76734148Y-93988409D01*
X77313636Y-94567897D01*
X77384100Y-94638362D01*
X77384101Y-94638362D01*
X77384103Y-94638364D01*
X77476172Y-94676500D01*
X97926943Y-94676500D01*
X97961591Y-94690852D01*
X98162299Y-94891559D01*
X98176651Y-94926207D01*
X98176460Y-94930529D01*
X98176083Y-94934780D01*
X98174500Y-94940691D01*
X98174500Y-94952664D01*
X98174309Y-94954822D01*
X98166558Y-94969672D01*
X98160148Y-94985148D01*
X98158021Y-94986028D01*
X98156957Y-94988069D01*
X98140976Y-94993089D01*
X98125500Y-94999500D01*
X98015688Y-94999500D01*
X97901115Y-95030200D01*
X97901112Y-95030201D01*
X97798386Y-95089511D01*
X97798386Y-95089512D01*
X97714512Y-95173386D01*
X97714511Y-95173386D01*
X97655201Y-95276112D01*
X97655200Y-95276115D01*
X97624500Y-95390688D01*
X97624500Y-95509311D01*
X97655200Y-95623884D01*
X97655201Y-95623887D01*
X97691431Y-95686638D01*
X97714511Y-95726613D01*
X97798387Y-95810489D01*
X97873585Y-95853905D01*
X97894471Y-95865964D01*
X97901114Y-95869799D01*
X97929758Y-95877474D01*
X98015688Y-95900500D01*
X98015691Y-95900500D01*
X98134311Y-95900500D01*
X98211457Y-95879828D01*
X98248886Y-95869799D01*
X98270942Y-95857064D01*
X98295442Y-95850500D01*
X99076943Y-95850500D01*
X99111591Y-95864852D01*
X99125943Y-95899500D01*
X99111591Y-95934147D01*
X98729273Y-96316465D01*
X98501211Y-96544527D01*
X98437637Y-96608101D01*
X98399500Y-96700170D01*
X98399500Y-97396144D01*
X98385148Y-97430792D01*
X98375004Y-97438577D01*
X98373393Y-97439507D01*
X98373383Y-97439514D01*
X98289512Y-97523386D01*
X98289511Y-97523386D01*
X98230201Y-97626112D01*
X98230200Y-97626115D01*
X98199500Y-97740688D01*
X98199500Y-97859311D01*
X98230200Y-97973884D01*
X98230201Y-97973887D01*
X98259069Y-98023887D01*
X98289511Y-98076613D01*
X98373387Y-98160489D01*
X98476114Y-98219799D01*
X98504758Y-98227474D01*
X98590688Y-98250500D01*
X98590691Y-98250500D01*
X98709311Y-98250500D01*
X98766597Y-98235149D01*
X98823886Y-98219799D01*
X98926613Y-98160489D01*
X99010489Y-98076613D01*
X99069799Y-97973886D01*
X99087102Y-97909311D01*
X99100500Y-97859311D01*
X99100500Y-97740689D01*
X99078317Y-97657904D01*
X99083212Y-97620721D01*
X99112964Y-97597891D01*
X99150146Y-97602785D01*
X99225722Y-97646420D01*
X99254366Y-97654095D01*
X99340296Y-97677121D01*
X99340299Y-97677121D01*
X99458919Y-97677121D01*
X99530635Y-97657904D01*
X99573494Y-97646420D01*
X99676221Y-97587110D01*
X99760097Y-97503234D01*
X99819407Y-97400507D01*
X99841033Y-97319799D01*
X99850108Y-97285932D01*
X99850108Y-97167310D01*
X99831516Y-97097927D01*
X99836410Y-97060744D01*
X99866163Y-97037914D01*
X99903346Y-97042808D01*
X99913494Y-97050596D01*
X99923387Y-97060489D01*
X100026114Y-97119799D01*
X100054758Y-97127474D01*
X100140688Y-97150500D01*
X100140691Y-97150500D01*
X100259311Y-97150500D01*
X100316597Y-97135149D01*
X100373886Y-97119799D01*
X100476613Y-97060489D01*
X100494527Y-97042574D01*
X100529174Y-97028222D01*
X100563822Y-97042573D01*
X100578175Y-97077221D01*
X100576505Y-97089904D01*
X100549500Y-97190687D01*
X100549500Y-97226001D01*
X100535148Y-97260649D01*
X98208541Y-99587256D01*
X98208540Y-99587256D01*
X98168979Y-99655776D01*
X98168979Y-99655778D01*
X98148500Y-99732204D01*
X98148500Y-110354233D01*
X98134148Y-110388881D01*
X96659541Y-111863488D01*
X96659540Y-111863488D01*
X96619979Y-111932008D01*
X96619979Y-111932010D01*
X96599500Y-112008436D01*
X96599500Y-121439563D01*
X96619978Y-121515987D01*
X96619979Y-121515991D01*
X96657211Y-121580477D01*
X96657211Y-121580480D01*
X96657213Y-121580480D01*
X96659540Y-121584511D01*
X96659542Y-121584514D01*
X98035148Y-122960119D01*
X98049500Y-122994767D01*
X98049500Y-123059311D01*
X98080200Y-123173884D01*
X98080201Y-123173887D01*
X98139511Y-123276613D01*
X98223387Y-123360489D01*
X98326114Y-123419799D01*
X98354758Y-123427474D01*
X98440688Y-123450500D01*
X98440691Y-123450500D01*
X98559311Y-123450500D01*
X98616597Y-123435149D01*
X98673886Y-123419799D01*
X98776613Y-123360489D01*
X98860489Y-123276613D01*
X98919799Y-123173886D01*
X98944902Y-123080201D01*
X98950500Y-123059311D01*
X98950500Y-122940688D01*
X98919799Y-122826115D01*
X98919798Y-122826112D01*
X98860488Y-122723386D01*
X98776613Y-122639511D01*
X98673887Y-122580201D01*
X98673884Y-122580200D01*
X98559312Y-122549500D01*
X98559309Y-122549500D01*
X98494767Y-122549500D01*
X98460119Y-122535148D01*
X97214852Y-121289881D01*
X97200500Y-121255233D01*
X97200500Y-121200688D01*
X101899500Y-121200688D01*
X101899500Y-121319311D01*
X101930200Y-121433884D01*
X101930201Y-121433887D01*
X101963695Y-121491899D01*
X101989511Y-121536613D01*
X102073387Y-121620489D01*
X102176114Y-121679799D01*
X102204758Y-121687474D01*
X102290688Y-121710500D01*
X102290691Y-121710500D01*
X102409311Y-121710500D01*
X102466597Y-121695149D01*
X102523886Y-121679799D01*
X102626613Y-121620489D01*
X102710489Y-121536613D01*
X102769799Y-121433886D01*
X102793004Y-121347285D01*
X102800500Y-121319311D01*
X102800500Y-121200688D01*
X103349500Y-121200688D01*
X103349500Y-121319311D01*
X103380200Y-121433884D01*
X103380201Y-121433887D01*
X103413695Y-121491899D01*
X103439511Y-121536613D01*
X103523387Y-121620489D01*
X103626114Y-121679799D01*
X103654758Y-121687474D01*
X103740688Y-121710500D01*
X103740691Y-121710500D01*
X103859311Y-121710500D01*
X103916597Y-121695149D01*
X103973886Y-121679799D01*
X104076613Y-121620489D01*
X104160489Y-121536613D01*
X104219799Y-121433886D01*
X104243004Y-121347285D01*
X104250500Y-121319311D01*
X104250500Y-121200688D01*
X104219799Y-121086115D01*
X104219798Y-121086112D01*
X104203905Y-121058585D01*
X104160489Y-120983387D01*
X104076613Y-120899511D01*
X103973887Y-120840201D01*
X103973884Y-120840200D01*
X103859312Y-120809500D01*
X103859309Y-120809500D01*
X103740691Y-120809500D01*
X103740688Y-120809500D01*
X103626115Y-120840200D01*
X103626112Y-120840201D01*
X103523386Y-120899511D01*
X103523386Y-120899512D01*
X103439512Y-120983386D01*
X103439511Y-120983386D01*
X103380201Y-121086112D01*
X103380200Y-121086115D01*
X103349500Y-121200688D01*
X102800500Y-121200688D01*
X102769799Y-121086115D01*
X102769798Y-121086112D01*
X102753905Y-121058585D01*
X102710489Y-120983387D01*
X102626613Y-120899511D01*
X102523887Y-120840201D01*
X102523884Y-120840200D01*
X102409312Y-120809500D01*
X102409309Y-120809500D01*
X102290691Y-120809500D01*
X102290688Y-120809500D01*
X102176115Y-120840200D01*
X102176112Y-120840201D01*
X102073386Y-120899511D01*
X102073386Y-120899512D01*
X101989512Y-120983386D01*
X101989511Y-120983386D01*
X101930201Y-121086112D01*
X101930200Y-121086115D01*
X101899500Y-121200688D01*
X97200500Y-121200688D01*
X97200500Y-118453850D01*
X97214852Y-118419202D01*
X97249500Y-118404850D01*
X97284148Y-118419202D01*
X97290243Y-118426628D01*
X97291496Y-118428504D01*
X97341278Y-118461767D01*
X97385180Y-118470500D01*
X97400500Y-118470500D01*
X97435148Y-118484852D01*
X97449500Y-118519500D01*
X97449500Y-119289563D01*
X97469978Y-119365987D01*
X97469979Y-119365991D01*
X97480381Y-119384007D01*
X97480384Y-119384011D01*
X97480385Y-119384012D01*
X97491453Y-119403182D01*
X97509537Y-119434507D01*
X97509542Y-119434513D01*
X98110148Y-120035119D01*
X98124500Y-120069767D01*
X98124500Y-120190895D01*
X98158607Y-120318184D01*
X98158608Y-120318188D01*
X98224500Y-120432314D01*
X98317686Y-120525500D01*
X98359457Y-120549617D01*
X98431811Y-120591391D01*
X98431813Y-120591391D01*
X98431814Y-120591392D01*
X98532207Y-120618292D01*
X98559104Y-120625499D01*
X98559105Y-120625500D01*
X98559108Y-120625500D01*
X98690895Y-120625500D01*
X98690895Y-120625499D01*
X98818186Y-120591392D01*
X98932314Y-120525500D01*
X99025500Y-120432314D01*
X99091392Y-120318186D01*
X99125499Y-120190895D01*
X99125500Y-120190895D01*
X99125500Y-120059105D01*
X99125499Y-120059104D01*
X99096399Y-119950500D01*
X99091392Y-119931814D01*
X99091391Y-119931813D01*
X99091391Y-119931811D01*
X99025499Y-119817685D01*
X98932314Y-119724500D01*
X98818188Y-119658608D01*
X98818184Y-119658607D01*
X98690895Y-119624500D01*
X98690892Y-119624500D01*
X98569767Y-119624500D01*
X98535119Y-119610148D01*
X98064852Y-119139881D01*
X98050500Y-119105233D01*
X98050500Y-118519500D01*
X98064852Y-118484852D01*
X98099500Y-118470500D01*
X98114820Y-118470500D01*
X98158722Y-118461767D01*
X98208504Y-118428504D01*
X98241767Y-118378722D01*
X98250500Y-118334820D01*
X98250500Y-116705180D01*
X98250499Y-116705176D01*
X98349500Y-116705176D01*
X98349500Y-118334823D01*
X98358232Y-118378721D01*
X98391495Y-118428504D01*
X98429429Y-118453850D01*
X98441278Y-118461767D01*
X98485180Y-118470500D01*
X99214820Y-118470500D01*
X99258722Y-118461767D01*
X99308504Y-118428504D01*
X99341767Y-118378722D01*
X99350500Y-118334820D01*
X99350500Y-116705180D01*
X99341767Y-116661278D01*
X99318791Y-116626891D01*
X99305823Y-116607482D01*
X99307436Y-116606403D01*
X99295930Y-116578625D01*
X99310281Y-116543978D01*
X103385004Y-112469254D01*
X103385007Y-112469253D01*
X103391896Y-112462364D01*
X103391897Y-112462364D01*
X103462364Y-112391897D01*
X103493806Y-112315989D01*
X103500501Y-112299827D01*
X103500501Y-112200172D01*
X103500501Y-112196229D01*
X103500500Y-112196215D01*
X103500500Y-110053855D01*
X103514852Y-110019207D01*
X103515933Y-110018158D01*
X103520073Y-110014264D01*
X103526613Y-110010489D01*
X103566396Y-109970705D01*
X103566933Y-109970201D01*
X103583828Y-109963803D01*
X103600500Y-109956898D01*
X103601248Y-109957207D01*
X103602006Y-109956921D01*
X103618475Y-109964343D01*
X103635148Y-109971250D01*
X103635457Y-109971997D01*
X103636197Y-109972331D01*
X103642594Y-109989226D01*
X103649500Y-110005898D01*
X103649500Y-112445942D01*
X103635148Y-112480590D01*
X99737637Y-116378101D01*
X99699500Y-116470170D01*
X99699500Y-116520500D01*
X99685148Y-116555148D01*
X99650500Y-116569500D01*
X99585176Y-116569500D01*
X99541278Y-116578232D01*
X99491495Y-116611495D01*
X99458232Y-116661278D01*
X99449500Y-116705176D01*
X99449500Y-118334823D01*
X99458232Y-118378721D01*
X99491495Y-118428504D01*
X99529429Y-118453850D01*
X99541278Y-118461767D01*
X99585180Y-118470500D01*
X99600500Y-118470500D01*
X99635148Y-118484852D01*
X99649500Y-118519500D01*
X99649500Y-118989563D01*
X99669978Y-119065987D01*
X99669979Y-119065991D01*
X99709248Y-119134005D01*
X99709250Y-119134015D01*
X99709253Y-119134014D01*
X99709539Y-119134510D01*
X99985148Y-119410119D01*
X99999500Y-119444767D01*
X99999500Y-119565895D01*
X100033607Y-119693184D01*
X100033608Y-119693188D01*
X100099500Y-119807314D01*
X100192686Y-119900500D01*
X100220210Y-119916391D01*
X100306811Y-119966391D01*
X100306813Y-119966391D01*
X100306814Y-119966392D01*
X100407207Y-119993292D01*
X100434104Y-120000499D01*
X100434105Y-120000500D01*
X100434108Y-120000500D01*
X100565895Y-120000500D01*
X100565895Y-120000499D01*
X100693186Y-119966392D01*
X100807314Y-119900500D01*
X100900500Y-119807314D01*
X100966392Y-119693186D01*
X101000499Y-119565895D01*
X101000500Y-119565895D01*
X101000500Y-119434105D01*
X101000499Y-119434104D01*
X100978943Y-119353656D01*
X100966392Y-119306814D01*
X100966391Y-119306813D01*
X100966391Y-119306811D01*
X100900499Y-119192685D01*
X100807314Y-119099500D01*
X100693188Y-119033608D01*
X100693184Y-119033607D01*
X100565895Y-118999500D01*
X100565892Y-118999500D01*
X100444767Y-118999500D01*
X100410119Y-118985148D01*
X100264852Y-118839881D01*
X100250500Y-118805233D01*
X100250500Y-118519500D01*
X100264852Y-118484852D01*
X100299500Y-118470500D01*
X100314820Y-118470500D01*
X100358722Y-118461767D01*
X100408504Y-118428504D01*
X100441767Y-118378722D01*
X100450500Y-118334820D01*
X100450500Y-116705180D01*
X100441767Y-116661278D01*
X100410784Y-116614908D01*
X100408504Y-116611495D01*
X100358722Y-116578232D01*
X100354632Y-116577419D01*
X100323451Y-116556581D01*
X100316137Y-116519798D01*
X100329546Y-116494714D01*
X100480797Y-116343463D01*
X100515443Y-116329112D01*
X100550091Y-116343464D01*
X100562773Y-116365430D01*
X100583607Y-116443184D01*
X100583608Y-116443188D01*
X100632979Y-116528699D01*
X100637874Y-116565881D01*
X100617768Y-116593940D01*
X100591495Y-116611495D01*
X100558232Y-116661278D01*
X100549500Y-116705176D01*
X100549500Y-118334823D01*
X100558232Y-118378721D01*
X100591495Y-118428504D01*
X100629429Y-118453850D01*
X100641278Y-118461767D01*
X100685180Y-118470500D01*
X101414820Y-118470500D01*
X101458722Y-118461767D01*
X101508504Y-118428504D01*
X101541767Y-118378722D01*
X101550500Y-118334820D01*
X101550500Y-116705180D01*
X101541767Y-116661278D01*
X101510784Y-116614908D01*
X101508505Y-116611497D01*
X101508504Y-116611496D01*
X101482232Y-116593941D01*
X101461397Y-116562760D01*
X101467020Y-116528700D01*
X101468896Y-116525452D01*
X101516392Y-116443186D01*
X101550499Y-116315895D01*
X101550500Y-116315895D01*
X101550500Y-116184105D01*
X101550499Y-116184104D01*
X101540274Y-116145943D01*
X101516392Y-116056814D01*
X101516391Y-116056813D01*
X101516391Y-116056811D01*
X101450499Y-115942685D01*
X101357314Y-115849500D01*
X101243188Y-115783608D01*
X101243184Y-115783607D01*
X101165431Y-115762773D01*
X101135678Y-115739943D01*
X101130783Y-115702761D01*
X101143463Y-115680797D01*
X104035004Y-112789254D01*
X104035007Y-112789253D01*
X104041896Y-112782364D01*
X104041897Y-112782364D01*
X104112364Y-112711897D01*
X104128160Y-112673760D01*
X104150501Y-112619827D01*
X104150501Y-112520172D01*
X104150501Y-112516229D01*
X104150500Y-112516215D01*
X104150500Y-110205898D01*
X104157405Y-110189226D01*
X104163803Y-110172331D01*
X104164542Y-110171997D01*
X104164852Y-110171250D01*
X104181524Y-110164343D01*
X104197994Y-110156921D01*
X104198735Y-110157214D01*
X104199500Y-110156898D01*
X104233067Y-110170201D01*
X104233603Y-110170705D01*
X104273387Y-110210489D01*
X104279926Y-110214264D01*
X104284067Y-110218158D01*
X104289612Y-110230462D01*
X104297828Y-110241166D01*
X104299229Y-110251798D01*
X104299477Y-110252349D01*
X104299346Y-110252692D01*
X104299500Y-110253855D01*
X104299500Y-114046710D01*
X104285148Y-114081358D01*
X101937637Y-116428869D01*
X101937636Y-116428870D01*
X101937636Y-116428871D01*
X101931707Y-116443184D01*
X101899500Y-116520938D01*
X101898559Y-116525673D01*
X101897448Y-116525452D01*
X101885148Y-116555148D01*
X101850500Y-116569500D01*
X101785176Y-116569500D01*
X101741278Y-116578232D01*
X101691495Y-116611495D01*
X101658232Y-116661278D01*
X101649500Y-116705176D01*
X101649500Y-118334823D01*
X101658232Y-118378721D01*
X101691495Y-118428504D01*
X101729429Y-118453850D01*
X101741278Y-118461767D01*
X101785180Y-118470500D01*
X101800500Y-118470500D01*
X101835148Y-118484852D01*
X101849500Y-118519500D01*
X101849500Y-118950500D01*
X101835148Y-118985148D01*
X101800500Y-118999500D01*
X101684105Y-118999500D01*
X101556815Y-119033607D01*
X101556811Y-119033608D01*
X101442685Y-119099500D01*
X101442685Y-119099501D01*
X101349501Y-119192685D01*
X101349500Y-119192685D01*
X101283608Y-119306811D01*
X101283607Y-119306815D01*
X101249500Y-119434104D01*
X101249500Y-119565895D01*
X101283607Y-119693184D01*
X101283608Y-119693188D01*
X101349500Y-119807314D01*
X101442686Y-119900500D01*
X101470210Y-119916391D01*
X101556811Y-119966391D01*
X101556813Y-119966391D01*
X101556814Y-119966392D01*
X101657207Y-119993292D01*
X101684104Y-120000499D01*
X101684105Y-120000500D01*
X101684108Y-120000500D01*
X101815895Y-120000500D01*
X101815895Y-120000499D01*
X101943186Y-119966392D01*
X102057314Y-119900500D01*
X102150500Y-119807314D01*
X102216392Y-119693186D01*
X102250499Y-119565895D01*
X102250500Y-119565895D01*
X102250500Y-119444766D01*
X102264852Y-119410118D01*
X102316419Y-119358551D01*
X102390460Y-119284511D01*
X102419615Y-119234012D01*
X102430021Y-119215989D01*
X102450500Y-119139562D01*
X102450500Y-118519500D01*
X102464852Y-118484852D01*
X102499500Y-118470500D01*
X102514820Y-118470500D01*
X102558722Y-118461767D01*
X102608504Y-118428504D01*
X102641767Y-118378722D01*
X102650500Y-118334820D01*
X102650500Y-116705180D01*
X102641767Y-116661278D01*
X102618791Y-116626891D01*
X102608505Y-116611496D01*
X102571243Y-116586599D01*
X102550408Y-116555417D01*
X102557724Y-116518634D01*
X102563809Y-116511219D01*
X104685004Y-114390022D01*
X104685007Y-114390021D01*
X104691896Y-114383132D01*
X104691897Y-114383132D01*
X104762364Y-114312665D01*
X104791143Y-114243186D01*
X104800501Y-114220595D01*
X104800501Y-114120940D01*
X104800501Y-114116997D01*
X104800500Y-114116983D01*
X104800500Y-110253855D01*
X104803036Y-110247731D01*
X104802173Y-110241160D01*
X104809959Y-110231017D01*
X104814852Y-110219207D01*
X104825006Y-110211416D01*
X104826012Y-110210835D01*
X104863195Y-110205951D01*
X104892942Y-110228789D01*
X104899500Y-110253278D01*
X104899500Y-116145943D01*
X104885148Y-116180591D01*
X104510591Y-116555148D01*
X104475943Y-116569500D01*
X103985176Y-116569500D01*
X103941278Y-116578232D01*
X103891495Y-116611495D01*
X103858232Y-116661278D01*
X103849500Y-116705176D01*
X103849500Y-118334823D01*
X103858232Y-118378721D01*
X103891495Y-118428504D01*
X103929429Y-118453850D01*
X103941278Y-118461767D01*
X103985180Y-118470500D01*
X104000500Y-118470500D01*
X104035148Y-118484852D01*
X104049500Y-118519500D01*
X104049500Y-119266159D01*
X104042936Y-119290655D01*
X104033610Y-119306811D01*
X104033606Y-119306818D01*
X103999500Y-119434104D01*
X103999500Y-119565895D01*
X104033607Y-119693184D01*
X104033608Y-119693188D01*
X104099500Y-119807314D01*
X104192686Y-119900500D01*
X104220210Y-119916391D01*
X104306811Y-119966391D01*
X104306813Y-119966391D01*
X104306814Y-119966392D01*
X104407207Y-119993292D01*
X104434104Y-120000499D01*
X104434105Y-120000500D01*
X104434108Y-120000500D01*
X104565895Y-120000500D01*
X104565895Y-120000499D01*
X104693186Y-119966392D01*
X104807314Y-119900500D01*
X104900500Y-119807314D01*
X104957565Y-119708475D01*
X104987318Y-119685645D01*
X105024500Y-119690540D01*
X105042435Y-119708475D01*
X105099500Y-119807314D01*
X105192686Y-119900500D01*
X105220210Y-119916391D01*
X105306811Y-119966391D01*
X105306813Y-119966391D01*
X105306814Y-119966392D01*
X105407207Y-119993292D01*
X105434104Y-120000499D01*
X105434105Y-120000500D01*
X105434108Y-120000500D01*
X105565895Y-120000500D01*
X105565895Y-120000499D01*
X105693186Y-119966392D01*
X105807314Y-119900500D01*
X105900500Y-119807314D01*
X105966392Y-119693186D01*
X105984369Y-119626092D01*
X106007197Y-119596343D01*
X106044380Y-119591447D01*
X106074133Y-119614277D01*
X106079028Y-119626095D01*
X106083608Y-119643186D01*
X106083608Y-119643188D01*
X106149500Y-119757314D01*
X106242686Y-119850500D01*
X106284457Y-119874617D01*
X106356811Y-119916391D01*
X106356813Y-119916391D01*
X106356814Y-119916392D01*
X106414374Y-119931815D01*
X106484104Y-119950499D01*
X106484105Y-119950500D01*
X106484108Y-119950500D01*
X106615895Y-119950500D01*
X106615895Y-119950499D01*
X106743186Y-119916392D01*
X106857314Y-119850500D01*
X106950500Y-119757314D01*
X107016392Y-119643186D01*
X107050499Y-119515895D01*
X107050500Y-119515895D01*
X107050500Y-119384105D01*
X107050499Y-119384104D01*
X107029790Y-119306818D01*
X107016392Y-119256814D01*
X107016391Y-119256813D01*
X107016391Y-119256811D01*
X106950499Y-119142685D01*
X106864852Y-119057038D01*
X106850500Y-119022390D01*
X106850500Y-118519500D01*
X106864852Y-118484852D01*
X106899500Y-118470500D01*
X106914820Y-118470500D01*
X106958722Y-118461767D01*
X107008504Y-118428504D01*
X107041767Y-118378722D01*
X107050500Y-118334820D01*
X107050500Y-116705180D01*
X107041767Y-116661278D01*
X107010784Y-116614908D01*
X107008504Y-116611495D01*
X106958721Y-116578232D01*
X106914823Y-116569500D01*
X106914820Y-116569500D01*
X106849500Y-116569500D01*
X106814852Y-116555148D01*
X106800500Y-116520500D01*
X106800500Y-112311591D01*
X106814852Y-112276943D01*
X106825000Y-112269156D01*
X106842055Y-112259309D01*
X106926613Y-112210489D01*
X107010489Y-112126613D01*
X107069799Y-112023886D01*
X107094417Y-111932011D01*
X107100500Y-111909311D01*
X107100500Y-111790688D01*
X107069799Y-111676115D01*
X107069798Y-111676112D01*
X107010488Y-111573386D01*
X106926613Y-111489511D01*
X106823887Y-111430201D01*
X106823884Y-111430200D01*
X106709312Y-111399500D01*
X106709309Y-111399500D01*
X106590691Y-111399500D01*
X106590688Y-111399500D01*
X106476115Y-111430200D01*
X106476112Y-111430201D01*
X106373386Y-111489511D01*
X106373386Y-111489512D01*
X106289512Y-111573386D01*
X106289511Y-111573386D01*
X106230201Y-111676112D01*
X106230200Y-111676115D01*
X106199500Y-111790688D01*
X106199500Y-111909311D01*
X106230200Y-112023884D01*
X106230201Y-112023887D01*
X106251333Y-112060488D01*
X106285576Y-112119798D01*
X106291117Y-112129394D01*
X106290499Y-112129750D01*
X106299500Y-112156263D01*
X106299500Y-116520500D01*
X106285148Y-116555148D01*
X106250500Y-116569500D01*
X106185176Y-116569500D01*
X106141278Y-116578232D01*
X106091495Y-116611495D01*
X106058232Y-116661278D01*
X106049500Y-116705176D01*
X106049500Y-118334823D01*
X106058232Y-118378721D01*
X106091495Y-118428504D01*
X106129429Y-118453850D01*
X106141278Y-118461767D01*
X106185180Y-118470500D01*
X106200500Y-118470500D01*
X106235148Y-118484852D01*
X106249500Y-118519500D01*
X106249500Y-119022390D01*
X106235148Y-119057038D01*
X106149501Y-119142685D01*
X106149500Y-119142685D01*
X106083608Y-119256811D01*
X106083607Y-119256815D01*
X106065631Y-119323903D01*
X106042801Y-119353656D01*
X106005619Y-119358551D01*
X105975866Y-119335721D01*
X105970971Y-119323903D01*
X105966392Y-119306814D01*
X105966391Y-119306811D01*
X105900499Y-119192685D01*
X105807317Y-119099503D01*
X105807314Y-119099500D01*
X105807310Y-119099498D01*
X105807308Y-119099496D01*
X105775000Y-119080843D01*
X105752170Y-119051090D01*
X105750500Y-119038408D01*
X105750500Y-118519500D01*
X105764852Y-118484852D01*
X105799500Y-118470500D01*
X105814820Y-118470500D01*
X105858722Y-118461767D01*
X105908504Y-118428504D01*
X105941767Y-118378722D01*
X105950500Y-118334820D01*
X105950500Y-116705180D01*
X105941767Y-116661278D01*
X105910784Y-116614908D01*
X105908504Y-116611495D01*
X105858721Y-116578232D01*
X105814823Y-116569500D01*
X105814820Y-116569500D01*
X105323057Y-116569500D01*
X105288409Y-116555148D01*
X105274057Y-116520500D01*
X105288409Y-116485852D01*
X105362362Y-116411899D01*
X105362364Y-116411897D01*
X105400500Y-116319828D01*
X105400500Y-109558693D01*
X105362364Y-109466624D01*
X105362362Y-109466622D01*
X105362362Y-109466621D01*
X105291897Y-109396157D01*
X100314852Y-104419112D01*
X100300500Y-104384464D01*
X100300500Y-104053855D01*
X100314852Y-104019207D01*
X100325001Y-104011419D01*
X100326613Y-104010489D01*
X100410489Y-103926613D01*
X100469799Y-103823886D01*
X100488888Y-103752644D01*
X100500500Y-103709311D01*
X100500500Y-103599500D01*
X100514852Y-103564852D01*
X100549500Y-103550500D01*
X100559311Y-103550500D01*
X100616597Y-103535149D01*
X100673886Y-103519799D01*
X100776613Y-103460489D01*
X100860489Y-103376613D01*
X100919799Y-103273886D01*
X100943485Y-103185489D01*
X100950500Y-103159311D01*
X100950500Y-103040688D01*
X100919799Y-102926115D01*
X100919798Y-102926112D01*
X100897584Y-102887637D01*
X100860489Y-102823387D01*
X100776613Y-102739511D01*
X100673887Y-102680201D01*
X100673884Y-102680200D01*
X100559312Y-102649500D01*
X100559309Y-102649500D01*
X100440691Y-102649500D01*
X100440688Y-102649500D01*
X100326115Y-102680200D01*
X100326112Y-102680201D01*
X100223386Y-102739511D01*
X100223386Y-102739512D01*
X100139513Y-102823384D01*
X100139508Y-102823390D01*
X100138579Y-102825001D01*
X100137834Y-102825572D01*
X100137553Y-102825939D01*
X100137454Y-102825863D01*
X100108825Y-102847831D01*
X100096144Y-102849500D01*
X99905537Y-102849500D01*
X99905529Y-102849499D01*
X99899828Y-102849499D01*
X99800172Y-102849499D01*
X99800170Y-102849499D01*
X99742938Y-102873207D01*
X99716131Y-102884311D01*
X99708101Y-102887637D01*
X99708100Y-102887637D01*
X99637636Y-102958103D01*
X99637635Y-102958104D01*
X99201211Y-103394527D01*
X99137637Y-103458101D01*
X99099500Y-103550170D01*
X99099500Y-103550172D01*
X99099500Y-105550172D01*
X99099500Y-105649828D01*
X99137636Y-105741897D01*
X99137637Y-105741898D01*
X99137637Y-105741899D01*
X101984840Y-108589100D01*
X101984843Y-108589104D01*
X102058100Y-108662362D01*
X102058102Y-108662363D01*
X102058103Y-108662364D01*
X102084715Y-108673387D01*
X102150173Y-108700501D01*
X102150175Y-108700501D01*
X102255529Y-108700501D01*
X102255537Y-108700500D01*
X102875943Y-108700500D01*
X102910591Y-108714852D01*
X103311591Y-109115852D01*
X103325943Y-109150500D01*
X103311591Y-109185148D01*
X103276943Y-109199500D01*
X103190688Y-109199500D01*
X103076115Y-109230200D01*
X103076112Y-109230201D01*
X102973386Y-109289511D01*
X102973386Y-109289512D01*
X102889512Y-109373386D01*
X102889511Y-109373386D01*
X102830201Y-109476112D01*
X102830200Y-109476115D01*
X102799500Y-109590688D01*
X102799500Y-109709311D01*
X102830200Y-109823884D01*
X102830201Y-109823887D01*
X102887935Y-109923884D01*
X102889511Y-109926613D01*
X102973387Y-110010489D01*
X102974995Y-110011417D01*
X102975565Y-110012160D01*
X102975939Y-110012447D01*
X102975862Y-110012547D01*
X102997828Y-110041166D01*
X102999500Y-110053855D01*
X102999500Y-112125942D01*
X102985148Y-112160590D01*
X98637637Y-116508101D01*
X98637636Y-116508102D01*
X98637636Y-116508103D01*
X98629105Y-116528699D01*
X98624734Y-116539252D01*
X98598215Y-116565770D01*
X98579464Y-116569500D01*
X98485176Y-116569500D01*
X98441278Y-116578232D01*
X98391495Y-116611495D01*
X98358232Y-116661278D01*
X98349500Y-116705176D01*
X98250499Y-116705176D01*
X98241767Y-116661278D01*
X98210784Y-116614908D01*
X98208504Y-116611495D01*
X98158721Y-116578232D01*
X98114823Y-116569500D01*
X98114820Y-116569500D01*
X97385180Y-116569500D01*
X97385176Y-116569500D01*
X97341278Y-116578232D01*
X97291496Y-116611494D01*
X97290242Y-116613372D01*
X97288364Y-116614626D01*
X97288083Y-116614908D01*
X97288027Y-116614852D01*
X97259059Y-116634208D01*
X97222277Y-116626891D01*
X97201441Y-116595708D01*
X97200500Y-116586149D01*
X97200500Y-112192767D01*
X97214852Y-112158119D01*
X97949585Y-111423386D01*
X98689460Y-110683511D01*
X98693185Y-110677059D01*
X98729021Y-110614989D01*
X98749500Y-110538562D01*
X98749500Y-100040688D01*
X102999500Y-100040688D01*
X102999500Y-100159311D01*
X103030200Y-100273884D01*
X103030201Y-100273887D01*
X103051333Y-100310488D01*
X103089511Y-100376613D01*
X103173387Y-100460489D01*
X103276114Y-100519799D01*
X103301544Y-100526613D01*
X103390688Y-100550500D01*
X103390691Y-100550500D01*
X103509311Y-100550500D01*
X103566597Y-100535149D01*
X103623886Y-100519799D01*
X103726613Y-100460489D01*
X103810489Y-100376613D01*
X103869799Y-100273886D01*
X103900184Y-100160489D01*
X103900500Y-100159311D01*
X103900500Y-100040688D01*
X103869799Y-99926115D01*
X103869798Y-99926112D01*
X103853905Y-99898585D01*
X103810489Y-99823387D01*
X103726613Y-99739511D01*
X103723365Y-99737636D01*
X103623887Y-99680201D01*
X103623884Y-99680200D01*
X103509312Y-99649500D01*
X103509309Y-99649500D01*
X103390691Y-99649500D01*
X103390688Y-99649500D01*
X103276115Y-99680200D01*
X103276112Y-99680201D01*
X103173386Y-99739511D01*
X103173386Y-99739512D01*
X103089512Y-99823386D01*
X103089511Y-99823386D01*
X103030201Y-99926112D01*
X103030200Y-99926115D01*
X102999500Y-100040688D01*
X98749500Y-100040688D01*
X98749500Y-99916535D01*
X98763852Y-99881887D01*
X100930887Y-97714852D01*
X100965535Y-97700500D01*
X101059311Y-97700500D01*
X101116597Y-97685149D01*
X101173886Y-97669799D01*
X101276613Y-97610489D01*
X101360489Y-97526613D01*
X101419799Y-97423886D01*
X101444902Y-97330201D01*
X101450500Y-97309311D01*
X101450500Y-97190688D01*
X101423494Y-97089904D01*
X101419799Y-97076114D01*
X101418511Y-97073884D01*
X101380029Y-97007231D01*
X101360489Y-96973387D01*
X101276613Y-96889511D01*
X101173887Y-96830201D01*
X101173884Y-96830200D01*
X101059312Y-96799500D01*
X101059309Y-96799500D01*
X100940691Y-96799500D01*
X100940688Y-96799500D01*
X100826115Y-96830200D01*
X100826112Y-96830201D01*
X100723386Y-96889511D01*
X100705471Y-96907426D01*
X100670823Y-96921777D01*
X100636175Y-96907424D01*
X100621824Y-96872776D01*
X100623493Y-96860098D01*
X100647848Y-96769207D01*
X100650500Y-96759310D01*
X100650500Y-96640688D01*
X100619799Y-96526115D01*
X100619799Y-96526114D01*
X100605049Y-96500567D01*
X100600154Y-96463388D01*
X100612835Y-96441423D01*
X101035004Y-96019255D01*
X101035007Y-96019253D01*
X101041896Y-96012364D01*
X101041897Y-96012364D01*
X101073721Y-95980540D01*
X101699253Y-95980540D01*
X101699253Y-96099163D01*
X101729953Y-96213736D01*
X101729954Y-96213739D01*
X101789264Y-96316465D01*
X101873140Y-96400341D01*
X101940984Y-96439511D01*
X101975274Y-96459309D01*
X101975867Y-96459651D01*
X101989814Y-96463388D01*
X102090441Y-96490352D01*
X102090444Y-96490352D01*
X102209064Y-96490352D01*
X102253871Y-96478345D01*
X102291053Y-96483239D01*
X102313884Y-96512992D01*
X102313884Y-96512993D01*
X102330199Y-96573882D01*
X102330201Y-96573888D01*
X102368771Y-96640691D01*
X102389511Y-96676613D01*
X102473387Y-96760489D01*
X102576114Y-96819799D01*
X102604758Y-96827474D01*
X102690688Y-96850500D01*
X102690691Y-96850500D01*
X102809304Y-96850500D01*
X102809309Y-96850500D01*
X102811101Y-96850019D01*
X102812030Y-96850141D01*
X102812490Y-96850081D01*
X102812506Y-96850204D01*
X102848282Y-96854907D01*
X102858438Y-96862699D01*
X112655148Y-106659408D01*
X112669500Y-106694056D01*
X112669500Y-114989513D01*
X112655148Y-115024161D01*
X112630064Y-115037571D01*
X112628166Y-115037948D01*
X112628162Y-115037949D01*
X112446089Y-115113366D01*
X112282218Y-115222860D01*
X112142860Y-115362218D01*
X112033366Y-115526089D01*
X111957949Y-115708163D01*
X111957947Y-115708172D01*
X111919500Y-115901455D01*
X111919500Y-116098544D01*
X111957947Y-116291827D01*
X111957949Y-116291836D01*
X112018341Y-116437635D01*
X112033368Y-116473914D01*
X112099841Y-116573398D01*
X112127539Y-116614852D01*
X112142861Y-116637782D01*
X112282218Y-116777139D01*
X112446086Y-116886632D01*
X112628165Y-116962051D01*
X112821459Y-117000500D01*
X113018541Y-117000500D01*
X113211835Y-116962051D01*
X113393914Y-116886632D01*
X113557782Y-116777139D01*
X113697139Y-116637782D01*
X113806632Y-116473914D01*
X113882051Y-116291835D01*
X113920500Y-116098541D01*
X113920500Y-115901459D01*
X113882051Y-115708165D01*
X113806632Y-115526086D01*
X113697139Y-115362218D01*
X113557782Y-115222861D01*
X113393914Y-115113368D01*
X113393911Y-115113366D01*
X113393910Y-115113366D01*
X113211837Y-115037949D01*
X113211833Y-115037948D01*
X113209936Y-115037571D01*
X113178755Y-115016732D01*
X113170500Y-114989513D01*
X113170500Y-106584536D01*
X113184852Y-106549888D01*
X113219500Y-106535536D01*
X113254148Y-106549888D01*
X115195148Y-108490888D01*
X115209500Y-108525536D01*
X115209500Y-114989513D01*
X115195148Y-115024161D01*
X115170064Y-115037571D01*
X115168166Y-115037948D01*
X115168162Y-115037949D01*
X114986089Y-115113366D01*
X114822218Y-115222860D01*
X114682860Y-115362218D01*
X114573366Y-115526089D01*
X114497949Y-115708163D01*
X114497947Y-115708172D01*
X114459500Y-115901455D01*
X114459500Y-116098544D01*
X114497947Y-116291827D01*
X114497949Y-116291836D01*
X114558341Y-116437635D01*
X114573368Y-116473914D01*
X114639841Y-116573398D01*
X114667539Y-116614852D01*
X114682861Y-116637782D01*
X114822218Y-116777139D01*
X114986086Y-116886632D01*
X115168165Y-116962051D01*
X115361459Y-117000500D01*
X115558541Y-117000500D01*
X115751835Y-116962051D01*
X115933914Y-116886632D01*
X116097782Y-116777139D01*
X116237139Y-116637782D01*
X116346632Y-116473914D01*
X116422051Y-116291835D01*
X116460500Y-116098541D01*
X116460500Y-115901459D01*
X116422051Y-115708165D01*
X116346632Y-115526086D01*
X116237139Y-115362218D01*
X116097782Y-115222861D01*
X115933914Y-115113368D01*
X115933911Y-115113366D01*
X115933910Y-115113366D01*
X115751837Y-115037949D01*
X115751833Y-115037948D01*
X115749936Y-115037571D01*
X115718755Y-115016732D01*
X115710500Y-114989513D01*
X115710500Y-108351653D01*
X115710499Y-108351649D01*
X115672364Y-108259582D01*
X115672362Y-108259580D01*
X115672362Y-108259579D01*
X115601897Y-108189115D01*
X108853470Y-101440688D01*
X109349500Y-101440688D01*
X109349500Y-101559311D01*
X109380200Y-101673884D01*
X109380201Y-101673887D01*
X109435206Y-101769156D01*
X109439511Y-101776613D01*
X109523387Y-101860489D01*
X109626114Y-101919799D01*
X109649256Y-101926000D01*
X109740688Y-101950500D01*
X109740691Y-101950500D01*
X109859304Y-101950500D01*
X109859309Y-101950500D01*
X109861101Y-101950019D01*
X109862030Y-101950141D01*
X109862490Y-101950081D01*
X109862506Y-101950204D01*
X109898282Y-101954907D01*
X109908438Y-101962699D01*
X113958100Y-106012362D01*
X113958101Y-106012362D01*
X113958103Y-106012364D01*
X114050172Y-106050500D01*
X114149827Y-106050500D01*
X116200172Y-106050500D01*
X116243538Y-106050500D01*
X116278186Y-106064852D01*
X116285970Y-106074996D01*
X116291328Y-106084275D01*
X116375204Y-106168151D01*
X116408695Y-106187487D01*
X116470874Y-106223387D01*
X116477931Y-106227461D01*
X116506575Y-106235136D01*
X116592505Y-106258162D01*
X116592508Y-106258162D01*
X116711128Y-106258162D01*
X116768414Y-106242811D01*
X116825703Y-106227461D01*
X116926002Y-106169552D01*
X116963181Y-106164657D01*
X116992935Y-106187487D01*
X116999500Y-106211988D01*
X116999500Y-109149829D01*
X117014130Y-109185148D01*
X117037636Y-109241897D01*
X117037637Y-109241898D01*
X117037637Y-109241899D01*
X117585148Y-109789409D01*
X117599500Y-109824057D01*
X117599500Y-109909311D01*
X117630200Y-110023884D01*
X117630201Y-110023887D01*
X117680201Y-110110488D01*
X117689511Y-110126613D01*
X117773387Y-110210489D01*
X117876114Y-110269799D01*
X117904758Y-110277474D01*
X117990688Y-110300500D01*
X117990691Y-110300500D01*
X118109311Y-110300500D01*
X118166597Y-110285149D01*
X118223886Y-110269799D01*
X118326613Y-110210489D01*
X118410489Y-110126613D01*
X118469799Y-110023886D01*
X118487742Y-109956921D01*
X118500500Y-109909311D01*
X118500500Y-109790688D01*
X118500499Y-109790687D01*
X118476243Y-109700161D01*
X118473704Y-109690688D01*
X122799500Y-109690688D01*
X122799500Y-109809311D01*
X122830200Y-109923884D01*
X122830201Y-109923887D01*
X122849274Y-109956921D01*
X122889511Y-110026613D01*
X122973387Y-110110489D01*
X123076114Y-110169799D01*
X123104758Y-110177474D01*
X123190688Y-110200500D01*
X123190691Y-110200500D01*
X123309311Y-110200500D01*
X123366597Y-110185149D01*
X123423886Y-110169799D01*
X123526613Y-110110489D01*
X123610489Y-110026613D01*
X123669799Y-109923886D01*
X123685149Y-109866597D01*
X123700500Y-109809311D01*
X123700500Y-109690688D01*
X123669799Y-109576115D01*
X123669798Y-109576112D01*
X123619798Y-109489511D01*
X123610489Y-109473387D01*
X123526613Y-109389511D01*
X123492471Y-109369799D01*
X123423887Y-109330201D01*
X123423884Y-109330200D01*
X123309312Y-109299500D01*
X123309309Y-109299500D01*
X123190691Y-109299500D01*
X123190688Y-109299500D01*
X123076115Y-109330200D01*
X123076112Y-109330201D01*
X122973386Y-109389511D01*
X122973386Y-109389512D01*
X122889512Y-109473386D01*
X122889511Y-109473386D01*
X122830201Y-109576112D01*
X122830200Y-109576115D01*
X122799500Y-109690688D01*
X118473704Y-109690688D01*
X118473375Y-109689460D01*
X118469799Y-109676114D01*
X118410489Y-109573387D01*
X118326613Y-109489511D01*
X118326068Y-109488966D01*
X118311716Y-109454318D01*
X118326066Y-109419673D01*
X123547292Y-104198446D01*
X123581939Y-104184095D01*
X123616587Y-104198447D01*
X123629268Y-104220406D01*
X123630200Y-104223885D01*
X123630201Y-104223888D01*
X123689222Y-104326112D01*
X123689511Y-104326613D01*
X123773387Y-104410489D01*
X123876114Y-104469799D01*
X123904758Y-104477474D01*
X123990688Y-104500500D01*
X123990691Y-104500500D01*
X124109311Y-104500500D01*
X124166597Y-104485149D01*
X124223886Y-104469799D01*
X124326613Y-104410489D01*
X124410489Y-104326613D01*
X124469799Y-104223886D01*
X124492407Y-104139512D01*
X124500500Y-104109311D01*
X124500500Y-103990688D01*
X124469799Y-103876115D01*
X124469798Y-103876112D01*
X124410488Y-103773386D01*
X124326613Y-103689511D01*
X124223887Y-103630201D01*
X124223884Y-103630200D01*
X124109312Y-103599500D01*
X124109309Y-103599500D01*
X124049500Y-103599500D01*
X124014852Y-103585148D01*
X124000500Y-103550500D01*
X124000500Y-101656263D01*
X124009500Y-101629750D01*
X124008883Y-101629394D01*
X124020982Y-101608438D01*
X124069799Y-101523886D01*
X124094902Y-101430201D01*
X124100500Y-101409311D01*
X124100500Y-101290688D01*
X124069799Y-101176115D01*
X124069798Y-101176112D01*
X124022851Y-101094799D01*
X124010489Y-101073387D01*
X123926613Y-100989511D01*
X123823887Y-100930201D01*
X123823884Y-100930200D01*
X123709312Y-100899500D01*
X123709309Y-100899500D01*
X123590691Y-100899500D01*
X123590688Y-100899500D01*
X123476115Y-100930200D01*
X123476113Y-100930201D01*
X123450786Y-100944823D01*
X123413603Y-100949717D01*
X123383851Y-100926886D01*
X123378957Y-100889706D01*
X123399646Y-100812496D01*
X123400500Y-100809310D01*
X123400500Y-100690688D01*
X123369799Y-100576115D01*
X123369798Y-100576112D01*
X123337285Y-100519799D01*
X123310489Y-100473387D01*
X123226613Y-100389511D01*
X123192471Y-100369799D01*
X123123887Y-100330201D01*
X123123884Y-100330200D01*
X123009312Y-100299500D01*
X123009309Y-100299500D01*
X122890691Y-100299500D01*
X122890688Y-100299500D01*
X122776115Y-100330200D01*
X122776112Y-100330201D01*
X122673386Y-100389511D01*
X122673386Y-100389512D01*
X122589512Y-100473386D01*
X122589511Y-100473386D01*
X122530201Y-100576112D01*
X122530200Y-100576115D01*
X122499500Y-100690688D01*
X122499500Y-100809309D01*
X122499983Y-100811113D01*
X122499859Y-100812047D01*
X122499919Y-100812496D01*
X122499798Y-100812511D01*
X122495084Y-100848295D01*
X122487299Y-100858439D01*
X121560591Y-101785148D01*
X121525943Y-101799500D01*
X119673057Y-101799500D01*
X119638409Y-101785148D01*
X119624057Y-101750500D01*
X119638409Y-101715852D01*
X120544952Y-100809309D01*
X121465852Y-99888407D01*
X121500500Y-99874056D01*
X121535148Y-99888408D01*
X121549500Y-99923056D01*
X121549500Y-100009311D01*
X121580200Y-100123884D01*
X121580201Y-100123887D01*
X121625398Y-100202169D01*
X121639511Y-100226613D01*
X121723387Y-100310489D01*
X121826114Y-100369799D01*
X121851544Y-100376613D01*
X121940688Y-100400500D01*
X121940691Y-100400500D01*
X122059311Y-100400500D01*
X122116597Y-100385149D01*
X122173886Y-100369799D01*
X122276613Y-100310489D01*
X122360489Y-100226613D01*
X122361421Y-100224999D01*
X122362165Y-100224427D01*
X122362447Y-100224061D01*
X122362545Y-100224136D01*
X122391175Y-100202169D01*
X122403856Y-100200500D01*
X124725943Y-100200500D01*
X124760591Y-100214852D01*
X125112299Y-100566559D01*
X125126651Y-100601207D01*
X125124984Y-100613878D01*
X125124500Y-100615683D01*
X125124500Y-100734311D01*
X125155200Y-100848884D01*
X125155201Y-100848887D01*
X125160716Y-100858439D01*
X125214511Y-100951613D01*
X125298387Y-101035489D01*
X125401114Y-101094799D01*
X125429758Y-101102474D01*
X125515688Y-101125500D01*
X125515691Y-101125500D01*
X125634311Y-101125500D01*
X125691597Y-101110149D01*
X125748886Y-101094799D01*
X125851613Y-101035489D01*
X125935489Y-100951613D01*
X125994799Y-100848886D01*
X126010149Y-100791597D01*
X126025500Y-100734311D01*
X126025500Y-100615688D01*
X125994799Y-100501115D01*
X125994798Y-100501112D01*
X125950274Y-100423995D01*
X125935489Y-100398387D01*
X125851613Y-100314511D01*
X125844645Y-100310488D01*
X125748887Y-100255201D01*
X125748884Y-100255200D01*
X125634312Y-100224500D01*
X125634309Y-100224500D01*
X125515691Y-100224500D01*
X125515683Y-100224500D01*
X125513878Y-100224984D01*
X125512945Y-100224861D01*
X125512505Y-100224919D01*
X125512489Y-100224800D01*
X125476697Y-100220080D01*
X125466559Y-100212299D01*
X124991899Y-99737637D01*
X124899829Y-99699500D01*
X124899828Y-99699500D01*
X123555898Y-99699500D01*
X123521250Y-99685148D01*
X123506898Y-99650500D01*
X123521250Y-99615852D01*
X123560488Y-99576614D01*
X123560489Y-99576613D01*
X123619799Y-99473886D01*
X123647981Y-99368710D01*
X123650500Y-99359311D01*
X123650500Y-99240688D01*
X123619799Y-99126115D01*
X123619798Y-99126112D01*
X123562063Y-99026114D01*
X123560489Y-99023387D01*
X123476613Y-98939511D01*
X123449784Y-98924021D01*
X123373887Y-98880201D01*
X123373884Y-98880200D01*
X123259312Y-98849500D01*
X123259309Y-98849500D01*
X123140691Y-98849500D01*
X123140688Y-98849500D01*
X123026115Y-98880200D01*
X123026112Y-98880201D01*
X122923386Y-98939511D01*
X122923386Y-98939512D01*
X122839512Y-99023386D01*
X122839511Y-99023386D01*
X122780201Y-99126112D01*
X122780200Y-99126115D01*
X122749500Y-99240688D01*
X122749500Y-99359311D01*
X122780200Y-99473884D01*
X122780201Y-99473887D01*
X122839511Y-99576613D01*
X122878750Y-99615852D01*
X122893102Y-99650500D01*
X122878750Y-99685148D01*
X122844102Y-99699500D01*
X122403856Y-99699500D01*
X122369208Y-99685148D01*
X122361421Y-99675001D01*
X122360491Y-99673390D01*
X122360486Y-99673384D01*
X122276613Y-99589511D01*
X122173887Y-99530201D01*
X122173884Y-99530200D01*
X122059312Y-99499500D01*
X122059309Y-99499500D01*
X121940691Y-99499500D01*
X121940688Y-99499500D01*
X121826115Y-99530200D01*
X121826111Y-99530201D01*
X121724000Y-99589157D01*
X121686818Y-99594052D01*
X121657065Y-99571222D01*
X121650500Y-99546722D01*
X121650500Y-93350174D01*
X121650499Y-93350170D01*
X121645937Y-93339157D01*
X121612364Y-93258103D01*
X121612362Y-93258101D01*
X121612362Y-93258100D01*
X121541897Y-93187636D01*
X121044949Y-92690688D01*
X122299500Y-92690688D01*
X122299500Y-92809311D01*
X122330200Y-92923884D01*
X122330201Y-92923887D01*
X122389511Y-93026613D01*
X122473387Y-93110489D01*
X122576114Y-93169799D01*
X122599044Y-93175943D01*
X122690688Y-93200500D01*
X122690691Y-93200500D01*
X122809311Y-93200500D01*
X122866597Y-93185149D01*
X122923886Y-93169799D01*
X123026613Y-93110489D01*
X123110489Y-93026613D01*
X123169799Y-92923886D01*
X123189463Y-92850499D01*
X123200500Y-92809311D01*
X123200500Y-92690688D01*
X123169799Y-92576115D01*
X123169798Y-92576112D01*
X123110488Y-92473386D01*
X123026613Y-92389511D01*
X122923887Y-92330201D01*
X122923884Y-92330200D01*
X122809312Y-92299500D01*
X122809309Y-92299500D01*
X122690691Y-92299500D01*
X122690688Y-92299500D01*
X122576115Y-92330200D01*
X122576112Y-92330201D01*
X122473386Y-92389511D01*
X122473386Y-92389512D01*
X122389512Y-92473386D01*
X122389511Y-92473386D01*
X122330201Y-92576112D01*
X122330200Y-92576115D01*
X122299500Y-92690688D01*
X121044949Y-92690688D01*
X120462699Y-92108438D01*
X120448347Y-92073790D01*
X120450017Y-92061109D01*
X120450500Y-92059309D01*
X120450500Y-91940691D01*
X120450500Y-91940688D01*
X120419799Y-91826115D01*
X120419798Y-91826112D01*
X120372851Y-91744799D01*
X120360489Y-91723387D01*
X120276613Y-91639511D01*
X120216664Y-91604899D01*
X120173887Y-91580201D01*
X120173884Y-91580200D01*
X120059312Y-91549500D01*
X120059309Y-91549500D01*
X119940691Y-91549500D01*
X119940688Y-91549500D01*
X119826115Y-91580200D01*
X119826112Y-91580201D01*
X119723386Y-91639511D01*
X119723386Y-91639512D01*
X119639512Y-91723386D01*
X119639511Y-91723386D01*
X119580201Y-91826112D01*
X119580200Y-91826115D01*
X119549500Y-91940688D01*
X119549500Y-92059311D01*
X119580200Y-92173884D01*
X119580201Y-92173887D01*
X119622851Y-92247757D01*
X119639511Y-92276613D01*
X119723387Y-92360489D01*
X119826114Y-92419799D01*
X119854758Y-92427474D01*
X119940688Y-92450500D01*
X119940691Y-92450500D01*
X120059304Y-92450500D01*
X120059309Y-92450500D01*
X120061101Y-92450019D01*
X120062030Y-92450141D01*
X120062490Y-92450081D01*
X120062506Y-92450204D01*
X120098282Y-92454907D01*
X120108438Y-92462699D01*
X121135148Y-93489409D01*
X121149500Y-93524057D01*
X121149500Y-98931289D01*
X121135148Y-98965937D01*
X121100500Y-98980289D01*
X121065852Y-98965937D01*
X121058065Y-98955790D01*
X121040300Y-98925021D01*
X121010489Y-98873387D01*
X120926613Y-98789511D01*
X120823887Y-98730201D01*
X120823884Y-98730200D01*
X120709312Y-98699500D01*
X120709309Y-98699500D01*
X120590691Y-98699500D01*
X120590685Y-98699500D01*
X120588883Y-98699983D01*
X120587951Y-98699860D01*
X120587504Y-98699919D01*
X120587488Y-98699799D01*
X120551702Y-98695083D01*
X120541560Y-98687299D01*
X120241899Y-98387637D01*
X120149829Y-98349500D01*
X120149828Y-98349500D01*
X118449828Y-98349500D01*
X117900172Y-98349500D01*
X117900170Y-98349500D01*
X117808101Y-98387637D01*
X117808100Y-98387637D01*
X117737636Y-98458103D01*
X117210591Y-98985148D01*
X117175943Y-98999500D01*
X113653856Y-98999500D01*
X113619208Y-98985148D01*
X113611421Y-98975001D01*
X113610491Y-98973390D01*
X113610486Y-98973384D01*
X113526613Y-98889511D01*
X113423887Y-98830201D01*
X113423884Y-98830200D01*
X113309312Y-98799500D01*
X113309309Y-98799500D01*
X113190691Y-98799500D01*
X113190688Y-98799500D01*
X113076115Y-98830200D01*
X113076112Y-98830201D01*
X113072997Y-98832000D01*
X113035815Y-98836893D01*
X113006063Y-98814060D01*
X112999500Y-98789563D01*
X112999500Y-97377329D01*
X113013852Y-97342681D01*
X113035814Y-97329999D01*
X113073886Y-97319799D01*
X113176613Y-97260489D01*
X113246414Y-97190688D01*
X114299500Y-97190688D01*
X114299500Y-97309311D01*
X114330200Y-97423884D01*
X114330201Y-97423887D01*
X114387648Y-97523386D01*
X114389511Y-97526613D01*
X114473387Y-97610489D01*
X114576114Y-97669799D01*
X114603440Y-97677121D01*
X114690688Y-97700500D01*
X114690691Y-97700500D01*
X114809311Y-97700500D01*
X114866597Y-97685149D01*
X114923886Y-97669799D01*
X115026613Y-97610489D01*
X115110489Y-97526613D01*
X115169799Y-97423886D01*
X115194902Y-97330201D01*
X115200500Y-97309311D01*
X115200500Y-97190688D01*
X117049500Y-97190688D01*
X117049500Y-97309311D01*
X117080200Y-97423884D01*
X117080201Y-97423887D01*
X117137648Y-97523386D01*
X117139511Y-97526613D01*
X117223387Y-97610489D01*
X117326114Y-97669799D01*
X117353440Y-97677121D01*
X117440688Y-97700500D01*
X117440691Y-97700500D01*
X117559311Y-97700500D01*
X117616597Y-97685149D01*
X117673886Y-97669799D01*
X117776613Y-97610489D01*
X117860489Y-97526613D01*
X117919799Y-97423886D01*
X117944902Y-97330201D01*
X117950500Y-97309311D01*
X117950500Y-97190688D01*
X117923494Y-97089904D01*
X117919799Y-97076114D01*
X117918511Y-97073884D01*
X117880029Y-97007231D01*
X117860489Y-96973387D01*
X117776613Y-96889511D01*
X117673887Y-96830201D01*
X117673884Y-96830200D01*
X117559312Y-96799500D01*
X117559309Y-96799500D01*
X117440691Y-96799500D01*
X117440688Y-96799500D01*
X117326115Y-96830200D01*
X117326112Y-96830201D01*
X117223386Y-96889511D01*
X117223386Y-96889512D01*
X117139512Y-96973386D01*
X117139511Y-96973386D01*
X117080201Y-97076112D01*
X117080200Y-97076115D01*
X117049500Y-97190688D01*
X115200500Y-97190688D01*
X115173494Y-97089904D01*
X115169799Y-97076114D01*
X115168511Y-97073884D01*
X115130029Y-97007231D01*
X115110489Y-96973387D01*
X115026613Y-96889511D01*
X114923887Y-96830201D01*
X114923884Y-96830200D01*
X114809312Y-96799500D01*
X114809309Y-96799500D01*
X114690691Y-96799500D01*
X114690688Y-96799500D01*
X114576115Y-96830200D01*
X114576112Y-96830201D01*
X114473386Y-96889511D01*
X114473386Y-96889512D01*
X114389512Y-96973386D01*
X114389511Y-96973386D01*
X114330201Y-97076112D01*
X114330200Y-97076115D01*
X114299500Y-97190688D01*
X113246414Y-97190688D01*
X113260489Y-97176613D01*
X113319799Y-97073886D01*
X113337659Y-97007231D01*
X113350500Y-96959311D01*
X113350500Y-96840688D01*
X113319799Y-96726115D01*
X113319798Y-96726112D01*
X113276180Y-96650564D01*
X113260489Y-96623387D01*
X113176613Y-96539511D01*
X113130683Y-96512993D01*
X113073887Y-96480201D01*
X113073884Y-96480200D01*
X112959312Y-96449500D01*
X112959309Y-96449500D01*
X112840691Y-96449500D01*
X112840688Y-96449500D01*
X112726115Y-96480200D01*
X112726112Y-96480201D01*
X112623386Y-96539511D01*
X112623386Y-96539512D01*
X112539512Y-96623386D01*
X112539511Y-96623386D01*
X112480201Y-96726112D01*
X112480200Y-96726115D01*
X112449500Y-96840688D01*
X112449500Y-96959312D01*
X112480199Y-97073882D01*
X112480200Y-97073884D01*
X112480201Y-97073886D01*
X112491935Y-97094210D01*
X112498500Y-97118709D01*
X112498500Y-99798829D01*
X112511459Y-99830115D01*
X112536636Y-99890897D01*
X112536637Y-99890898D01*
X112536637Y-99890899D01*
X112687636Y-100041897D01*
X112758100Y-100112362D01*
X112758101Y-100112362D01*
X112758103Y-100112364D01*
X112850172Y-100150500D01*
X113893737Y-100150500D01*
X113920249Y-100159500D01*
X113920606Y-100158883D01*
X113923386Y-100160488D01*
X113923387Y-100160489D01*
X113975693Y-100190688D01*
X114017545Y-100214852D01*
X114026114Y-100219799D01*
X114044778Y-100224800D01*
X114140688Y-100250500D01*
X114140691Y-100250500D01*
X114259311Y-100250500D01*
X114327217Y-100232304D01*
X114373886Y-100219799D01*
X114476613Y-100160489D01*
X114560489Y-100076613D01*
X114619799Y-99973886D01*
X114639441Y-99900582D01*
X114650500Y-99859311D01*
X114650500Y-99740688D01*
X114625618Y-99647830D01*
X114619799Y-99626114D01*
X114619798Y-99626113D01*
X114619798Y-99626111D01*
X114589711Y-99574000D01*
X114584816Y-99536818D01*
X114607646Y-99507065D01*
X114632146Y-99500500D01*
X117318421Y-99500500D01*
X117353069Y-99514852D01*
X117367421Y-99549500D01*
X117353069Y-99584148D01*
X117107103Y-99830115D01*
X117036637Y-99900579D01*
X117036637Y-99900580D01*
X116998500Y-99992649D01*
X116998500Y-100026942D01*
X116984148Y-100061590D01*
X115797872Y-101247865D01*
X115763224Y-101262217D01*
X115750542Y-101260548D01*
X115735656Y-101256559D01*
X115709309Y-101249500D01*
X115590691Y-101249500D01*
X115590688Y-101249500D01*
X115476115Y-101280200D01*
X115476112Y-101280201D01*
X115373386Y-101339511D01*
X115373386Y-101339512D01*
X115289512Y-101423386D01*
X115289511Y-101423386D01*
X115230201Y-101526112D01*
X115230200Y-101526115D01*
X115199500Y-101640688D01*
X115199500Y-101759311D01*
X115230200Y-101873884D01*
X115230201Y-101873888D01*
X115260289Y-101926000D01*
X115265184Y-101963182D01*
X115242354Y-101992935D01*
X115217854Y-101999500D01*
X111799500Y-101999500D01*
X111764852Y-101985148D01*
X111750500Y-101950500D01*
X111750500Y-101940688D01*
X111719799Y-101826115D01*
X111719798Y-101826112D01*
X111690903Y-101776065D01*
X111660489Y-101723387D01*
X111576613Y-101639511D01*
X111554273Y-101626613D01*
X111473887Y-101580201D01*
X111473884Y-101580200D01*
X111359312Y-101549500D01*
X111359309Y-101549500D01*
X111240691Y-101549500D01*
X111240688Y-101549500D01*
X111126115Y-101580200D01*
X111126112Y-101580201D01*
X111023386Y-101639511D01*
X111023386Y-101639512D01*
X110939512Y-101723386D01*
X110939511Y-101723386D01*
X110880201Y-101826112D01*
X110880200Y-101826115D01*
X110849500Y-101940688D01*
X110849500Y-102059310D01*
X110851923Y-102068355D01*
X110847026Y-102105537D01*
X110817272Y-102128366D01*
X110780090Y-102123469D01*
X110769944Y-102115683D01*
X110262699Y-101608438D01*
X110248347Y-101573790D01*
X110250017Y-101561109D01*
X110250500Y-101559309D01*
X110250500Y-101440691D01*
X110250500Y-101440688D01*
X110219799Y-101326115D01*
X110219798Y-101326112D01*
X110193290Y-101280200D01*
X110160489Y-101223387D01*
X110076613Y-101139511D01*
X109973887Y-101080201D01*
X109973884Y-101080200D01*
X109859312Y-101049500D01*
X109859309Y-101049500D01*
X109740691Y-101049500D01*
X109740688Y-101049500D01*
X109626115Y-101080200D01*
X109626112Y-101080201D01*
X109523386Y-101139511D01*
X109523386Y-101139512D01*
X109439512Y-101223386D01*
X109439511Y-101223386D01*
X109380201Y-101326112D01*
X109380200Y-101326115D01*
X109349500Y-101440688D01*
X108853470Y-101440688D01*
X105796930Y-98384148D01*
X105782578Y-98349500D01*
X105796930Y-98314852D01*
X105831578Y-98300500D01*
X105909311Y-98300500D01*
X105966597Y-98285149D01*
X106023886Y-98269799D01*
X106126613Y-98210489D01*
X106210489Y-98126613D01*
X106269799Y-98023886D01*
X106296595Y-97923884D01*
X106300500Y-97909311D01*
X106300500Y-97790688D01*
X106269799Y-97676115D01*
X106269798Y-97676112D01*
X106240930Y-97626112D01*
X106210489Y-97573387D01*
X106126613Y-97489511D01*
X106098684Y-97473386D01*
X106023887Y-97430201D01*
X106023884Y-97430200D01*
X105909312Y-97399500D01*
X105909309Y-97399500D01*
X105790691Y-97399500D01*
X105790688Y-97399500D01*
X105676115Y-97430200D01*
X105676112Y-97430201D01*
X105573386Y-97489511D01*
X105573386Y-97489512D01*
X105489512Y-97573386D01*
X105489511Y-97573386D01*
X105430201Y-97676112D01*
X105430200Y-97676115D01*
X105399500Y-97790688D01*
X105399500Y-97868421D01*
X105385148Y-97903069D01*
X105350500Y-97917421D01*
X105315852Y-97903069D01*
X103099421Y-95686638D01*
X103099419Y-95686637D01*
X103099418Y-95686636D01*
X103045486Y-95664296D01*
X103007350Y-95648500D01*
X103007349Y-95648500D01*
X102386039Y-95648500D01*
X102361540Y-95641935D01*
X102323639Y-95620053D01*
X102323638Y-95620052D01*
X102323637Y-95620052D01*
X102209065Y-95589352D01*
X102209062Y-95589352D01*
X102090444Y-95589352D01*
X102090441Y-95589352D01*
X101975868Y-95620052D01*
X101975865Y-95620053D01*
X101873139Y-95679363D01*
X101873139Y-95679364D01*
X101789265Y-95763238D01*
X101789264Y-95763238D01*
X101729954Y-95865964D01*
X101729953Y-95865967D01*
X101699253Y-95980540D01*
X101073721Y-95980540D01*
X101074061Y-95980200D01*
X101111579Y-95942683D01*
X101112362Y-95941900D01*
X101112362Y-95941899D01*
X101112364Y-95941897D01*
X101150500Y-95849828D01*
X101150500Y-94103277D01*
X101164852Y-94068629D01*
X101199500Y-94054277D01*
X101223996Y-94060840D01*
X101326114Y-94119799D01*
X101354758Y-94127474D01*
X101440688Y-94150500D01*
X101440691Y-94150500D01*
X101559311Y-94150500D01*
X101616597Y-94135149D01*
X101673886Y-94119799D01*
X101776613Y-94060489D01*
X101860489Y-93976613D01*
X101919799Y-93873886D01*
X101945775Y-93776943D01*
X101950500Y-93759311D01*
X101950500Y-93640688D01*
X101919933Y-93526614D01*
X101919799Y-93526114D01*
X101918611Y-93524057D01*
X101898607Y-93489408D01*
X101860489Y-93423387D01*
X101776613Y-93339511D01*
X101724306Y-93309311D01*
X101673887Y-93280201D01*
X101673884Y-93280200D01*
X101559312Y-93249500D01*
X101559309Y-93249500D01*
X101440691Y-93249500D01*
X101440688Y-93249500D01*
X101326115Y-93280200D01*
X101326111Y-93280201D01*
X101224000Y-93339157D01*
X101186818Y-93344052D01*
X101157065Y-93321222D01*
X101150500Y-93296722D01*
X101150500Y-92424056D01*
X101164852Y-92389408D01*
X101613572Y-91940688D01*
X102113527Y-91440732D01*
X102148174Y-91426381D01*
X102182822Y-91440733D01*
X102195504Y-91462698D01*
X102205201Y-91498886D01*
X102205201Y-91498887D01*
X102217982Y-91521024D01*
X102264511Y-91601613D01*
X102348387Y-91685489D01*
X102451114Y-91744799D01*
X102479758Y-91752474D01*
X102565688Y-91775500D01*
X102565691Y-91775500D01*
X102684311Y-91775500D01*
X102741597Y-91760149D01*
X102798886Y-91744799D01*
X102901613Y-91685489D01*
X102985489Y-91601613D01*
X103044799Y-91498886D01*
X103066394Y-91418294D01*
X103075500Y-91384311D01*
X103075500Y-91265693D01*
X103075500Y-91265691D01*
X103075018Y-91263893D01*
X103075140Y-91262962D01*
X103075081Y-91262510D01*
X103075202Y-91262494D01*
X103075881Y-91257327D01*
X103073347Y-91251208D01*
X103078240Y-91239393D01*
X103079909Y-91226712D01*
X103087695Y-91216564D01*
X103119161Y-91185098D01*
X117562673Y-91185098D01*
X117562673Y-91303721D01*
X117593373Y-91418294D01*
X117593374Y-91418297D01*
X117639902Y-91498884D01*
X117652684Y-91521023D01*
X117736560Y-91604899D01*
X117839287Y-91664209D01*
X117867931Y-91671884D01*
X117953861Y-91694910D01*
X117953864Y-91694910D01*
X118072484Y-91694910D01*
X118129770Y-91679559D01*
X118187059Y-91664209D01*
X118289786Y-91604899D01*
X118373662Y-91521023D01*
X118432972Y-91418296D01*
X118448322Y-91361007D01*
X118463673Y-91303721D01*
X118463673Y-91185098D01*
X118432972Y-91070525D01*
X118432971Y-91070522D01*
X118414020Y-91037699D01*
X118373662Y-90967797D01*
X118289786Y-90883921D01*
X118286985Y-90882304D01*
X118187060Y-90824611D01*
X118187057Y-90824610D01*
X118072485Y-90793910D01*
X118072482Y-90793910D01*
X117953864Y-90793910D01*
X117953861Y-90793910D01*
X117839288Y-90824610D01*
X117839285Y-90824611D01*
X117736559Y-90883921D01*
X117736559Y-90883922D01*
X117652685Y-90967796D01*
X117652684Y-90967796D01*
X117593374Y-91070522D01*
X117593373Y-91070525D01*
X117562673Y-91185098D01*
X103119161Y-91185098D01*
X108563572Y-85740688D01*
X117949500Y-85740688D01*
X117949500Y-85859311D01*
X117980200Y-85973884D01*
X117980201Y-85973887D01*
X118039511Y-86076613D01*
X118123387Y-86160489D01*
X118226114Y-86219799D01*
X118254758Y-86227474D01*
X118340688Y-86250500D01*
X118340691Y-86250500D01*
X118459311Y-86250500D01*
X118516597Y-86235149D01*
X118573886Y-86219799D01*
X118676613Y-86160489D01*
X118760489Y-86076613D01*
X118819799Y-85973886D01*
X118835149Y-85916597D01*
X118850500Y-85859311D01*
X118850500Y-85740688D01*
X118819799Y-85626115D01*
X118819798Y-85626112D01*
X118760488Y-85523386D01*
X118676613Y-85439511D01*
X118573887Y-85380201D01*
X118573884Y-85380200D01*
X118459312Y-85349500D01*
X118459309Y-85349500D01*
X118340691Y-85349500D01*
X118340688Y-85349500D01*
X118226115Y-85380200D01*
X118226112Y-85380201D01*
X118123386Y-85439511D01*
X118123386Y-85439512D01*
X118039512Y-85523386D01*
X118039511Y-85523386D01*
X117980201Y-85626112D01*
X117980200Y-85626115D01*
X117949500Y-85740688D01*
X108563572Y-85740688D01*
X111289408Y-83014852D01*
X111324056Y-83000500D01*
X112404820Y-83000500D01*
X112448722Y-82991767D01*
X112498504Y-82958504D01*
X112531767Y-82908722D01*
X112540500Y-82864820D01*
X112540500Y-81135180D01*
X112531767Y-81091278D01*
X112498504Y-81041495D01*
X112448721Y-81008232D01*
X112404823Y-80999500D01*
X112404820Y-80999500D01*
X110675180Y-80999500D01*
X110675176Y-80999500D01*
X110631278Y-81008232D01*
X110581495Y-81041495D01*
X110548232Y-81091278D01*
X110539500Y-81135176D01*
X110539500Y-82864823D01*
X110548232Y-82908721D01*
X110581480Y-82958482D01*
X110588796Y-82995264D01*
X110575386Y-83020352D01*
X108334148Y-85261591D01*
X108299500Y-85275943D01*
X108264852Y-85261591D01*
X108250500Y-85226943D01*
X108250500Y-83049500D01*
X108264852Y-83014852D01*
X108299500Y-83000500D01*
X108864820Y-83000500D01*
X108908722Y-82991767D01*
X108958504Y-82958504D01*
X108991767Y-82908722D01*
X109000500Y-82864820D01*
X109000500Y-81135180D01*
X108991767Y-81091278D01*
X108958504Y-81041495D01*
X108908721Y-81008232D01*
X108864823Y-80999500D01*
X108864820Y-80999500D01*
X107135180Y-80999500D01*
X107135176Y-80999500D01*
X107091278Y-81008232D01*
X107041495Y-81041495D01*
X107008232Y-81091278D01*
X106999500Y-81135176D01*
X106999500Y-82864823D01*
X107008232Y-82908721D01*
X107041495Y-82958504D01*
X107074909Y-82980830D01*
X107091278Y-82991767D01*
X107135180Y-83000500D01*
X107700500Y-83000500D01*
X107735148Y-83014852D01*
X107749500Y-83049500D01*
X107749500Y-85175943D01*
X107735148Y-85210591D01*
X104660591Y-88285148D01*
X104625943Y-88299500D01*
X104600170Y-88299500D01*
X104508101Y-88337637D01*
X104508100Y-88337637D01*
X104437636Y-88408103D01*
X104437635Y-88408104D01*
X100751211Y-92094527D01*
X100734148Y-92111590D01*
X100699500Y-92125942D01*
X100664852Y-92111590D01*
X100650500Y-92076942D01*
X100650500Y-90350174D01*
X100650499Y-90350170D01*
X100639175Y-90322831D01*
X100612364Y-90258103D01*
X100612362Y-90258101D01*
X100612362Y-90258100D01*
X100539107Y-90184846D01*
X100539100Y-90184840D01*
X96526388Y-86172127D01*
X96494949Y-86140688D01*
X99549500Y-86140688D01*
X99549500Y-86259311D01*
X99580200Y-86373884D01*
X99580201Y-86373887D01*
X99639511Y-86476613D01*
X99723387Y-86560489D01*
X99826114Y-86619799D01*
X99854758Y-86627474D01*
X99940688Y-86650500D01*
X99940691Y-86650500D01*
X100059311Y-86650500D01*
X100116597Y-86635149D01*
X100173886Y-86619799D01*
X100276613Y-86560489D01*
X100360489Y-86476613D01*
X100419799Y-86373886D01*
X100435149Y-86316597D01*
X100450500Y-86259311D01*
X100450500Y-86140688D01*
X100419799Y-86026115D01*
X100419798Y-86026112D01*
X100360488Y-85923386D01*
X100276613Y-85839511D01*
X100173889Y-85780202D01*
X100173884Y-85780200D01*
X100059312Y-85749500D01*
X100059309Y-85749500D01*
X99940691Y-85749500D01*
X99940688Y-85749500D01*
X99826115Y-85780200D01*
X99826112Y-85780201D01*
X99723386Y-85839511D01*
X99723386Y-85839512D01*
X99639512Y-85923386D01*
X99639511Y-85923386D01*
X99580201Y-86026112D01*
X99580200Y-86026115D01*
X99549500Y-86140688D01*
X96494949Y-86140688D01*
X96094949Y-85740688D01*
X104449500Y-85740688D01*
X104449500Y-85859311D01*
X104480200Y-85973884D01*
X104480201Y-85973887D01*
X104539511Y-86076613D01*
X104623387Y-86160489D01*
X104726114Y-86219799D01*
X104754758Y-86227474D01*
X104840688Y-86250500D01*
X104840691Y-86250500D01*
X104959311Y-86250500D01*
X105016597Y-86235149D01*
X105073886Y-86219799D01*
X105176613Y-86160489D01*
X105260489Y-86076613D01*
X105319799Y-85973886D01*
X105335149Y-85916597D01*
X105350500Y-85859311D01*
X105350500Y-85740688D01*
X105319799Y-85626115D01*
X105319798Y-85626112D01*
X105260488Y-85523386D01*
X105176613Y-85439511D01*
X105073887Y-85380201D01*
X105073884Y-85380200D01*
X104959312Y-85349500D01*
X104959309Y-85349500D01*
X104840691Y-85349500D01*
X104840688Y-85349500D01*
X104726115Y-85380200D01*
X104726112Y-85380201D01*
X104623386Y-85439511D01*
X104623386Y-85439512D01*
X104539512Y-85523386D01*
X104539511Y-85523386D01*
X104480201Y-85626112D01*
X104480200Y-85626115D01*
X104449500Y-85740688D01*
X96094949Y-85740688D01*
X93014852Y-82660591D01*
X93000500Y-82625943D01*
X93000500Y-81135180D01*
X93000499Y-81135176D01*
X92991767Y-81091278D01*
X92958504Y-81041495D01*
X92908721Y-81008232D01*
X92864823Y-80999500D01*
X92864820Y-80999500D01*
X91135180Y-80999500D01*
X91135176Y-80999500D01*
X91091278Y-81008232D01*
X91041495Y-81041495D01*
X91008232Y-81091278D01*
X90999500Y-81135176D01*
X90999500Y-82864823D01*
X91008232Y-82908721D01*
X91041495Y-82958504D01*
X91074909Y-82980830D01*
X91091278Y-82991767D01*
X91135180Y-83000500D01*
X92625943Y-83000500D01*
X92660591Y-83014852D01*
X100135148Y-90489408D01*
X100149500Y-90524056D01*
X100149500Y-93126943D01*
X100135148Y-93161591D01*
X100100500Y-93175943D01*
X100065852Y-93161591D01*
X89474852Y-82570591D01*
X89460500Y-82535943D01*
X89460500Y-81135180D01*
X89460499Y-81135176D01*
X89451767Y-81091278D01*
X89418504Y-81041495D01*
X89368721Y-81008232D01*
X89324823Y-80999500D01*
X89324820Y-80999500D01*
X87595180Y-80999500D01*
X87595176Y-80999500D01*
X87551278Y-81008232D01*
X87501495Y-81041495D01*
X87468232Y-81091278D01*
X87459500Y-81135176D01*
X87459500Y-82864823D01*
X87468232Y-82908721D01*
X87501495Y-82958504D01*
X87534909Y-82980830D01*
X87551278Y-82991767D01*
X87595180Y-83000500D01*
X89175943Y-83000500D01*
X89210591Y-83014852D01*
X99685148Y-93489408D01*
X99699500Y-93524056D01*
X99699500Y-94026942D01*
X99685148Y-94061590D01*
X99650500Y-94075942D01*
X99615852Y-94061590D01*
X97941900Y-92387638D01*
X97941898Y-92387637D01*
X97941897Y-92387636D01*
X97876356Y-92360488D01*
X97849829Y-92349500D01*
X97849828Y-92349500D01*
X78024057Y-92349500D01*
X77989409Y-92335148D01*
X75126389Y-89472127D01*
X75094950Y-89440688D01*
X81299500Y-89440688D01*
X81299500Y-89559311D01*
X81330200Y-89673884D01*
X81330201Y-89673887D01*
X81362545Y-89729907D01*
X81389511Y-89776613D01*
X81473387Y-89860489D01*
X81576114Y-89919799D01*
X81604758Y-89927474D01*
X81690688Y-89950500D01*
X81690691Y-89950500D01*
X81809311Y-89950500D01*
X81866597Y-89935149D01*
X81923886Y-89919799D01*
X82026613Y-89860489D01*
X82110489Y-89776613D01*
X82169799Y-89673886D01*
X82185149Y-89616597D01*
X82200500Y-89559311D01*
X82200500Y-89440688D01*
X82171995Y-89334309D01*
X82169799Y-89326114D01*
X82110489Y-89223387D01*
X82026613Y-89139511D01*
X81960110Y-89101115D01*
X81923887Y-89080201D01*
X81923884Y-89080200D01*
X81809312Y-89049500D01*
X81809309Y-89049500D01*
X81690691Y-89049500D01*
X81690688Y-89049500D01*
X81576115Y-89080200D01*
X81576112Y-89080201D01*
X81473386Y-89139511D01*
X81473386Y-89139512D01*
X81389512Y-89223386D01*
X81389511Y-89223386D01*
X81330201Y-89326112D01*
X81330200Y-89326115D01*
X81299500Y-89440688D01*
X75094950Y-89440688D01*
X73591900Y-87937638D01*
X73591898Y-87937637D01*
X73591897Y-87937636D01*
X73537965Y-87915296D01*
X73499829Y-87899500D01*
X73499828Y-87899500D01*
X71149828Y-87899500D01*
X71050172Y-87899500D01*
X71050170Y-87899500D01*
X70958101Y-87937637D01*
X70958100Y-87937637D01*
X70208103Y-88687636D01*
X70137637Y-88758100D01*
X70137637Y-88758101D01*
X70099500Y-88850170D01*
X64080688Y-88850170D01*
X64080769Y-88849909D01*
X64454087Y-87712758D01*
X64454597Y-87711287D01*
X64863998Y-86586623D01*
X64864521Y-86585252D01*
X65202844Y-85740688D01*
X84949500Y-85740688D01*
X84949500Y-85859311D01*
X84980200Y-85973884D01*
X84980201Y-85973887D01*
X85039511Y-86076613D01*
X85123387Y-86160489D01*
X85226114Y-86219799D01*
X85254758Y-86227474D01*
X85340688Y-86250500D01*
X85340691Y-86250500D01*
X85459311Y-86250500D01*
X85516597Y-86235149D01*
X85573886Y-86219799D01*
X85676613Y-86160489D01*
X85760489Y-86076613D01*
X85819799Y-85973886D01*
X85835149Y-85916597D01*
X85850500Y-85859311D01*
X85850500Y-85740688D01*
X85819799Y-85626115D01*
X85819798Y-85626112D01*
X85760488Y-85523386D01*
X85676613Y-85439511D01*
X85573887Y-85380201D01*
X85573884Y-85380200D01*
X85459312Y-85349500D01*
X85459309Y-85349500D01*
X85340691Y-85349500D01*
X85340688Y-85349500D01*
X85226115Y-85380200D01*
X85226112Y-85380201D01*
X85123386Y-85439511D01*
X85123386Y-85439512D01*
X85039512Y-85523386D01*
X85039511Y-85523386D01*
X84980201Y-85626112D01*
X84980200Y-85626115D01*
X84949500Y-85740688D01*
X65202844Y-85740688D01*
X65309602Y-85474185D01*
X65310162Y-85472847D01*
X65790460Y-84376533D01*
X65791101Y-84375132D01*
X65803710Y-84348681D01*
X66306102Y-83294740D01*
X66306735Y-83293463D01*
X66855971Y-82229983D01*
X66856701Y-82228625D01*
X67439531Y-81183289D01*
X67440266Y-81182018D01*
X68056172Y-80155758D01*
X68056946Y-80154513D01*
X68705289Y-79148397D01*
X68706119Y-79147154D01*
X68917738Y-78840688D01*
X79749500Y-78840688D01*
X79749500Y-78959311D01*
X79780200Y-79073884D01*
X79780201Y-79073887D01*
X79837935Y-79173884D01*
X79839511Y-79176613D01*
X79923387Y-79260489D01*
X80026114Y-79319799D01*
X80046250Y-79325194D01*
X80055488Y-79327670D01*
X80085240Y-79350500D01*
X80090135Y-79387683D01*
X80067305Y-79417435D01*
X80055488Y-79422330D01*
X80026113Y-79430201D01*
X80026112Y-79430201D01*
X79923386Y-79489511D01*
X79923386Y-79489512D01*
X79839512Y-79573386D01*
X79839511Y-79573386D01*
X79780201Y-79676112D01*
X79780200Y-79676115D01*
X79749500Y-79790688D01*
X79749500Y-79909311D01*
X79780200Y-80023884D01*
X79780201Y-80023887D01*
X79822865Y-80097781D01*
X79839511Y-80126613D01*
X79923387Y-80210489D01*
X80026114Y-80269799D01*
X80051544Y-80276613D01*
X80140688Y-80300500D01*
X80140691Y-80300500D01*
X80259311Y-80300500D01*
X80316597Y-80285149D01*
X80373886Y-80269799D01*
X80476613Y-80210489D01*
X80560489Y-80126613D01*
X80619799Y-80023886D01*
X80643907Y-79933914D01*
X80650500Y-79909311D01*
X80650500Y-79790688D01*
X80619799Y-79676115D01*
X80619798Y-79676112D01*
X80564423Y-79580201D01*
X80560489Y-79573387D01*
X80476613Y-79489511D01*
X80409045Y-79450500D01*
X80373887Y-79430201D01*
X80373884Y-79430200D01*
X80344512Y-79422330D01*
X80340566Y-79419302D01*
X80335601Y-79418986D01*
X80326129Y-79408224D01*
X80314759Y-79399500D01*
X80314109Y-79394568D01*
X80310823Y-79390834D01*
X80311734Y-79376527D01*
X80309864Y-79362318D01*
X80310526Y-79361455D01*
X87459500Y-79361455D01*
X87459500Y-79558544D01*
X87497947Y-79751827D01*
X87497949Y-79751836D01*
X87563176Y-79909309D01*
X87573368Y-79933914D01*
X87633484Y-80023884D01*
X87657155Y-80059311D01*
X87682861Y-80097782D01*
X87822218Y-80237139D01*
X87986086Y-80346632D01*
X88168165Y-80422051D01*
X88361459Y-80460500D01*
X88558541Y-80460500D01*
X88751835Y-80422051D01*
X88933914Y-80346632D01*
X89097782Y-80237139D01*
X89237139Y-80097782D01*
X89346632Y-79933914D01*
X89422051Y-79751835D01*
X89460500Y-79558541D01*
X89460500Y-79361459D01*
X89460499Y-79361455D01*
X90999500Y-79361455D01*
X90999500Y-79558544D01*
X91037947Y-79751827D01*
X91037949Y-79751836D01*
X91103176Y-79909309D01*
X91113368Y-79933914D01*
X91173484Y-80023884D01*
X91197155Y-80059311D01*
X91222861Y-80097782D01*
X91362218Y-80237139D01*
X91526086Y-80346632D01*
X91708165Y-80422051D01*
X91901459Y-80460500D01*
X92098541Y-80460500D01*
X92291835Y-80422051D01*
X92473914Y-80346632D01*
X92637782Y-80237139D01*
X92777139Y-80097782D01*
X92882106Y-79940688D01*
X99549500Y-79940688D01*
X99549500Y-80059311D01*
X99580200Y-80173884D01*
X99580201Y-80173887D01*
X99601333Y-80210488D01*
X99639511Y-80276613D01*
X99723387Y-80360489D01*
X99826114Y-80419799D01*
X99854758Y-80427474D01*
X99940688Y-80450500D01*
X99940691Y-80450500D01*
X100059311Y-80450500D01*
X100116597Y-80435149D01*
X100173886Y-80419799D01*
X100276613Y-80360489D01*
X100360489Y-80276613D01*
X100419799Y-80173886D01*
X100440191Y-80097782D01*
X100450500Y-80059311D01*
X100450500Y-79940688D01*
X100419799Y-79826115D01*
X100419798Y-79826112D01*
X100376914Y-79751836D01*
X100360489Y-79723387D01*
X100276613Y-79639511D01*
X100173887Y-79580201D01*
X100173884Y-79580200D01*
X100059312Y-79549500D01*
X100059309Y-79549500D01*
X99940691Y-79549500D01*
X99940688Y-79549500D01*
X99826115Y-79580200D01*
X99826112Y-79580201D01*
X99723386Y-79639511D01*
X99723386Y-79639512D01*
X99639512Y-79723386D01*
X99639511Y-79723386D01*
X99580201Y-79826112D01*
X99580200Y-79826115D01*
X99549500Y-79940688D01*
X92882106Y-79940688D01*
X92886632Y-79933914D01*
X92962051Y-79751835D01*
X93000500Y-79558541D01*
X93000500Y-79361459D01*
X92962051Y-79168165D01*
X92886632Y-78986086D01*
X92856298Y-78940688D01*
X99549500Y-78940688D01*
X99549500Y-79059311D01*
X99580200Y-79173884D01*
X99580201Y-79173887D01*
X99630201Y-79260488D01*
X99639511Y-79276613D01*
X99723387Y-79360489D01*
X99826114Y-79419799D01*
X99835560Y-79422330D01*
X99940688Y-79450500D01*
X99940691Y-79450500D01*
X100059311Y-79450500D01*
X100135069Y-79430200D01*
X100173886Y-79419799D01*
X100274940Y-79361455D01*
X106999500Y-79361455D01*
X106999500Y-79558544D01*
X107037947Y-79751827D01*
X107037949Y-79751836D01*
X107103176Y-79909309D01*
X107113368Y-79933914D01*
X107173484Y-80023884D01*
X107197155Y-80059311D01*
X107222861Y-80097782D01*
X107362218Y-80237139D01*
X107526086Y-80346632D01*
X107708165Y-80422051D01*
X107901459Y-80460500D01*
X108098541Y-80460500D01*
X108291835Y-80422051D01*
X108473914Y-80346632D01*
X108637782Y-80237139D01*
X108777139Y-80097782D01*
X108886632Y-79933914D01*
X108962051Y-79751835D01*
X109000500Y-79558541D01*
X109000500Y-79361459D01*
X109000499Y-79361455D01*
X110539500Y-79361455D01*
X110539500Y-79558544D01*
X110577947Y-79751827D01*
X110577949Y-79751836D01*
X110643176Y-79909309D01*
X110653368Y-79933914D01*
X110713484Y-80023884D01*
X110737155Y-80059311D01*
X110762861Y-80097782D01*
X110902218Y-80237139D01*
X111066086Y-80346632D01*
X111248165Y-80422051D01*
X111441459Y-80460500D01*
X111638541Y-80460500D01*
X111831835Y-80422051D01*
X112013914Y-80346632D01*
X112177782Y-80237139D01*
X112317139Y-80097782D01*
X112426632Y-79933914D01*
X112502051Y-79751835D01*
X112540500Y-79558541D01*
X112540500Y-79361459D01*
X112502051Y-79168165D01*
X112426632Y-78986086D01*
X112329480Y-78840688D01*
X119349500Y-78840688D01*
X119349500Y-78959311D01*
X119380200Y-79073884D01*
X119380201Y-79073887D01*
X119437935Y-79173884D01*
X119439511Y-79176613D01*
X119523387Y-79260489D01*
X119626114Y-79319799D01*
X119646250Y-79325194D01*
X119655488Y-79327670D01*
X119685240Y-79350500D01*
X119690135Y-79387683D01*
X119667305Y-79417435D01*
X119655488Y-79422330D01*
X119626113Y-79430201D01*
X119626112Y-79430201D01*
X119523386Y-79489511D01*
X119523386Y-79489512D01*
X119439512Y-79573386D01*
X119439511Y-79573386D01*
X119380201Y-79676112D01*
X119380200Y-79676115D01*
X119349500Y-79790688D01*
X119349500Y-79909311D01*
X119380200Y-80023884D01*
X119380201Y-80023887D01*
X119422865Y-80097781D01*
X119439511Y-80126613D01*
X119523387Y-80210489D01*
X119626114Y-80269799D01*
X119651544Y-80276613D01*
X119740688Y-80300500D01*
X119740691Y-80300500D01*
X119859311Y-80300500D01*
X119916597Y-80285149D01*
X119973886Y-80269799D01*
X120076613Y-80210489D01*
X120160489Y-80126613D01*
X120219799Y-80023886D01*
X120243907Y-79933914D01*
X120250500Y-79909311D01*
X120250500Y-79790688D01*
X120219799Y-79676115D01*
X120219798Y-79676112D01*
X120164423Y-79580201D01*
X120160489Y-79573387D01*
X120076613Y-79489511D01*
X120009045Y-79450500D01*
X119973887Y-79430201D01*
X119973884Y-79430200D01*
X119944512Y-79422330D01*
X119914759Y-79399500D01*
X119909864Y-79362318D01*
X119932694Y-79332565D01*
X119944512Y-79327670D01*
X119952862Y-79325432D01*
X119973886Y-79319799D01*
X120076613Y-79260489D01*
X120160489Y-79176613D01*
X120219799Y-79073886D01*
X120235149Y-79016597D01*
X120250500Y-78959311D01*
X120250500Y-78840688D01*
X120219799Y-78726115D01*
X120219798Y-78726112D01*
X120160488Y-78623386D01*
X120076613Y-78539511D01*
X119973887Y-78480201D01*
X119973884Y-78480200D01*
X119859312Y-78449500D01*
X119859309Y-78449500D01*
X119740691Y-78449500D01*
X119740688Y-78449500D01*
X119626115Y-78480200D01*
X119626112Y-78480201D01*
X119523386Y-78539511D01*
X119523386Y-78539512D01*
X119439512Y-78623386D01*
X119439511Y-78623386D01*
X119380201Y-78726112D01*
X119380200Y-78726115D01*
X119349500Y-78840688D01*
X112329480Y-78840688D01*
X112317139Y-78822218D01*
X112177782Y-78682861D01*
X112013914Y-78573368D01*
X112013911Y-78573366D01*
X112013910Y-78573366D01*
X111831836Y-78497949D01*
X111831827Y-78497947D01*
X111638544Y-78459500D01*
X111638541Y-78459500D01*
X111441459Y-78459500D01*
X111441455Y-78459500D01*
X111248172Y-78497947D01*
X111248163Y-78497949D01*
X111066089Y-78573366D01*
X110902218Y-78682860D01*
X110762860Y-78822218D01*
X110653366Y-78986089D01*
X110577949Y-79168163D01*
X110577947Y-79168172D01*
X110539500Y-79361455D01*
X109000499Y-79361455D01*
X108962051Y-79168165D01*
X108886632Y-78986086D01*
X108777139Y-78822218D01*
X108637782Y-78682861D01*
X108473914Y-78573368D01*
X108473911Y-78573366D01*
X108473910Y-78573366D01*
X108291836Y-78497949D01*
X108291827Y-78497947D01*
X108098544Y-78459500D01*
X108098541Y-78459500D01*
X107901459Y-78459500D01*
X107901455Y-78459500D01*
X107708172Y-78497947D01*
X107708163Y-78497949D01*
X107526089Y-78573366D01*
X107362218Y-78682860D01*
X107222860Y-78822218D01*
X107113366Y-78986089D01*
X107037949Y-79168163D01*
X107037947Y-79168172D01*
X106999500Y-79361455D01*
X100274940Y-79361455D01*
X100276613Y-79360489D01*
X100360489Y-79276613D01*
X100419799Y-79173886D01*
X100446595Y-79073884D01*
X100450500Y-79059311D01*
X100450500Y-78940688D01*
X100419799Y-78826115D01*
X100419798Y-78826112D01*
X100360488Y-78723386D01*
X100276613Y-78639511D01*
X100173887Y-78580201D01*
X100173884Y-78580200D01*
X100059312Y-78549500D01*
X100059309Y-78549500D01*
X99940691Y-78549500D01*
X99940688Y-78549500D01*
X99826115Y-78580200D01*
X99826112Y-78580201D01*
X99723386Y-78639511D01*
X99723386Y-78639512D01*
X99639512Y-78723386D01*
X99639511Y-78723386D01*
X99580201Y-78826112D01*
X99580200Y-78826115D01*
X99549500Y-78940688D01*
X92856298Y-78940688D01*
X92777139Y-78822218D01*
X92637782Y-78682861D01*
X92473914Y-78573368D01*
X92473911Y-78573366D01*
X92473910Y-78573366D01*
X92291836Y-78497949D01*
X92291827Y-78497947D01*
X92098544Y-78459500D01*
X92098541Y-78459500D01*
X91901459Y-78459500D01*
X91901455Y-78459500D01*
X91708172Y-78497947D01*
X91708163Y-78497949D01*
X91526089Y-78573366D01*
X91362218Y-78682860D01*
X91222860Y-78822218D01*
X91113366Y-78986089D01*
X91037949Y-79168163D01*
X91037947Y-79168172D01*
X90999500Y-79361455D01*
X89460499Y-79361455D01*
X89422051Y-79168165D01*
X89346632Y-78986086D01*
X89237139Y-78822218D01*
X89097782Y-78682861D01*
X88933914Y-78573368D01*
X88933911Y-78573366D01*
X88933910Y-78573366D01*
X88751836Y-78497949D01*
X88751827Y-78497947D01*
X88558544Y-78459500D01*
X88558541Y-78459500D01*
X88361459Y-78459500D01*
X88361455Y-78459500D01*
X88168172Y-78497947D01*
X88168163Y-78497949D01*
X87986089Y-78573366D01*
X87822218Y-78682860D01*
X87682860Y-78822218D01*
X87573366Y-78986089D01*
X87497949Y-79168163D01*
X87497947Y-79168172D01*
X87459500Y-79361455D01*
X80310526Y-79361455D01*
X80312891Y-79358372D01*
X80313208Y-79353407D01*
X80322672Y-79345625D01*
X80332694Y-79332565D01*
X80341360Y-79328629D01*
X80342918Y-79328096D01*
X80373886Y-79319799D01*
X80476613Y-79260489D01*
X80560489Y-79176613D01*
X80619799Y-79073886D01*
X80635149Y-79016597D01*
X80650500Y-78959311D01*
X80650500Y-78840688D01*
X80619799Y-78726115D01*
X80619798Y-78726112D01*
X80560488Y-78623386D01*
X80476613Y-78539511D01*
X80373887Y-78480201D01*
X80373884Y-78480200D01*
X80259312Y-78449500D01*
X80259309Y-78449500D01*
X80140691Y-78449500D01*
X80140688Y-78449500D01*
X80026115Y-78480200D01*
X80026112Y-78480201D01*
X79923386Y-78539511D01*
X79923386Y-78539512D01*
X79839512Y-78623386D01*
X79839511Y-78623386D01*
X79780201Y-78726112D01*
X79780200Y-78726115D01*
X79749500Y-78840688D01*
X68917738Y-78840688D01*
X69386193Y-78162275D01*
X69387040Y-78161088D01*
X69623722Y-77840688D01*
X79749500Y-77840688D01*
X79749500Y-77959311D01*
X79780200Y-78073884D01*
X79780201Y-78073887D01*
X79831258Y-78162319D01*
X79839511Y-78176613D01*
X79923387Y-78260489D01*
X80026114Y-78319799D01*
X80054758Y-78327474D01*
X80140688Y-78350500D01*
X80140691Y-78350500D01*
X80259311Y-78350500D01*
X80316597Y-78335149D01*
X80373886Y-78319799D01*
X80476613Y-78260489D01*
X80560489Y-78176613D01*
X80619799Y-78073886D01*
X80635149Y-78016597D01*
X80650500Y-77959311D01*
X80650500Y-77840688D01*
X81099500Y-77840688D01*
X81099500Y-77959311D01*
X81130200Y-78073884D01*
X81130201Y-78073887D01*
X81181258Y-78162319D01*
X81189511Y-78176613D01*
X81273387Y-78260489D01*
X81376114Y-78319799D01*
X81404758Y-78327474D01*
X81490688Y-78350500D01*
X81490691Y-78350500D01*
X81609311Y-78350500D01*
X81666597Y-78335149D01*
X81723886Y-78319799D01*
X81826613Y-78260489D01*
X81910489Y-78176613D01*
X81969799Y-78073886D01*
X81985149Y-78016597D01*
X82000500Y-77959311D01*
X82000500Y-77840688D01*
X82399500Y-77840688D01*
X82399500Y-77959311D01*
X82430200Y-78073884D01*
X82430201Y-78073887D01*
X82481258Y-78162319D01*
X82489511Y-78176613D01*
X82573387Y-78260489D01*
X82676114Y-78319799D01*
X82704758Y-78327474D01*
X82790688Y-78350500D01*
X82790691Y-78350500D01*
X82909311Y-78350500D01*
X82966597Y-78335149D01*
X83023886Y-78319799D01*
X83126613Y-78260489D01*
X83210489Y-78176613D01*
X83269799Y-78073886D01*
X83285149Y-78016597D01*
X83300500Y-77959311D01*
X83300500Y-77940688D01*
X97299500Y-77940688D01*
X97299500Y-78059311D01*
X97330200Y-78173884D01*
X97330201Y-78173887D01*
X97380201Y-78260488D01*
X97389511Y-78276613D01*
X97473387Y-78360489D01*
X97576114Y-78419799D01*
X97604758Y-78427474D01*
X97690688Y-78450500D01*
X97690691Y-78450500D01*
X97809311Y-78450500D01*
X97866597Y-78435149D01*
X97923886Y-78419799D01*
X98026613Y-78360489D01*
X98110489Y-78276613D01*
X98169799Y-78173886D01*
X98196595Y-78073884D01*
X98200500Y-78059311D01*
X98200500Y-77940688D01*
X98549500Y-77940688D01*
X98549500Y-78059311D01*
X98580200Y-78173884D01*
X98580201Y-78173887D01*
X98630201Y-78260488D01*
X98639511Y-78276613D01*
X98723387Y-78360489D01*
X98826114Y-78419799D01*
X98854758Y-78427474D01*
X98940688Y-78450500D01*
X98940691Y-78450500D01*
X99059311Y-78450500D01*
X99116597Y-78435149D01*
X99173886Y-78419799D01*
X99276613Y-78360489D01*
X99360489Y-78276613D01*
X99419799Y-78173886D01*
X99446595Y-78073884D01*
X99450500Y-78059311D01*
X99450500Y-77940688D01*
X99549500Y-77940688D01*
X99549500Y-78059311D01*
X99580200Y-78173884D01*
X99580201Y-78173887D01*
X99630201Y-78260488D01*
X99639511Y-78276613D01*
X99723387Y-78360489D01*
X99826114Y-78419799D01*
X99854758Y-78427474D01*
X99940688Y-78450500D01*
X99940691Y-78450500D01*
X100059311Y-78450500D01*
X100116597Y-78435149D01*
X100173886Y-78419799D01*
X100276613Y-78360489D01*
X100360489Y-78276613D01*
X100419799Y-78173886D01*
X100446595Y-78073884D01*
X100450500Y-78059311D01*
X100450500Y-77940688D01*
X100549500Y-77940688D01*
X100549500Y-78059311D01*
X100580200Y-78173884D01*
X100580201Y-78173887D01*
X100630201Y-78260488D01*
X100639511Y-78276613D01*
X100723387Y-78360489D01*
X100826114Y-78419799D01*
X100854758Y-78427474D01*
X100940688Y-78450500D01*
X100940691Y-78450500D01*
X101059311Y-78450500D01*
X101116597Y-78435149D01*
X101173886Y-78419799D01*
X101276613Y-78360489D01*
X101360489Y-78276613D01*
X101419799Y-78173886D01*
X101446595Y-78073884D01*
X101450500Y-78059311D01*
X101450500Y-77940688D01*
X101799500Y-77940688D01*
X101799500Y-78059311D01*
X101830200Y-78173884D01*
X101830201Y-78173887D01*
X101880201Y-78260488D01*
X101889511Y-78276613D01*
X101973387Y-78360489D01*
X102076114Y-78419799D01*
X102104758Y-78427474D01*
X102190688Y-78450500D01*
X102190691Y-78450500D01*
X102309311Y-78450500D01*
X102366597Y-78435149D01*
X102423886Y-78419799D01*
X102526613Y-78360489D01*
X102610489Y-78276613D01*
X102669799Y-78173886D01*
X102696595Y-78073884D01*
X102700500Y-78059311D01*
X102700500Y-77940688D01*
X102700499Y-77940687D01*
X102676243Y-77850161D01*
X102673704Y-77840688D01*
X116699500Y-77840688D01*
X116699500Y-77959311D01*
X116730200Y-78073884D01*
X116730201Y-78073887D01*
X116781258Y-78162319D01*
X116789511Y-78176613D01*
X116873387Y-78260489D01*
X116976114Y-78319799D01*
X117004758Y-78327474D01*
X117090688Y-78350500D01*
X117090691Y-78350500D01*
X117209311Y-78350500D01*
X117266597Y-78335149D01*
X117323886Y-78319799D01*
X117426613Y-78260489D01*
X117510489Y-78176613D01*
X117569799Y-78073886D01*
X117585149Y-78016597D01*
X117600500Y-77959311D01*
X117600500Y-77840688D01*
X117999500Y-77840688D01*
X117999500Y-77959311D01*
X118030200Y-78073884D01*
X118030201Y-78073887D01*
X118081258Y-78162319D01*
X118089511Y-78176613D01*
X118173387Y-78260489D01*
X118276114Y-78319799D01*
X118304758Y-78327474D01*
X118390688Y-78350500D01*
X118390691Y-78350500D01*
X118509311Y-78350500D01*
X118566597Y-78335149D01*
X118623886Y-78319799D01*
X118726613Y-78260489D01*
X118810489Y-78176613D01*
X118869799Y-78073886D01*
X118885149Y-78016597D01*
X118900500Y-77959311D01*
X118900500Y-77840688D01*
X119349500Y-77840688D01*
X119349500Y-77959311D01*
X119380200Y-78073884D01*
X119380201Y-78073887D01*
X119431258Y-78162319D01*
X119439511Y-78176613D01*
X119523387Y-78260489D01*
X119626114Y-78319799D01*
X119654758Y-78327474D01*
X119740688Y-78350500D01*
X119740691Y-78350500D01*
X119859311Y-78350500D01*
X119916597Y-78335149D01*
X119973886Y-78319799D01*
X120076613Y-78260489D01*
X120160489Y-78176613D01*
X120219799Y-78073886D01*
X120235149Y-78016597D01*
X120250500Y-77959311D01*
X120250500Y-77840688D01*
X120219799Y-77726115D01*
X120219798Y-77726112D01*
X120160488Y-77623386D01*
X120076613Y-77539511D01*
X119973887Y-77480201D01*
X119973884Y-77480200D01*
X119859312Y-77449500D01*
X119859309Y-77449500D01*
X119740691Y-77449500D01*
X119740688Y-77449500D01*
X119626115Y-77480200D01*
X119626112Y-77480201D01*
X119523386Y-77539511D01*
X119523386Y-77539512D01*
X119439512Y-77623386D01*
X119439511Y-77623386D01*
X119380201Y-77726112D01*
X119380200Y-77726115D01*
X119349500Y-77840688D01*
X118900500Y-77840688D01*
X118869799Y-77726115D01*
X118869798Y-77726112D01*
X118810488Y-77623386D01*
X118726613Y-77539511D01*
X118623887Y-77480201D01*
X118623884Y-77480200D01*
X118509312Y-77449500D01*
X118509309Y-77449500D01*
X118390691Y-77449500D01*
X118390688Y-77449500D01*
X118276115Y-77480200D01*
X118276112Y-77480201D01*
X118173386Y-77539511D01*
X118173386Y-77539512D01*
X118089512Y-77623386D01*
X118089511Y-77623386D01*
X118030201Y-77726112D01*
X118030200Y-77726115D01*
X117999500Y-77840688D01*
X117600500Y-77840688D01*
X117569799Y-77726115D01*
X117569798Y-77726112D01*
X117510488Y-77623386D01*
X117426613Y-77539511D01*
X117323887Y-77480201D01*
X117323884Y-77480200D01*
X117209312Y-77449500D01*
X117209309Y-77449500D01*
X117090691Y-77449500D01*
X117090688Y-77449500D01*
X116976115Y-77480200D01*
X116976112Y-77480201D01*
X116873386Y-77539511D01*
X116873386Y-77539512D01*
X116789512Y-77623386D01*
X116789511Y-77623386D01*
X116730201Y-77726112D01*
X116730200Y-77726115D01*
X116699500Y-77840688D01*
X102673704Y-77840688D01*
X102669799Y-77826115D01*
X102669799Y-77826114D01*
X102610489Y-77723387D01*
X102526613Y-77639511D01*
X102498684Y-77623386D01*
X102423887Y-77580201D01*
X102423884Y-77580200D01*
X102309312Y-77549500D01*
X102309309Y-77549500D01*
X102190691Y-77549500D01*
X102190688Y-77549500D01*
X102076115Y-77580200D01*
X102076112Y-77580201D01*
X101973386Y-77639511D01*
X101973386Y-77639512D01*
X101889512Y-77723386D01*
X101889511Y-77723386D01*
X101830201Y-77826112D01*
X101830200Y-77826115D01*
X101799500Y-77940688D01*
X101450500Y-77940688D01*
X101419799Y-77826115D01*
X101419798Y-77826112D01*
X101360488Y-77723386D01*
X101276613Y-77639511D01*
X101173887Y-77580201D01*
X101173884Y-77580200D01*
X101059312Y-77549500D01*
X101059309Y-77549500D01*
X100940691Y-77549500D01*
X100940688Y-77549500D01*
X100826115Y-77580200D01*
X100826112Y-77580201D01*
X100723386Y-77639511D01*
X100723386Y-77639512D01*
X100639512Y-77723386D01*
X100639511Y-77723386D01*
X100580201Y-77826112D01*
X100580200Y-77826115D01*
X100549500Y-77940688D01*
X100450500Y-77940688D01*
X100419799Y-77826115D01*
X100419798Y-77826112D01*
X100360488Y-77723386D01*
X100276613Y-77639511D01*
X100173887Y-77580201D01*
X100173884Y-77580200D01*
X100059312Y-77549500D01*
X100059309Y-77549500D01*
X99940691Y-77549500D01*
X99940688Y-77549500D01*
X99826115Y-77580200D01*
X99826112Y-77580201D01*
X99723386Y-77639511D01*
X99723386Y-77639512D01*
X99639512Y-77723386D01*
X99639511Y-77723386D01*
X99580201Y-77826112D01*
X99580200Y-77826115D01*
X99549500Y-77940688D01*
X99450500Y-77940688D01*
X99419799Y-77826115D01*
X99419798Y-77826112D01*
X99360488Y-77723386D01*
X99276613Y-77639511D01*
X99173887Y-77580201D01*
X99173884Y-77580200D01*
X99059312Y-77549500D01*
X99059309Y-77549500D01*
X98940691Y-77549500D01*
X98940688Y-77549500D01*
X98826115Y-77580200D01*
X98826112Y-77580201D01*
X98723386Y-77639511D01*
X98723386Y-77639512D01*
X98639512Y-77723386D01*
X98639511Y-77723386D01*
X98580201Y-77826112D01*
X98580200Y-77826115D01*
X98549500Y-77940688D01*
X98200500Y-77940688D01*
X98169799Y-77826115D01*
X98169798Y-77826112D01*
X98110488Y-77723386D01*
X98026613Y-77639511D01*
X97923887Y-77580201D01*
X97923884Y-77580200D01*
X97809312Y-77549500D01*
X97809309Y-77549500D01*
X97690691Y-77549500D01*
X97690688Y-77549500D01*
X97576115Y-77580200D01*
X97576112Y-77580201D01*
X97473386Y-77639511D01*
X97473386Y-77639512D01*
X97389512Y-77723386D01*
X97389511Y-77723386D01*
X97330201Y-77826112D01*
X97330200Y-77826115D01*
X97299500Y-77940688D01*
X83300500Y-77940688D01*
X83300500Y-77840688D01*
X83269799Y-77726115D01*
X83269798Y-77726112D01*
X83210488Y-77623386D01*
X83126613Y-77539511D01*
X83023887Y-77480201D01*
X83023884Y-77480200D01*
X82909312Y-77449500D01*
X82909309Y-77449500D01*
X82790691Y-77449500D01*
X82790688Y-77449500D01*
X82676115Y-77480200D01*
X82676112Y-77480201D01*
X82573386Y-77539511D01*
X82573386Y-77539512D01*
X82489512Y-77623386D01*
X82489511Y-77623386D01*
X82430201Y-77726112D01*
X82430200Y-77726115D01*
X82399500Y-77840688D01*
X82000500Y-77840688D01*
X81969799Y-77726115D01*
X81969798Y-77726112D01*
X81910488Y-77623386D01*
X81826613Y-77539511D01*
X81723887Y-77480201D01*
X81723884Y-77480200D01*
X81609312Y-77449500D01*
X81609309Y-77449500D01*
X81490691Y-77449500D01*
X81490688Y-77449500D01*
X81376115Y-77480200D01*
X81376112Y-77480201D01*
X81273386Y-77539511D01*
X81273386Y-77539512D01*
X81189512Y-77623386D01*
X81189511Y-77623386D01*
X81130201Y-77726112D01*
X81130200Y-77726115D01*
X81099500Y-77840688D01*
X80650500Y-77840688D01*
X80619799Y-77726115D01*
X80619798Y-77726112D01*
X80560488Y-77623386D01*
X80476613Y-77539511D01*
X80373887Y-77480201D01*
X80373884Y-77480200D01*
X80259312Y-77449500D01*
X80259309Y-77449500D01*
X80140691Y-77449500D01*
X80140688Y-77449500D01*
X80026115Y-77480200D01*
X80026112Y-77480201D01*
X79923386Y-77539511D01*
X79923386Y-77539512D01*
X79839512Y-77623386D01*
X79839511Y-77623386D01*
X79780201Y-77726112D01*
X79780200Y-77726115D01*
X79749500Y-77840688D01*
X69623722Y-77840688D01*
X70098229Y-77198342D01*
X70099092Y-77197211D01*
X70840609Y-76257663D01*
X70841588Y-76256464D01*
X71612641Y-75341113D01*
X71613612Y-75339996D01*
X72413528Y-74449642D01*
X72414553Y-74448537D01*
X73230521Y-73596617D01*
X73232156Y-73594991D01*
X73691749Y-73160017D01*
X73692326Y-73159480D01*
X74116929Y-72771722D01*
X74117567Y-72771152D01*
X74479566Y-72453768D01*
X74480256Y-72453176D01*
X74816853Y-72171432D01*
X74817742Y-72170706D01*
X75106515Y-71941469D01*
X75107523Y-71940694D01*
X75375899Y-71740164D01*
X75377159Y-71739255D01*
X75608097Y-71578307D01*
X75609512Y-71577360D01*
X75823756Y-71439568D01*
X75825432Y-71438539D01*
X76009736Y-71330593D01*
X76011661Y-71329525D01*
X76181770Y-71240259D01*
X76183995Y-71239164D01*
X76329942Y-71171999D01*
X76332497Y-71170912D01*
X76466025Y-71118529D01*
X76468916Y-71117498D01*
X76583067Y-71080867D01*
X76586304Y-71079950D01*
X76689807Y-71054452D01*
X76693374Y-71053714D01*
X76782109Y-71038768D01*
X76785924Y-71038281D01*
X76866137Y-71031258D01*
X76870241Y-71031072D01*
X76940958Y-71030832D01*
X76945197Y-71031001D01*
G37*
%TD.AperFunction*%
%TD*%
M02*
