M48
; DRILL file {KiCad 9.0.3} date 2026-09-01T23:47:08-0500
; FORMAT={-:-/ absolute / metric / decimal}
; #@! TF.CreationDate,2026-09-01T23:47:08-05:00
; #@! TF.GenerationSoftware,Kicad,Pcbnew,9.0.3
; #@! TF.FileFunction,Plated,1,4,PTH
FMAT,2
METRIC
; #@! TA.AperFunction,Plated,PTH,ViaDrill
T1C0.300
; #@! TA.AperFunction,Plated,PTH,ComponentDrill
T2C0.600
; #@! TA.AperFunction,Plated,PTH,ComponentDrill
T3C0.750
; #@! TA.AperFunction,Plated,PTH,ComponentDrill
T4C0.800
; #@! TA.AperFunction,Plated,PTH,ComponentDrill
T5C1.000
; #@! TA.AperFunction,Plated,PTH,ComponentDrill
T6C1.900
; #@! TA.AperFunction,Plated,PTH,ComponentDrill
T7C3.200
%
G90
G05
T1
X127.3Y-101.3
X128.617Y-100.459
X129.8Y-116.75
X133.2Y-108.3
X133.2Y-109.0
X133.7Y-101.6
X133.7Y-103.1
X134.325Y-109.6
X134.35Y-112.55
X135.025Y-97.4
X135.025Y-119.2
X135.025Y-120.6
X135.039Y-100.229
X135.742Y-89.006
X135.8Y-118.7
X136.174Y-94.287
X136.3Y-106.0
X136.3Y-106.8
X136.315Y-95.701
X136.4Y-114.9
X136.4Y-130.2
X136.5Y-87.6
X136.5Y-101.6
X136.5Y-103.1
X136.5Y-104.6
X136.55Y-128.2
X136.875Y-116.65
X136.975Y-114.175
X136.993Y-137.968
X137.05Y-110.75
X137.075Y-96.725
X137.296Y-123.641
X137.3Y-92.0
X137.4Y-109.8
X137.741Y-88.682
X137.786Y-132.221
X137.8Y-118.3
X137.914Y-97.979
X137.987Y-95.489
X138.1Y-97.2
X138.139Y-99.029
X138.209Y-112.234
X138.4Y-118.7
X139.15Y-125.05
X139.15Y-125.75
X139.15Y-126.55
X139.3Y-103.7
X139.4Y-96.2
X139.5Y-87.6
X139.5Y-93.325
X139.6Y-90.5
X139.85Y-120.15
X139.875Y-117.7
X139.9Y-89.5
X140.1Y-126.7
X140.289Y-108.954
X140.316Y-109.753
X140.539Y-106.931
X140.7Y-93.3
X140.7Y-113.7
X140.8Y-92.0
X140.8Y-94.7
X141.186Y-97.951
X141.2Y-139.6
X141.2Y-141.0
X141.2Y-142.4
X141.6Y-128.4
X141.6Y-129.1
X141.7Y-94.6
X141.727Y-109.042
X142.114Y-102.379
X142.25Y-120.8
X142.289Y-109.654
X142.296Y-131.561
X142.537Y-103.688
X142.6Y-139.6
X142.6Y-141.0
X142.6Y-142.4
X142.8Y-132.15
X142.838Y-90.583
X142.986Y-118.421
X143.064Y-127.286
X143.15Y-125.65
X143.15Y-131.55
X143.157Y-126.549
X143.3Y-108.7
X143.482Y-102.618
X143.55Y-123.35
X143.85Y-124.9
X143.85Y-125.65
X143.85Y-126.55
X143.872Y-134.486
X143.9Y-107.9
X143.99Y-135.45
X144.0Y-139.6
X144.0Y-141.0
X144.0Y-142.4
X144.091Y-106.891
X144.282Y-137.456
X144.5Y-133.95
X144.526Y-126.541
X144.648Y-115.348
X144.7Y-120.55
X145.179Y-121.956
X145.225Y-90.825
X145.225Y-92.075
X145.3Y-105.2
X145.39Y-99.4
X145.4Y-100.2
X145.5Y-142.4
X145.6Y-140.2
X145.775Y-113.369
X146.1Y-104.7
X146.1Y-105.851
X146.125Y-101.075
X146.2Y-88.5
X146.25Y-109.0
X146.5Y-138.9
X146.8Y-118.3
X146.8Y-133.7
X146.832Y-137.367
X146.86Y-116.55
X147.0Y-108.225
X147.0Y-109.0
X147.0Y-109.725
X147.018Y-96.127
X147.1Y-104.1
X147.398Y-120.75
X147.4Y-90.5
X147.45Y-112.6
X147.451Y-113.75
X147.793Y-88.507
X148.208Y-133.87
X148.582Y-124.799
X148.6Y-100.2
X148.61Y-100.97
X148.618Y-120.7
X148.63Y-99.4
X148.9Y-117.8
X149.0Y-93.9
X149.275Y-124.4
X149.3Y-117.4
X149.7Y-88.6
X149.95Y-125.2
X150.05Y-115.1
X150.15Y-131.11
X150.43Y-110.282
X150.478Y-109.483
X150.5Y-124.85
X150.5Y-125.6
X150.624Y-120.553
X150.76Y-111.01
X151.152Y-103.835
X151.226Y-121.169
X151.315Y-107.625
X151.55Y-109.6
X151.6Y-116.35
X151.925Y-98.5
X151.956Y-120.841
X152.015Y-108.848
X152.503Y-105.795
X152.6Y-99.125
X152.6Y-128.3
X152.6Y-129.05
X152.6Y-139.6
X152.6Y-141.0
X152.7Y-87.9
X152.8Y-102.95
X152.8Y-109.0
X152.85Y-104.35
X153.125Y-105.125
X153.5Y-94.5
X153.6Y-109.0
X153.712Y-106.416
X153.85Y-112.6
X154.0Y-139.6
X154.0Y-141.0
X154.05Y-134.775
X154.076Y-90.9
X154.082Y-107.179
X154.1Y-98.2
X154.15Y-102.2
X154.15Y-105.2
X154.15Y-115.7
X154.95Y-124.85
X154.952Y-125.551
X155.126Y-97.223
X155.3Y-92.2
X155.6Y-140.2
X156.0Y-123.5
X156.0Y-135.9
X156.025Y-135.0
X156.375Y-102.95
X156.375Y-104.45
X156.4Y-113.3
X156.4Y-116.4
X156.5Y-87.5
X156.8Y-92.2
X156.85Y-118.8
X157.611Y-93.995
X157.65Y-130.25
X157.77Y-104.45
X158.114Y-123.879
X158.425Y-112.7
X158.675Y-96.543
X158.7Y-95.0
X159.2Y-90.1
X159.3Y-91.7
X160.0Y-112.7
X161.05Y-90.9
X161.15Y-115.1
X161.15Y-115.95
X161.8Y-89.3
X162.0Y-107.1
X162.015Y-110.905
X162.03Y-109.64
X162.1Y-124.25
X162.275Y-118.425
X162.65Y-94.55
X162.85Y-117.0
X162.95Y-95.35
X163.2Y-115.1
X163.2Y-115.95
X163.3Y-106.0
X163.4Y-117.85
X163.4Y-124.25
X166.0Y-107.13
X166.07Y-110.76
T3
X123.4Y-81.9
X123.4Y-83.9
X123.4Y-85.9
X123.4Y-87.9
X123.4Y-92.2
X123.4Y-94.2
X123.4Y-96.2
X123.4Y-98.2
X123.4Y-119.8
X123.4Y-121.8
X123.4Y-123.8
X123.4Y-125.8
X123.4Y-130.1
X123.4Y-132.1
X123.4Y-136.4
X123.4Y-138.4
X170.6Y-81.9
X170.6Y-83.9
X170.6Y-85.9
X170.6Y-87.9
X170.6Y-92.2
X170.6Y-94.2
X170.6Y-96.2
X170.6Y-98.2
X170.6Y-119.8
X170.6Y-121.8
X170.6Y-123.8
X170.6Y-125.8
X170.6Y-130.1
X170.6Y-132.1
X170.6Y-136.4
X170.6Y-138.4
T4
X123.6Y-150.2
X125.6Y-150.2
X168.4Y-150.2
X170.4Y-150.2
T5
X130.03Y-152.71
X130.03Y-155.25
X130.03Y-157.79
X132.57Y-152.71
X132.57Y-155.25
X132.57Y-157.79
X135.11Y-152.71
X135.11Y-155.25
X135.11Y-157.79
X137.65Y-152.71
X137.65Y-155.25
X137.65Y-157.79
X141.5Y-156.7
X152.5Y-156.7
X156.35Y-152.76
X156.35Y-155.3
X156.35Y-157.84
X158.89Y-152.76
X158.89Y-155.3
X158.89Y-157.84
X161.43Y-152.76
X161.43Y-155.3
X161.43Y-157.84
X163.97Y-152.76
X163.97Y-155.3
X163.97Y-157.84
T6
X144.5Y-146.7
X149.5Y-146.7
T7
X124.6Y-75.8
X124.6Y-156.8
X169.4Y-75.8
X169.4Y-156.8
T2
G00X164.92Y-104.68
M15
G01X166.02Y-104.68
M16
G05
G00X164.92Y-113.32
M15
G01X166.02Y-113.32
M16
G05
G00X169.35Y-104.68
M15
G01X169.95Y-104.68
M16
G05
G00X169.35Y-113.32
M15
G01X169.95Y-113.32
M16
G05
M30
