%TF.GenerationSoftware,KiCad,Pcbnew,9.0.3*%
%TF.CreationDate,2026-09-01T23:47:06-05:00*%
%TF.ProjectId,Version2,56657273-696f-46e3-922e-6b696361645f,rev?*%
%TF.SameCoordinates,Original*%
%TF.FileFunction,Soldermask,Bot*%
%TF.FilePolarity,Negative*%
%FSLAX46Y46*%
G04 Gerber Fmt 4.6, Leading zero omitted, Abs format (unit mm)*
G04 Created by KiCad (PCBNEW 9.0.3) date 2026-09-01 23:47:06*
%MOMM*%
%LPD*%
G01*
G04 APERTURE LIST*
G04 Aperture macros list*
%AMRoundRect*
0 Rectangle with rounded corners*
0 $1 Rounding radius*
0 $2 $3 $4 $5 $6 $7 $8 $9 X,Y pos of 4 corners*
0 Add a 4 corners polygon primitive as box body*
4,1,4,$2,$3,$4,$5,$6,$7,$8,$9,$2,$3,0*
0 Add four circle primitives for the rounded corners*
1,1,$1+$1,$2,$3*
1,1,$1+$1,$4,$5*
1,1,$1+$1,$6,$7*
1,1,$1+$1,$8,$9*
0 Add four rect primitives between the rounded corners*
20,1,$1+$1,$2,$3,$4,$5,0*
20,1,$1+$1,$4,$5,$6,$7,0*
20,1,$1+$1,$6,$7,$8,$9,0*
20,1,$1+$1,$8,$9,$2,$3,0*%
G04 Aperture macros list end*
%ADD10R,1.000000X1.000000*%
%ADD11R,1.700000X1.700000*%
%ADD12C,1.700000*%
%ADD13C,0.650000*%
%ADD14O,2.100000X1.000000*%
%ADD15O,1.600000X1.000000*%
%ADD16RoundRect,0.250000X0.625000X-0.350000X0.625000X0.350000X-0.625000X0.350000X-0.625000X-0.350000X0*%
%ADD17O,1.750000X1.200000*%
%ADD18RoundRect,0.250000X-0.625000X0.350000X-0.625000X-0.350000X0.625000X-0.350000X0.625000X0.350000X0*%
%ADD19C,1.600000*%
%ADD20C,5.500000*%
%ADD21C,1.400000*%
%ADD22RoundRect,0.770000X0.980000X0.980000X-0.980000X0.980000X-0.980000X-0.980000X0.980000X-0.980000X0*%
%ADD23C,3.500000*%
%ADD24RoundRect,0.200000X0.200000X0.275000X-0.200000X0.275000X-0.200000X-0.275000X0.200000X-0.275000X0*%
%ADD25RoundRect,0.150000X0.512500X0.150000X-0.512500X0.150000X-0.512500X-0.150000X0.512500X-0.150000X0*%
%ADD26RoundRect,0.250000X-0.250000X-0.475000X0.250000X-0.475000X0.250000X0.475000X-0.250000X0.475000X0*%
%ADD27RoundRect,0.225000X0.250000X-0.225000X0.250000X0.225000X-0.250000X0.225000X-0.250000X-0.225000X0*%
%ADD28RoundRect,0.100000X0.425000X0.100000X-0.425000X0.100000X-0.425000X-0.100000X0.425000X-0.100000X0*%
%ADD29RoundRect,0.050000X0.050000X0.250000X-0.050000X0.250000X-0.050000X-0.250000X0.050000X-0.250000X0*%
%ADD30RoundRect,0.200000X-0.200000X-0.275000X0.200000X-0.275000X0.200000X0.275000X-0.200000X0.275000X0*%
%ADD31RoundRect,0.250000X-0.475000X0.250000X-0.475000X-0.250000X0.475000X-0.250000X0.475000X0.250000X0*%
%ADD32RoundRect,0.250000X0.250000X0.475000X-0.250000X0.475000X-0.250000X-0.475000X0.250000X-0.475000X0*%
%ADD33RoundRect,0.225000X-0.250000X0.225000X-0.250000X-0.225000X0.250000X-0.225000X0.250000X0.225000X0*%
%ADD34RoundRect,0.250000X0.475000X-0.250000X0.475000X0.250000X-0.475000X0.250000X-0.475000X-0.250000X0*%
%ADD35RoundRect,0.243750X-0.243750X-0.456250X0.243750X-0.456250X0.243750X0.456250X-0.243750X0.456250X0*%
%ADD36C,1.000000*%
%ADD37RoundRect,0.102000X0.800000X-0.350000X0.800000X0.350000X-0.800000X0.350000X-0.800000X-0.350000X0*%
%ADD38RoundRect,0.102000X0.900000X-0.600000X0.900000X0.600000X-0.900000X0.600000X-0.900000X-0.600000X0*%
%ADD39RoundRect,0.102000X0.750000X-0.800000X0.750000X0.800000X-0.750000X0.800000X-0.750000X-0.800000X0*%
%ADD40RoundRect,0.102000X1.100000X-0.600000X1.100000X0.600000X-1.100000X0.600000X-1.100000X-0.600000X0*%
%ADD41RoundRect,0.200000X0.275000X-0.200000X0.275000X0.200000X-0.275000X0.200000X-0.275000X-0.200000X0*%
%ADD42RoundRect,0.225000X-0.225000X-0.250000X0.225000X-0.250000X0.225000X0.250000X-0.225000X0.250000X0*%
%ADD43RoundRect,0.150000X-0.150000X0.512500X-0.150000X-0.512500X0.150000X-0.512500X0.150000X0.512500X0*%
%ADD44RoundRect,0.243750X0.243750X0.456250X-0.243750X0.456250X-0.243750X-0.456250X0.243750X-0.456250X0*%
%ADD45RoundRect,0.150000X0.350000X0.650000X-0.350000X0.650000X-0.350000X-0.650000X0.350000X-0.650000X0*%
G04 APERTURE END LIST*
D10*
%TO.C,TP14*%
X145095590Y-131771280D03*
%TD*%
%TO.C,TP13*%
X153005590Y-131601280D03*
%TD*%
%TO.C,TP12*%
X145255590Y-125681280D03*
%TD*%
%TO.C,TP11*%
X161025590Y-126401280D03*
%TD*%
%TO.C,TP10*%
X147025590Y-96131280D03*
%TD*%
%TO.C,TP9*%
X139675590Y-97961280D03*
%TD*%
%TO.C,TP8*%
X141185590Y-97951280D03*
%TD*%
%TO.C,TP7*%
X141195590Y-90571280D03*
%TD*%
%TO.C,TP6*%
X142595590Y-90561280D03*
%TD*%
%TO.C,TP5*%
X155185590Y-87791280D03*
%TD*%
%TO.C,TP4*%
X153535590Y-91721280D03*
%TD*%
D11*
%TO.C,J14*%
X158890000Y-157840000D03*
D12*
X158890000Y-155300000D03*
X158890000Y-152760000D03*
%TD*%
D13*
%TO.C,J1*%
X166000000Y-111890000D03*
X166000000Y-106110000D03*
D14*
X165470000Y-113320000D03*
D15*
X169650000Y-113320000D03*
D14*
X165470000Y-104680000D03*
D15*
X169650000Y-104680000D03*
%TD*%
D16*
%TO.C,J30*%
X123400000Y-138400000D03*
D17*
X123400000Y-136400000D03*
%TD*%
D16*
%TO.C,J9*%
X123400000Y-125800000D03*
D17*
X123400000Y-123800000D03*
X123400000Y-121800000D03*
X123400000Y-119800000D03*
%TD*%
D18*
%TO.C,J31*%
X170600000Y-136400000D03*
D17*
X170600000Y-138400000D03*
%TD*%
D19*
%TO.C,C44*%
X168400000Y-150200000D03*
X170400000Y-150200000D03*
%TD*%
D18*
%TO.C,J6*%
X170600000Y-119800000D03*
D17*
X170600000Y-121800000D03*
X170600000Y-123800000D03*
X170600000Y-125800000D03*
%TD*%
D11*
%TO.C,J15*%
X132570000Y-157790000D03*
D12*
X132570000Y-155250000D03*
X132570000Y-152710000D03*
%TD*%
D20*
%TO.C,H2*%
X124600000Y-75800000D03*
%TD*%
D18*
%TO.C,J13*%
X170600000Y-92200000D03*
D17*
X170600000Y-94200000D03*
X170600000Y-96200000D03*
X170600000Y-98200000D03*
%TD*%
D11*
%TO.C,J17*%
X130030000Y-157790000D03*
D12*
X130030000Y-155250000D03*
X130030000Y-152710000D03*
%TD*%
D11*
%TO.C,J16*%
X156350000Y-157840000D03*
D12*
X156350000Y-155300000D03*
X156350000Y-152760000D03*
%TD*%
D11*
%TO.C,J7*%
X163970000Y-157840000D03*
D12*
X163970000Y-155300000D03*
X163970000Y-152760000D03*
%TD*%
D19*
%TO.C,C45*%
X125600000Y-150200000D03*
X123600000Y-150200000D03*
%TD*%
D20*
%TO.C,H3*%
X124600000Y-156800000D03*
%TD*%
D18*
%TO.C,J27*%
X170600000Y-130100000D03*
D17*
X170600000Y-132100000D03*
%TD*%
D11*
%TO.C,J10*%
X161430000Y-157840000D03*
D12*
X161430000Y-155300000D03*
X161430000Y-152760000D03*
%TD*%
D16*
%TO.C,J26*%
X123400000Y-87900000D03*
D17*
X123400000Y-85900000D03*
X123400000Y-83900000D03*
X123400000Y-81900000D03*
%TD*%
D21*
%TO.C,J5*%
X152500000Y-156700000D03*
X141500000Y-156700000D03*
D22*
X144500000Y-146700000D03*
D23*
X149500000Y-146700000D03*
%TD*%
D20*
%TO.C,H1*%
X169400000Y-75800000D03*
%TD*%
D16*
%TO.C,J29*%
X123400000Y-132100000D03*
D17*
X123400000Y-130100000D03*
%TD*%
D18*
%TO.C,J19*%
X170600000Y-81900000D03*
D17*
X170600000Y-83900000D03*
X170600000Y-85900000D03*
X170600000Y-87900000D03*
%TD*%
D20*
%TO.C,H4*%
X169400000Y-156800000D03*
%TD*%
D16*
%TO.C,J18*%
X123400000Y-98200000D03*
D17*
X123400000Y-96200000D03*
X123400000Y-94200000D03*
X123400000Y-92200000D03*
%TD*%
D11*
%TO.C,J11*%
X135110000Y-157790000D03*
D12*
X135110000Y-155250000D03*
X135110000Y-152710000D03*
%TD*%
D11*
%TO.C,J8*%
X137650000Y-157790000D03*
D12*
X137650000Y-155250000D03*
X137650000Y-152710000D03*
%TD*%
D24*
%TO.C,R34*%
X135025000Y-96600000D03*
X133375000Y-96600000D03*
%TD*%
D25*
%TO.C,U12*%
X153137500Y-135250000D03*
X153137500Y-136200000D03*
X153137500Y-137150000D03*
X150862500Y-137150000D03*
X150862500Y-136200000D03*
X150862500Y-135250000D03*
%TD*%
D26*
%TO.C,C42*%
X136500000Y-118700000D03*
X138400000Y-118700000D03*
%TD*%
D27*
%TO.C,C46*%
X165800000Y-154800000D03*
X165800000Y-153250000D03*
%TD*%
D24*
%TO.C,R23*%
X139425000Y-127200000D03*
X137775000Y-127200000D03*
%TD*%
D28*
%TO.C,U13*%
X142275000Y-125850000D03*
X142275000Y-126550000D03*
D29*
X142350000Y-127350000D03*
X141850000Y-127350000D03*
X141350000Y-127350000D03*
X140850000Y-127350000D03*
D28*
X140925000Y-126550000D03*
X140925000Y-125850000D03*
D29*
X140850000Y-125050000D03*
X141350000Y-125050000D03*
X141850000Y-125050000D03*
X142350000Y-125050000D03*
%TD*%
D24*
%TO.C,R15*%
X150425000Y-127200000D03*
X148775000Y-127200000D03*
%TD*%
D30*
%TO.C,R30*%
X137575000Y-136500000D03*
X139225000Y-136500000D03*
%TD*%
D31*
%TO.C,C35*%
X155100000Y-133250000D03*
X155100000Y-135150000D03*
%TD*%
D30*
%TO.C,R17*%
X152575000Y-121200000D03*
X154225000Y-121200000D03*
%TD*%
%TO.C,R24*%
X139250000Y-128700000D03*
X140900000Y-128700000D03*
%TD*%
D24*
%TO.C,R20*%
X154925000Y-128700000D03*
X153275000Y-128700000D03*
%TD*%
D32*
%TO.C,C50*%
X138705590Y-125421280D03*
X136805590Y-125421280D03*
%TD*%
D30*
%TO.C,R16*%
X150275000Y-128700000D03*
X151925000Y-128700000D03*
%TD*%
D28*
%TO.C,U9*%
X153275000Y-125850000D03*
X153275000Y-126550000D03*
D29*
X153350000Y-127350000D03*
X152850000Y-127350000D03*
X152350000Y-127350000D03*
X151850000Y-127350000D03*
D28*
X151925000Y-126550000D03*
X151925000Y-125850000D03*
D29*
X151850000Y-125050000D03*
X152350000Y-125050000D03*
X152850000Y-125050000D03*
X153350000Y-125050000D03*
%TD*%
D24*
%TO.C,R31*%
X139225000Y-138000000D03*
X137575000Y-138000000D03*
%TD*%
D33*
%TO.C,C23*%
X158675000Y-90075000D03*
X158675000Y-91625000D03*
%TD*%
D34*
%TO.C,C36*%
X155100000Y-138550000D03*
X155100000Y-136650000D03*
%TD*%
D24*
%TO.C,R29*%
X140900000Y-123700000D03*
X139250000Y-123700000D03*
%TD*%
D35*
%TO.C,D5*%
X136462500Y-121200000D03*
X138337500Y-121200000D03*
%TD*%
D33*
%TO.C,C34*%
X149100000Y-133425000D03*
X149100000Y-134975000D03*
%TD*%
D36*
%TO.C,J12*%
X128245590Y-113961280D03*
X128245590Y-105961280D03*
D37*
X139245590Y-106761280D03*
X139245590Y-107861280D03*
X139245590Y-108961280D03*
X139245590Y-110061280D03*
X139245590Y-111161280D03*
X139245590Y-112261280D03*
X139245590Y-113361280D03*
X139245590Y-114461280D03*
X139245590Y-115561280D03*
D38*
X137945590Y-116761280D03*
D39*
X138195590Y-102161280D03*
D40*
X128645590Y-116761280D03*
X128645590Y-101261280D03*
%TD*%
D41*
%TO.C,R8*%
X153400000Y-99125000D03*
X153400000Y-97475000D03*
%TD*%
D24*
%TO.C,R28*%
X143900000Y-128700000D03*
X142250000Y-128700000D03*
%TD*%
D42*
%TO.C,C29*%
X137225000Y-94700000D03*
X138775000Y-94700000D03*
%TD*%
D27*
%TO.C,C49*%
X128200000Y-154750000D03*
X128200000Y-153200000D03*
%TD*%
D30*
%TO.C,R27*%
X143750000Y-127200000D03*
X145400000Y-127200000D03*
%TD*%
D43*
%TO.C,U11*%
X160950000Y-119912500D03*
X161900000Y-119912500D03*
X162850000Y-119912500D03*
X162850000Y-122187500D03*
X160950000Y-122187500D03*
%TD*%
D42*
%TO.C,C21*%
X155250000Y-91600000D03*
X156800000Y-91600000D03*
%TD*%
D24*
%TO.C,R26*%
X149225000Y-138000000D03*
X147575000Y-138000000D03*
%TD*%
%TO.C,R21*%
X151925000Y-123700000D03*
X150275000Y-123700000D03*
%TD*%
D26*
%TO.C,C22*%
X137050000Y-87600000D03*
X138950000Y-87600000D03*
%TD*%
D30*
%TO.C,R36*%
X133375000Y-99600000D03*
X135025000Y-99600000D03*
%TD*%
D31*
%TO.C,C39*%
X145100000Y-133250000D03*
X145100000Y-135150000D03*
%TD*%
D42*
%TO.C,C28*%
X137225000Y-96200000D03*
X138775000Y-96200000D03*
%TD*%
D26*
%TO.C,C37*%
X142325000Y-123500000D03*
X144225000Y-123500000D03*
%TD*%
D41*
%TO.C,R7*%
X151925000Y-99125000D03*
X151925000Y-97475000D03*
%TD*%
D42*
%TO.C,C24*%
X146225000Y-89200000D03*
X147775000Y-89200000D03*
%TD*%
D33*
%TO.C,C25*%
X158100000Y-94925000D03*
X158100000Y-96475000D03*
%TD*%
D26*
%TO.C,C31*%
X153350000Y-123500000D03*
X155250000Y-123500000D03*
%TD*%
%TO.C,C32*%
X160950000Y-117850000D03*
X162850000Y-117850000D03*
%TD*%
%TO.C,C20*%
X137050000Y-90600000D03*
X138950000Y-90600000D03*
%TD*%
D44*
%TO.C,D4*%
X157537500Y-121200000D03*
X155662500Y-121200000D03*
%TD*%
D24*
%TO.C,R37*%
X135025000Y-118400000D03*
X133375000Y-118400000D03*
%TD*%
D27*
%TO.C,C48*%
X139450000Y-154750000D03*
X139450000Y-153200000D03*
%TD*%
D30*
%TO.C,R22*%
X147575000Y-136500000D03*
X149225000Y-136500000D03*
%TD*%
D45*
%TO.C,L3*%
X142975000Y-133550000D03*
X140975000Y-133550000D03*
%TD*%
D25*
%TO.C,U14*%
X143137500Y-135250000D03*
X143137500Y-136200000D03*
X143137500Y-137150000D03*
X140862500Y-137150000D03*
X140862500Y-136200000D03*
X140862500Y-135250000D03*
%TD*%
D24*
%TO.C,R33*%
X135025000Y-98100000D03*
X133375000Y-98100000D03*
%TD*%
%TO.C,R25*%
X141425000Y-121200000D03*
X139775000Y-121200000D03*
%TD*%
D45*
%TO.C,L2*%
X153000000Y-133500000D03*
X151000000Y-133500000D03*
%TD*%
D30*
%TO.C,R35*%
X133375000Y-119900000D03*
X135025000Y-119900000D03*
%TD*%
D26*
%TO.C,C33*%
X160950000Y-124250000D03*
X162850000Y-124250000D03*
%TD*%
D33*
%TO.C,C38*%
X139100000Y-133425000D03*
X139100000Y-134975000D03*
%TD*%
D27*
%TO.C,C47*%
X154550000Y-154800000D03*
X154550000Y-153250000D03*
%TD*%
D34*
%TO.C,C40*%
X145100000Y-138550000D03*
X145100000Y-136650000D03*
%TD*%
D24*
%TO.C,R32*%
X135025000Y-121400000D03*
X133375000Y-121400000D03*
%TD*%
D30*
%TO.C,R18*%
X154775000Y-127200000D03*
X156425000Y-127200000D03*
%TD*%
M02*
